<?xml version="1.0" encoding="UTF-8" standalone="no"?>
<!DOCTYPE svg  PUBLIC '-//W3C//DTD SVG 1.1//EN'  'http://www.w3.org/Graphics/SVG/1.1/DTD/svg11.dtd'>
<svg xmlns="http://www.w3.org/2000/svg">
<defs>
<font id="LeagueGothic-Regular" horiz-adv-x="354">
<font-face underline-position="-50" font-weight="400" descent="-200" panose-1="0 0 5 0 0 0 0 0 0 0" units-per-em="1000" unicode-range="U+0020-2212" bbox="-32 -250 777 930" x-height="547" underline-thickness="50" font-family="LeagueGothic" ascent="800" cap-height="735"/>
<missing-glyph horiz-adv-x="1000"/>
<glyph glyph-name=".notdef" horiz-adv-x="1000"/>
<glyph glyph-name=".null" horiz-adv-x="0"/>
<glyph glyph-name="nonmarkingreturn" horiz-adv-x="333"/>
<glyph glyph-name="space" horiz-adv-x="154" unicode=" "/>
<glyph glyph-name="exclam" horiz-adv-x="189" unicode="!" d="M42 111h105v-111h-105v111zM36 735h117l-27 -537h-63z"/>
<glyph glyph-name="quotedbl" horiz-adv-x="260" unicode='&quot;' d="M177 466l-15 269h105l-15 -269h-75zM53 466l-15 269h105l-15 -269h-75z"/>
<glyph glyph-name="numbersign" horiz-adv-x="602" unicode="#" d="M230 309h127l18 126h-127zM37 309h97l18 126h-96l13 95h96l28 205h96l-28 -205h127l28 205h96l-28 -205h94l-13 -95h-94l-18 -126h93l-13 -95h-93l-29 -214h-96l29 214h-127l-29 -214h-96l29 214h-97z"/>
<glyph glyph-name="dollar" horiz-adv-x="338" unicode="$" d="M200 795v-61q54 -5 84 -47q24 -33 31 -91l-94 -12q-8 61 -43 61h-2q-21 0 -31 -25t-10 -54q0 -37 28 -84q17 -29 56 -81q3 -4 34 -48q40 -57 58 -110q9 -30 9 -62q0 -74 -26 -118q-32 -55 -94 -62v-106h-60v108q-61 11 -92 61q-28 46 -30 111l94 6q2 -40 16 -63 q16 -28 47 -28q23 0 35 28q10 23 10 62q0 36 -28 85q-18 28 -27 41q-37 48 -63 86q-42 61 -57 111q-10 29 -10 61q0 60 22 103q26 51 83 64v64h60z"/>
<glyph glyph-name="percent" horiz-adv-x="489" unicode="%" d="M403 290q0 12 -7 23q-3 4 -10 4q-11 0 -17 -14q-2 -8 -1 -13v-213q-1 -13 7 -23q3 -5 11 -5q9 0 15 14q2 8 2 14v213zM463 77q-1 -45 -33 -72q-14 -13 -44 -13q-47 0 -69 42q-9 18 -9 43v213q0 45 33 73q14 13 45 13q44 0 67 -43q8 -18 10 -43v-213zM122 658q0 12 -7 23 q-3 4 -10 4q-11 0 -17 -14q-2 -8 -1 -13v-213q-2 -27 18 -27q17 0 17 27v213zM77 0l270 735h64l-267 -735h-67zM182 445q-1 -46 -33 -73q-14 -13 -44 -13q-48 0 -69 43q-9 18 -9 43v213q0 44 33 72q14 13 45 13q44 0 67 -43q8 -17 10 -42v-213z"/>
<glyph glyph-name="ampersand" horiz-adv-x="417" unicode="&amp;" d="M238 128q-50 80 -85 144q-14 -22 -22 -65q-3 -16 -3 -37q0 -40 15 -63q13 -21 34 -21q13 0 24 6t18 13.5t19 22.5zM225 586v7q0 33 -14 53q-8 11 -24 11q-27 0 -35 -37q-3 -15 -3 -36q0 -31 7 -60q5 -25 20 -61q49 76 49 123zM397 319q-3 -37 -11 -74q-13 -59 -34 -101 q18 -20 28 -26q13 -10 17 -11v-115q-5 0 -14 4q-19 7 -55 34q-16 12 -33 30q-60 -68 -123 -68q-64 0 -106 49q-42 48 -42 113q0 39 13.5 80t28.5 66.5t41 66.5q-52 107 -52 216q1 87 54 135q26 25 78 25q85 0 115 -80q14 -38 14 -76q0 -52 -28 -105q-28 -54 -72 -111 q41 -93 72 -139q10 28 23 103z"/>
<glyph glyph-name="quotesingle" horiz-adv-x="151" unicode="&apos;" d="M43 466l-15 269h105l-15 -269h-75z"/>
<glyph glyph-name="parenleft" horiz-adv-x="274" unicode="(" d="M254 735q-67 -96 -106 -249q-20 -78 -20 -171q0 -155 63 -303q28 -66 63 -116l-79 -41q-80 126 -121 283q-22 81 -22 177q0 158 71 324q32 75 72 137z"/>
<glyph glyph-name="parenright" horiz-adv-x="274" unicode=")" d="M99 776q79 -128 121 -283q22 -82 22 -178q0 -156 -72 -324q-32 -74 -71 -136l-79 41q65 94 106 249q20 78 20 170q0 151 -63 303q-29 64 -63 117z"/>
<glyph glyph-name="asterisk" horiz-adv-x="331" unicode="*" d="M128 735h75l-9 -86l80 34l21 -72l-84 -17l56 -67l-64 -39l-38 74l-37 -74l-64 39l56 67l-84 17l21 72l80 -34z"/>
<glyph glyph-name="plus" horiz-adv-x="518" unicode="+" d="M36 401h181v169h84v-169h181v-84h-181v-169h-84v169h-181v84z"/>
<glyph glyph-name="comma" horiz-adv-x="151" unicode="," d="M127 0l-55 -130h-50l35 130h-35v111h105v-111z"/>
<glyph glyph-name="hyphen" horiz-adv-x="217" unicode="-" d="M36 317h145v-95h-145v95z"/>
<glyph glyph-name="period" horiz-adv-x="157" unicode="." d="M26 111h105v-111h-105v111z"/>
<glyph glyph-name="slash" horiz-adv-x="352" unicode="/" d="M269 735h79l-262 -807h-82z"/>
<glyph glyph-name="zero" d="M213 584q0 29 -14 46q-8 8 -22 8q-24 0 -32 -27q-4 -11 -4 -27v-433q0 -29 15 -46q8 -8 21 -8q25 0 32 27q4 9 4 27v433zM321 151q-2 -46 -18 -80q-15 -33 -43 -54q-31 -25 -83 -25q-53 0 -84 25q-27 20 -42 54q-16 34 -18 80v433q2 45 18 79q16 35 42 55q33 25 84 25 q50 0 83 -25q28 -21 43 -55q16 -34 18 -79v-433z" unicode="0"/>
<glyph glyph-name="one" horiz-adv-x="232" unicode="1" d="M12 576v69q51 10 91 52q14 17 24 38h65v-735h-108v576h-72z"/>
<glyph glyph-name="two" horiz-adv-x="357" unicode="2" d="M30 502v51q0 85 28 132q35 58 116 58q78 0 114 -53q30 -45 30 -130q0 -98 -63 -247q-43 -100 -106 -206h171v-107h-293v107q48 74 90 155q38 72 62 145q30 89 31 146q0 40 -6 60q-9 30 -30 30t-29 -27q-7 -24 -7 -63v-51h-108z"/>
<glyph glyph-name="three" horiz-adv-x="335" unicode="3" d="M112 332v90q63 4 75 33q7 14 7 39v59q0 44 -4 63q-7 32 -30 32q-20 0 -25 -25q-7 -28 -7 -100h-106q0 95 19 142q32 78 119 78q86 0 121 -72q19 -39 19 -86q0 -142 -52 -194l-1 -1q62 -49 62 -202q0 -10 -1 -21q-2 -37 -18 -84q-21 -55 -63 -78q-23 -13 -58 -13 q-89 0 -122 79q-21 49 -21 141h106q0 -70 9 -99q8 -26 28 -26q23 0 30 31q4 18 4 62t1 63q0 56 -30 76q-20 12 -53 13h-9z"/>
<glyph glyph-name="four" horiz-adv-x="334" unicode="4" d="M104 255h75v252h-6l-6 -22zM179 160h-167v95l158 480h108v-480h50v-95h-50v-160h-99v160z"/>
<glyph glyph-name="five" horiz-adv-x="344" unicode="5" d="M210 348q0 54 -34 54q-15 0 -30 -20q-12 -18 -12 -34h-91v387h261v-107h-168v-153q21 16 40 22q11 5 22 3q71 0 102 -67q18 -39 18 -85v-164q0 -78 -21 -121q-34 -71 -120 -71q-88 0 -120 75q-21 48 -21 147h108v-29q0 -57 7 -77q7 -22 26 -22q17 0 25 21q8 22 8 77v164z "/>
<glyph glyph-name="six" horiz-adv-x="342" unicode="6" d="M140 119q0 -10 8.5 -21.5t24.5 -11.5q15 0 24 12t9 21v220q0 9 -9 21t-24 12t-23.5 -9.5t-9.5 -20.5v-223zM314 151q0 -53 -21 -92q-35 -67 -120 -67t-120 67q-21 39 -21 92v418q0 68 20 107q35 67 121 67t121 -67q20 -39 20 -107v-46h-108q0 76 -5 100q-5 26 -28 26 q-20 0 -26 -19q-7 -18 -7 -61v-131q31 18 54 18q72 0 102 -62q18 -37 18 -93v-150z"/>
<glyph glyph-name="seven" horiz-adv-x="288" unicode="7" d="M166 628h-162v107h272v-108l-108 -627h-112z"/>
<glyph glyph-name="eight" horiz-adv-x="340" unicode="8" d="M209 200q0 63 -5 98q-6 32 -34 32t-33 -32q-5 -24 -5 -83q0 -75 8 -99q7 -25 30 -25q28 0 34 29q5 32 5 80zM202 547q0 48 -5 76q-6 25 -27 25q-18 0 -24 -22q-7 -22 -7 -88q0 -55 5 -75q4 -27 26 -27q21 0 27 27q5 28 5 84zM314 157q0 -22 -6 -51q-9 -45 -38 -75 q-37 -39 -100 -39t-100 39q-29 30 -38 75q-6 29 -6 51v86q0 92 56 145q-50 50 -50 135v62q0 47 19 86q35 72 119 72q85 0 120 -72q18 -37 18 -86v-62q0 -85 -50 -135q56 -53 56 -145v-86z"/>
<glyph glyph-name="nine" horiz-adv-x="342" unicode="9" d="M202 616q0 10 -8.5 21.5t-24.5 11.5q-15 0 -24 -12t-9 -21v-213q0 -9 9 -21t24 -12t23.5 9.5t9.5 20.5v216zM28 584q0 53 21 93q36 66 120 66t120 -66q21 -40 21 -93v-418q0 -68 -20 -106q-35 -68 -121 -68t-121 68q-20 38 -20 106v46h108q0 -76 5 -100q5 -26 28 -26 q20 0 27 19q6 19 6 61v138q-31 -18 -54 -18q-72 0 -102 62q-18 37 -18 93v143z"/>
<glyph glyph-name="colon" horiz-adv-x="177" unicode=":" d="M36 111h105v-111h-105v111zM36 547h105v-111h-105v111z"/>
<glyph glyph-name="semicolon" horiz-adv-x="177" unicode=";" d="M141 0l-55 -130h-50l35 130h-35v111h105v-111zM36 547h105v-111h-105v111z"/>
<glyph glyph-name="less" horiz-adv-x="517" unicode="&lt;" d="M36 395l445 232v-97l-341 -174l341 -174v-97l-445 232v78z"/>
<glyph glyph-name="equal" horiz-adv-x="517" unicode="=" d="M36 317h445v-84h-445v84zM36 506h445v-84h-445v84z"/>
<glyph glyph-name="greater" horiz-adv-x="517" unicode="&gt;" d="M481 317l-445 -232v97l341 174l-341 174v97l445 -232v-78z"/>
<glyph glyph-name="question" horiz-adv-x="315" unicode="?" d="M97 111h105v-111h-105v111zM103 198v125q0 71 22 132q13 35 45 89q21 35 26 55q2 13 -4 28q-9 18 -29 18q-23 0 -43 -27q-12 -18 -21 -44l-87 41q11 34 47 75q43 49 103 49h3q75 -1 108 -56q22 -37 22 -84q0 -40 -39 -107q-1 -2 -8 -14t-11 -18q-24 -42 -35 -84 q-6 -26 -6 -53v-125h-93z"/>
<glyph glyph-name="at" horiz-adv-x="426" unicode="@" d="M308 502q0 26 -24 26q-23 0 -23 -26v-222q0 -26 23 -26q24 0 24 26v222zM398 195h-80l-10 27q-10 -18 -30 -28q-12 -5 -25 -5q-71 0 -71 84v237q0 83 71 83q23 0 42 -17q10 -10 13 -16v22q0 25 -18 47q-26 30 -75 30q-48 0 -74 -30q-19 -23 -19 -47v-434q0 -26 19 -46 q25 -29 74 -29q57 0 82 31l74 -42q-53 -70 -156 -70q-96 0 -146 61q-37 44 -37 95v434q0 54 37 99q49 62 146 62q96 0 147 -62q36 -45 36 -99v-387z"/>
<glyph glyph-name="A" horiz-adv-x="374" unicode="A" d="M193 496l-3 19h-6l-3 -19l-31 -232h74zM10 0l111 735h132l111 -735h-105l-20 150h-104l-20 -150h-105z"/>
<glyph glyph-name="B" horiz-adv-x="364" unicode="B" d="M148 107h8q25 0 40 11q32 23 32 102t-32 102q-15 11 -40 11h-8v-226zM148 432h5q27 0 43 11q32 21 32 87t-32 87q-16 11 -43 11h-5v-196zM40 0v735h95q101 0 147 -43q50 -47 50 -152q0 -54 -14 -85q-14 -32 -53 -67q40 -22 63 -90q12 -34 12 -90q0 -89 -35 -142 q-41 -62 -132 -66h-133z"/>
<glyph glyph-name="C" horiz-adv-x="346" unicode="C" d="M321 252v-101q-2 -46 -18 -80q-15 -33 -43 -54q-31 -25 -83 -25q-53 0 -84 25q-27 20 -42 54q-16 34 -18 80v433q2 45 18 79q16 35 42 55q33 25 84 25q50 0 83 -25q28 -21 43 -55q16 -34 18 -79v-101h-101v101q0 29 -16 46q-8 8 -25 8q-23 0 -33 -27q-3 -8 -5 -27v-433 q1 -29 17 -46q8 -8 21 -8q28 0 37 27q4 9 4 27v101h101z"/>
<glyph glyph-name="D" horiz-adv-x="372" unicode="D" d="M148 108q31 0 46 7.5t23 32.5q9 29 10 78q1 35 1 142t-1 142q-1 47 -10 78q-8 24 -23 31.5t-46 7.5v-519zM40 0v735h85q76 0 119 -17.5t64 -58.5q20 -39 26 -105.5t6 -186.5t-6 -186t-26 -105q-21 -41 -64 -58.5t-119 -17.5h-85z"/>
<glyph glyph-name="E" horiz-adv-x="307" unicode="E" d="M40 735h247v-111h-139v-193h100v-118h-100v-202h139v-111h-247v735z"/>
<glyph glyph-name="F" horiz-adv-x="301" unicode="F" d="M297 624h-149v-193h100v-111h-100v-320h-108v735h257v-111z"/>
<glyph glyph-name="G" horiz-adv-x="360" unicode="G" d="M213 471v113q0 29 -14 46q-8 8 -22 8q-24 0 -32 -27q-4 -11 -4 -27v-442q0 -30 15 -46q8 -8 21 -8q25 0 32 27q4 9 4 27v133h-43v91h151v-366h-64l-13 35q-34 -43 -84 -43q-49 0 -77 25q-25 21 -38 54q-12 32 -12 71v9v433q2 45 18 79q16 35 42 55q33 25 84 25 q50 0 83 -25q28 -21 43 -55q16 -34 18 -79v-113h-108z"/>
<glyph glyph-name="H" horiz-adv-x="380" unicode="H" d="M232 320h-84v-320h-108v735h108v-304h84v304h108v-735h-108v320z"/>
<glyph glyph-name="I" horiz-adv-x="188" unicode="I" d="M40 735h108v-735h-108v735z"/>
<glyph glyph-name="J" horiz-adv-x="207" unicode="J" d="M6 99q4 -1 11 -1q23 0 38 19q9 11 9 36v582h108v-599q0 -66 -35 -104q-37 -40 -112 -40q-3 0 -9 0.5t-10 0.5v106z"/>
<glyph glyph-name="K" horiz-adv-x="375" unicode="K" d="M148 735v-257h4l5 12l90 245h105l-99 -242l112 -493h-105l-75 320l-3 15h-3l-6 -15l-25 -60v-260h-108v735h108z"/>
<glyph glyph-name="L" horiz-adv-x="295" unicode="L" d="M40 735h108v-635h143v-100h-251v735z"/>
<glyph glyph-name="M" horiz-adv-x="484" unicode="M" d="M219 0l-69 462l-4 31h-6v-493h-100v735h132l64 -336l5 -39h2l5 39l64 336h132v-735h-100v493h-6l-4 -31l-69 -462h-46z"/>
<glyph glyph-name="N" horiz-adv-x="395" unicode="N" d="M154 383l-9 34h-6v-417h-99v735h96l105 -383l9 -34h6v417h99v-735h-96z"/>
<glyph glyph-name="O" d="M213 584q0 29 -14 46q-8 8 -22 8q-24 0 -32 -27q-4 -11 -4 -27v-433q0 -29 15 -46q8 -8 21 -8q25 0 32 27q4 9 4 27v433zM321 151q-2 -46 -18 -80q-15 -33 -43 -54q-31 -25 -83 -25q-53 0 -84 25q-27 20 -42 54q-16 34 -18 80v433q2 45 18 79q16 35 42 55q33 25 84 25 q50 0 83 -25q28 -21 43 -55q16 -34 18 -79v-433z" unicode="O"/>
<glyph glyph-name="P" horiz-adv-x="352" unicode="P" d="M148 404q50 0 66 23q15 20 15 84q0 65 -15 88q-17 26 -66 26v-221zM40 735h108q81 0 130 -46q60 -57 60 -174q0 -116 -60 -173q-51 -48 -130 -48v-294h-108v735z"/>
<glyph glyph-name="Q" horiz-adv-x="356" unicode="Q" d="M213 584q0 29 -14 46q-8 8 -22 8q-24 0 -32 -27q-4 -11 -4 -27v-433q0 -29 15 -46q8 -8 21 -8q25 0 32 27q4 9 4 27v433zM321 151q0 -25 -9 -57q-2 -8 -13 -32q16 -21 43 -26v-92q-76 0 -111 57q-27 -9 -54 -9q-53 0 -84 25q-27 20 -42 54q-16 34 -18 80v433q2 45 18 79 q16 35 42 55q33 25 84 25q50 0 83 -25q28 -21 43 -55q16 -34 18 -79v-433z"/>
<glyph glyph-name="R" horiz-adv-x="361" unicode="R" d="M148 410q33 0 51 16q29 25 29 93q0 69 -29 94q-17 15 -51 15v-218zM233 0l-56 310h-29v-310h-108v735h108q95 0 139.5 -53t44.5 -159q0 -126 -60 -167l69 -356h-108z"/>
<glyph glyph-name="S" horiz-adv-x="343" unicode="S" d="M219 538q0 48 -8 72q-12 34 -35 34q-37 -1 -37 -73q0 -32 27 -79q9 -15 58 -88q48 -71 69 -112q32 -62 32 -115q0 -83 -31 -129q-38 -56 -119 -56q-94 0 -130 66q-27 49 -27 148l106 10q0 -59 9 -85q12 -40 42 -40q44 0 44 81q0 30 -28 81q-3 4 -12.5 19.5t-15.5 24.5 q-34 48 -68 101q-37 57 -53 114q-9 28 -9 59q0 70 32 116q39 55 109 56h3q85 0 121 -65q27 -51 27 -130z"/>
<glyph glyph-name="T" horiz-adv-x="316" unicode="T" d="M2 624v111h312v-111h-102v-624h-108v624h-102z"/>
<glyph glyph-name="U" horiz-adv-x="366" unicode="U" d="M327 735v-584q-2 -46 -18 -80q-15 -33 -43 -54q-31 -25 -83 -25q-53 0 -84 25q-27 20 -42 54q-16 34 -18 80v584h108v-584q0 -29 15 -46q8 -8 21 -8q25 0 32 27q4 9 4 27v584h108z"/>
<glyph glyph-name="V" horiz-adv-x="350" unicode="V" d="M236 735h105l-112 -735h-108l-112 735h105l54 -404l4 -31h6l4 31z"/>
<glyph glyph-name="W" horiz-adv-x="506" unicode="W" d="M195 0h-84l-99 735h100l43 -382l2 -24h8l3 24l46 382h78l46 -382l3 -24h8l2 24l43 382h100l-99 -735h-84l-50 348l-6 43h-4l-6 -43z"/>
<glyph glyph-name="X" horiz-adv-x="360" unicode="X" d="M114 0h-106l119 386l-117 349h106l59 -186l3 -9h4l3 9l59 186h106l-117 -349l119 -386h-106l-62 219l-2 9h-4l-2 -9z"/>
<glyph glyph-name="Y" horiz-adv-x="342" unicode="Y" d="M167 500l3 -7h2l3 7l54 235h106l-110 -422v-313h-108v313l-110 422h106z"/>
<glyph glyph-name="Z" horiz-adv-x="306" unicode="Z" d="M10 116l169 512h-145v107h262v-107l-172 -521h172v-107h-286v116z"/>
<glyph glyph-name="bracketleft" horiz-adv-x="263" unicode="[" d="M235 639h-99v-647h99v-96h-195v839h195v-96z"/>
<glyph glyph-name="backslash" horiz-adv-x="387" unicode="\" d="M383 -88h-82l-297 914h79z"/>
<glyph glyph-name="bracketright" horiz-adv-x="263" unicode="]" d="M28 735h195v-839h-195v96h99v647h-99v96z"/>
<glyph glyph-name="asciicircum" horiz-adv-x="538" unicode="^" d="M326 735l186 -340h-97l-146 265l-146 -265h-97l186 340h114z"/>
<glyph glyph-name="underscore" horiz-adv-x="591" unicode="_" d="M36 -75h519v-84h-519v84z"/>
<glyph glyph-name="grave" horiz-adv-x="500" unicode="`" d="M248 727l52 -90h-78l-79 90h105z"/>
<glyph glyph-name="a" horiz-adv-x="323" unicode="a" d="M193 264q-70 -30 -70 -122q0 -16 5 -30q7 -21 23 -21q17 0 29.5 9.5t12.5 23.5v140zM193 417q0 23 -3 33q-7 17 -25 17q-22 0 -27 -29q-2 -16 -2 -26v-26h-101v23q0 59 39 103q38 43 97 43q49 0 86 -35t37 -89v-336q0 -53 7 -95h-99q-9 11 -9 44h-7q-11 -20 -28 -33 q-24 -19 -53 -19q-30 0 -50 25q-31 35 -31 110q0 83 42 135q29 36 79 62q44 23 48 33v60z"/>
<glyph glyph-name="b" horiz-adv-x="335" unicode="b" d="M141 120q0 -14 9 -23.5t21 -9.5q11 0 19 9.5t8 23.5v307q0 14 -8 23.5t-19 9.5t-20.5 -10.5t-9.5 -22.5v-307zM40 735h101v-224q28 26 52 37q13 7 28 7q37 0 60 -36q18 -32 18 -71v-349q0 -40 -18 -70q-23 -37 -60 -37q-24 0 -54 22q-10 8 -26 22v-36h-101v735z"/>
<glyph glyph-name="c" horiz-adv-x="315" unicode="c" d="M133 126q0 -44 28 -44q17 0 23 9.5t6 34.5v76h101v-53q0 -88 -33 -124q-30 -33 -97 -33q-60 0 -92 35q-37 40 -37 127v239q0 87 37 127q32 35 92 35q67 0 97 -33q33 -36 33 -124v-43h-101v66q0 25 -6 34.5t-23 9.5q-28 0 -28 -44v-295z"/>
<glyph glyph-name="d" horiz-adv-x="335" unicode="d" d="M194 427q0 12 -9.5 22.5t-20.5 10.5t-19 -9.5t-8 -23.5v-307q0 -14 8 -23.5t19 -9.5q12 0 21 9.5t9 23.5v307zM295 0h-101v36q-27 -26 -51 -37q-14 -7 -29 -7q-38 0 -59 37q-19 29 -19 70v349q0 40 19 71q22 36 59 36q24 0 54 -22q10 -8 26 -22v224h101v-735z"/>
<glyph glyph-name="e" horiz-adv-x="322" unicode="e" d="M126 334h73v77q0 31 -14 48q-8 8 -22 8q-23 0 -32 -28q-3 -9 -5 -28v-77zM293 196v-63q-4 -78 -55 -119q-26 -22 -76 -22q-82 0 -114 72q-15 34 -16 72v275q4 79 56 122q25 22 75 22q82 0 114 -71q15 -34 16 -70v-159h-167v-119q1 -29 16 -47q8 -8 21 -8q25 0 32 27 q4 11 4 28v60h94z"/>
<glyph glyph-name="f" horiz-adv-x="232" unicode="f" d="M61 0v456h-51v91h51v15q0 70 15 110q25 67 101 67q24 0 35 -4l12 -3v-87q-1 1 -4 1t-5 1q-14 2 -21 2q-22 0 -29 -34q-3 -15 -3 -30v-24v-14h51v-91h-51v-456h-101z"/>
<glyph glyph-name="g" horiz-adv-x="342" unicode="g" d="M141 -25q-37 -21 -37 -48q0 -38 66 -38q28 0 51 9q26 10 26 28q0 15 -8 23q-12 11 -46 16zM188 412q0 26 -12 42q-6 8 -19 8q-21 0 -27 -25q-3 -12 -2 -25v-150v-7q0 -22 11 -34q6 -8 18 -8q20 0 28 24q3 11 3 25v150zM287 264q-4 -74 -56 -114q-27 -21 -74 -21h-9 q-7 0 -10 1q-14 -12 -14 -25q0 -16 25 -23q16 -5 52 -11q59 -7 94 -31q46 -32 46 -96q0 -74 -55 -110q-47 -30 -118 -30q-78 2 -117 24q-45 25 -45 82q0 26 25 49q18 17 54 34q-61 17 -61 73q0 21 21 47q18 22 42 35q-36 23 -50 74q-7 25 -8 45v149q6 76 55 117q25 22 73 22 q66 0 101 -50q19 19 35 30q27 20 48 20v-90q-38 0 -59 -12q2 -10 3 -13q0 -8 1 -11t1 -10v-155z"/>
<glyph glyph-name="h" horiz-adv-x="337" unicode="h" d="M141 0h-101v735h101v-234q2 1 12 11q26 26 44 36q13 7 26 7q36 0 58 -36q18 -32 18 -71v-448h-101v433q0 24 -24 24q-11 0 -24 -13q-6 -8 -9 -13v-431z"/>
<glyph glyph-name="i" horiz-adv-x="181" unicode="i" d="M40 0v547h101v-547h-101zM40 735h101v-101h-101v101z"/>
<glyph glyph-name="j" horiz-adv-x="178" unicode="j" d="M138 547v-561q0 -72 -14 -108q-25 -66 -102 -66q-24 0 -34 3q-4 1 -10 3v93q1 -1 4 -1t5 -1q14 -2 19 -2q22 0 29 31q2 16 2 26v23v560h101zM37 735h101v-101h-101v101z"/>
<glyph glyph-name="k" horiz-adv-x="313" unicode="k" d="M141 735v-349h5l6 18l49 143h91l-73 -178l92 -369h-97l-50 221l-2 8h-5l-3 -8l-13 -32v-189h-101v735h101z"/>
<glyph glyph-name="l" horiz-adv-x="181" unicode="l" d="M40 0v735h101v-735h-101z"/>
<glyph glyph-name="m" horiz-adv-x="499" unicode="m" d="M301 0h-95v433q0 24 -27 24q-14 0 -27 -13q-8 -8 -11 -13v-431h-101v547h101v-46q2 1 12 11q23 24 46 36q13 7 26 7q47 0 68 -61q4 3 16 15q19 21 49 38q14 8 27 8q36 0 58 -36q18 -32 18 -71v-448h-95v433q0 24 -27 24q-14 0 -27 -13q-8 -8 -11 -13v-431z"/>
<glyph glyph-name="n" horiz-adv-x="337" unicode="n" d="M141 0h-101v547h101v-46q2 1 12 11q26 26 44 36q13 7 26 7q36 0 58 -36q18 -32 18 -71v-448h-101v433q0 24 -24 24q-11 0 -24 -13q-6 -8 -9 -13v-431z"/>
<glyph glyph-name="o" horiz-adv-x="321" unicode="o" d="M195 411v6q0 26 -13 42q-8 8 -22 8q-24 0 -31 -28q-4 -12 -3 -28v-275v-5q0 -26 13 -42q8 -8 21 -8q25 0 32 27q4 12 3 28v275zM290 133q-4 -78 -54 -119q-26 -22 -76 -22q-81 0 -113 72q-15 34 -16 72v275q5 80 54 122q25 22 75 22q82 0 114 -71q15 -34 16 -70v-281z "/>
<glyph glyph-name="p" horiz-adv-x="335" unicode="p" d="M141 120q0 -12 9.5 -22.5t20.5 -10.5t19 9.5t8 23.5v307q0 14 -8 23.5t-19 9.5q-12 0 -21 -9.5t-9 -23.5v-307zM40 547h101v-36q28 26 52 37q13 7 28 7q37 0 60 -36q18 -32 18 -71v-349q0 -40 -18 -70q-23 -37 -60 -37q-24 0 -54 22q-10 8 -26 22v-224h-101v735z"/>
<glyph glyph-name="q" horiz-adv-x="335" unicode="q" d="M194 427q0 14 -9 23.5t-21 9.5q-11 0 -19 -9.5t-8 -23.5v-307q0 -14 8 -23.5t19 -9.5t20.5 10.5t9.5 22.5v307zM295 -188h-101v224q-27 -26 -51 -37q-14 -7 -29 -7q-38 0 -59 37q-19 29 -19 70v349q0 40 19 71q22 36 59 36q24 0 54 -22q10 -8 26 -22v36h101v-735z"/>
<glyph glyph-name="r" horiz-adv-x="246" unicode="r" d="M242 443q-12 4 -28 4q-33 0 -51 -17q-22 -19 -22 -50v-380h-101v547h101v-61q3 19 24 40q31 29 77 29v-112z"/>
<glyph glyph-name="s" horiz-adv-x="308" unicode="s" d="M193 407q0 29 -4 42q-9 22 -29 22q-18 0 -25 -22q-6 -14 -6 -42q0 -24 22 -51q15 -19 44 -47q48 -48 63 -72q30 -49 30 -95q0 -61 -28 -100q-36 -50 -101 -50q-81 0 -117 62q-24 41 -24 105h94q0 -34 8 -52q13 -31 39 -31q35 0 35 66q0 34 -63 97q-49 47 -65 71 q-31 47 -31 97q0 60 25 98q33 49 98 50h4q75 0 105 -50q20 -34 20 -98h-94z"/>
<glyph glyph-name="t" horiz-adv-x="245" unicode="t" d="M162 682v-135h69v-91h-69v-272q0 -39 4 -57q7 -33 28 -33q11 0 25 2q2 0 6 1t6 1v-99q-3 0 -8 -1.5t-7 -2.5q-15 -3 -39 -3q-76 0 -101 68q-15 41 -15 116v280h-51v91h51v135h101z"/>
<glyph glyph-name="u" horiz-adv-x="337" unicode="u" d="M196 547h101v-547h-101v46q-2 -1 -11 -10q-26 -26 -44 -36q-14 -8 -27 -8q-37 0 -58 37q-18 30 -18 70v448h101v-433q0 -24 24 -24q11 0 24 13q3 3 9 13v431z"/>
<glyph glyph-name="v" horiz-adv-x="294" unicode="v" d="M97 0l-89 547h98l33 -317l4 -35h8l4 35l33 317h98l-89 -547h-100z"/>
<glyph glyph-name="w" horiz-adv-x="442" unicode="w" d="M267 0l-39 261l-5 31h-4l-5 -31l-39 -261h-84l-81 547h92l32 -286l4 -31h6l5 31l42 286h60l42 -286l5 -31h6l4 31l32 286h92l-81 -547h-84z"/>
<glyph glyph-name="x" horiz-adv-x="302" unicode="x" d="M102 282l-86 265h95l36 -128l3 -15h2l3 15l36 128h95l-86 -265l94 -282h-98l-41 138l-3 15h-2l-3 -15l-41 -138h-98z"/>
<glyph glyph-name="y" horiz-adv-x="310" unicode="y" d="M16 -104q1 -1 6 -1q1 0 4.5 -0.5t6.5 -0.5q21 0 35 10q24 18 33 50q4 13 4 30l-93 563h99l40 -336l2 -28h4l2 28l40 336h99l-97 -588q-8 -63 -44 -106q-41 -49 -96 -49h-12q-9 0 -33 2v90z"/>
<glyph glyph-name="z" horiz-adv-x="260" unicode="z" d="M6 82l139 373h-117v92h224v-82l-139 -373h139v-92h-246v82z"/>
<glyph glyph-name="braceleft" horiz-adv-x="336" unicode="{" d="M308 659q-68 0 -91 -18q-27 -21 -27 -78v-194q0 -70 -62 -108q62 -40 62 -108v-194q0 -57 27 -78q23 -18 91 -18v-84h-14q-109 0 -151 33q-49 39 -49 147v194q0 17 -12 38q-17 29 -52 30v80q36 0 52 29q12 20 12 39v194q0 108 49 147q42 33 151 33h14v-84z"/>
<glyph glyph-name="bar" horiz-adv-x="174" unicode="|" d="M40 -250v1076h94v-1076h-94z"/>
<glyph glyph-name="braceright" horiz-adv-x="336" unicode="}" d="M242 369q0 -19 12 -39q16 -29 52 -29v-80q-35 -1 -52 -30q-12 -21 -12 -38v-194q0 -109 -48 -147q-42 -33 -152 -33h-14v84q68 0 91 18q27 21 27 78v194q0 68 62 108q-62 38 -62 108v194q0 57 -27 78q-23 18 -91 18v84h14q110 0 152 -33q48 -38 48 -147v-194z"/>
<glyph glyph-name="asciitilde" horiz-adv-x="625" unicode="~" d="M55 660q27 78 89 127q32 23 75 23q11 0 22 -1.5t18.5 -2.5t18.5 -5.5t16 -6t16.5 -8.5t14 -8t15.5 -9t14 -9q50 -35 85 -35q41 0 70 44q11 16 23 45l66 -28q-30 -82 -88 -128q-31 -23 -71 -23q-26 0 -51.5 8t-40.5 16.5t-41 24.5q-53 36 -87 36q-44 0 -75 -44 q-15 -22 -23 -44z"/>
<glyph glyph-name="exclamdown" horiz-adv-x="189" unicode="¡" d="M63 349h63l27 -537h-117zM42 547h105v-111h-105v111z"/>
<glyph glyph-name="cent" horiz-adv-x="311" unicode="¢" d="M194 765v-119q47 -8 70 -42q23 -37 23 -112v-43h-92v66q0 44 -36 44q-35 0 -35 -44v-295q0 -44 35 -44q36 0 36 44v76h92v-53q0 -76 -23 -112t-70 -43v-148h-60v147q-102 15 -102 161v239q0 145 102 160v118h60z"/>
<glyph glyph-name="sterling" horiz-adv-x="399" unicode="£" d="M249 547q0 42 -11 67q-13 29 -45 29q-22 0 -34 -27q-10 -20 -10 -55q0 -53 34 -165l3 -12h103v-66h-85q12 -50 12 -86q0 -50 -28 -107q17 -8 34 -18q12 -9 31 -11q14 2 26 22q13 20 14 71l92 -11q-6 -89 -39.5 -137.5t-83.5 -48.5q-22 0 -70 25t-63 25q-23 0 -42 -25 q-9 -11 -14 -25l-71 39q22 49 58 82q21 18 45 22q18 51 18 97q0 34 -15 86h-92v66h72l-3 10q-38 126 -38 167q0 75 31 122q39 59 113 60h4q85 0 126 -60q32 -49 32 -136h-104z"/>
<glyph glyph-name="yen" horiz-adv-x="352" unicode="¥" d="M36 233h86v67h-86v67h72l-96 368h106l54 -235l3 -7h2l3 7l54 235h106l-96 -368h72v-67h-86v-67h86v-67h-86v-166h-108v166h-86v67z"/>
<glyph glyph-name="dieresis" horiz-adv-x="500" unicode="¨" d="M274 735h93v-98h-93v98zM133 735h93v-98h-93v98z"/>
<glyph glyph-name="copyright" horiz-adv-x="803" unicode="©" d="M492 299v-61q-4 -52 -39 -81q-18 -15 -53 -15q-59 0 -83 48q-11 22 -11 48v259q0 50 39 81q19 15 55 15q56 0 80 -48q10 -21 12 -48v-61h-67v61q1 16 -9 26q-5 5 -15 5q-15 0 -21 -16q-3 -8 -3 -15v-259q0 -17 10 -26q5 -5 14 -5q16 0 22 15q3 8 2 16v61h67zM84 367 q0 -129 94 -223t223 -94q131 0 225 94q93 93 93 223q0 132 -93 225t-225 93q-130 0 -223 -93q-94 -94 -94 -225zM26 367q0 156 110 266t265 110q156 0 266 -110t110 -266q0 -155 -110 -265t-266 -110q-155 0 -265 110t-110 265z"/>
<glyph glyph-name="registered" horiz-adv-x="803" unicode="®" d="M376 519v-126h22q31 0 41 20q7 14 7 42q0 29 -7 43q-11 21 -41 21h-22zM401 582q113 0 113 -126q0 -38 -8 -61.5t-35 -46.5l52 -195h-74l-46 178h-27v-178h-71v429h96zM84 367q0 -129 94 -223t223 -94q131 0 225 94q93 93 93 223q0 132 -93 225t-225 93q-130 0 -223 -93 q-94 -94 -94 -225zM26 367q0 156 110 266t265 110q156 0 266 -110t110 -266q0 -155 -110 -265t-266 -110q-155 0 -265 110t-110 265z"/>
<glyph glyph-name="macron" horiz-adv-x="500" unicode="¯" d="M153 721h194v-79h-194v79z"/>
<glyph glyph-name="acute" horiz-adv-x="500" unicode="´" d="M357 727l-79 -90h-78l52 90h105z"/>
<glyph glyph-name="periodcentered" horiz-adv-x="105" unicode="·" d="M0 428h105v-111h-105v111z"/>
<glyph glyph-name="cedilla" horiz-adv-x="500" unicode="¸" d="M292 -123l-22 -65h-51l20 65h-31v69h84v-69z"/>
<glyph glyph-name="questiondown" horiz-adv-x="315" unicode="¿" d="M212 349v-125q0 -66 -22 -132q-13 -35 -45 -89q-21 -35 -26 -55q-2 -13 5 -27q8 -19 28 -19q24 0 43 28q15 20 21 43l87 -41q-19 -44 -46 -74q-44 -50 -104 -50h-3q-74 1 -107 57q-23 38 -23 83q0 40 39 107q2 3 9 14.5t11 18.5q23 37 34 84q6 24 6 52v125h93zM218 436 h-105v111h105v-111z"/>
<glyph glyph-name="Agrave" horiz-adv-x="374" unicode="À" d="M193 496l-3 19h-6l-3 -19l-31 -232h74zM10 0l111 735h132l111 -735h-105l-20 150h-104l-20 -150h-105zM174 890l52 -90h-78l-79 90h105z"/>
<glyph glyph-name="Aacute" horiz-adv-x="374" unicode="Á" d="M193 496l-3 19h-6l-3 -19l-31 -232h74zM10 0l111 735h132l111 -735h-105l-20 150h-104l-20 -150h-105zM300 890l-79 -90h-78l52 90h105z"/>
<glyph glyph-name="Acircumflex" horiz-adv-x="374" unicode="Â" d="M193 496l-3 19h-6l-3 -19l-31 -232h74zM10 0l111 735h132l111 -735h-105l-20 150h-104l-20 -150h-105zM241 890l69 -90h-92l-31 35l-30 -35h-92l69 90h107z"/>
<glyph glyph-name="Atilde" horiz-adv-x="374" unicode="Ã" d="M193 496l-3 19h-6l-3 -19l-31 -232h74zM10 0l111 735h132l111 -735h-105l-20 150h-104l-20 -150h-105zM90 871q11 9 33 16q9 3 20 3q22 0 44 -8q22 -10 44 -11q15 0 37 8q2 1 4.5 2t4 2t3.5 2l4 2v-74q-12 -11 -33 -16q-9 -3 -20 -3q-23 0 -43 9q-20 8 -45 10 q-15 0 -37 -8l-16 -8v74z"/>
<glyph glyph-name="Adieresis" horiz-adv-x="374" unicode="Ä" d="M193 496l-3 19h-6l-3 -19l-31 -232h74zM10 0l111 735h132l111 -735h-105l-20 150h-104l-20 -150h-105zM211 898h93v-98h-93v98zM70 898h93v-98h-93v98z"/>
<glyph glyph-name="Aring" horiz-adv-x="374" unicode="Å" d="M193 496l-3 19h-6l-3 -19l-31 -232h74zM10 0l111 735h132l111 -735h-105l-20 150h-104l-20 -150h-105zM151 860q0 -14 11.5 -24.5t25.5 -10.5t25.5 10.5t11.5 24.5t-11.5 24.5t-25.5 10.5t-25.5 -10.5t-11.5 -24.5zM113 860q0 30 22 50t53 20t52.5 -20t21.5 -50 t-21.5 -50t-52.5 -20t-53 20t-22 50z"/>
<glyph glyph-name="AE" horiz-adv-x="537" unicode="Æ" d="M192 264h78v251h-5zM270 150h-111l-44 -150h-107l205 735h304v-111h-139v-193h100v-118h-100v-202h139v-111h-247v150z"/>
<glyph glyph-name="Ccedilla" horiz-adv-x="346" unicode="Ç" d="M215 -123l-22 -65h-51l20 65h-31v69h84v-69zM321 252v-101q-2 -46 -18 -80q-15 -33 -43 -54q-31 -25 -83 -25q-53 0 -84 25q-27 20 -42 54q-16 34 -18 80v433q2 45 18 79q16 35 42 55q33 25 84 25q50 0 83 -25q28 -21 43 -55q16 -34 18 -79v-101h-101v101q0 29 -16 46 q-8 8 -25 8q-23 0 -33 -27q-3 -8 -5 -27v-433q1 -29 17 -46q8 -8 21 -8q28 0 37 27q4 9 4 27v101h101z"/>
<glyph glyph-name="Egrave" horiz-adv-x="307" unicode="È" d="M40 735h247v-111h-139v-193h100v-118h-100v-202h139v-111h-247v735zM159 890l52 -90h-78l-79 90h105z"/>
<glyph glyph-name="Eacute" horiz-adv-x="307" unicode="É" d="M40 735h247v-111h-139v-193h100v-118h-100v-202h139v-111h-247v735zM272 890l-79 -90h-78l52 90h105z"/>
<glyph glyph-name="Ecircumflex" horiz-adv-x="307" unicode="Ê" d="M40 735h247v-111h-139v-193h100v-118h-100v-202h139v-111h-247v735zM217 890l69 -90h-92l-31 35l-30 -35h-92l69 90h107z"/>
<glyph glyph-name="Edieresis" horiz-adv-x="307" unicode="Ë" d="M40 735h247v-111h-139v-193h100v-118h-100v-202h139v-111h-247v735zM187 898h93v-98h-93v98zM46 898h93v-98h-93v98z"/>
<glyph glyph-name="Igrave" horiz-adv-x="196" unicode="Ì" d="M48 735h108v-735h-108v735zM102 890l52 -90h-78l-79 90h105z"/>
<glyph glyph-name="Iacute" horiz-adv-x="196" unicode="Í" d="M40 735h108v-735h-108v735zM199 890l-79 -90h-78l52 90h105z"/>
<glyph glyph-name="Icircumflex" horiz-adv-x="181" unicode="Î" d="M36 735h108v-735h-108v735zM144 890l69 -90h-92l-31 35l-30 -35h-92l69 90h107z"/>
<glyph glyph-name="Idieresis" horiz-adv-x="182" unicode="Ï" d="M37 735h108v-735h-108v735zM115 898h93v-98h-93v98zM-26 898h93v-98h-93v98z"/>
<glyph glyph-name="Eth" horiz-adv-x="372" unicode="Ð" d="M148 431h41v-111h-41v-212q31 0 46 7.5t23 32.5q9 29 10 78q1 35 1 142t-1 142q-1 47 -10 78q-8 24 -23 31.5t-46 7.5v-196zM10 431h30v304h85q76 0 119 -17.5t64 -58.5q20 -39 26 -105.5t6 -186.5t-6 -186t-26 -105q-21 -41 -64 -58.5t-119 -17.5h-85v320h-30v111z"/>
<glyph glyph-name="Ntilde" horiz-adv-x="395" unicode="Ñ" d="M154 383l-9 34h-6v-417h-99v735h96l105 -383l9 -34h6v417h99v-735h-96zM101 871q11 9 33 16q9 3 20 3q22 0 44 -8q22 -10 44 -11q15 0 37 8q2 1 4.5 2t4 2t3.5 2l4 2v-74q-12 -11 -33 -16q-9 -3 -20 -3q-24 0 -43 9q-20 8 -45 10q-15 0 -37 -8q-2 -1 -4.5 -2t-4 -2 t-3.5 -2l-4 -2v74z"/>
<glyph glyph-name="Ograve" d="M213 584q0 29 -14 46q-8 8 -22 8q-24 0 -32 -27q-4 -11 -4 -27v-433q0 -29 15 -46q8 -8 21 -8q25 0 32 27q4 9 4 27v433zM321 151q-2 -46 -18 -80q-15 -33 -43 -54q-31 -25 -83 -25q-53 0 -84 25q-27 20 -42 54q-16 34 -18 80v433q2 45 18 79q16 35 42 55q33 25 84 25 q50 0 83 -25q28 -21 43 -55q16 -34 18 -79v-433zM164 890l52 -90h-78l-79 90h105z" unicode="Ò"/>
<glyph glyph-name="Oacute" d="M213 584q0 29 -14 46q-8 8 -22 8q-24 0 -32 -27q-4 -11 -4 -27v-433q0 -29 15 -46q8 -8 21 -8q25 0 32 27q4 9 4 27v433zM321 151q-2 -46 -18 -80q-15 -33 -43 -54q-31 -25 -83 -25q-53 0 -84 25q-27 20 -42 54q-16 34 -18 80v433q2 45 18 79q16 35 42 55q33 25 84 25 q50 0 83 -25q28 -21 43 -55q16 -34 18 -79v-433zM296 890l-79 -90h-78l52 90h105z" unicode="Ó"/>
<glyph glyph-name="Ocircumflex" d="M213 584q0 29 -14 46q-8 8 -22 8q-24 0 -32 -27q-4 -11 -4 -27v-433q0 -29 15 -46q8 -8 21 -8q25 0 32 27q4 9 4 27v433zM321 151q-2 -46 -18 -80q-15 -33 -43 -54q-31 -25 -83 -25q-53 0 -84 25q-27 20 -42 54q-16 34 -18 80v433q2 45 18 79q16 35 42 55q33 25 84 25 q50 0 83 -25q28 -21 43 -55q16 -34 18 -79v-433zM231 890l69 -90h-92l-31 35l-30 -35h-92l69 90h107z" unicode="Ô"/>
<glyph glyph-name="Otilde" d="M213 584q0 29 -14 46q-8 8 -22 8q-24 0 -32 -27q-4 -11 -4 -27v-433q0 -29 15 -46q8 -8 21 -8q25 0 32 27q4 9 4 27v433zM321 151q-2 -46 -18 -80q-15 -33 -43 -54q-31 -25 -83 -25q-53 0 -84 25q-27 20 -42 54q-16 34 -18 80v433q2 45 18 79q16 35 42 55q33 25 84 25 q50 0 83 -25q28 -21 43 -55q16 -34 18 -79v-433zM80 871q11 9 33 16q9 3 20 3q22 0 44 -8q22 -10 44 -11q15 0 37 8q2 1 4.5 2t4 2t3.5 2l4 2v-74q-12 -11 -33 -16q-9 -3 -20 -3q-23 0 -43 9q-20 8 -45 10q-15 0 -37 -8l-16 -8v74z" unicode="Õ"/>
<glyph glyph-name="Odieresis" d="M213 584q0 29 -14 46q-8 8 -22 8q-24 0 -32 -27q-4 -11 -4 -27v-433q0 -29 15 -46q8 -8 21 -8q25 0 32 27q4 9 4 27v433zM321 151q-2 -46 -18 -80q-15 -33 -43 -54q-31 -25 -83 -25q-53 0 -84 25q-27 20 -42 54q-16 34 -18 80v433q2 45 18 79q16 35 42 55q33 25 84 25 q50 0 83 -25q28 -21 43 -55q16 -34 18 -79v-433zM201 898h93v-98h-93v98zM60 898h93v-98h-93v98z" unicode="Ö"/>
<glyph glyph-name="Oslash" d="M213 389l-72 -238q0 -29 15 -46q8 -8 21 -8q25 0 32 27q4 9 4 27v238zM141 355l72 234q0 11 -6 29q-9 20 -30 20q-24 0 -32 -27q-4 -11 -4 -27v-229zM29 -10l23 77q-10 17 -17 57q-2 18 -2 27v433q2 45 18 79q16 35 42 55q33 25 84 25q45 0 77 -21l7 23h60l-22 -73 q13 -24 19 -60q3 -15 3 -28v-433q-2 -46 -18 -80q-15 -33 -43 -54q-31 -25 -83 -25q-47 0 -78 21l-7 -23h-63z" unicode="Ø"/>
<glyph glyph-name="Ugrave" horiz-adv-x="366" unicode="Ù" d="M327 735v-584q-2 -46 -18 -80q-15 -33 -43 -54q-31 -25 -83 -25q-53 0 -84 25q-27 20 -42 54q-16 34 -18 80v584h108v-584q0 -29 15 -46q8 -8 21 -8q25 0 32 27q4 9 4 27v584h108zM176 890l52 -90h-78l-79 90h105z"/>
<glyph glyph-name="Uacute" horiz-adv-x="366" unicode="Ú" d="M327 735v-584q-2 -46 -18 -80q-15 -33 -43 -54q-31 -25 -83 -25q-53 0 -84 25q-27 20 -42 54q-16 34 -18 80v584h108v-584q0 -29 15 -46q8 -8 21 -8q25 0 32 27q4 9 4 27v584h108zM307 890l-79 -90h-78l52 90h105z"/>
<glyph glyph-name="Ucircumflex" horiz-adv-x="366" unicode="Û" d="M327 735v-584q-2 -46 -18 -80q-15 -33 -43 -54q-31 -25 -83 -25q-53 0 -84 25q-27 20 -42 54q-16 34 -18 80v584h108v-584q0 -29 15 -46q8 -8 21 -8q25 0 32 27q4 9 4 27v584h108zM237 890l69 -90h-92l-31 35l-30 -35h-92l69 90h107z"/>
<glyph glyph-name="Udieresis" horiz-adv-x="366" unicode="Ü" d="M327 735v-584q-2 -46 -18 -80q-15 -33 -43 -54q-31 -25 -83 -25q-53 0 -84 25q-27 20 -42 54q-16 34 -18 80v584h108v-584q0 -29 15 -46q8 -8 21 -8q25 0 32 27q4 9 4 27v584h108zM207 898h93v-98h-93v98zM66 898h93v-98h-93v98z"/>
<glyph glyph-name="Yacute" horiz-adv-x="344" unicode="Ý" d="M168 500l3 -7h2l3 7l54 235h106l-110 -422v-313h-108v313l-110 422h106zM281 890l-79 -90h-78l52 90h105z"/>
<glyph glyph-name="Thorn" d="M148 286q50 0 66 23q15 20 15 84q0 66 -15 88q-17 26 -66 26v-221zM40 735h107v-118h1q81 0 130 -46q60 -57 60 -174q0 -116 -60 -173q-51 -48 -130 -48v-176h-108v735z" unicode="Þ"/>
<glyph glyph-name="germandbls" horiz-adv-x="358" unicode="ß" d="M169 547q18 0 30 15.5t12 41.5q0 22 -10.5 35.5t-31.5 13.5q-36 0 -36 -50v-603h-101v603q0 62 33 98q39 42 104 42q66 0 100 -41q32 -38 32 -98q0 -53 -43 -85q36 -20 54 -73q20 -58 20 -165q0 -172 -42 -232q-34 -49 -121 -49v94q35 0 47 33q15 41 15 154 q0 120 -15 162q-12 35 -47 35v69z"/>
<glyph glyph-name="agrave" horiz-adv-x="333" unicode="à" d="M193 264q-70 -30 -70 -122q0 -16 5 -30q7 -21 23 -21q17 0 29.5 9.5t12.5 23.5v140zM193 417q0 23 -3 33q-7 17 -25 17q-22 0 -27 -29q-2 -16 -2 -26v-26h-101v23q0 59 39 103q38 43 97 43q49 0 86 -35t37 -89v-336q0 -53 7 -95h-99q-9 11 -9 44h-7q-11 -20 -28 -33 q-24 -19 -53 -19q-30 0 -50 25q-31 35 -31 110q0 83 42 135q29 36 79 62q44 23 48 33v60zM155 727l52 -90h-78l-79 90h105z"/>
<glyph glyph-name="aacute" horiz-adv-x="333" unicode="á" d="M193 264q-70 -30 -70 -122q0 -16 5 -30q7 -21 23 -21q17 0 29.5 9.5t12.5 23.5v140zM193 417q0 23 -3 33q-7 17 -25 17q-22 0 -27 -29q-2 -16 -2 -26v-26h-101v23q0 59 39 103q38 43 97 43q49 0 86 -35t37 -89v-336q0 -53 7 -95h-99q-9 11 -9 44h-7q-11 -20 -28 -33 q-24 -19 -53 -19q-30 0 -50 25q-31 35 -31 110q0 83 42 135q29 36 79 62q44 23 48 33v60zM286 727l-79 -90h-78l52 90h105z"/>
<glyph glyph-name="acircumflex" horiz-adv-x="333" unicode="â" d="M193 264q-70 -30 -70 -122q0 -16 5 -30q7 -21 23 -21q17 0 29.5 9.5t12.5 23.5v140zM193 417q0 23 -3 33q-7 17 -25 17q-22 0 -27 -29q-2 -16 -2 -26v-26h-101v23q0 59 39 103q38 43 97 43q49 0 86 -35t37 -89v-336q0 -53 7 -95h-99q-9 11 -9 44h-7q-11 -20 -28 -33 q-24 -19 -53 -19q-30 0 -50 25q-31 35 -31 110q0 83 42 135q29 36 79 62q44 23 48 33v60zM220 727l69 -90h-92l-31 35l-30 -35h-92l69 90h107z"/>
<glyph glyph-name="atilde" horiz-adv-x="333" unicode="ã" d="M193 264q-70 -30 -70 -122q0 -16 5 -30q7 -21 23 -21q17 0 29.5 9.5t12.5 23.5v140zM193 417q0 23 -3 33q-7 17 -25 17q-22 0 -27 -29q-2 -16 -2 -26v-26h-101v23q0 59 39 103q38 43 97 43q49 0 86 -35t37 -89v-336q0 -53 7 -95h-99q-9 11 -9 44h-7q-11 -20 -28 -33 q-24 -19 -53 -19q-30 0 -50 25q-31 35 -31 110q0 83 42 135q29 36 79 62q44 23 48 33v60zM70 711q11 9 33 16q9 3 20 3q22 0 44 -8q22 -10 44 -11q15 0 37 8q2 1 4.5 2t4 2t3.5 2l4 2v-74q-12 -11 -33 -16q-9 -3 -20 -3q-23 0 -43 9q-20 8 -45 10q-15 0 -37 -8l-16 -8v74z "/>
<glyph glyph-name="adieresis" horiz-adv-x="333" unicode="ä" d="M193 264q-70 -30 -70 -122q0 -16 5 -30q7 -21 23 -21q17 0 29.5 9.5t12.5 23.5v140zM193 417q0 23 -3 33q-7 17 -25 17q-22 0 -27 -29q-2 -16 -2 -26v-26h-101v23q0 59 39 103q38 43 97 43q49 0 86 -35t37 -89v-336q0 -53 7 -95h-99q-9 11 -9 44h-7q-11 -20 -28 -33 q-24 -19 -53 -19q-30 0 -50 25q-31 35 -31 110q0 83 42 135q29 36 79 62q44 23 48 33v60zM191 735h93v-98h-93v98zM50 735h93v-98h-93v98z"/>
<glyph glyph-name="aring" horiz-adv-x="333" unicode="å" d="M193 264q-70 -30 -70 -122q0 -16 5 -30q7 -21 23 -21q17 0 29.5 9.5t12.5 23.5v140zM193 417q0 23 -3 33q-7 17 -25 17q-22 0 -27 -29q-2 -16 -2 -26v-26h-101v23q0 59 39 103q38 43 97 43q49 0 86 -35t37 -89v-336q0 -53 7 -95h-99q-9 11 -9 44h-7q-11 -20 -28 -33 q-24 -19 -53 -19q-30 0 -50 25q-31 35 -31 110q0 83 42 135q29 36 79 62q44 23 48 33v60zM130 694q0 -14 11.5 -24.5t25.5 -10.5t25.5 10.5t11.5 24.5t-11.5 24.5t-25.5 10.5t-25.5 -10.5t-11.5 -24.5zM92 694q0 30 22 50t53 20t52.5 -20t21.5 -50t-21.5 -50t-52.5 -20 t-53 20t-22 50z"/>
<glyph glyph-name="ae" horiz-adv-x="483" unicode="æ" d="M193 264q-70 -30 -70 -122q0 -16 5 -30q7 -21 23 -21q17 0 29.5 9.5t12.5 23.5v140zM287 334h73v77q0 31 -14 48q-8 8 -22 8q-23 0 -32 -28q-3 -9 -5 -28v-77zM454 196v-63q-4 -78 -55 -119q-26 -22 -76 -22q-77 0 -110 64q-50 -64 -108 -64q-30 0 -50 25q-31 35 -31 110 q0 83 42 135q29 36 79 62q44 23 48 33v60q0 23 -3 33q-7 17 -25 17q-22 0 -27 -29q-2 -16 -2 -26v-26h-101v23q0 59 39 103q38 43 97 43q42 0 74 -25q32 25 79 25q82 0 114 -71q15 -34 16 -70v-159h-167v-119q1 -29 16 -47q8 -8 21 -8q25 0 32 27q4 11 4 28v60h94z"/>
<glyph glyph-name="ccedilla" horiz-adv-x="315" unicode="ç" d="M200 -123l-22 -65h-51l20 65h-31v69h84v-69zM133 126q0 -44 28 -44q17 0 23 9.5t6 34.5v76h101v-53q0 -88 -33 -124q-30 -33 -97 -33q-60 0 -92 35q-37 40 -37 127v239q0 87 37 127q32 35 92 35q67 0 97 -33q33 -36 33 -124v-43h-101v66q0 25 -6 34.5t-23 9.5 q-28 0 -28 -44v-295z"/>
<glyph glyph-name="egrave" horiz-adv-x="322" unicode="è" d="M126 334h73v77q0 31 -14 48q-8 8 -22 8q-23 0 -32 -28q-3 -9 -5 -28v-77zM293 196v-63q-4 -78 -55 -119q-26 -22 -76 -22q-82 0 -114 72q-15 34 -16 72v275q4 79 56 122q25 22 75 22q82 0 114 -71q15 -34 16 -70v-159h-167v-119q1 -29 16 -47q8 -8 21 -8q25 0 32 27 q4 11 4 28v60h94zM155 727l52 -90h-78l-79 90h105z"/>
<glyph glyph-name="eacute" horiz-adv-x="322" unicode="é" d="M126 334h73v77q0 31 -14 48q-8 8 -22 8q-23 0 -32 -28q-3 -9 -5 -28v-77zM293 196v-63q-4 -78 -55 -119q-26 -22 -76 -22q-82 0 -114 72q-15 34 -16 72v275q4 79 56 122q25 22 75 22q82 0 114 -71q15 -34 16 -70v-159h-167v-119q1 -29 16 -47q8 -8 21 -8q25 0 32 27 q4 11 4 28v60h94zM286 727l-79 -90h-78l52 90h105z"/>
<glyph glyph-name="ecircumflex" horiz-adv-x="322" unicode="ê" d="M126 334h73v77q0 31 -14 48q-8 8 -22 8q-23 0 -32 -28q-3 -9 -5 -28v-77zM293 196v-63q-4 -78 -55 -119q-26 -22 -76 -22q-82 0 -114 72q-15 34 -16 72v275q4 79 56 122q25 22 75 22q82 0 114 -71q15 -34 16 -70v-159h-167v-119q1 -29 16 -47q8 -8 21 -8q25 0 32 27 q4 11 4 28v60h94zM215 727l69 -90h-92l-31 35l-30 -35h-92l69 90h107z"/>
<glyph glyph-name="edieresis" horiz-adv-x="322" unicode="ë" d="M126 334h73v77q0 31 -14 48q-8 8 -22 8q-23 0 -32 -28q-3 -9 -5 -28v-77zM293 196v-63q-4 -78 -55 -119q-26 -22 -76 -22q-82 0 -114 72q-15 34 -16 72v275q4 79 56 122q25 22 75 22q82 0 114 -71q15 -34 16 -70v-159h-167v-119q1 -29 16 -47q8 -8 21 -8q25 0 32 27 q4 11 4 28v60h94zM185 735h93v-98h-93v98zM44 735h93v-98h-93v98z"/>
<glyph glyph-name="igrave" horiz-adv-x="181" unicode="ì" d="M40 0v547h101v-547h-101zM89 727l52 -90h-78l-79 90h105z"/>
<glyph glyph-name="iacute" horiz-adv-x="181" unicode="í" d="M40 0v547h101v-547h-101zM197 727l-79 -90h-78l52 90h105z"/>
<glyph glyph-name="icircumflex" horiz-adv-x="181" unicode="î" d="M40 0v547h101v-547h-101zM144 727l69 -90h-92l-31 35l-30 -35h-92l69 90h107z"/>
<glyph glyph-name="idieresis" horiz-adv-x="182" unicode="ï" d="M40 0v547h101v-547h-101zM115 735h93v-98h-93v98zM-26 735h93v-98h-93v98z"/>
<glyph glyph-name="eth" horiz-adv-x="329" unicode="ð" d="M201 411v6q0 26 -13 42q-8 8 -22 8q-24 0 -31 -28q-4 -12 -3 -28v-275v-5q0 -26 13 -42q8 -8 21 -8q25 0 32 27q4 12 3 28v275zM185 736q1 -1 3.5 -4t4.5 -5l9 -9l9 -12l46 40l27 -32l-49 -43q61 -94 61 -218v-320q-4 -78 -54 -119q-26 -22 -76 -22q-81 0 -113 72 q-15 34 -16 72v283q0 44 10 76q19 60 74 60q31 0 76 -38q-7 58 -25 99l-40 -35l-27 31l49 43q-12 20 -16 24q-5 5 -6 8z"/>
<glyph glyph-name="ntilde" horiz-adv-x="337" unicode="ñ" d="M141 0h-101v547h101v-46q2 1 12 11q26 26 44 36q13 7 26 7q36 0 58 -36q18 -32 18 -71v-448h-101v433q0 24 -24 24q-11 0 -24 -13q-6 -8 -9 -13v-431zM72 711q11 9 33 16q9 3 20 3q22 0 44 -8q22 -10 44 -11q15 0 37 8q2 1 4.5 2t4 2t3.5 2l4 2v-74q-12 -11 -33 -16 q-9 -3 -20 -3q-23 0 -43 9q-20 8 -45 10q-15 0 -37 -8l-16 -8v74z"/>
<glyph glyph-name="ograve" horiz-adv-x="321" unicode="ò" d="M195 411v6q0 26 -13 42q-8 8 -22 8q-24 0 -31 -28q-4 -12 -3 -28v-275v-5q0 -26 13 -42q8 -8 21 -8q25 0 32 27q4 12 3 28v275zM290 133q-4 -78 -54 -119q-26 -22 -76 -22q-81 0 -113 72q-15 34 -16 72v275q5 80 54 122q25 22 75 22q82 0 114 -71q15 -34 16 -70v-281z M153 727l52 -90h-78l-79 90h105z"/>
<glyph glyph-name="oacute" horiz-adv-x="321" unicode="ó" d="M195 411v6q0 26 -13 42q-8 8 -22 8q-24 0 -31 -28q-4 -12 -3 -28v-275v-5q0 -26 13 -42q8 -8 21 -8q25 0 32 27q4 12 3 28v275zM290 133q-4 -78 -54 -119q-26 -22 -76 -22q-81 0 -113 72q-15 34 -16 72v275q5 80 54 122q25 22 75 22q82 0 114 -71q15 -34 16 -70v-281z M284 727l-79 -90h-78l52 90h105z"/>
<glyph glyph-name="ocircumflex" horiz-adv-x="321" unicode="ô" d="M195 411v6q0 26 -13 42q-8 8 -22 8q-24 0 -31 -28q-4 -12 -3 -28v-275v-5q0 -26 13 -42q8 -8 21 -8q25 0 32 27q4 12 3 28v275zM290 133q-4 -78 -54 -119q-26 -22 -76 -22q-81 0 -113 72q-15 34 -16 72v275q5 80 54 122q25 22 75 22q82 0 114 -71q15 -34 16 -70v-281z M214 727l69 -90h-92l-31 35l-30 -35h-92l69 90h107z"/>
<glyph glyph-name="otilde" horiz-adv-x="321" unicode="õ" d="M195 411v6q0 26 -13 42q-8 8 -22 8q-24 0 -31 -28q-4 -12 -3 -28v-275v-5q0 -26 13 -42q8 -8 21 -8q25 0 32 27q4 12 3 28v275zM290 133q-4 -78 -54 -119q-26 -22 -76 -22q-81 0 -113 72q-15 34 -16 72v275q5 80 54 122q25 22 75 22q82 0 114 -71q15 -34 16 -70v-281z M64 711q11 9 33 16q9 3 20 3q22 0 44 -8q22 -10 44 -11q15 0 37 8l16 8v-74q-12 -11 -33 -16q-9 -3 -20 -3q-23 0 -43 9q-20 8 -45 10q-15 0 -37 -8l-16 -8v74z"/>
<glyph glyph-name="odieresis" horiz-adv-x="321" unicode="ö" d="M195 411v6q0 26 -13 42q-8 8 -22 8q-24 0 -31 -28q-4 -12 -3 -28v-275v-5q0 -26 13 -42q8 -8 21 -8q25 0 32 27q4 12 3 28v275zM290 133q-4 -78 -54 -119q-26 -22 -76 -22q-81 0 -113 72q-15 34 -16 72v275q5 80 54 122q25 22 75 22q82 0 114 -71q15 -34 16 -70v-281z M185 735h93v-98h-93v98zM44 735h93v-98h-93v98z"/>
<glyph glyph-name="oslash" horiz-adv-x="321" unicode="ø" d="M195 333l-61 -237q8 -15 26 -15q25 0 32 27q4 12 3 28v197zM126 213l61 237q-8 17 -27 17q-24 0 -31 -28q-4 -12 -3 -28v-198zM61 -38l15 59q-31 28 -40 73q-5 22 -5 42v275q5 80 54 122q25 22 75 22q25 0 52 -9l10 39h37l-15 -59q25 -23 40 -71q4 -19 6 -41v-281 q-4 -78 -54 -119q-26 -22 -76 -22q-26 0 -50 8l-10 -38h-39z"/>
<glyph glyph-name="ugrave" horiz-adv-x="337" unicode="ù" d="M196 547h101v-547h-101v46q-2 -1 -11 -10q-26 -26 -44 -36q-14 -8 -27 -8q-37 0 -58 37q-18 30 -18 70v448h101v-433q0 -24 24 -24q11 0 24 13q3 3 9 13v431zM160 727l52 -90h-78l-79 90h105z"/>
<glyph glyph-name="uacute" horiz-adv-x="337" unicode="ú" d="M196 547h101v-547h-101v46q-2 -1 -11 -10q-26 -26 -44 -36q-14 -8 -27 -8q-37 0 -58 37q-18 30 -18 70v448h101v-433q0 -24 24 -24q11 0 24 13q3 3 9 13v431zM291 727l-79 -90h-78l52 90h105z"/>
<glyph glyph-name="ucircumflex" horiz-adv-x="337" unicode="û" d="M196 547h101v-547h-101v46q-2 -1 -11 -10q-26 -26 -44 -36q-14 -8 -27 -8q-37 0 -58 37q-18 30 -18 70v448h101v-433q0 -24 24 -24q11 0 24 13q3 3 9 13v431zM222 727l69 -90h-92l-31 35l-30 -35h-92l69 90h107z"/>
<glyph glyph-name="udieresis" horiz-adv-x="337" unicode="ü" d="M196 547h101v-547h-101v46q-2 -1 -11 -10q-26 -26 -44 -36q-14 -8 -27 -8q-37 0 -58 37q-18 30 -18 70v448h101v-433q0 -24 24 -24q11 0 24 13q3 3 9 13v431zM193 735h93v-98h-93v98zM52 735h93v-98h-93v98z"/>
<glyph glyph-name="yacute" horiz-adv-x="310" unicode="ý" d="M16 -104q1 -1 6 -1q1 0 4.5 -0.5t6.5 -0.5q21 0 35 10q24 18 33 50q4 13 4 30l-93 563h99l40 -336l2 -28h4l2 28l40 336h99l-97 -588q-8 -63 -44 -106q-41 -49 -96 -49h-12q-9 0 -33 2v90zM270 727l-79 -90h-78l52 90h105z"/>
<glyph glyph-name="thorn" horiz-adv-x="335" unicode="þ" d="M141 120q0 -12 9.5 -22.5t20.5 -10.5t19 9.5t8 23.5v307q0 14 -8 23.5t-19 9.5q-12 0 -21 -9.5t-9 -23.5v-307zM40 735h101v-224q28 26 52 37q13 7 28 7q37 0 60 -36q18 -32 18 -71v-349q0 -40 -18 -70q-23 -37 -60 -37q-24 0 -54 22q-10 8 -26 22v-224h-101v923z"/>
<glyph glyph-name="OE" horiz-adv-x="480" unicode="Œ" d="M213 591q0 15 -7 29q-9 18 -29 18q-24 0 -32 -27q-4 -11 -4 -27v-433q0 -29 15 -46q8 -8 21 -8q25 0 32 27q4 9 4 27v440zM177 0q-50 0 -84 24q-27 19 -42 51q-17 33 -18 76v433q1 42 18 75q17 35 42 53q33 23 84 23h283v-111h-139v-193h100v-118h-100v-202h139v-111 h-283z"/>
<glyph glyph-name="oe" horiz-adv-x="486" unicode="œ" d="M290 334h73v77q0 31 -14 48q-8 8 -22 8q-21 0 -31 -23q-6 -14 -6 -30v-80zM195 411v6q0 26 -13 42q-8 8 -22 8q-24 0 -31 -28q-4 -12 -3 -28v-275v-5q0 -26 13 -42q8 -8 21 -8q25 0 32 27q4 12 3 28v275zM457 196v-63q-4 -78 -55 -119q-26 -22 -76 -22q-52 0 -83 28 q-33 -28 -83 -28q-81 0 -113 72q-15 34 -16 72v275q5 80 54 122q25 22 75 22q52 0 84 -29q32 29 83 29q82 0 114 -71q15 -34 16 -70v-159h-167v-122q0 -15 6 -29q10 -23 31 -23q25 0 32 27q4 11 4 28v60h94z"/>
<glyph glyph-name="Scaron" horiz-adv-x="343" unicode="Š" d="M219 538q0 48 -8 72q-12 34 -35 34q-37 -1 -37 -73q0 -32 27 -79q9 -15 58 -88q48 -71 69 -112q32 -62 32 -115q0 -83 -31 -129q-38 -56 -119 -56q-94 0 -130 66q-27 49 -27 148l106 10q0 -59 9 -85q12 -40 42 -40q44 0 44 81q0 30 -28 81q-3 4 -12.5 19.5t-15.5 24.5 q-34 48 -68 101q-37 57 -53 114q-9 28 -9 59q0 70 32 116q39 55 109 56h3q85 0 121 -65q27 -51 27 -130zM118 800l-69 90h92l30 -35l31 35h92l-69 -90h-107z"/>
<glyph glyph-name="scaron" horiz-adv-x="308" unicode="š" d="M193 407q0 29 -4 42q-9 22 -29 22q-18 0 -25 -22q-6 -14 -6 -42q0 -24 22 -51q15 -19 44 -47q48 -48 63 -72q30 -49 30 -95q0 -61 -28 -100q-36 -50 -101 -50q-81 0 -117 62q-24 41 -24 105h94q0 -34 8 -52q13 -31 39 -31q35 0 35 66q0 34 -63 97q-49 47 -65 71 q-31 47 -31 97q0 60 25 98q33 49 98 50h4q75 0 105 -50q20 -34 20 -98h-94zM101 637l-69 90h92l30 -35l31 35h92l-69 -90h-107z"/>
<glyph glyph-name="Ydieresis" horiz-adv-x="344" unicode="Ÿ" d="M168 500l3 -7h2l3 7l54 235h106l-110 -422v-313h-108v313l-110 422h106zM196 898h93v-98h-93v98zM55 898h93v-98h-93v98z"/>
<glyph glyph-name="circumflex" horiz-adv-x="499" unicode="ˆ" d="M303 727l69 -90h-92l-31 35l-30 -35h-92l69 90h107z"/>
<glyph glyph-name="tilde" horiz-adv-x="500" unicode="˜" d="M153 711q11 9 33 16q9 3 20 3q22 0 44 -8q22 -10 44 -11q15 0 37 8q2 1 4.5 2t4 2t3.5 2l4 2v-74q-12 -11 -33 -16q-9 -3 -20 -3q-24 0 -43 9q-20 8 -45 10q-15 0 -37 -8q-2 -1 -4.5 -2t-4 -2t-3.5 -2l-4 -2v74z"/>
<glyph glyph-name="endash" horiz-adv-x="394" unicode="–" d="M36 412h322v-95h-322v95z"/>
<glyph glyph-name="emdash" horiz-adv-x="475" unicode="—" d="M36 412h403v-95h-403v95z"/>
<glyph glyph-name="quoteleft" horiz-adv-x="151" unicode="‘" d="M24 605l55 130h50l-35 -130h35v-111h-105v111z"/>
<glyph glyph-name="quotesinglbase" horiz-adv-x="151" unicode="‚" d="M127 0l-55 -130h-50l35 130h-35v111h105v-111z"/>
<glyph glyph-name="quotedblleft" horiz-adv-x="305" unicode="“" d="M174 605l55 130h50l-35 -130h35v-111h-105v111zM26 605l55 130h50l-35 -130h35v-111h-105v111z"/>
<glyph glyph-name="quotedblright" horiz-adv-x="305" unicode="”" d="M279 624l-55 -130h-50l35 130h-35v111h105v-111zM131 624l-55 -130h-50l35 130h-35v111h105v-111z"/>
<glyph glyph-name="ellipsis" horiz-adv-x="471" unicode="…" d="M340 111h105v-111h-105v111zM183 111h105v-111h-105v111zM26 111h105v-111h-105v111z"/>
<glyph glyph-name="Euro" horiz-adv-x="397" unicode="€" d="M26 468h52v116q2 45 18 79q16 35 42 55q33 25 84 25q50 0 83 -25q28 -21 43 -55q16 -34 18 -79v-41h-101v41q0 29 -16 46q-8 8 -25 8q-23 0 -33 -27q-3 -8 -5 -27v-116h114v-67h-114v-67h114v-67h-114v-116q1 -29 17 -46q8 -8 21 -8q28 0 37 27q4 9 4 27v41h101v-41 q-2 -46 -18 -80q-15 -33 -43 -54q-31 -25 -83 -25q-53 0 -84 25q-27 20 -42 54q-16 34 -18 80v116h-52v67h52v67h-52v67z"/>
<glyph glyph-name="trademark" horiz-adv-x="458" unicode="™" d="M304 401l-39 219v-219h-50v334h67l33 -156h3l33 156h67v-334h-51v219l-38 -219h-25zM36 684v51h157v-51h-51v-283h-55v283h-51z"/>
<glyph glyph-name="minus" horiz-adv-x="379" unicode="−" d="M36 401h307v-84h-307v84z"/>
</font>
</defs>
</svg>
