<?xml version="1.0" encoding="UTF-8" standalone="no"?>
<!DOCTYPE svg  PUBLIC '-//W3C//DTD SVG 1.1//EN'  'http://www.w3.org/Graphics/SVG/1.1/DTD/svg11.dtd'>
<svg xmlns="http://www.w3.org/2000/svg">
<defs>
<font id="Lato-LightItalic" horiz-adv-x="736">
<font-face slope="-7" underline-position="-452" font-weight="300" descent="-400" panose-1="2 15 5 2 2 2 4 3 2 3" units-per-em="2000" unicode-range="U+0020-25CA" bbox="-357 -422 2397 1874" x-height="995" underline-thickness="59" font-family="Lato" ascent="1600" font-style="italic" cap-height="1415"/>
<missing-glyph horiz-adv-x="2000"/>
<glyph glyph-name=".notdef" horiz-adv-x="2000"/>
<glyph glyph-name="glyph1" horiz-adv-x="0"/>
<glyph glyph-name="glyph1" horiz-adv-x="0"/>
<glyph glyph-name="nonmarkingreturn" horiz-adv-x="666"/>
<glyph glyph-name="space" horiz-adv-x="504" unicode=" "/>
<glyph glyph-name="space" horiz-adv-x="504" unicode=" "/>
<glyph glyph-name="exclam" horiz-adv-x="474" unicode="!" d="M89 77q0 19 7 36t19.5 29.5t29 20t36.5 7.5q19 0 36 -7.5t29.5 -20t20 -29.5t7.5 -36q0 -20 -7.5 -36.5t-20 -29t-29.5 -19.5t-36 -7q-39 0 -65.5 26.5t-26.5 65.5zM378 1415l-70 -572q-6 -45 -12 -85t-13 -81.5t-15.5 -87.5t-18.5 -102h-62q4 56 7 102t6.5 87.5 t7.5 81.5t9 85l70 572h91z"/>
<glyph glyph-name="quotedbl" horiz-adv-x="637" unicode='&quot;' d="M323 1415l-36 -292l-26 -154q-4 -16 -11.5 -25t-24.5 -9q-14 0 -20 9t-8 25l10 154l38 292h78zM590 1415l-36 -292l-26 -154q-4 -16 -11.5 -25t-24.5 -9q-14 0 -20 9t-8 25l10 154l38 292h78z"/>
<glyph glyph-name="numbersign" horiz-adv-x="1160" unicode="#" d="M1125 971l-11 -36q-7 -32 -46 -32h-186l-132 -391h227q16 0 23 -9t2 -31l-8 -29h-263l-147 -443h-40q-16 0 -24 11.5t0 31.5l134 400h-300l-135 -404q-6 -21 -19.5 -30t-30.5 -9h-41l148 443h-183q-26 0 -26 24q0 7 2 16l7 29h219l132 391h-254l9 37q7 31 48 31h215 l137 406q12 38 49 38h41l-150 -444h300l149 444h41q16 0 24 -11t1 -30l-137 -403h225zM804 903h-299l-132 -391h300z"/>
<glyph glyph-name="dollar" horiz-adv-x="1160" unicode="$" d="M758 1429q100 -8 171 -44.5t126 -101.5l-25 -33q-12 -16 -27 -16q-12 0 -29.5 16.5t-46.5 37.5t-73.5 39.5t-109.5 23.5l-99 -576q64 -22 126 -46t111.5 -59.5t80 -87.5t30.5 -130q0 -92 -34 -174.5t-97 -146t-152.5 -102.5t-200.5 -44l-37 -213q-2 -12 -11 -21t-22 -9 h-35l42 243q-128 6 -216.5 55t-150.5 129l31 38q14 14 30 14q9 0 20.5 -11t28.5 -27.5t40.5 -36.5t56 -37.5t75 -30t98.5 -15.5l111 641q-60 20 -117 44t-101.5 60t-71.5 87.5t-27 127.5q0 78 30.5 150.5t87.5 128.5t139 90.5t185 37.5l29 166q2 14 11 22.5t22 8.5h35z M522 63q89 5 159.5 36t119.5 80.5t75 114t26 136.5q0 58 -22.5 98t-60 69t-87 49.5t-103.5 38.5zM682 1351q-83 -4 -147 -31t-107 -69t-65 -96t-22 -112q0 -54 19.5 -92.5t53.5 -67t78 -49.5t94 -39z"/>
<glyph glyph-name="percent" horiz-adv-x="1445" unicode="%" d="M1249 398q0 60 -13 103.5t-36 72t-54 42t-67 13.5q-48 0 -92 -20.5t-77.5 -64t-53 -110.5t-19.5 -160q0 -59 13 -102t35.5 -71t54 -41.5t67.5 -13.5q48 0 91.5 20t77 63t53.5 109.5t20 159.5zM1323 398q0 -103 -27.5 -180.5t-72.5 -129.5t-103 -78.5t-120 -26.5 q-51 0 -94.5 19t-75 56t-49 91t-17.5 125q0 103 26 181.5t70 131t103 79t124 26.5q51 0 94 -19t74.5 -56.5t49.5 -92t18 -126.5zM1235 1397q8 8 16 13t22 5h65l-1109 -1398q-6 -8 -15 -12.5t-20 -4.5h-66zM634 1136q0 60 -13 103.5t-36 72t-53.5 42.5t-66.5 14 q-48 0 -92 -20.5t-77.5 -64t-53.5 -110.5t-20 -160q0 -60 13 -103t36 -71t54.5 -41.5t67.5 -13.5q48 0 91.5 20t76.5 63t53 109.5t20 159.5zM708 1137q0 -103 -27.5 -181t-72.5 -130t-103 -78t-120 -26q-51 0 -94.5 19t-74.5 55.5t-48.5 91t-17.5 125.5q0 103 26 181 t70 130.5t102.5 79t123.5 26.5q51 0 94 -19t74.5 -56t49.5 -91.5t18 -126.5z"/>
<glyph glyph-name="ampersand" horiz-adv-x="1287" unicode="&amp;" d="M1191 0h-77q-25 0 -38 6t-27 23l-154 190q-47 -51 -101 -94.5t-115 -74.5t-128 -48.5t-139 -17.5q-70 0 -132 22.5t-108.5 65t-73.5 104.5t-27 140q0 82 29 154.5t79 133t117 106.5t143 76q-48 70 -72 136.5t-24 136.5q0 80 27 148t76 118t117 78t150 28q63 0 114.5 -21 t88.5 -58.5t57 -89.5t20 -114l-51 -9q-26 -5 -31 23q-2 29 -14 63.5t-36.5 64t-62.5 49t-92 19.5q-62 0 -112.5 -22t-87 -60.5t-56.5 -91t-20 -114.5q0 -69 31 -140t91 -144l353 -434q49 73 81.5 149.5t46.5 147.5q5 25 27 25h61q-14 -94 -56.5 -193.5t-109.5 -190.5z M476 737q-71 -30 -128 -73t-97.5 -95.5t-62.5 -113.5t-22 -127t23 -116.5t60 -84.5t84.5 -51t97.5 -17q62 0 120 16.5t110.5 46t99.5 69.5t87 87l-365 450z"/>
<glyph glyph-name="quotesingle" horiz-adv-x="369" unicode="&apos;" d="M323 1415l-36 -292l-26 -154q-4 -16 -11.5 -25t-24.5 -9q-14 0 -20 9t-8 25l10 154l38 292h78z"/>
<glyph glyph-name="parenleft" horiz-adv-x="497" unicode="(" d="M189 450q0 -79 8 -163t24.5 -167.5t41 -164t57.5 -152.5q8 -17 2.5 -27t-14.5 -15l-43 -25q-42 88 -72.5 179t-49.5 180.5t-28 176t-9 166.5q0 86 5 168.5t20 165.5t41 168.5t68 177.5t102 192.5t142 214.5l39 -25q10 -7 10 -19q0 -9 -9 -23q-83 -119 -145.5 -233 t-104.5 -234t-63.5 -252.5t-21.5 -288.5z"/>
<glyph glyph-name="parenright" horiz-adv-x="497" unicode=")" d="M316 811q0 79 -8.5 163t-25.5 167.5t-41.5 164t-57.5 152.5q-7 17 -2 27t14 15l45 25q42 -89 72 -179.5t49 -179.5t28 -175.5t9 -167.5q0 -86 -5 -168.5t-19.5 -165.5t-41 -168.5t-68.5 -177.5t-102 -192.5t-142 -214.5l-38 25q-10 6 -10 18q0 9 9 24q82 119 145 238 t105 242.5t63.5 254t21.5 273.5z"/>
<glyph glyph-name="asterisk" horiz-adv-x="787" unicode="*" d="M545 1215q-16 -8 -29 -13.5t-31 -7.5q18 -2 30 -6t25 -13l161 -110l-30 -43l-159 110q-14 8 -22.5 15.5t-17.5 22.5q4 -17 5 -29t-1 -29l-26 -214h-50l26 214q2 17 6.5 30t14.5 30q-14 -15 -24.5 -23.5t-25.5 -16.5l-186 -110l-19 43l185 110q16 9 29 13t32 6v1 q-19 3 -30.5 7t-25.5 13l-159 110l30 44l159 -110q14 -9 22 -19t19 -27q-5 20 -7 34t0 31l27 215h50l-27 -214q-2 -18 -6.5 -31.5t-14.5 -32.5q13 17 24.5 26t27.5 18l186 110l18 -44z"/>
<glyph glyph-name="plus" horiz-adv-x="1160" unicode="+" d="M1054 635h-432l-56 -453h-76l56 453h-430l8 71h430l56 451h76l-56 -451h433z"/>
<glyph glyph-name="comma" horiz-adv-x="424" unicode="," d="M69 -238q-5 4 -6 8.5t-1 9.5q0 8 15.5 26.5t35.5 47t38 65.5t23 82q-15 -5 -31 -5q-37 0 -60.5 25t-23.5 64q0 35 24 60t63 25q43 0 66.5 -29.5t23.5 -77.5q0 -41 -10.5 -83.5t-30.5 -83.5t-48 -79t-62 -70z"/>
<glyph glyph-name="period" horiz-adv-x="459" unicode="." d="M76 77q0 19 7 36t19.5 29.5t29 20t36.5 7.5q19 0 36 -7.5t29.5 -20t20 -29.5t7.5 -36q0 -20 -7.5 -36.5t-20 -29t-29.5 -19.5t-36 -7q-39 0 -65.5 26.5t-26.5 65.5z"/>
<glyph glyph-name="slash" horiz-adv-x="809" unicode="/" d="M87 -47q-9 -19 -25.5 -28t-32.5 -9h-38l751 1493q17 36 56 36h39z"/>
<glyph glyph-name="zero" horiz-adv-x="1160" unicode="0" d="M976 867q0 126 -23.5 217.5t-65 151t-97 88.5t-119.5 29q-89 0 -172.5 -46t-148 -144t-103.5 -250t-39 -364q0 -126 23.5 -218t65 -151.5t97 -88t119.5 -28.5q89 0 172.5 46t148 143.5t103.5 249.5t39 365zM1072 862q0 -223 -46.5 -388t-125 -273.5t-181.5 -162 t-215 -53.5q-84 0 -156 35.5t-124 106.5t-81.5 177.5t-29.5 248.5q0 222 46.5 387t125 274t181 163t215.5 54q84 0 155.5 -35.5t124 -106.5t82 -178t29.5 -249z"/>
<glyph glyph-name="one" horiz-adv-x="1160" unicode="1" d="M906 71l-9 -71h-674l10 71h298l141 1155q2 17 5 34.5t7 35.5l-318 -278q-16 -11 -29 -8t-19 11l-23 39l421 361h73l-165 -1350h282z"/>
<glyph glyph-name="two" horiz-adv-x="1160" unicode="2" d="M901 87q16 0 24 -9t6 -24l-7 -54h-843l5 33q1 11 7.5 22t15.5 19l503 490q69 68 127.5 129.5t101 124.5t66.5 130t24 146q0 66 -20 114.5t-54.5 80.5t-80 47.5t-96.5 15.5q-61 0 -115 -20.5t-98 -57t-76 -87.5t-50 -112q-8 -21 -20.5 -28t-31.5 -5l-47 7q23 90 66 161 t102 120t131 75t153 26q69 0 129.5 -21t105.5 -62t71 -102.5t26 -142.5q0 -92 -28 -168t-76 -144t-111 -132.5t-133 -132.5l-466 -455q32 8 66.5 12t68.5 4h554z"/>
<glyph glyph-name="three" horiz-adv-x="1160" unicode="3" d="M243 1049q23 90 66 161t102 120t131 75t152 26q69 0 128.5 -20t103.5 -59t69 -97t25 -134q0 -81 -23.5 -144.5t-64.5 -111.5t-96.5 -80t-119.5 -48q63 -13 110.5 -40t79 -66t47.5 -88.5t16 -107.5q0 -97 -38 -179.5t-102.5 -143t-150 -94.5t-181.5 -34 q-111 0 -181.5 32.5t-112 84.5t-60.5 116.5t-28 128.5l38 15q17 7 33.5 4t21.5 -23q4 -12 9 -37t15.5 -56t29.5 -64t51 -60t78.5 -44.5t113.5 -17.5q88 0 157 33.5t117 87t73 119.5t25 131q0 55 -18 102t-58.5 82t-105.5 55t-158 20l8 67q91 2 162 27t120 70t75 107.5 t26 140.5q0 63 -19.5 109.5t-53 77t-78.5 45.5t-96 15q-61 0 -115 -20.5t-98.5 -57t-77 -87.5t-50.5 -112q-9 -21 -20 -28t-31 -5z"/>
<glyph glyph-name="four" horiz-adv-x="1160" unicode="4" d="M1042 481l-6 -50q-2 -11 -8.5 -17.5t-19.5 -6.5h-211l-50 -407h-81l50 407h-614q-14 0 -21 6.5t-8 17.5l-4 45l770 940h82l-115 -935h236zM725 481l91 746q3 32 12 66l-659 -812h556z"/>
<glyph glyph-name="five" horiz-adv-x="1160" unicode="5" d="M1030 1415l-5 -40q-2 -20 -16.5 -32.5t-43.5 -12.5h-466l-136 -475q124 31 224 31q91 0 160 -27.5t114.5 -76t68.5 -115t23 -144.5q0 -125 -42.5 -225t-114 -170t-164.5 -107t-194 -37q-54 0 -102 10.5t-89 28t-74.5 40t-58.5 46.5l32 38q12 15 30 15q12 0 32.5 -15 t53.5 -33.5t79.5 -33.5t110.5 -15q84 0 158 31t129 89.5t87 141.5t32 188q0 64 -18 118t-54.5 93t-93 61t-132.5 22q-52 0 -112 -9.5t-128 -29.5l-56 19l178 626h588z"/>
<glyph glyph-name="six" horiz-adv-x="1067" unicode="6" d="M462 863q-32 -38 -59 -73t-50 -67q60 57 137 89.5t162 32.5q76 0 138.5 -26t107 -73.5t69 -114.5t24.5 -148q0 -109 -37.5 -200.5t-103 -158t-155 -103.5t-193.5 -37q-83 0 -149 27t-112.5 78t-71.5 124t-25 164q0 59 13 116t40 117t69 124t100 137l418 521q8 11 22 17 t30 6h81zM510 61q87 0 158.5 31t122.5 86t79 130t28 163q0 69 -19.5 125t-56 95t-88.5 60.5t-116 21.5q-87 0 -158 -34t-121.5 -90.5t-78.5 -128.5t-28 -147q0 -68 18.5 -125t54 -98.5t87.5 -65t118 -23.5z"/>
<glyph glyph-name="seven" horiz-adv-x="1160" unicode="7" d="M1121 1415l-5 -42q-2 -17 -7.5 -29t-10.5 -20l-752 -1289q-9 -15 -23.5 -25t-35.5 -10h-63l755 1283q9 14 17.5 25.5t18.5 21.5h-746q-11 0 -17.5 7.5t-5.5 18.5l7 59h868z"/>
<glyph glyph-name="eight" horiz-adv-x="1160" unicode="8" d="M735 738q55 -14 100 -40.5t77 -65t50 -90.5t18 -117q0 -102 -36 -184t-100 -139t-151 -87.5t-189 -30.5q-86 0 -156.5 24t-120 68.5t-76.5 107.5t-27 141q0 90 25 160t69.5 121t106 84t134.5 49q-100 33 -151.5 109t-51.5 178q0 84 31 158t87.5 128.5t134.5 86.5t172 32 q80 0 142.5 -25t106 -68t66 -101.5t22.5 -124.5q0 -68 -19 -128t-55.5 -108.5t-89 -83.5t-119.5 -54zM347 1027q0 -50 14.5 -95.5t45.5 -81t79 -56.5t114 -21q81 0 142 27.5t102 74t62 107t21 125.5q0 53 -16.5 99t-48.5 80t-79.5 53.5t-109.5 19.5q-76 0 -136.5 -25.5 t-102.5 -70.5t-64.5 -105.5t-22.5 -130.5zM513 58q81 0 149 26t117.5 74t77.5 115.5t28 151.5q0 79 -27 131.5t-70 84t-95 45t-102 13.5q-39 0 -81.5 -7t-84 -24t-79 -44.5t-65.5 -68.5t-45 -96t-17 -126q0 -62 20.5 -112.5t59 -86.5t92.5 -56t122 -20z"/>
<glyph glyph-name="nine" horiz-adv-x="1160" unicode="9" d="M729 585q32 42 60 78.5t51 71.5q-61 -63 -141 -97.5t-165 -34.5q-72 0 -131.5 25t-102.5 70.5t-66.5 110t-23.5 142.5q0 103 37 190.5t101 152t150 101t184 36.5q79 0 142.5 -28t108.5 -78t69.5 -120t24.5 -155q0 -68 -14 -126t-41.5 -114t-67.5 -114.5t-92 -127.5 l-407 -546q-8 -11 -21.5 -16.5t-28.5 -5.5h-84zM569 675q84 0 152.5 33t116.5 86t74.5 121t26.5 138q0 66 -19 121.5t-54.5 95t-84.5 62t-109 22.5q-79 0 -146 -28.5t-116.5 -80.5t-77.5 -124.5t-28 -160.5q0 -66 18.5 -118.5t53 -89.5t83.5 -57t110 -20z"/>
<glyph glyph-name="colon" horiz-adv-x="473" unicode=":" d="M83 77q0 19 7 36t19.5 29.5t29 20t36.5 7.5q19 0 36 -7.5t29.5 -20t20 -29.5t7.5 -36q0 -20 -7.5 -36.5t-20 -29t-29.5 -19.5t-36 -7q-39 0 -65.5 26.5t-26.5 65.5zM173 874q0 19 7 36t19.5 29.5t29 20t36.5 7.5q19 0 36 -7.5t29.5 -20t20 -29.5t7.5 -36 q0 -20 -7.5 -36.5t-20 -29t-29.5 -19.5t-36 -7q-39 0 -65.5 26.5t-26.5 65.5z"/>
<glyph glyph-name="semicolon" horiz-adv-x="493" unicode=";" d="M108 -238q-5 4 -6 8.5t-1 9.5q0 8 15.5 26.5t35.5 47t38 65.5t23 82q-15 -5 -31 -5q-37 0 -60.5 25t-23.5 64q0 35 24 60t63 25q43 0 66.5 -29.5t23.5 -77.5q0 -41 -10.5 -83.5t-30.5 -83.5t-48 -79t-62 -70zM182 874q0 19 7 36t19.5 29.5t29 20t36.5 7.5q19 0 36 -7.5 t29.5 -20t20 -29.5t7.5 -36q0 -20 -7.5 -36.5t-20 -29t-29.5 -19.5t-36 -7q-39 0 -65.5 26.5t-26.5 65.5z"/>
<glyph glyph-name="less" horiz-adv-x="1160" unicode="&lt;" d="M983 1077l-8 -65q-1 -21 -31 -35l-588 -280q-31 -15 -74 -25q37 -9 68 -26l519 -281q25 -12 23 -35l-9 -65l-702 386l3 31h1l1 10z"/>
<glyph glyph-name="equal" horiz-adv-x="1160" unicode="=" d="M195 867h826l-8 -71h-826zM157 555h826l-8 -71h-827z"/>
<glyph glyph-name="greater" horiz-adv-x="1160" unicode="&gt;" d="M990 660l-1 -9l-798 -386l8 65q2 11 8.5 19.5t22.5 15.5l588 281q33 16 75 25q-37 9 -69 26l-519 280q-25 14 -22 35l8 65l703 -385z"/>
<glyph glyph-name="question" horiz-adv-x="808" unicode="?" d="M228 77q0 19 7 36t19.5 29.5t29 20t36.5 7.5q19 0 36.5 -7.5t30 -20t20 -29.5t7.5 -36q0 -39 -27.5 -65.5t-66.5 -26.5t-65.5 26.5t-26.5 65.5zM167 1290q29 27 63.5 52.5t75 45t86.5 31.5t98 12q61 0 112.5 -19t89 -54t58.5 -83.5t21 -107.5q0 -83 -24.5 -142t-62 -103 t-82.5 -76.5t-85.5 -62.5t-70.5 -61t-38 -71l-32 -164h-64l17 170q4 44 31.5 78.5t67 65.5t84.5 62.5t83 71.5t63.5 92t25.5 124q0 47 -16 84.5t-44.5 64t-67 40.5t-82.5 14q-62 0 -108 -17.5t-78 -38.5t-52 -38.5t-30 -17.5q-6 0 -10 2t-9 10z"/>
<glyph glyph-name="at" horiz-adv-x="1528" unicode="@" d="M1253 -84q-111 -74 -239.5 -114t-280.5 -40q-138 0 -254 45.5t-199.5 132t-130.5 211t-47 283.5q0 129 30 245.5t83 216t126.5 180t161.5 137t186.5 87t202.5 30.5q112 0 212.5 -36.5t176.5 -108t120 -176.5t44 -242q0 -129 -34 -235.5t-90.5 -183t-130 -118.5 t-153.5 -42t-112 42t-32 107q0 15 1 31q-63 -93 -133 -134.5t-146 -41.5q-45 0 -78 16t-54 44.5t-31.5 66.5t-10.5 82q0 59 16.5 121t47.5 120t76 109t101.5 89t124.5 60t146 22q49 0 91 -8.5t75 -25.5l-127 -347q-33 -93 -37 -130.5t-4 -52.5q0 -33 11 -60t37 -37.5 t58 -10.5q59 0 116.5 36.5t102.5 104t72.5 163t27.5 213.5q0 124 -38 218t-104 156t-156 93.5t-193 31.5q-92 0 -180.5 -27.5t-168 -78.5t-146 -124t-115 -165t-76 -200.5t-27.5 -230.5q0 -148 43 -262t119.5 -192t180 -118t225.5 -40q137 0 253.5 34t211.5 96q18 11 28 5.5 t13 -16.5zM1031 847q-21 6 -44.5 9.5t-53.5 3.5q-59 0 -113 -18.5t-100 -51t-83.5 -76.5t-64 -93.5t-41 -103t-14.5 -105.5q0 -33 7.5 -61.5t23 -49.5t39 -33t55.5 -12q33 0 69 12t72 43.5t71 85.5t65 138z"/>
<glyph glyph-name="A" horiz-adv-x="1217" unicode="A" d="M1117 0h-77q-14 0 -22 7.5t-11 18.5l-101 414h-634l-203 -414q-5 -11 -16 -18.5t-24 -7.5h-76l706 1415h99zM888 513l-175 720q-4 18 -8 39.5t-8 46.5q-10 -25 -19.5 -46.5t-17.5 -40.5l-352 -719h580z"/>
<glyph glyph-name="B" horiz-adv-x="1176" unicode="B" d="M675 1415q102 0 176 -21t123 -60.5t72.5 -96.5t23.5 -129q0 -68 -21.5 -129.5t-62 -112t-99 -87.5t-131.5 -55q139 -23 211.5 -98.5t72.5 -196.5q0 -98 -33.5 -177.5t-97 -135.5t-154.5 -86t-206 -30h-425l174 1415h377zM388 1336l-72 -585h279q97 0 168 29t117 76.5 t68 108.5t22 126q0 119 -74.5 182t-229.5 63h-278zM557 79q186 0 285 90.5t99 256.5q0 58 -20.5 104.5t-60 79.5t-97 51t-131.5 18h-325l-74 -600h324z"/>
<glyph glyph-name="C" horiz-adv-x="1258" unicode="C" d="M667 69q73 0 131 12.5t103 31t77.5 40t55.5 40t37 31t22 12.5q9 0 13 -6l36 -42q-92 -93 -211.5 -148.5t-279.5 -55.5q-122 0 -220.5 44t-168 125t-107 194t-37.5 251q0 185 56.5 338.5t155 263.5t232 170.5t288.5 60.5q73 0 131 -11.5t106.5 -33.5t89 -55t78.5 -75 l-32 -40q-11 -12 -26 -12q-9 0 -20.5 10.5t-29 26t-43 34t-62 34t-85.5 26t-113 10.5q-132 0 -246 -52t-198 -148t-132 -233t-48 -307q0 -124 33 -223.5t92 -169t141 -106.5t181 -37z"/>
<glyph glyph-name="D" horiz-adv-x="1413" unicode="D" d="M1215 813q0 121 -31.5 218t-90 164t-142 103t-187.5 36h-376l-155 -1253h376q132 0 243 49.5t192 143.5t126 230t45 309zM1318 815q0 -125 -24.5 -234t-70 -199.5t-110 -161.5t-144.5 -120t-173 -74.5t-196 -25.5h-476l174 1415h476q125 0 226 -42.5t171.5 -120.5 t108.5 -189t38 -248z"/>
<glyph glyph-name="E" horiz-adv-x="1078" unicode="E" d="M388 1333l-71 -576h567l-11 -80h-566l-73 -595h684l-11 -82h-783l174 1415h782l-11 -82h-681z"/>
<glyph glyph-name="F" horiz-adv-x="1058" unicode="F" d="M388 1333l-74 -599h591l-12 -83h-589l-80 -651h-100l174 1415h782l-11 -82h-681z"/>
<glyph glyph-name="G" horiz-adv-x="1367" unicode="G" d="M1183 139q-53 -37 -108.5 -66t-118 -48.5t-132.5 -30t-152 -10.5q-127 0 -229.5 44.5t-174.5 125.5t-110.5 194.5t-38.5 251.5q0 187 55 340.5t154 262.5t236 168.5t301 59.5q77 0 140 -11.5t115 -33.5t95 -54t81 -73l-31 -39q-16 -25 -42 -11q-14 6 -37.5 28t-65 46 t-105.5 43t-158 19q-141 0 -258 -52t-201.5 -148t-131 -233.5t-46.5 -308.5q0 -124 33 -223.5t94 -169.5t147 -107.5t193 -37.5q67 0 123 7.5t105 22.5t94 36.5t90 48.5l47 384h-247q-11 0 -17.5 6.5t-4.5 15.5l6 55h363z"/>
<glyph glyph-name="H" horiz-adv-x="1403" unicode="H" d="M1306 1415l-174 -1415h-100l83 679h-808l-83 -679h-100l174 1415h100l-81 -661h808l81 661h100z"/>
<glyph glyph-name="I" horiz-adv-x="495" unicode="I" d="M224 0h-100l173 1415h100z"/>
<glyph glyph-name="J" horiz-adv-x="781" unicode="J" d="M577 441q-14 -117 -50.5 -203t-91.5 -142.5t-127.5 -84t-159.5 -27.5q-54 0 -98 7t-87 22l7 54q2 8 7.5 15t19.5 7q10 0 22 -3.5t29.5 -7.5t42 -7.5t59.5 -3.5q59 0 113 18.5t97.5 62t74 115t43.5 176.5l120 976h99z"/>
<glyph glyph-name="K" horiz-adv-x="1180" unicode="K" d="M316 760h77q17 0 30 1.5t24.5 6t21.5 11.5t21 19l592 588q16 18 30.5 23.5t33.5 5.5h81l-642 -637q-18 -19 -33 -30.5t-32 -17.5q35 -12 58 -50l511 -680h-80q-26 0 -36 6.5t-18 19.5l-470 614q-8 11 -15.5 19t-18 13.5t-24.5 8t-36 2.5h-84l-84 -683h-99l173 1417h100z "/>
<glyph glyph-name="L" horiz-adv-x="933" unicode="L" d="M849 85l-11 -85h-714l174 1415h99l-164 -1330h616z"/>
<glyph glyph-name="M" horiz-adv-x="1686" unicode="M" d="M1589 1415l-174 -1415h-87l149 1209q3 25 9 53l-630 -990q-16 -25 -41 -25h-16q-27 0 -35 25l-402 993q0 -30 -3 -55l-148 -1210h-87l174 1415h68q14 0 21 -3.5t15 -15.5l404 -996q4 -11 7 -22.5t6 -23.5q10 22 24 46l638 996q10 12 17.5 15.5t21.5 3.5h69z"/>
<glyph glyph-name="N" horiz-adv-x="1403" unicode="N" d="M1306 1415l-174 -1415h-46q-13 0 -21 5.5t-16 16.5l-686 1232q-1 -12 -1.5 -23t-2.5 -22l-148 -1209h-87l174 1415h49q14 0 20 -3.5t14 -15.5l686 -1232q1 14 1.5 26.5t2.5 23.5l148 1201h87z"/>
<glyph glyph-name="O" horiz-adv-x="1473" unicode="O" d="M1278 814q0 123 -31.5 221.5t-90.5 168t-142.5 107t-186.5 37.5q-130 0 -241 -52t-192.5 -149t-127.5 -235t-46 -310q0 -123 32 -221.5t91 -167.5t142 -106.5t186 -37.5q132 0 243 51.5t192 148.5t126.5 234.5t45.5 310.5zM1381 816q0 -187 -54.5 -340t-151.5 -262 t-229 -169t-286 -60q-124 0 -224 44.5t-170.5 125.5t-108.5 194t-38 250q0 186 55 339.5t151.5 263t228 169.5t284.5 60q125 0 225.5 -44.5t171 -125.5t108.5 -194.5t38 -250.5z"/>
<glyph glyph-name="P" horiz-adv-x="1078" unicode="P" d="M637 1415q208 0 312 -93.5t104 -262.5q0 -108 -37 -197.5t-105 -154t-164 -100.5t-214 -36h-240l-70 -571h-99l173 1415h340zM543 651q94 0 169.5 30t129 83t82.5 126t29 159q0 136 -81.5 211.5t-244.5 75.5h-240l-84 -685h240z"/>
<glyph glyph-name="Q" horiz-adv-x="1473" unicode="Q" d="M925 36q-61 -25 -127 -38t-138 -13q-124 0 -224 44.5t-170.5 125.5t-108.5 194t-38 250q0 186 55 339.5t151.5 263t228 169.5t284.5 60q125 0 225.5 -44.5t171 -125.5t108.5 -194.5t38 -250.5q0 -128 -26.5 -241t-75 -207t-117 -168t-152.5 -123l290 -389h-78 q-39 0 -59 24zM220 602q0 -123 32 -221.5t91 -167.5t142 -106.5t186 -37.5q132 0 243 51.5t192 148.5t126.5 234.5t45.5 310.5q0 123 -31.5 221.5t-90.5 168t-142.5 107t-186.5 37.5q-130 0 -241 -52t-192.5 -149t-127.5 -235t-46 -310z"/>
<glyph glyph-name="R" horiz-adv-x="1128" unicode="R" d="M633 1415q205 0 306.5 -81.5t101.5 -236.5q0 -92 -30 -168.5t-85 -133.5t-132.5 -93.5t-171.5 -48.5q19 -12 35 -39l369 -614h-85q-16 0 -26.5 5.5t-18.5 19.5l-341 576q-14 22 -30.5 31t-53.5 9h-169l-79 -641h-99l173 1415h336zM534 715q95 0 170.5 26t128.5 74t81 116 t28 151q0 128 -81 191t-237 63h-236l-77 -621h223z"/>
<glyph glyph-name="S" horiz-adv-x="996" unicode="S" d="M910 1244q-11 -17 -26 -17q-12 0 -29 19t-46.5 41.5t-76 41.5t-116.5 19q-76 0 -135.5 -24.5t-101 -67t-63.5 -99t-22 -120.5q0 -61 25 -102.5t65.5 -71t92 -51t106 -42t106 -45t92 -59.5t65.5 -85t25 -123q0 -96 -33 -182.5t-94.5 -151t-149.5 -102.5t-197 -38 q-128 0 -216 49.5t-148 135.5l33 43q14 14 28 14q9 0 20.5 -12t28 -29.5t39 -38t54.5 -38t74.5 -29.5t98.5 -12q84 0 152 28.5t116 78.5t73.5 117.5t25.5 145.5q0 62 -25 103.5t-65.5 70.5t-92 49t-105.5 40t-106 44t-92.5 59.5t-65 87t-24.5 126.5q0 81 29 156t83.5 132.5 t133.5 91.5t180 34q102 0 179 -37.5t133 -109.5z"/>
<glyph glyph-name="T" horiz-adv-x="1065" unicode="T" d="M1127 1331h-455l-164 -1331h-99l164 1331h-459l10 84h1013z"/>
<glyph glyph-name="U" horiz-adv-x="1353" unicode="U" d="M612 70q93 0 170.5 36t136 99t96.5 149t50 185l108 876h99l-107 -876q-15 -117 -62 -218.5t-120.5 -176.5t-170.5 -118t-212 -43q-114 0 -200 43t-141 118q-55 74 -77 176q-13 62 -13 130q0 43 5 89l107 876h99l-107 -875q-5 -42 -5 -81q0 -54 10 -104q16 -86 59 -149.5 t112.5 -99.5t162.5 -36z"/>
<glyph glyph-name="V" horiz-adv-x="1212" unicode="V" d="M1287 1415l-710 -1415h-89l-364 1415h79q14 0 22 -7.5t10 -18.5l294 -1181q5 -21 10 -45t8 -50q9 26 18.5 50t20.5 45l583 1181q5 11 15.5 18.5t24.5 7.5h78z"/>
<glyph glyph-name="W" horiz-adv-x="1876" unicode="W" d="M1930 1415l-583 -1415h-89l-232 1233q-3 21 -6 53l-9.5 -28.5t-9.5 -24.5l-535 -1233h-88l-236 1415h77q30 0 32 -26l188 -1176q2 -19 3.5 -39.5t3.5 -42.5q7 22 14 43t15 39l511 1176q5 11 15 18.5t24 7.5h22q26 0 33 -26l221 -1176q3 -18 5.5 -38.5t4.5 -42.5 q6 22 13 42t13 39l476 1176q3 11 15 18.5t26 7.5h76z"/>
<glyph glyph-name="X" horiz-adv-x="1166" unicode="X" d="M673 761l396 -761h-89q-14 0 -20 8t-11 16l-345 680q-6 -14 -15 -24l-500 -656q-17 -24 -40 -24h-98l584 756l-350 659h89q14 0 20 -5t12 -16l301 -587q7 14 15 26l432 564q12 18 32 18h99z"/>
<glyph glyph-name="Y" horiz-adv-x="1103" unicode="Y" d="M600 583l-73 -583h-99l73 584l-381 831h88q26 0 34 -25l299 -668q6 -17 11 -33.5t8 -33.5q8 17 17 33.5t20 33.5l464 668q7 11 16 18t23 7h83z"/>
<glyph glyph-name="Z" horiz-adv-x="1097" unicode="Z" d="M1123 1382q-2 -9 -5.5 -15.5t-10.5 -15.5l-974 -1269h824l-11 -82h-959l5 33q2 8 5.5 14.5t8.5 14.5l976 1271h-807l11 82h942z"/>
<glyph glyph-name="bracketleft" horiz-adv-x="559" unicode="[" d="M599 1481q-2 -12 -10.5 -19.5t-21.5 -7.5h-188l-204 -1654h189q13 0 20 -8t5 -20l-5 -35h-294l218 1779h294z"/>
<glyph glyph-name="backslash" horiz-adv-x="800" unicode="\" d="M175 1445h39q39 0 48 -36l384 -1493h-38q-16 0 -30.5 9t-19.5 28z"/>
<glyph glyph-name="bracketright" horiz-adv-x="562" unicode="]" d="M259 -263h-295l4 35q2 12 10.5 20t22.5 8h188l202 1654h-187q-14 0 -21 7.5t-5 19.5l4 35h296z"/>
<glyph glyph-name="asciicircum" horiz-adv-x="1160" unicode="^" d="M1004 800h-67q-11 0 -20 6.5t-14 16.5l-241 436q-19 34 -27 62q-5 -15 -11.5 -30.5t-15.5 -31.5l-240 -436q-5 -8 -13 -15.5t-22 -7.5h-70l341 615h59z"/>
<glyph glyph-name="underscore" horiz-adv-x="887" unicode="_" d="M707 -207l-9 -65h-724l7 65h726z"/>
<glyph glyph-name="grave" d="M424 1431q22 0 32.5 -7t18.5 -25l117 -238h-50q-11 0 -18.5 3.5t-12.5 13.5l-172 253h85z" unicode="`"/>
<glyph glyph-name="a" horiz-adv-x="997" unicode="a" d="M727 346q-38 -80 -83.5 -146.5t-97.5 -113.5t-109 -73t-118 -26q-62 0 -109.5 24.5t-79 69.5t-47.5 109t-16 144q0 87 22.5 170.5t62.5 158.5t96 138t124 109t145 72t159 26q59 0 111.5 -10.5t102.5 -36.5l-117 -961h-46q-20 0 -27 11t-7 25zM792 917q-30 11 -62 15.5 t-65 4.5q-100 0 -191 -49t-160 -131t-110 -188t-41 -220q0 -134 45.5 -208.5t141.5 -74.5q57 0 112 32t105.5 90t94.5 139.5t79 180.5z"/>
<glyph glyph-name="b" horiz-adv-x="1031" unicode="b" d="M253 659q39 79 86.5 143.5t101 110.5t112 71.5t118.5 25.5q65 0 114 -25t82 -70.5t50 -110.5t17 -145q0 -77 -16 -156.5t-45.5 -154t-72 -140.5t-96.5 -115t-118.5 -77.5t-136.5 -28.5q-84 0 -154.5 38.5t-112.5 114.5l-19 -108q-5 -16 -11 -24t-24 -8h-47l176 1455h93z M197 206q22 -40 49.5 -67.5t58.5 -44.5t64.5 -24.5t68.5 -7.5q63 0 117.5 25.5t99 69.5t79 102.5t58 123.5t36 133.5t12.5 133.5q0 134 -51 208.5t-149 74.5q-57 0 -114.5 -32t-110.5 -90t-100 -140t-83 -182z"/>
<glyph glyph-name="c" horiz-adv-x="911" unicode="c" d="M801 182q-53 -59 -100.5 -97t-93 -60t-92.5 -30t-100 -8q-86 0 -149.5 29.5t-105.5 82.5t-63 126t-21 159q0 79 16.5 156.5t47.5 147.5t75 129t99 102t119.5 67.5t137.5 24.5q49 0 88.5 -9.5t72.5 -27t60 -42.5t50 -56l-28 -33q-9 -11 -21 -11q-10 0 -24.5 16t-39 34.5 t-63.5 34.5t-98 16q-84 0 -156.5 -45t-126 -121t-84 -175.5t-30.5 -207.5q0 -69 15.5 -128t48 -102t81.5 -67t116 -24q53 0 95 11.5t74.5 28.5t57 37.5t43.5 37.5t32.5 28.5t24.5 11.5t21 -10z"/>
<glyph glyph-name="d" horiz-adv-x="1032" unicode="d" d="M983 1455l-178 -1455h-46q-20 0 -27 11t-7 25l33 313q-39 -81 -87.5 -147.5t-102.5 -114.5t-113 -74t-120 -26q-65 0 -114 25t-82 71t-50 111t-17 146q0 76 16 155.5t45.5 154t72 140t96.5 114.5t118 77.5t137 28.5q81 0 149.5 -35.5t111.5 -105.5l73 586h92zM809 793 q-22 39 -49.5 66.5t-58.5 44t-65 24t-68 7.5q-63 0 -117.5 -25.5t-99 -69.5t-79 -102t-58 -123t-36 -134t-12.5 -133q0 -134 51 -209t149 -75q57 0 114 32t110.5 90t100 139.5t82.5 180.5z"/>
<glyph glyph-name="e" horiz-adv-x="937" unicode="e" d="M818 185q-49 -52 -95.5 -89.5t-94 -61.5t-98.5 -35.5t-109 -11.5q-83 0 -147.5 27.5t-108.5 78t-67 123t-23 162.5q0 75 15 151t44.5 146t73 131t99.5 106t124 71t147 26q73 0 123.5 -20.5t82 -51t45.5 -66t14 -66.5q0 -41 -11 -78t-39 -70t-76 -62t-122.5 -53.5 t-178.5 -44.5t-244 -35q-2 -20 -3.5 -41t-1.5 -41q0 -149 67.5 -233t203.5 -84q53 0 95.5 11.5t76 29.5t59 38t45.5 38t34.5 29.5t26.5 11.5t21 -10zM573 939q-80 0 -144.5 -33.5t-114 -90.5t-83 -131.5t-49.5 -155.5q127 14 219 32.5t156 39t104 44.5t61.5 49.5t29 52.5 t7.5 56q0 21 -9.5 45.5t-31.5 44.5t-57.5 33.5t-87.5 13.5z"/>
<glyph glyph-name="f" horiz-adv-x="616" unicode="f" d="M331 894l-106 -873l-42 -230q-12 -41 -49 -41h-34l139 1143l-125 8q-12 2 -18 8t-5 18l4 37h152l16 126q11 85 40 149.5t72.5 107.5t98.5 64.5t118 21.5q28 0 55.5 -5.5t50.5 -15.5l-10 -48q-2 -8 -9 -9.5t-18.5 0t-27.5 4t-37 2.5q-46 0 -86 -15t-72 -47.5t-54 -84.5 t-31 -127l-16 -123h281l-10 -70h-277z"/>
<glyph glyph-name="g" horiz-adv-x="924" unicode="g" d="M930 960l-3 -32q-2 -10 -8 -17.5t-20 -9.5l-162 -13q18 -31 28 -68.5t10 -83.5q-1 -55 -14.5 -100t-33.5 -82.5t-43.5 -70t-43.5 -63.5t-33 -63t-13 -68q-1 -28 11 -52t30 -48t38.5 -48t38.5 -52t29.5 -61t11.5 -74q-1 -63 -32.5 -121.5t-89.5 -103.5t-139.5 -72 t-181.5 -27q-79 0 -144.5 16t-113 46.5t-73.5 74.5t-26 100q1 84 51.5 146t135 99.5t194.5 48.5q45 4 91 4q68 0 139 -9q-17 23 -29 49t-12 58q0 35 12 71t46 87q-40 -28 -86 -43t-100 -15q-57 0 -106 18t-84 53.5t-55 87t-20 119.5q0 69 24.5 135.5t71 118.5t114.5 83.5 t155 31.5q103 0 176 -50h259zM613 93q-98 14 -178 14q-38 0 -73 -3q-107 -10 -177.5 -42t-105.5 -81t-36 -104q0 -43 19.5 -76.5t55.5 -56t87 -34.5t113 -12q79 0 143 21t109.5 56t70.5 80t25 93v6q0 45 -15 78q-16 35 -39 64zM418 425q64 0 114.5 27t85 70.5t53 99 t18.5 111.5q0 104 -55.5 156.5t-147.5 52.5q-65 0 -115 -25.5t-84 -67.5t-52 -96.5t-18 -111.5q0 -106 54 -161t147 -55z"/>
<glyph glyph-name="h" horiz-adv-x="1031" unicode="h" d="M259 696q40 74 88.5 132.5t102 99t110 61.5t112.5 21q65 0 111 -25t73 -73q28 -48 36 -118q4 -30 3 -64q0 -44 -6 -94l-75 -636h-94l75 636q5 46 5 84q0 82 -24 134q-36 76 -135 77q-54 0 -110 -27.5t-108.5 -78.5t-99.5 -123.5t-83 -162.5l-65 -539h-94l176 1455h94z "/>
<glyph glyph-name="i" horiz-adv-x="423" unicode="i" d="M379 1338q0 -18 -7.5 -33.5t-19.5 -27.5t-27.5 -19t-31.5 -7q-17 0 -32 7t-26 19t-18 27.5t-7 33.5t7 34t18.5 28.5t26.5 19.5t32 7q16 0 31.5 -7t27.5 -19t19 -28.5t7 -34.5zM306 995l-121 -995h-93l121 995h93z"/>
<glyph glyph-name="j" horiz-adv-x="422" unicode="j" d="M380 1338q0 -18 -7 -33.5t-19 -27.5t-27.5 -19t-31.5 -7q-17 0 -32 7t-26.5 19t-18.5 27.5t-7 33.5t7 34t18.5 28.5t26.5 19.5t32 7q16 0 31.5 -7t27.5 -19t19 -28.5t7 -34.5zM306 995l-138 -1122q-6 -52 -26 -96t-51.5 -76.5t-75 -51t-96.5 -18.5q-29 0 -50 5t-40 16 l10 48q4 9 9 10.5t12.5 0t19 -4t29.5 -2.5q74 0 114.5 44t51.5 125l138 1122h93z"/>
<glyph glyph-name="k" horiz-adv-x="885" unicode="k" d="M351 1455l-109 -887h38q17 0 28.5 4.5t25.5 18.5l412 379q11 12 23 18.5t29 6.5h81l-455 -417q-11 -11 -20 -19t-20 -14q13 -8 22.5 -18.5t17.5 -24.5l364 -502h-79q-14 0 -24 4.5t-18 18.5l-330 448q-13 19 -26 25t-41 6h-36l-61 -502h-93l178 1455h93z"/>
<glyph glyph-name="l" horiz-adv-x="418" unicode="l" d="M90 0l176 1455h93l-177 -1455h-92z"/>
<glyph glyph-name="m" horiz-adv-x="1560" unicode="m" d="M81 0l120 998h43q35 0 35 -36l-28 -278q78 155 180 240.5t215 85.5q58 0 96 -21t59 -61.5t27 -99.5q3 -30 3 -63.5t-3 -71.5q39 80 85.5 139.5t98 99t105.5 59t107 19.5q65 0 107.5 -25t65.5 -73t27 -118q1 -20 2 -41q0 -53 -8 -117l-75 -636h-93l75 636q8 61 8 110 q-1 8 -1 16q-2 55 -16 92.5t-43.5 56.5t-78.5 19t-99.5 -22.5t-99 -67.5t-92 -113t-78.5 -160l-67 -567h-93l75 636q9 71 9 126t-13 92.5t-41.5 56.5t-77.5 19q-114 0 -210.5 -104t-169.5 -294l-63 -532h-93z"/>
<glyph glyph-name="n" horiz-adv-x="1032" unicode="n" d="M251 675q40 79 89.5 141.5t104.5 105.5t113 65.5t117 22.5q64 0 109.5 -25t73.5 -73t36 -118q4 -30 3 -64q0 -44 -6 -94l-75 -636h-94l75 636q5 46 5 84q0 82 -24 134q-36 76 -135 76q-56 0 -112.5 -28.5t-110 -81t-100.5 -127t-83 -167.5l-61 -526h-94l119 998h43 q35 0 35 -36z"/>
<glyph glyph-name="o" horiz-adv-x="1026" unicode="o" d="M433 -13q-80 0 -145.5 28t-112 81t-72 128.5t-25.5 171.5q0 121 36 232t101.5 196t155.5 135.5t198 50.5q80 0 145.5 -28t112 -81t72 -128.5t25.5 -169.5q0 -121 -36.5 -232t-101.5 -196.5t-155 -136.5t-198 -51zM441 62q87 0 158.5 45.5t122.5 121t78.5 173t27.5 200.5 q0 160 -71 246t-197 86q-87 0 -158.5 -45t-122 -119.5t-78.5 -171.5t-28 -202q0 -159 70.5 -246.5t197.5 -87.5z"/>
<glyph glyph-name="p" horiz-adv-x="1032" unicode="p" d="M249 649q39 81 87.5 147.5t102.5 114t113 73.5t120 26q65 0 114 -25t82 -70.5t50 -110.5t17 -145q0 -77 -16 -156.5t-45.5 -154t-72 -140.5t-96.5 -115t-118.5 -77.5t-136.5 -28.5q-81 0 -149.5 36t-111.5 106l-59 -481h-92l164 1350h43q35 0 35 -36zM198 205 q44 -79 108 -111t133 -32q63 0 117.5 25.5t99 69.5t79 102.5t58 123.5t36 133.5t12.5 133.5q0 134 -51 208.5t-149 74.5q-57 0 -114.5 -32t-110.5 -90t-100 -139.5t-83 -181.5z"/>
<glyph glyph-name="q" horiz-adv-x="998" unicode="q" d="M719 328q-38 -77 -82.5 -139.5t-95 -107.5t-106 -69.5t-115.5 -24.5q-63 0 -110 24.5t-78.5 69.5t-47.5 109t-16 144q0 87 22 170.5t62.5 158.5t96.5 138t123.5 109t144.5 72t159 26q60 0 112 -10.5t103 -36.5l-161 -1313h-54q-23 0 -31 14.5t-5 38.5zM793 917 q-30 11 -62 15.5t-66 4.5q-67 0 -130 -22.5t-118.5 -62.5t-102 -95t-80.5 -120.5t-52.5 -138.5t-18.5 -149q0 -134 45.5 -208.5t142.5 -74.5q57 0 112 32t105 90t94.5 139.5t79.5 180.5z"/>
<glyph glyph-name="r" horiz-adv-x="657" unicode="r" d="M250 667q41 98 89.5 170t103 114t113.5 52q17 3 35 3q42 0 85 -17l-17 -89q-45 17 -86 17q-22 -1 -43 -5q-61 -14 -114.5 -64t-99 -136t-81.5 -204l-61 -508h-93l120 998h43q35 0 35 -36z"/>
<glyph glyph-name="s" horiz-adv-x="786" unicode="s" d="M697 873q-8 -14 -22 -14q-10 0 -24.5 12.5t-39 28t-61.5 28t-92 12.5q-51 0 -96.5 -17t-79 -45.5t-53 -66t-19.5 -79.5q0 -41 19 -69t50.5 -48.5t71 -35.5t81.5 -30t81.5 -33.5t71 -44.5t50.5 -63.5t19 -90.5q0 -64 -25.5 -124t-73 -106.5t-114 -74.5t-148.5 -28 q-96 0 -161.5 33.5t-112.5 87.5l24 34q11 16 27 16q10 0 25 -16t41 -35.5t67 -35.5t103 -16q60 0 108.5 19.5t83 53.5t53.5 78.5t19 94.5q0 44 -19 74t-50.5 51.5t-71 36.5t-81.5 29.5t-81.5 32t-71 42.5t-50.5 61t-19 88q0 58 25 111.5t70 95t107.5 66t136.5 24.5 q84 0 145.5 -26t109.5 -78z"/>
<glyph glyph-name="t" horiz-adv-x="682" unicode="t" d="M153 167q0 6 0.5 15t2 27t4.5 46.5t9 72.5l68 565h-131q-10 0 -16 6q-4 4 -4 12v5l5 37l157 12l66 356q2 9 9 16t17 7h46l-47 -380h288l-8 -71h-288l-69 -562q-5 -41 -8.5 -67t-5 -42.5t-2 -24.5t-0.5 -12q0 -65 30.5 -94t78.5 -29q33 0 58.5 10.5t44.5 23t31 23t18 10.5 q10 0 15 -10l18 -42q-40 -42 -97 -67.5t-114 -25.5q-82 0 -128.5 45t-47.5 138z"/>
<glyph glyph-name="u" horiz-adv-x="1032" unicode="u" d="M925 995l-120 -995h-44q-19 0 -27.5 10t-8.5 27l30 283q-41 -79 -90 -141t-103.5 -104.5t-113 -65t-116.5 -22.5q-128 1 -183 99q-39 70 -39 181q0 44 6 95l75 633h94l-75 -633q-5 -46 -5 -85q0 -83 24 -135q36 -76 135 -76q55 0 111.5 28t109.5 80.5t100 126t83 165.5 l63 529h94z"/>
<glyph glyph-name="v" horiz-adv-x="927" unicode="v" d="M940 995l-510 -995h-78l-267 995h73q14 0 21.5 -7.5t9.5 -16.5l203 -785q4 -23 6.5 -45.5t4.5 -45.5q7 23 15 45t19 46l397 785q5 11 14 17.5t21 6.5h71z"/>
<glyph glyph-name="w" horiz-adv-x="1410" unicode="w" d="M1410 995l-427 -995h-68q-16 0 -19 21l-152 808q-5 24 -6 47q-4 -12 -8 -23.5t-9 -23.5l-353 -808q-8 -21 -24 -21h-65l-184 995h67q26 0 31 -24l133 -785q5 -44 6 -85l16 42t17 43l342 792q7 22 29 22h37q22 0 24 -22l147 -792q4 -22 6.5 -43t4.5 -42q7 20 14 41t15 44 l326 785q5 11 14 17.5t20 6.5h66z"/>
<glyph glyph-name="x" horiz-adv-x="872" unicode="x" d="M489 531l279 -531h-80q-24 0 -33 22l-234 457q-8 -16 -16 -28l-334 -431q-7 -8 -14.5 -14t-19.5 -6h-80l414 533l-251 462h80q13 0 19 -3.5t11 -11.5l209 -398q7 15 16 27l288 369q10 17 27 17h84z"/>
<glyph glyph-name="y" horiz-adv-x="929" unicode="y" d="M944 995l-691 -1319q-14 -28 -41 -28h-67l210 390l-267 957h74q14 0 21 -6.5t9 -17.5l210 -774q4 -15 5.5 -30t3.5 -30q6 15 13 30l14 30l401 777q5 11 14 16t18 5h73z"/>
<glyph glyph-name="z" horiz-adv-x="827" unicode="z" d="M808 995l-5 -40q-1 -19 -19 -38l-671 -842h559l-8 -75h-674l4 38q0 8 5 18t13 19l673 845h-553l10 75h666z"/>
<glyph glyph-name="braceleft" horiz-adv-x="554" unicode="{" d="M594 1516l-4 -40q-2 -11 -11 -16.5t-17 -5.5h-29q-43 0 -80 -17.5t-65 -51.5t-44.5 -84.5t-17.5 -115.5q-1 -23 -1 -47q0 -18 1 -48t3 -71.5t3.5 -75t1.5 -59.5v-25q-1 -52 -15.5 -92.5t-38 -69t-52 -46.5t-58.5 -25q24 -6 45 -19.5t36.5 -34t25 -47t9.5 -58.5 q0 -61 -17 -120t-37.5 -118.5t-37.5 -121t-17 -126.5q0 -41 11 -74t30.5 -57t47.5 -37t63 -13h31q8 0 15.5 -6t5.5 -17l-5 -40h-51q-56 0 -98.5 18.5t-71.5 51.5t-44 77.5t-15 96.5q0 68 17.5 129.5t38.5 120t38.5 116.5t17.5 120q0 57 -34 93.5t-91 36.5l7 59q74 0 120 58 t46 177q0 60 -7 129.5t-7 129.5q0 85 21.5 152.5t60.5 115t94.5 73t124.5 25.5h51z"/>
<glyph glyph-name="bar" horiz-adv-x="490" unicode="|" d="M205 1517h75v-1869h-75v1869z"/>
<glyph glyph-name="braceright" horiz-adv-x="555" unicode="}" d="M237 1516q55 0 97.5 -18.5t71.5 -51.5t44 -77.5t15 -96.5q0 -68 -17 -129.5t-38 -120t-38 -116.5t-17 -120q0 -57 33 -93.5t92 -36.5l-8 -59q-73 0 -119.5 -58t-46.5 -177q0 -29 2 -62t4.5 -67t4.5 -67t2 -63q0 -85 -21.5 -152.5t-60.5 -115t-94.5 -73t-124.5 -25.5h-51 l6 40q1 11 9.5 17t16.5 6h30q42 0 79.5 17.5t65.5 51.5t44.5 84t17.5 115v41t-0.5 52.5t-2.5 73t-3 73.5t-1 55v30q1 52 15.5 93t37.5 70t51.5 46.5t58.5 24.5q-48 12 -82.5 53t-34.5 106q0 61 17 120t37.5 118.5t37.5 121t17 126.5q0 82 -41 132t-111 50h-29q-9 0 -16 5.5 t-5 16.5l4 40h51z"/>
<glyph glyph-name="asciitilde" horiz-adv-x="1160" unicode="~" d="M780 567q37 0 67 13.5t51 37.5t32.5 57t12.5 72h77q0 -55 -16 -102t-46 -82t-73.5 -55t-99.5 -20q-52 0 -105.5 19.5t-105.5 43.5t-101 43.5t-92 19.5q-38 0 -68 -13.5t-51 -37.5t-32.5 -57t-11.5 -72h-78q0 55 16 102t46 82t74 55t100 20q51 0 104.5 -19.5t106 -43.5 t101.5 -43.5t92 -19.5z"/>
<glyph glyph-name="exclamdown" horiz-adv-x="431" unicode="¡" d="M158 917q0 39 26.5 66.5t65.5 27.5q19 0 36 -7.5t29.5 -20t20 -30t7.5 -36.5q0 -20 -7.5 -36.5t-20 -29t-29.5 -19.5t-36 -7q-39 0 -65.5 26.5t-26.5 65.5zM73 -352l67 550q5 45 10.5 85t11.5 81.5t13 87.5t15 102h40q-5 -56 -9.5 -102t-9 -87.5t-9 -81.5t-10.5 -85 l-67 -550h-52z"/>
<glyph glyph-name="cent" horiz-adv-x="1160" unicode="¢" d="M759 1008q86 -8 151 -37.5t111 -74.5l-27 -32q-5 -5 -10 -8t-13 -3q-9 0 -24 11.5t-41 25.5t-64.5 27.5t-94.5 18.5l-151 -877q75 2 129 19t90.5 36.5t57.5 35.5t32 16t17 -9l21 -30q-26 -28 -63 -52.5t-83.5 -43t-100.5 -30t-112 -13.5l-36 -211q-2 -13 -10.5 -21.5 t-21.5 -8.5h-35l41 241q-86 6 -155 38t-118 87.5t-75 133t-26 173.5q0 129 38 236.5t109 185.5t172.5 122t229.5 46l35 207q3 12 11.5 21.5t21.5 9.5h35zM684 938q-105 -3 -187.5 -40.5t-139.5 -104t-87.5 -160t-30.5 -208.5q0 -81 20.5 -145.5t58.5 -111t93 -74t124 -33.5z "/>
<glyph glyph-name="sterling" horiz-adv-x="1160" unicode="£" d="M851 661q-2 -12 -11 -20t-24 -8h-474l-39 -322q-6 -44 -17 -79t-28 -63.5t-40.5 -52t-54.5 -43.5q21 4 42 6t43 2h791l-4 -39q-2 -15 -15 -28.5t-32 -13.5h-971l7 64q37 13 67 30.5t53.5 43.5t38.5 62.5t22 89.5l42 343h-176l5 37q2 11 10.5 19t23.5 8h145l36 297 q12 93 49.5 173t98.5 138.5t144 92t185 33.5q81 0 139 -18.5t99 -50t67 -74.5t41 -91l-40 -22q-31 -14 -48 12q-16 32 -35 62t-49 53t-74 36.5t-109 13.5q-78 0 -142.5 -26t-112.5 -73.5t-78 -113t-40 -144.5l-36 -298h504z"/>
<glyph glyph-name="currency" horiz-adv-x="1160" unicode="¤" d="M953 251l-154 154q-45 -36 -100 -56.5t-118 -20.5q-62 0 -116 20t-99 56l-155 -154l-49 50l154 154q-36 45 -56.5 100t-20.5 117t20 116.5t56 99.5l-155 154l50 50l153 -154q45 37 100 57.5t118 20.5q62 0 117 -20.5t100 -55.5l154 153l49 -50l-153 -153 q36 -45 56.5 -100t20.5 -118q0 -62 -20 -116.5t-56 -99.5l153 -154zM311 671q0 -56 21.5 -105t58 -85.5t85.5 -58t105 -21.5q57 0 106.5 21.5t86.5 58t58.5 85.5t21.5 105t-21.5 105.5t-58.5 86.5t-86.5 58.5t-106.5 21.5q-56 0 -105 -21.5t-85.5 -58.5t-58 -86.5 t-21.5 -105.5z"/>
<glyph glyph-name="yen" horiz-adv-x="1160" unicode="¥" d="M643 616h347l-6 -57h-367l-15 -118h367l-7 -56h-367l-47 -385h-92l47 385h-367l7 56h367l14 118h-367l7 57h347l-324 799h78q27 0 33 -25l267 -668q6 -20 10.5 -37t6.5 -34q7 17 15 34t19 37l430 668q7 11 16.5 18t23.5 7h78z"/>
<glyph glyph-name="brokenbar" horiz-adv-x="490" unicode="¦" d="M205 425h75v-777h-75v777zM205 1517h75v-778h-75v778z"/>
<glyph glyph-name="section" horiz-adv-x="904" unicode="§" d="M84 23q6 8 12 11.5t17 3.5q13 0 28.5 -16t41 -34.5t66 -34.5t102.5 -16t111 19.5t83 53t52 78t18 94.5q0 61 -36.5 102.5t-91.5 73.5t-118.5 61t-118.5 64.5t-91.5 84t-36.5 119.5q0 85 50 154t163 110q-42 33 -67.5 76t-25.5 105q0 59 24.5 113t69.5 95t107.5 65.5 t138.5 24.5q83 0 145 -26t110 -79l-23 -33q-9 -13 -23 -13q-11 0 -25.5 12.5t-39 28t-61 28t-91.5 12.5q-54 0 -100 -17.5t-79 -46.5t-51.5 -68t-18.5 -81q0 -41 20 -72t53 -56.5t75.5 -47.5t86.5 -44.5t86.5 -48t75.5 -58t53 -73.5t20 -96q0 -93 -46.5 -162.5 t-139.5 -107.5q40 -34 64.5 -76.5t24.5 -101.5q0 -68 -25 -128.5t-71.5 -106.5t-113.5 -72.5t-152 -26.5q-96 0 -162.5 33t-114.5 87zM711 626q0 40 -15 71.5t-40 57t-58.5 46.5t-70.5 40t-75 38t-72 41q-96 -43 -134.5 -94.5t-38.5 -115.5q0 -57 35.5 -97t89.5 -72t117 -62 t118 -66q78 38 111 91t33 122z"/>
<glyph glyph-name="dieresis" d="M766 1284q0 -16 -7 -30.5t-18 -25.5t-26.5 -17.5t-31.5 -6.5q-17 0 -31.5 6.5t-26 17.5t-18 25.5t-6.5 30.5q0 17 6.5 32t18 26.5t26 18t31.5 6.5q16 0 31.5 -6.5t26.5 -18t18 -26.5t7 -32zM433 1284q0 -16 -7 -30.5t-18 -25.5t-26.5 -17.5t-31.5 -6.5t-30.5 6.5 t-26 17.5t-18 25.5t-6.5 30.5q0 17 6.5 32t18 26.5t26 18t30.5 6.5t31.5 -6.5t26.5 -18t18 -26.5t7 -32z" unicode="¨"/>
<glyph glyph-name="copyright" horiz-adv-x="1677" unicode="©" d="M189 708q0 -139 51.5 -260.5t141.5 -212t210.5 -142.5t258.5 -52t259.5 52t211.5 142.5t142 212t52 260.5t-52 260.5t-142 212.5t-211.5 143.5t-259.5 52.5t-258.5 -52.5t-210.5 -143.5t-141.5 -212.5t-51.5 -260.5zM130 708q0 99 26 191.5t72.5 172.5t112.5 146t146 113 t172 73t192 26t192 -26t172.5 -73t146.5 -113t112.5 -146t72.5 -172.5t26 -191.5q0 -100 -26 -192t-72.5 -172t-112.5 -146t-146.5 -113t-172.5 -73t-192 -26q-99 0 -191.5 26t-172.5 73t-146 113t-112.5 146t-72.5 172t-26 192zM1143 426q9 1 16 -4l35 -35 q-59 -59 -139 -94t-196 -35q-96 0 -176.5 32.5t-138 91.5t-89.5 142t-32 185q0 100 33.5 183t93.5 142.5t143 92.5t182 33q52 0 95.5 -7.5t80.5 -22t69 -35t63 -47.5l-24 -33q-7 -11 -20 -11q-10 0 -26.5 13t-45.5 28.5t-74.5 28.5t-113.5 13q-83 0 -151 -26.5t-116.5 -75.5 t-75 -119t-26.5 -157q0 -90 26.5 -160t73.5 -118.5t111.5 -74t141.5 -25.5q54 0 94 7.5t72 20t59 30t55 37.5z"/>
<glyph glyph-name="ordfeminine" horiz-adv-x="683" unicode="ª" d="M233 1337q50 47 102.5 69.5t114.5 22.5q48 0 81.5 -17.5t53.5 -47.5t27 -68q4 -21 4 -43q0 -19 -3 -38l-47 -376h-31q-11 0 -14.5 3.5t-7.5 14.5v69q-52 -47 -101.5 -71.5t-116.5 -24.5q-28 0 -53 8t-43.5 23.5t-29.5 40t-11 57.5q0 42 20.5 78t66 63.5t118 44 t175.5 18.5l6 52q2 20 2 37q0 50 -20 80q-26 40 -91 39q-39 0 -66.5 -11t-48 -24t-34.5 -24t-24 -11q-8 0 -12.5 4t-7.5 9zM532 1115q-161 -6 -233.5 -43t-72.5 -104q0 -46 28 -66.5t66 -20.5q62 0 107.5 27t88.5 67z"/>
<glyph glyph-name="guillemotleft" horiz-adv-x="733" unicode="«" d="M189 547q-15 -21 -25 -28q9 -8 18 -28l131 -295q7 -16 3 -28t-17 -19l-32 -15l-176 379l1 12l270 378l27 -14q13 -8 13 -23q0 -11 -10 -24zM423 547q-15 -21 -25 -28q9 -8 18 -28l131 -295q7 -16 3 -28t-17 -19l-32 -15l-176 379l1 12l270 378l27 -14q13 -8 13 -23 q0 -11 -10 -24z"/>
<glyph glyph-name="logicalnot" horiz-adv-x="1160" unicode="¬" d="M999 635h-1l-36 -295h-80l37 295h-748l8 71h828z"/>
<glyph glyph-name="registered" horiz-adv-x="1678" unicode="®" d="M851 1430q100 0 192 -26t172.5 -73t146.5 -113t112.5 -146t72.5 -172.5t26 -191.5q0 -100 -26 -192t-72.5 -172t-112.5 -146t-146.5 -113t-172.5 -73t-192 -26q-99 0 -191.5 26t-172.5 73t-146 113t-112.5 146t-72.5 172t-26 192q0 99 26 191.5t72.5 172.5t112.5 146 t146 113t172 73t192 26zM851 41q138 0 259.5 52t211.5 142.5t142 212t52 260.5t-52 260.5t-142 212.5t-211.5 143.5t-259.5 52.5t-258.5 -52.5t-210.5 -143.5t-141.5 -212.5t-51.5 -260.5t51.5 -260.5t141.5 -212t210.5 -142.5t258.5 -52zM831 1151q153 0 231.5 -57.5 t78.5 -175.5q0 -99 -64.5 -163.5t-180.5 -80.5q21 -12 39 -40l285 -368h-80q-10 0 -17.5 3t-13.5 13l-270 351q-8 11 -20.5 17.5t-39.5 6.5h-110v-391h-85v885h247zM817 721q121 0 180.5 48.5t59.5 139.5q0 92 -54 134t-172 42h-162v-364h148z"/>
<glyph glyph-name="macron" d="M265 1317h502l-8 -65h-501z" unicode="¯"/>
<glyph glyph-name="macron" d="M265 1317h502l-8 -65h-501z" unicode="ˉ"/>
<glyph glyph-name="degree" horiz-adv-x="814" unicode="°" d="M237 1134q0 -48 18 -90t49.5 -73t73.5 -49t90 -18t90 18t73 49t49 73t18 90t-18 90t-49 73.5t-73 49.5t-90 18t-90 -18t-73.5 -49.5t-49.5 -73.5t-18 -90zM169 1134q0 62 23.5 116.5t64.5 95t95 63.5t116 23q63 0 118.5 -23t96 -63.5t64 -95t23.5 -116.5t-23.5 -116 t-64 -94.5t-96 -64t-118.5 -23.5q-62 0 -116 23.5t-95 64t-64.5 94.5t-23.5 116z"/>
<glyph glyph-name="plusminus" horiz-adv-x="1160" unicode="±" d="M1071 745l-8 -71h-433l-50 -404h-75l50 404h-430l8 71h430l50 406h75l-50 -406h433zM59 151h939l-9 -71h-938z"/>
<glyph glyph-name="uni00B2" horiz-adv-x="668" unicode="²" d="M588 964q24 0 22 -23l-5 -41h-473l2 24q2 7 5.5 15t11.5 15l266 237q34 31 64.5 60.5t52.5 60.5t35 63t13 68q0 31 -10 53.5t-27.5 37.5t-41 22.5t-49.5 7.5q-62 0 -105.5 -35t-64.5 -92q-7 -11 -15 -15.5t-23 -2.5l-36 6q25 96 93.5 146.5t161.5 50.5q40 0 74.5 -11 t60 -33t39.5 -53.5t14 -73.5q0 -45 -15.5 -83t-41 -72t-59 -65.5t-70.5 -64.5l-234 -212q18 5 38 7.5t39 2.5h278z"/>
<glyph glyph-name="uni00B3" horiz-adv-x="668" unicode="³" d="M213 1425q12 48 36.5 84.5t57.5 61.5t73 38t85 13q40 0 74 -11t59 -31.5t39 -50.5t14 -68q0 -75 -42.5 -122t-111.5 -67q64 -15 96.5 -52.5t32.5 -94.5q0 -53 -21.5 -95.5t-57.5 -73.5t-83 -47.5t-98 -16.5q-60 0 -99 15t-63.5 40.5t-37 59t-19.5 69.5l32 13q12 5 23.5 3 t15.5 -15q2 -8 7 -29t20.5 -42.5t44.5 -38.5t80 -17q44 0 78.5 15t58 39t36 53.5t12.5 59.5q0 28 -9.5 50.5t-31 39t-55.5 25.5t-82 9l6 50q97 2 147.5 43t50.5 113q0 30 -10 51.5t-27 36t-40 21.5t-50 7q-63 0 -106.5 -34.5t-63.5 -90.5q-7 -13 -14 -17t-21 -2z"/>
<glyph glyph-name="acute" d="M736 1431l-228 -253q-8 -10 -16 -13.5t-19 -3.5h-53l171 238q12 18 24 25t34 7h87z" unicode="´"/>
<glyph glyph-name="uni00B5" horiz-adv-x="1187" unicode="µ" d="M1059 64l-5 -39q-2 -13 -22.5 -23.5t-58.5 -10.5q-39 0 -72.5 12t-58.5 37q-24 25 -38 64q-13 36 -13 86v7q-72 -95 -158.5 -149t-183.5 -54q-88 0 -143 35.5t-80 104.5q-2 -41 -5.5 -82t-8.5 -76l-40 -328h-47q-21 0 -31 11q-8 9 -7 24v7l161 1305h95l-80 -655 q-1 -18 -1 -34q0 -101 42 -162q49 -71 160 -71q94 0 177 55t149 155l88 712h95l-93 -757q-2 -20 -2 -38q0 -62 30 -94q39 -42 110 -42h41z"/>
<glyph glyph-name="paragraph" horiz-adv-x="1301" unicode="¶" d="M1333 1415l-10 -82h-225l-187 -1523h-86l187 1523h-328l-187 -1523h-85l109 889q-91 0 -165 22.5t-126 64t-80 101t-28 134.5q0 86 34.5 158t98.5 124.5t153.5 82t200.5 29.5h724z"/>
<glyph glyph-name="cedilla" d="M362 -94q75 -15 113.5 -42t38.5 -78q0 -34 -14.5 -60.5t-39.5 -45t-60 -28t-75 -9.5q-37 0 -71 11.5t-57 30.5l14 28q6 11 17 11q5 0 12 -5.5t18.5 -11.5t28.5 -11.5t43 -5.5q51 0 79 24.5t28 66.5q0 22 -11 37t-31 25t-47.5 15.5t-60.5 10.5l61 143h56z" unicode="¸"/>
<glyph glyph-name="uni00B9" horiz-adv-x="668" unicode="¹" d="M592 953l-6 -53h-373l7 53h159l66 538l9 37l-161 -127q-11 -8 -20 -5.5t-14 7.5l-18 31l233 183h57l-81 -664h142z"/>
<glyph glyph-name="ordmasculine" horiz-adv-x="752" unicode="º" d="M411 883q55 0 97 21t70 59.5t42.5 92.5t14.5 120q0 89 -41 142.5t-123 53.5q-58 0 -100.5 -21.5t-70.5 -60.5t-41.5 -93t-13.5 -119q0 -89 41 -142t125 -53zM477 1429q55 0 97.5 -18t72 -51.5t45 -80t15.5 -103.5q0 -79 -21.5 -143.5t-61 -110t-95.5 -70.5t-125 -25 q-56 0 -99 18t-72.5 51t-45 79.5t-15.5 103.5q0 79 21.5 143.5t61 110.5t96 71t126.5 25z"/>
<glyph glyph-name="guillemotright" horiz-adv-x="733" unicode="»" d="M387 525l-1 -12l-268 -379l-28 15q-14 8 -14 21q0 11 10 26l204 295q13 20 24 28q-9 8 -18 28l-131 295q-7 15 -2.5 27.5t18.5 19.5l30 14zM621 525l-1 -12l-268 -379l-28 15q-14 8 -14 21q0 11 10 26l204 295q13 20 24 28q-9 8 -18 28l-131 295q-7 15 -2.5 27.5 t18.5 19.5l30 14z"/>
<glyph glyph-name="onequarter" horiz-adv-x="1371" unicode="¼" d="M276 31q-13 -18 -26.5 -24.5t-30.5 -6.5h-38l907 1380q11 17 25 26t33 9h40zM525 754l-6 -53h-373l7 53h159l66 538l9 37l-161 -127q-11 -8 -20 -5.5t-14 7.5l-18 31l233 183h57l-81 -664h142zM1255 251l-3 -39q-2 -8 -6.5 -12t-13.5 -4h-110l-24 -196h-61l24 196h-326 q-23 0 -23 16l-2 34l410 468h65l-56 -463h126zM1068 251l41 334q2 12 4 26t6 28l-336 -388h285z"/>
<glyph glyph-name="onehalf" horiz-adv-x="1348" unicode="½" d="M236 31q-13 -18 -26.5 -24.5t-30.5 -6.5h-38l907 1380q11 17 25 26t33 9h40zM528 754l-6 -53h-373l7 53h159l66 538l9 37l-161 -127q-11 -8 -20 -5.5t-14 7.5l-18 31l233 183h57l-81 -664h142zM1173 64q24 0 22 -23l-5 -41h-473l2 24q2 7 5.5 15t11.5 15l266 237 q34 31 64.5 60.5t52.5 60.5t35 63t13 68q0 31 -10 53.5t-27.5 37.5t-41 22.5t-49.5 7.5q-62 0 -105.5 -35t-64.5 -92q-7 -11 -15 -15.5t-23 -2.5l-36 6q25 96 93.5 146.5t161.5 50.5q40 0 74.5 -11t60 -33t39.5 -53.5t14 -73.5q0 -45 -15.5 -83t-41 -72t-59 -65.5 t-70.5 -64.5l-234 -212q18 5 38 7.5t39 2.5h278z"/>
<glyph glyph-name="threequarters" horiz-adv-x="1391" unicode="¾" d="M305 31q-13 -18 -26.5 -24.5t-30.5 -6.5h-38l907 1380q11 17 25 26t33 9h40zM193 1226q12 48 36.5 84.5t57.5 61.5t73 38t85 13q40 0 74 -11t59 -31.5t39 -50.5t14 -68q0 -75 -42.5 -122t-111.5 -67q64 -15 96.5 -52.5t32.5 -94.5q0 -53 -21.5 -95.5t-57.5 -73.5 t-83 -47.5t-98 -16.5q-60 0 -99 15t-63.5 40.5t-37 59t-19.5 69.5l32 13q12 5 23.5 3t15.5 -15q2 -8 7 -29t20.5 -42.5t44.5 -38.5t80 -17q44 0 78.5 15t58 39t36 53.5t12.5 59.5q0 28 -9.5 50.5t-31 39t-55.5 25.5t-82 9l6 50q97 2 147.5 43t50.5 113q0 30 -10 51.5t-27 36 t-40 21.5t-50 7q-63 0 -106.5 -34.5t-63.5 -90.5q-7 -13 -14 -17t-21 -2zM1276 251l-3 -39q-2 -8 -6.5 -12t-13.5 -4h-110l-24 -196h-61l24 196h-326q-23 0 -23 16l-2 34l410 468h65l-56 -463h126zM1089 251l41 334q2 12 4 26t6 28l-336 -388h285z"/>
<glyph glyph-name="questiondown" horiz-adv-x="785" unicode="¿" d="M390 918q0 19 7 36t19.5 29.5t29 20t36.5 7.5q19 0 36 -7.5t29.5 -20t20 -29.5t7.5 -36q0 -20 -7.5 -36.5t-20 -29t-29.5 -19.5t-36 -7q-39 0 -65.5 26.5t-26.5 65.5zM606 -224q-29 -27 -63 -52.5t-74 -45t-86 -31t-98 -11.5q-60 0 -111.5 18.5t-89.5 52.5t-59.5 83 t-21.5 111q0 82 25 140t62.5 99.5t82.5 72t85 57.5t69.5 55t36.5 65l32 164h61l-15 -171q-4 -43 -31 -74.5t-65.5 -60t-82 -57t-81 -66t-62 -88t-24.5 -121.5q0 -48 16.5 -86t44.5 -64.5t65 -40t78 -13.5q61 0 107.5 18t79.5 39t52.5 39t27.5 18q11 0 18 -12z"/>
<glyph glyph-name="Agrave" horiz-adv-x="1217" unicode="À" d="M1117 0h-77q-14 0 -22 7.5t-11 18.5l-101 414h-634l-203 -414q-5 -11 -16 -18.5t-24 -7.5h-76l706 1415h99zM888 513l-175 720q-4 18 -8 39.5t-8 46.5q-10 -25 -19.5 -46.5t-17.5 -40.5l-352 -719h580zM546 1841q23 0 34 -3.5t20 -18.5l189 -277h-61q-11 0 -18.5 2 t-14.5 10l-247 287h98z"/>
<glyph glyph-name="Aacute" horiz-adv-x="1217" unicode="Á" d="M1117 0h-77q-14 0 -22 7.5t-11 18.5l-101 414h-634l-203 -414q-5 -11 -16 -18.5t-24 -7.5h-76l706 1415h99zM888 513l-175 720q-4 18 -8 39.5t-8 46.5q-10 -25 -19.5 -46.5t-17.5 -40.5l-352 -719h580zM1049 1841l-333 -287q-10 -8 -18 -10t-20 -2h-60l270 277 q13 14 24.5 18t33.5 4h103z"/>
<glyph glyph-name="Acircumflex" horiz-adv-x="1217" unicode="Â" d="M1117 0h-77q-14 0 -22 7.5t-11 18.5l-101 414h-634l-203 -414q-5 -11 -16 -18.5t-24 -7.5h-76l706 1415h99zM888 513l-175 720q-4 18 -8 39.5t-8 46.5q-10 -25 -19.5 -46.5t-17.5 -40.5l-352 -719h580zM990 1542h-66q-7 0 -16.5 3t-17.5 14l-126 186q-2 3 -3 5.5t-2 5.5 l-8 -11l-168 -186q-11 -11 -21 -14t-17 -3h-64l247 267h76z"/>
<glyph glyph-name="Atilde" horiz-adv-x="1217" unicode="Ã" d="M1117 0h-77q-14 0 -22 7.5t-11 18.5l-101 414h-634l-203 -414q-5 -11 -16 -18.5t-24 -7.5h-76l706 1415h99zM888 513l-175 720q-4 18 -8 39.5t-8 46.5q-10 -25 -19.5 -46.5t-17.5 -40.5l-352 -719h580zM860 1616q22 0 40.5 9t32 24t22 34.5t11.5 40.5h54 q-4 -35 -16.5 -66.5t-33 -55.5t-48 -38t-61.5 -14q-35 0 -63.5 17.5t-54 38t-50 38t-50.5 17.5q-22 0 -40 -9t-32 -24t-22.5 -34.5t-11.5 -40.5h-56q4 34 17 65.5t34 55.5t48.5 38.5t60.5 14.5q36 0 65 -17.5t54.5 -38t49.5 -38t50 -17.5z"/>
<glyph glyph-name="Adieresis" horiz-adv-x="1217" unicode="Ä" d="M1117 0h-77q-14 0 -22 7.5t-11 18.5l-101 414h-634l-203 -414q-5 -11 -16 -18.5t-24 -7.5h-76l706 1415h99zM888 513l-175 720q-4 18 -8 39.5t-8 46.5q-10 -25 -19.5 -46.5t-17.5 -40.5l-352 -719h580zM996 1662q0 -17 -7 -31.5t-18 -25.5t-26 -17.5t-31 -6.5 q-34 0 -58 24t-24 57q0 34 24 58.5t58 24.5q16 0 31 -6.5t26 -18t18 -26.5t7 -32zM639 1662q0 -17 -7 -31.5t-18.5 -25.5t-26.5 -17.5t-31 -6.5q-33 0 -57.5 24t-24.5 57q0 17 6.5 32t18 26.5t26 18t31.5 6.5q16 0 31 -6.5t26.5 -18t18.5 -26.5t7 -32z"/>
<glyph glyph-name="Aring" horiz-adv-x="1217" unicode="Å" d="M1117 0h-77q-14 0 -22 7.5t-11 18.5l-101 414h-634l-203 -414q-5 -11 -16 -18.5t-24 -7.5h-76l706 1415h99zM888 513l-175 720q-4 18 -8 39.5t-8 46.5q-10 -25 -19.5 -46.5t-17.5 -40.5l-352 -719h580zM638 1685q-1 -9 -1 -18q0 -38 21 -64q26 -32 73 -32q22 0 42 8.5 t36 23.5t26 36t13 46q1 8 1 16q0 39 -22 66q-26 32 -71 32q-47 0 -80 -32t-38 -82zM588 1685q4 34 20 63.5t39 50.5t52.5 33t60.5 12q32 0 58.5 -12t45.5 -33t28 -51q6 -20 6 -43q0 -10 -1 -20q-4 -35 -20 -64t-39.5 -50t-53 -33t-60.5 -12t-57.5 12t-45.5 33t-28 50 q-6 20 -6 43q0 10 1 21z"/>
<glyph glyph-name="AE" horiz-adv-x="1725" unicode="Æ" d="M964 1333v-577h566l-11 -80h-555v-594h599l-12 -82h-680v440h-545l-258 -414q-7 -11 -18 -18.5t-25 -7.5h-77l887 1415h890l-10 -82h-751zM871 513v821q-10 -24 -20.5 -46t-23.5 -43l-456 -732h500z"/>
<glyph glyph-name="Ccedilla" horiz-adv-x="1258" unicode="Ç" d="M617 -15q-115 6 -207 52.5t-157 127t-100 190.5t-35 243q0 185 56.5 338.5t155 263.5t232 170.5t288.5 60.5q73 0 131 -11.5t106.5 -33.5t89 -55t78.5 -75l-32 -40q-11 -12 -26 -12q-9 0 -20.5 10.5t-29 26t-43 34t-62 34t-85.5 26t-113 10.5q-132 0 -246 -52t-198 -148 t-132 -233t-48 -307q0 -124 33 -223.5t92 -169t141 -106.5t181 -37q73 0 131 12.5t103 31t77.5 40t55.5 40t37 31t22 12.5q9 0 13 -6l36 -42q-90 -91 -203 -145t-265 -59l-31 -78q75 -15 113.5 -42t38.5 -78q0 -34 -14.5 -60.5t-39.5 -45t-60 -28t-75 -9.5q-37 0 -71 11.5 t-57 30.5l14 28q6 11 17 11q5 0 12 -5.5t18.5 -11.5t28.5 -11.5t43 -5.5q51 0 79 24.5t28 66.5q0 22 -11 37t-31 25t-47.5 15.5t-60.5 10.5z"/>
<glyph glyph-name="Egrave" horiz-adv-x="1078" unicode="È" d="M388 1333l-71 -576h567l-11 -80h-566l-73 -595h684l-11 -82h-783l174 1415h782l-11 -82h-681zM568 1841q23 0 34 -3.5t20 -18.5l189 -277h-61q-11 0 -18.5 2t-14.5 10l-247 287h98z"/>
<glyph glyph-name="Eacute" horiz-adv-x="1078" unicode="É" d="M388 1333l-71 -576h567l-11 -80h-566l-73 -595h684l-11 -82h-783l174 1415h782l-11 -82h-681zM1056 1841l-333 -287q-10 -8 -18 -10t-20 -2h-60l270 277q13 14 24.5 18t33.5 4h103z"/>
<glyph glyph-name="Ecircumflex" horiz-adv-x="1078" unicode="Ê" d="M388 1333l-71 -576h567l-11 -80h-566l-73 -595h684l-11 -82h-783l174 1415h782l-11 -82h-681zM955 1542h-66q-7 0 -16.5 3t-17.5 14l-126 186q-2 3 -3 5.5t-2 5.5l-8 -11l-168 -186q-11 -11 -21 -14t-17 -3h-64l247 267h76z"/>
<glyph glyph-name="Edieresis" horiz-adv-x="1078" unicode="Ë" d="M388 1333l-71 -576h567l-11 -80h-566l-73 -595h684l-11 -82h-783l174 1415h782l-11 -82h-681zM979 1662q0 -17 -7 -31.5t-18 -25.5t-26 -17.5t-31 -6.5q-34 0 -58 24t-24 57q0 34 24 58.5t58 24.5q16 0 31 -6.5t26 -18t18 -26.5t7 -32zM622 1662q0 -17 -7 -31.5 t-18.5 -25.5t-26.5 -17.5t-31 -6.5q-33 0 -57.5 24t-24.5 57q0 17 6.5 32t18 26.5t26 18t31.5 6.5q16 0 31 -6.5t26.5 -18t18.5 -26.5t7 -32z"/>
<glyph glyph-name="Igrave" horiz-adv-x="495" unicode="Ì" d="M224 0h-100l173 1415h100zM204 1841q23 0 34 -3.5t20 -18.5l189 -277h-61q-11 0 -18.5 2t-14.5 10l-247 287h98z"/>
<glyph glyph-name="Iacute" horiz-adv-x="495" unicode="Í" d="M224 0h-100l173 1415h100zM713 1841l-333 -287q-10 -8 -18 -10t-20 -2h-60l270 277q13 14 24.5 18t33.5 4h103z"/>
<glyph glyph-name="Icircumflex" horiz-adv-x="495" unicode="Î" d="M224 0h-100l173 1415h100zM622 1542h-66q-7 0 -16.5 3t-17.5 14l-126 186q-2 3 -3 5.5t-2 5.5l-8 -11l-168 -186q-11 -11 -21 -14t-17 -3h-64l247 267h76z"/>
<glyph glyph-name="Idieresis" horiz-adv-x="495" unicode="Ï" d="M224 0h-100l173 1415h100zM646 1662q0 -17 -7 -31.5t-18 -25.5t-26 -17.5t-31 -6.5q-34 0 -58 24t-24 57q0 34 24 58.5t58 24.5q16 0 31 -6.5t26 -18t18 -26.5t7 -32zM289 1662q0 -17 -7 -31.5t-18.5 -25.5t-26.5 -17.5t-31 -6.5q-33 0 -57.5 24t-24.5 57q0 17 6.5 32 t18 26.5t26 18t31.5 6.5q16 0 31 -6.5t26.5 -18t18.5 -26.5t7 -32z"/>
<glyph glyph-name="Eth" horiz-adv-x="1420" unicode="Ð" d="M784 1415q125 0 225.5 -42.5t171 -120.5t108.5 -189t38 -248q0 -187 -54 -338t-150 -257t-227.5 -163t-285.5 -57h-476l84 686h-198l8 62h198l82 667h476zM620 81q132 0 242.5 49.5t191 143.5t125.5 230t45 309q0 121 -31.5 218t-90 164t-142 103t-186.5 36h-377 l-72 -586h371l-7 -62h-371l-74 -605h376z"/>
<glyph glyph-name="Ntilde" horiz-adv-x="1403" unicode="Ñ" d="M1306 1415l-174 -1415h-46q-13 0 -21 5.5t-16 16.5l-686 1232q-1 -12 -1.5 -23t-2.5 -22l-148 -1209h-87l174 1415h49q14 0 20 -3.5t14 -15.5l686 -1232q1 14 1.5 26.5t2.5 23.5l148 1201h87zM955 1615q22 0 40.5 9t32 24t22 34.5t11.5 40.5h54q-4 -35 -16.5 -66.5 t-33 -55.5t-48 -38t-61.5 -14q-35 0 -63.5 17.5t-54 38t-50 38t-50.5 17.5q-22 0 -40 -9t-32 -24t-22.5 -34.5t-11.5 -40.5h-56q4 34 17 65.5t34 55.5t48.5 38.5t60.5 14.5q36 0 65 -17.5t54.5 -38t49.5 -38t50 -17.5z"/>
<glyph glyph-name="Ograve" horiz-adv-x="1473" unicode="Ò" d="M1278 814q0 123 -31.5 221.5t-90.5 168t-142.5 107t-186.5 37.5q-130 0 -241 -52t-192.5 -149t-127.5 -235t-46 -310q0 -123 32 -221.5t91 -167.5t142 -106.5t186 -37.5q132 0 243 51.5t192 148.5t126.5 234.5t45.5 310.5zM1381 816q0 -187 -54.5 -340t-151.5 -262 t-229 -169t-286 -60q-124 0 -224 44.5t-170.5 125.5t-108.5 194t-38 250q0 186 55 339.5t151.5 263t228 169.5t284.5 60q125 0 225.5 -44.5t171 -125.5t108.5 -194.5t38 -250.5zM716 1841q23 0 34 -3.5t20 -18.5l189 -277h-61q-11 0 -18.5 2t-14.5 10l-247 287h98z"/>
<glyph glyph-name="Oacute" horiz-adv-x="1473" unicode="Ó" d="M1278 814q0 123 -31.5 221.5t-90.5 168t-142.5 107t-186.5 37.5q-130 0 -241 -52t-192.5 -149t-127.5 -235t-46 -310q0 -123 32 -221.5t91 -167.5t142 -106.5t186 -37.5q132 0 243 51.5t192 148.5t126.5 234.5t45.5 310.5zM1381 816q0 -187 -54.5 -340t-151.5 -262 t-229 -169t-286 -60q-124 0 -224 44.5t-170.5 125.5t-108.5 194t-38 250q0 186 55 339.5t151.5 263t228 169.5t284.5 60q125 0 225.5 -44.5t171 -125.5t108.5 -194.5t38 -250.5zM1169 1841l-333 -287q-10 -8 -18 -10t-20 -2h-60l270 277q13 14 24.5 18t33.5 4h103z"/>
<glyph glyph-name="Ocircumflex" horiz-adv-x="1473" unicode="Ô" d="M1278 814q0 123 -31.5 221.5t-90.5 168t-142.5 107t-186.5 37.5q-130 0 -241 -52t-192.5 -149t-127.5 -235t-46 -310q0 -123 32 -221.5t91 -167.5t142 -106.5t186 -37.5q132 0 243 51.5t192 148.5t126.5 234.5t45.5 310.5zM1381 816q0 -187 -54.5 -340t-151.5 -262 t-229 -169t-286 -60q-124 0 -224 44.5t-170.5 125.5t-108.5 194t-38 250q0 186 55 339.5t151.5 263t228 169.5t284.5 60q125 0 225.5 -44.5t171 -125.5t108.5 -194.5t38 -250.5zM1101 1542h-66q-7 0 -16.5 3t-17.5 14l-126 186q-2 3 -3 5.5t-2 5.5l-8 -11l-168 -186 q-11 -11 -21 -14t-17 -3h-64l247 267h76z"/>
<glyph glyph-name="Otilde" horiz-adv-x="1473" unicode="Õ" d="M1278 814q0 123 -31.5 221.5t-90.5 168t-142.5 107t-186.5 37.5q-130 0 -241 -52t-192.5 -149t-127.5 -235t-46 -310q0 -123 32 -221.5t91 -167.5t142 -106.5t186 -37.5q132 0 243 51.5t192 148.5t126.5 234.5t45.5 310.5zM1381 816q0 -187 -54.5 -340t-151.5 -262 t-229 -169t-286 -60q-124 0 -224 44.5t-170.5 125.5t-108.5 194t-38 250q0 186 55 339.5t151.5 263t228 169.5t284.5 60q125 0 225.5 -44.5t171 -125.5t108.5 -194.5t38 -250.5zM971 1616q22 0 40.5 9t32 24t22 34.5t11.5 40.5h54q-4 -35 -16.5 -66.5t-33 -55.5t-48 -38 t-61.5 -14q-35 0 -63.5 17.5t-54 38t-50 38t-50.5 17.5q-22 0 -40 -9t-32 -24t-22.5 -34.5t-11.5 -40.5h-56q4 34 17 65.5t34 55.5t48.5 38.5t60.5 14.5q36 0 65 -17.5t54.5 -38t49.5 -38t50 -17.5z"/>
<glyph glyph-name="Odieresis" horiz-adv-x="1473" unicode="Ö" d="M1278 814q0 123 -31.5 221.5t-90.5 168t-142.5 107t-186.5 37.5q-130 0 -241 -52t-192.5 -149t-127.5 -235t-46 -310q0 -123 32 -221.5t91 -167.5t142 -106.5t186 -37.5q132 0 243 51.5t192 148.5t126.5 234.5t45.5 310.5zM1381 816q0 -187 -54.5 -340t-151.5 -262 t-229 -169t-286 -60q-124 0 -224 44.5t-170.5 125.5t-108.5 194t-38 250q0 186 55 339.5t151.5 263t228 169.5t284.5 60q125 0 225.5 -44.5t171 -125.5t108.5 -194.5t38 -250.5zM1139 1662q0 -17 -7 -31.5t-18 -25.5t-26 -17.5t-31 -6.5q-34 0 -58 24t-24 57q0 34 24 58.5 t58 24.5q16 0 31 -6.5t26 -18t18 -26.5t7 -32zM782 1662q0 -17 -7 -31.5t-18.5 -25.5t-26.5 -17.5t-31 -6.5q-33 0 -57.5 24t-24.5 57q0 17 6.5 32t18 26.5t26 18t31.5 6.5q16 0 31 -6.5t26.5 -18t18.5 -26.5t7 -32z"/>
<glyph glyph-name="multiply" horiz-adv-x="1160" unicode="×" d="M640 670l326 -372l-55 -51l-328 373l-422 -375l-43 51l420 374l-324 369l58 52l323 -370l413 368l45 -52z"/>
<glyph glyph-name="Oslash" horiz-adv-x="1473" unicode="Ø" d="M1241 1253q68 -81 104 -191.5t36 -245.5q0 -187 -54.5 -340t-151.5 -262t-229 -169t-286 -60q-104 0 -190.5 31t-153.5 89l-144 -179q-14 -17 -31 -24t-33 -7h-41l204 253q-73 81 -112.5 195.5t-39.5 255.5q0 186 55 339.5t151.5 263t228 169.5t284.5 60q110 0 200 -34.5 t159 -97.5l122 151q14 16 23.5 22.5t28.5 6.5h52zM1137 1224q-58 60 -136 92t-174 32q-130 0 -241 -52t-192.5 -149t-127.5 -235t-46 -310q0 -118 29.5 -213t83.5 -164zM375 179q57 -54 131.5 -82t164.5 -28q132 0 243 51.5t192 148.5t126.5 234.5t45.5 310.5 q0 111 -26 201.5t-74 159.5z"/>
<glyph glyph-name="Ugrave" horiz-adv-x="1353" unicode="Ù" d="M612 70q93 0 170.5 36t136 99t96.5 149t50 185l108 876h99l-107 -876q-15 -117 -62 -218.5t-120.5 -176.5t-170.5 -118t-212 -43q-114 0 -200 43t-141 118q-55 74 -77 176q-13 62 -13 130q0 43 5 89l107 876h99l-107 -875q-5 -42 -5 -81q0 -54 10 -104q16 -86 59 -149.5 t112.5 -99.5t162.5 -36zM628 1841q23 0 34 -3.5t20 -18.5l189 -277h-61q-11 0 -18.5 2t-14.5 10l-247 287h98z"/>
<glyph glyph-name="Uacute" horiz-adv-x="1353" unicode="Ú" d="M612 70q93 0 170.5 36t136 99t96.5 149t50 185l108 876h99l-107 -876q-15 -117 -62 -218.5t-120.5 -176.5t-170.5 -118t-212 -43q-114 0 -200 43t-141 118q-55 74 -77 176q-13 62 -13 130q0 43 5 89l107 876h99l-107 -875q-5 -42 -5 -81q0 -54 10 -104q16 -86 59 -149.5 t112.5 -99.5t162.5 -36zM1116 1841l-333 -287q-10 -8 -18 -10t-20 -2h-60l270 277q13 14 24.5 18t33.5 4h103z"/>
<glyph glyph-name="Ucircumflex" horiz-adv-x="1353" unicode="Û" d="M612 70q93 0 170.5 36t136 99t96.5 149t50 185l108 876h99l-107 -876q-15 -117 -62 -218.5t-120.5 -176.5t-170.5 -118t-212 -43q-114 0 -200 43t-141 118q-55 74 -77 176q-13 62 -13 130q0 43 5 89l107 876h99l-107 -875q-5 -42 -5 -81q0 -54 10 -104q16 -86 59 -149.5 t112.5 -99.5t162.5 -36zM1056 1542h-66q-7 0 -16.5 3t-17.5 14l-126 186q-2 3 -3 5.5t-2 5.5l-8 -11l-168 -186q-11 -11 -21 -14t-17 -3h-64l247 267h76z"/>
<glyph glyph-name="Udieresis" horiz-adv-x="1353" unicode="Ü" d="M612 70q93 0 170.5 36t136 99t96.5 149t50 185l108 876h99l-107 -876q-15 -117 -62 -218.5t-120.5 -176.5t-170.5 -118t-212 -43q-114 0 -200 43t-141 118q-55 74 -77 176q-13 62 -13 130q0 43 5 89l107 876h99l-107 -875q-5 -42 -5 -81q0 -54 10 -104q16 -86 59 -149.5 t112.5 -99.5t162.5 -36zM1077 1662q0 -17 -7 -31.5t-18 -25.5t-26 -17.5t-31 -6.5q-34 0 -58 24t-24 57q0 34 24 58.5t58 24.5q16 0 31 -6.5t26 -18t18 -26.5t7 -32zM720 1662q0 -17 -7 -31.5t-18.5 -25.5t-26.5 -17.5t-31 -6.5q-33 0 -57.5 24t-24.5 57q0 17 6.5 32 t18 26.5t26 18t31.5 6.5q16 0 31 -6.5t26.5 -18t18.5 -26.5t7 -32z"/>
<glyph glyph-name="Yacute" horiz-adv-x="1103" unicode="Ý" d="M600 583l-73 -583h-99l73 584l-381 831h88q26 0 34 -25l299 -668q6 -17 11 -33.5t8 -33.5q8 17 17 33.5t20 33.5l464 668q7 11 16 18t23 7h83zM1003 1841l-333 -287q-10 -8 -18 -10t-20 -2h-60l270 277q13 14 24.5 18t33.5 4h103z"/>
<glyph glyph-name="Thorn" horiz-adv-x="1077" unicode="Þ" d="M603 1129q207 0 311.5 -93t104.5 -262q0 -108 -37 -197.5t-105.5 -154t-164.5 -100.5t-213 -36h-241l-35 -286h-99l173 1415h100l-35 -286h241zM509 366q94 0 169.5 30t129 83t82.5 126t29 159q0 137 -81 211.5t-246 74.5h-240l-84 -684h241z"/>
<glyph glyph-name="germandbls" horiz-adv-x="1089" unicode="ß" d="M254 963q18 95 61 180.5t105 149.5t139 101.5t163 37.5q73 0 128.5 -22.5t92 -59t55 -82.5t18.5 -92q0 -70 -25.5 -120t-64.5 -88t-83.5 -68t-83.5 -59t-64.5 -61.5t-25.5 -75.5q0 -41 23 -66.5t57.5 -45t75 -38.5t75 -46.5t57.5 -69.5t23 -108q0 -76 -27 -139.5 t-74.5 -109.5t-113 -71.5t-142.5 -25.5q-47 0 -85.5 9t-71 24.5t-60 38t-51.5 49.5l26 33q10 15 29 15q12 0 27.5 -16t40.5 -34.5t63.5 -34.5t95.5 -16q58 0 105.5 20t80.5 54.5t51 81t18 99.5q0 56 -23.5 91t-59.5 59t-77 41.5t-77 40t-59.5 55.5t-23.5 86q0 56 26.5 97 t66 74.5t86 64t86 66t66 80.5t26.5 108q0 29 -11 63t-37 62.5t-68 47.5t-104 19q-65 0 -126 -33t-111 -92t-84.5 -139.5t-46.5 -174.5l-112 -902l-42 -230q-12 -41 -49 -41h-34l140 1142l-131 9q-25 3 -25 19q0 2 1 5l3 38h162z"/>
<glyph glyph-name="agrave" horiz-adv-x="997" unicode="à" d="M727 346q-38 -80 -83.5 -146.5t-97.5 -113.5t-109 -73t-118 -26q-62 0 -109.5 24.5t-79 69.5t-47.5 109t-16 144q0 87 22.5 170.5t62.5 158.5t96 138t124 109t145 72t159 26q59 0 111.5 -10.5t102.5 -36.5l-117 -961h-46q-20 0 -27 11t-7 25zM792 917q-30 11 -62 15.5 t-65 4.5q-100 0 -191 -49t-160 -131t-110 -188t-41 -220q0 -134 45.5 -208.5t141.5 -74.5q57 0 112 32t105.5 90t94.5 139.5t79 180.5zM586 1431q22 0 32.5 -7t18.5 -25l117 -238h-50q-11 0 -18.5 3.5t-12.5 13.5l-172 253h85z"/>
<glyph glyph-name="aacute" horiz-adv-x="997" unicode="á" d="M727 346q-38 -80 -83.5 -146.5t-97.5 -113.5t-109 -73t-118 -26q-62 0 -109.5 24.5t-79 69.5t-47.5 109t-16 144q0 87 22.5 170.5t62.5 158.5t96 138t124 109t145 72t159 26q59 0 111.5 -10.5t102.5 -36.5l-117 -961h-46q-20 0 -27 11t-7 25zM792 917q-30 11 -62 15.5 t-65 4.5q-100 0 -191 -49t-160 -131t-110 -188t-41 -220q0 -134 45.5 -208.5t141.5 -74.5q57 0 112 32t105.5 90t94.5 139.5t79 180.5zM941 1431l-228 -253q-8 -10 -16 -13.5t-19 -3.5h-53l171 238q12 18 24 25t34 7h87z"/>
<glyph glyph-name="acircumflex" horiz-adv-x="997" unicode="â" d="M883 1169h-60q-6 0 -13 3t-12 11l-123 166l-9 12q-3 -4 -11 -12l-161 -166q-12 -14 -28 -14h-62l228 246h78zM727 346q-38 -80 -83.5 -146.5t-97.5 -113.5t-109 -73t-118 -26q-62 0 -109.5 24.5t-79 69.5t-47.5 109t-16 144q0 87 22.5 170.5t62.5 158.5t96 138t124 109 t145 72t159 26q59 0 111.5 -10.5t102.5 -36.5l-117 -961h-46q-20 0 -27 11t-7 25zM792 917q-30 11 -62 15.5t-65 4.5q-100 0 -191 -49t-160 -131t-110 -188t-41 -220q0 -134 45.5 -208.5t141.5 -74.5q57 0 112 32t105.5 90t94.5 139.5t79 180.5z"/>
<glyph glyph-name="atilde" horiz-adv-x="997" unicode="ã" d="M727 346q-38 -80 -83.5 -146.5t-97.5 -113.5t-109 -73t-118 -26q-62 0 -109.5 24.5t-79 69.5t-47.5 109t-16 144q0 87 22.5 170.5t62.5 158.5t96 138t124 109t145 72t159 26q59 0 111.5 -10.5t102.5 -36.5l-117 -961h-46q-20 0 -27 11t-7 25zM792 917q-30 11 -62 15.5 t-65 4.5q-100 0 -191 -49t-160 -131t-110 -188t-41 -220q0 -134 45.5 -208.5t141.5 -74.5q57 0 112 32t105.5 90t94.5 139.5t79 180.5zM772 1280q40 0 63.5 27.5t29.5 74.5h55q-4 -36 -16.5 -67.5t-32 -54.5t-45.5 -36t-58 -13q-31 0 -56 16.5t-47.5 36t-44.5 36t-46 16.5 q-38 0 -62 -28.5t-30 -73.5h-56q4 36 17 67.5t32.5 54.5t46 36t57.5 13t56.5 -16.5t47.5 -36t43.5 -36t45.5 -16.5z"/>
<glyph glyph-name="adieresis" horiz-adv-x="997" unicode="ä" d="M727 346q-38 -80 -83.5 -146.5t-97.5 -113.5t-109 -73t-118 -26q-62 0 -109.5 24.5t-79 69.5t-47.5 109t-16 144q0 87 22.5 170.5t62.5 158.5t96 138t124 109t145 72t159 26q59 0 111.5 -10.5t102.5 -36.5l-117 -961h-46q-20 0 -27 11t-7 25zM792 917q-30 11 -62 15.5 t-65 4.5q-100 0 -191 -49t-160 -131t-110 -188t-41 -220q0 -134 45.5 -208.5t141.5 -74.5q57 0 112 32t105.5 90t94.5 139.5t79 180.5zM939 1284q0 -16 -7 -30.5t-18 -25.5t-26.5 -17.5t-31.5 -6.5q-17 0 -31.5 6.5t-26 17.5t-18 25.5t-6.5 30.5q0 17 6.5 32t18 26.5t26 18 t31.5 6.5q16 0 31.5 -6.5t26.5 -18t18 -26.5t7 -32zM606 1284q0 -16 -7 -30.5t-18 -25.5t-26.5 -17.5t-31.5 -6.5t-30.5 6.5t-26 17.5t-18 25.5t-6.5 30.5q0 17 6.5 32t18 26.5t26 18t30.5 6.5t31.5 -6.5t26.5 -18t18 -26.5t7 -32z"/>
<glyph glyph-name="aring" horiz-adv-x="997" unicode="å" d="M727 346q-38 -80 -83.5 -146.5t-97.5 -113.5t-109 -73t-118 -26q-62 0 -109.5 24.5t-79 69.5t-47.5 109t-16 144q0 87 22.5 170.5t62.5 158.5t96 138t124 109t145 72t159 26q59 0 111.5 -10.5t102.5 -36.5l-117 -961h-46q-20 0 -27 11t-7 25zM792 917q-30 11 -62 15.5 t-65 4.5q-100 0 -191 -49t-160 -131t-110 -188t-41 -220q0 -134 45.5 -208.5t141.5 -74.5q57 0 112 32t105.5 90t94.5 139.5t79 180.5zM592 1302q-1 -8 -1 -16q0 -39 21 -66q25 -32 73 -32q46 0 79 32t39 82q1 9 1 18q1 38 -21 64q-26 32 -73 32t-79 -32t-39 -82zM539 1302 q4 36 20 66t40 51.5t54 34t63 12.5q32 0 59.5 -12.5t47.5 -33.5q18 -22 28 -52q7 -21 7 -45q0 -10 -1 -21q-5 -36 -21 -65.5t-40 -51.5t-54.5 -34t-62.5 -12q-33 0 -60 12t-46 34q-18 21 -28 51q-7 21 -7 45q0 10 1 21z"/>
<glyph glyph-name="ae" horiz-adv-x="1474" unicode="æ" d="M1372 185q-48 -51 -94 -88.5t-94 -62t-99.5 -36t-109.5 -11.5q-116 0 -194.5 70.5t-107.5 203.5q-28 -77 -73.5 -130t-98 -85.5t-108 -47t-104.5 -14.5q-56 0 -102.5 13.5t-80 41.5t-52 71.5t-18.5 103.5q0 75 35 137.5t110 108t193 72.5t284 31l11 85q5 38 5 72 q0 88 -32 141q-44 74 -151 74q-66 0 -114.5 -20t-83.5 -43.5t-58 -43.5t-37 -20q-17 0 -28 18l-12 28q81 78 162.5 118t180.5 40q114 0 172 -60t69 -166q57 106 148 165.5t210 59.5q55 0 101.5 -16t80.5 -45.5t53 -70t19 -88.5q0 -58 -31 -109.5t-103 -91t-191 -63.5 t-294 -25q-3 -39 -3 -82q0 -172 69.5 -264.5t190.5 -92.5q53 0 95.5 11.5t76.5 29.5t59.5 38t45.5 38t34.5 29.5t25.5 11.5q12 0 21 -10zM1090 940q-71 0 -129 -27t-102.5 -76.5t-74 -119.5t-42.5 -157q151 5 252 24.5t162.5 49.5t87.5 69t26 84q0 72 -49 112.5t-131 40.5z M651 502q-138 -5 -237.5 -25t-163 -54.5t-94 -83.5t-30.5 -112q0 -46 13 -79t37 -54.5t57 -32t72 -10.5q61 0 116.5 22.5t100 65t74.5 104.5t40 142z"/>
<glyph glyph-name="ccedilla" horiz-adv-x="911" unicode="ç" d="M385 -12q-78 5 -136.5 36.5t-96.5 84t-57 122.5t-19 153q0 79 16.5 156.5t47.5 147.5t75 129t99 102t119.5 67.5t137.5 24.5q49 0 88.5 -9.5t72.5 -27t60 -42.5t50 -56l-28 -33q-9 -11 -21 -11q-10 0 -24.5 16t-39 34.5t-63.5 34.5t-98 16q-84 0 -156.5 -45t-126 -121 t-84 -175.5t-30.5 -207.5q0 -69 15.5 -128t48 -102t81.5 -67t116 -24q53 0 95 11.5t74.5 28.5t57 37.5t43.5 37.5t32.5 28.5t24.5 11.5t21 -10l21 -26q-50 -56 -94.5 -92.5t-87.5 -58.5t-86.5 -32t-91.5 -12l-32 -81q75 -15 113.5 -42t38.5 -78q0 -34 -14.5 -60.5t-39.5 -45 t-60 -28t-75 -9.5q-37 0 -71 11.5t-57 30.5l14 28q6 11 17 11q5 0 12 -5.5t18.5 -11.5t28.5 -11.5t43 -5.5q51 0 79 24.5t28 66.5q0 22 -11 37t-31 25t-47.5 15.5t-60.5 10.5z"/>
<glyph glyph-name="egrave" horiz-adv-x="937" unicode="è" d="M818 185q-49 -52 -95.5 -89.5t-94 -61.5t-98.5 -35.5t-109 -11.5q-83 0 -147.5 27.5t-108.5 78t-67 123t-23 162.5q0 75 15 151t44.5 146t73 131t99.5 106t124 71t147 26q73 0 123.5 -20.5t82 -51t45.5 -66t14 -66.5q0 -41 -11 -78t-39 -70t-76 -62t-122.5 -53.5 t-178.5 -44.5t-244 -35q-2 -20 -3.5 -41t-1.5 -41q0 -149 67.5 -233t203.5 -84q53 0 95.5 11.5t76 29.5t59 38t45.5 38t34.5 29.5t26.5 11.5t21 -10zM573 939q-80 0 -144.5 -33.5t-114 -90.5t-83 -131.5t-49.5 -155.5q127 14 219 32.5t156 39t104 44.5t61.5 49.5t29 52.5 t7.5 56q0 21 -9.5 45.5t-31.5 44.5t-57.5 33.5t-87.5 13.5zM476 1431q22 0 32.5 -7t18.5 -25l117 -238h-50q-11 0 -18.5 3.5t-12.5 13.5l-172 253h85z"/>
<glyph glyph-name="eacute" horiz-adv-x="937" unicode="é" d="M818 185q-49 -52 -95.5 -89.5t-94 -61.5t-98.5 -35.5t-109 -11.5q-83 0 -147.5 27.5t-108.5 78t-67 123t-23 162.5q0 75 15 151t44.5 146t73 131t99.5 106t124 71t147 26q73 0 123.5 -20.5t82 -51t45.5 -66t14 -66.5q0 -41 -11 -78t-39 -70t-76 -62t-122.5 -53.5 t-178.5 -44.5t-244 -35q-2 -20 -3.5 -41t-1.5 -41q0 -149 67.5 -233t203.5 -84q53 0 95.5 11.5t76 29.5t59 38t45.5 38t34.5 29.5t26.5 11.5t21 -10zM573 939q-80 0 -144.5 -33.5t-114 -90.5t-83 -131.5t-49.5 -155.5q127 14 219 32.5t156 39t104 44.5t61.5 49.5t29 52.5 t7.5 56q0 21 -9.5 45.5t-31.5 44.5t-57.5 33.5t-87.5 13.5zM840 1431l-228 -253q-8 -10 -16 -13.5t-19 -3.5h-53l171 238q12 18 24 25t34 7h87z"/>
<glyph glyph-name="ecircumflex" horiz-adv-x="937" unicode="ê" d="M819 1169h-60q-6 0 -13 3t-12 11l-123 166l-9 12q-3 -4 -11 -12l-161 -166q-12 -14 -28 -14h-62l228 246h78zM818 185q-49 -52 -95.5 -89.5t-94 -61.5t-98.5 -35.5t-109 -11.5q-83 0 -147.5 27.5t-108.5 78t-67 123t-23 162.5q0 75 15 151t44.5 146t73 131t99.5 106 t124 71t147 26q73 0 123.5 -20.5t82 -51t45.5 -66t14 -66.5q0 -41 -11 -78t-39 -70t-76 -62t-122.5 -53.5t-178.5 -44.5t-244 -35q-2 -20 -3.5 -41t-1.5 -41q0 -149 67.5 -233t203.5 -84q53 0 95.5 11.5t76 29.5t59 38t45.5 38t34.5 29.5t26.5 11.5t21 -10zM573 939 q-80 0 -144.5 -33.5t-114 -90.5t-83 -131.5t-49.5 -155.5q127 14 219 32.5t156 39t104 44.5t61.5 49.5t29 52.5t7.5 56q0 21 -9.5 45.5t-31.5 44.5t-57.5 33.5t-87.5 13.5z"/>
<glyph glyph-name="edieresis" horiz-adv-x="937" unicode="ë" d="M818 185q-49 -52 -95.5 -89.5t-94 -61.5t-98.5 -35.5t-109 -11.5q-83 0 -147.5 27.5t-108.5 78t-67 123t-23 162.5q0 75 15 151t44.5 146t73 131t99.5 106t124 71t147 26q73 0 123.5 -20.5t82 -51t45.5 -66t14 -66.5q0 -41 -11 -78t-39 -70t-76 -62t-122.5 -53.5 t-178.5 -44.5t-244 -35q-2 -20 -3.5 -41t-1.5 -41q0 -149 67.5 -233t203.5 -84q53 0 95.5 11.5t76 29.5t59 38t45.5 38t34.5 29.5t26.5 11.5t21 -10zM573 939q-80 0 -144.5 -33.5t-114 -90.5t-83 -131.5t-49.5 -155.5q127 14 219 32.5t156 39t104 44.5t61.5 49.5t29 52.5 t7.5 56q0 21 -9.5 45.5t-31.5 44.5t-57.5 33.5t-87.5 13.5zM857 1284q0 -16 -7 -30.5t-18 -25.5t-26.5 -17.5t-31.5 -6.5q-17 0 -31.5 6.5t-26 17.5t-18 25.5t-6.5 30.5q0 17 6.5 32t18 26.5t26 18t31.5 6.5q16 0 31.5 -6.5t26.5 -18t18 -26.5t7 -32zM524 1284 q0 -16 -7 -30.5t-18 -25.5t-26.5 -17.5t-31.5 -6.5t-30.5 6.5t-26 17.5t-18 25.5t-6.5 30.5q0 17 6.5 32t18 26.5t26 18t30.5 6.5t31.5 -6.5t26.5 -18t18 -26.5t7 -32z"/>
<glyph glyph-name="igrave" horiz-adv-x="423" unicode="ì" d="M306 995l-121 -995h-93l121 995h93zM194 1431q22 0 32.5 -7t18.5 -25l117 -238h-50q-11 0 -18.5 3.5t-12.5 13.5l-172 253h85z"/>
<glyph glyph-name="iacute" horiz-adv-x="423" unicode="í" d="M306 995l-121 -995h-93l121 995h93zM512 1431l-228 -253q-8 -10 -16 -13.5t-19 -3.5h-53l171 238q12 18 24 25t34 7h87z"/>
<glyph glyph-name="icircumflex" horiz-adv-x="423" unicode="î" d="M520 1169h-60q-6 0 -13 3t-12 11l-123 166l-9 12q-3 -4 -11 -12l-161 -166q-12 -14 -28 -14h-62l228 246h78zM306 995l-121 -995h-93l121 995h93z"/>
<glyph glyph-name="idieresis" horiz-adv-x="423" unicode="ï" d="M306 995l-121 -995h-93l121 995h93zM504 1284q0 -16 -7 -30.5t-18 -25.5t-26 -17.5t-31 -6.5q-17 0 -32 6.5t-26 17.5t-17.5 25.5t-6.5 30.5q0 34 24 58.5t58 24.5q16 0 31 -6.5t26 -18t18 -26.5t7 -32zM247 1284q0 -16 -7 -30.5t-18.5 -25.5t-26.5 -17.5t-31 -6.5 q-17 0 -31.5 6.5t-26 17.5t-18 25.5t-6.5 30.5q0 17 6.5 32t18 26.5t26 18t31.5 6.5q16 0 31 -6.5t26.5 -18t18.5 -26.5t7 -32z"/>
<glyph glyph-name="eth" horiz-adv-x="1042" unicode="ð" d="M740 1230q44 -41 80 -92t61.5 -114t39.5 -138t14 -164q0 -159 -32 -293.5t-96 -232.5t-158.5 -153t-220.5 -55q-76 0 -140.5 28.5t-111.5 80.5t-73.5 126t-26.5 165q0 109 32.5 205.5t93 169.5t146 115.5t190.5 42.5q49 0 97 -13.5t90 -42t76.5 -72.5t56.5 -104 q1 20 1 39q1 150 -41 258q-46 122 -136 201l-171 -146l-17 29q-5 7 -4 15.5t8 14.5l141 121q-51 36 -110 60.5t-128 39.5q-32 9 -19 40l13 30q81 -14 158.5 -44.5t144.5 -81.5l161 136l16 -29q4 -7 3.5 -16t-10.5 -16zM438 61q163 0 264.5 126.5t134.5 381.5q-9 51 -30 101 t-56.5 89.5t-86.5 64t-119 24.5q-90 0 -160.5 -36t-118.5 -98t-73 -144.5t-25 -176.5q0 -77 21 -138.5t57 -104.5t85.5 -66t106.5 -23z"/>
<glyph glyph-name="ntilde" horiz-adv-x="1032" unicode="ñ" d="M251 675q40 79 89.5 141.5t104.5 105.5t113 65.5t117 22.5q64 0 109.5 -25t73.5 -73t36 -118q4 -30 3 -64q0 -44 -6 -94l-75 -636h-94l75 636q5 46 5 84q0 82 -24 134q-36 76 -135 76q-56 0 -112.5 -28.5t-110 -81t-100.5 -127t-83 -167.5l-61 -526h-94l119 998h43 q35 0 35 -36zM688 1280q40 0 63.5 27.5t29.5 74.5h55q-4 -36 -16.5 -67.5t-32 -54.5t-45.5 -36t-58 -13q-31 0 -56 16.5t-47.5 36t-44.5 36t-46 16.5q-38 0 -62 -28.5t-30 -73.5h-56q4 36 17 67.5t32.5 54.5t46 36t57.5 13t56.5 -16.5t47.5 -36t43.5 -36t45.5 -16.5z"/>
<glyph glyph-name="ograve" horiz-adv-x="1026" unicode="ò" d="M433 -13q-80 0 -145.5 28t-112 81t-72 128.5t-25.5 171.5q0 121 36 232t101.5 196t155.5 135.5t198 50.5q80 0 145.5 -28t112 -81t72 -128.5t25.5 -169.5q0 -121 -36.5 -232t-101.5 -196.5t-155 -136.5t-198 -51zM441 62q87 0 158.5 45.5t122.5 121t78.5 173t27.5 200.5 q0 160 -71 246t-197 86q-87 0 -158.5 -45t-122 -119.5t-78.5 -171.5t-28 -202q0 -159 70.5 -246.5t197.5 -87.5zM502 1431q22 0 32.5 -7t18.5 -25l117 -238h-50q-11 0 -18.5 3.5t-12.5 13.5l-172 253h85z"/>
<glyph glyph-name="oacute" horiz-adv-x="1026" unicode="ó" d="M433 -13q-80 0 -145.5 28t-112 81t-72 128.5t-25.5 171.5q0 121 36 232t101.5 196t155.5 135.5t198 50.5q80 0 145.5 -28t112 -81t72 -128.5t25.5 -169.5q0 -121 -36.5 -232t-101.5 -196.5t-155 -136.5t-198 -51zM441 62q87 0 158.5 45.5t122.5 121t78.5 173t27.5 200.5 q0 160 -71 246t-197 86q-87 0 -158.5 -45t-122 -119.5t-78.5 -171.5t-28 -202q0 -159 70.5 -246.5t197.5 -87.5zM814 1431l-228 -253q-8 -10 -16 -13.5t-19 -3.5h-53l171 238q12 18 24 25t34 7h87z"/>
<glyph glyph-name="ocircumflex" horiz-adv-x="1026" unicode="ô" d="M827 1169h-60q-6 0 -13 3t-12 11l-123 166l-9 12q-3 -4 -11 -12l-161 -166q-12 -14 -28 -14h-62l228 246h78zM433 -13q-80 0 -145.5 28t-112 81t-72 128.5t-25.5 171.5q0 121 36 232t101.5 196t155.5 135.5t198 50.5q80 0 145.5 -28t112 -81t72 -128.5t25.5 -169.5 q0 -121 -36.5 -232t-101.5 -196.5t-155 -136.5t-198 -51zM441 62q87 0 158.5 45.5t122.5 121t78.5 173t27.5 200.5q0 160 -71 246t-197 86q-87 0 -158.5 -45t-122 -119.5t-78.5 -171.5t-28 -202q0 -159 70.5 -246.5t197.5 -87.5z"/>
<glyph glyph-name="otilde" horiz-adv-x="1026" unicode="õ" d="M433 -13q-80 0 -145.5 28t-112 81t-72 128.5t-25.5 171.5q0 121 36 232t101.5 196t155.5 135.5t198 50.5q80 0 145.5 -28t112 -81t72 -128.5t25.5 -169.5q0 -121 -36.5 -232t-101.5 -196.5t-155 -136.5t-198 -51zM441 62q87 0 158.5 45.5t122.5 121t78.5 173t27.5 200.5 q0 160 -71 246t-197 86q-87 0 -158.5 -45t-122 -119.5t-78.5 -171.5t-28 -202q0 -159 70.5 -246.5t197.5 -87.5zM713 1280q40 0 63.5 27.5t29.5 74.5h55q-4 -36 -16.5 -67.5t-32 -54.5t-45.5 -36t-58 -13q-31 0 -56 16.5t-47.5 36t-44.5 36t-46 16.5q-38 0 -62 -28.5 t-30 -73.5h-56q4 36 17 67.5t32.5 54.5t46 36t57.5 13t56.5 -16.5t47.5 -36t43.5 -36t45.5 -16.5z"/>
<glyph glyph-name="odieresis" horiz-adv-x="1026" unicode="ö" d="M433 -13q-80 0 -145.5 28t-112 81t-72 128.5t-25.5 171.5q0 121 36 232t101.5 196t155.5 135.5t198 50.5q80 0 145.5 -28t112 -81t72 -128.5t25.5 -169.5q0 -121 -36.5 -232t-101.5 -196.5t-155 -136.5t-198 -51zM441 62q87 0 158.5 45.5t122.5 121t78.5 173t27.5 200.5 q0 160 -71 246t-197 86q-87 0 -158.5 -45t-122 -119.5t-78.5 -171.5t-28 -202q0 -159 70.5 -246.5t197.5 -87.5zM877 1284q0 -16 -7 -30.5t-18 -25.5t-26.5 -17.5t-31.5 -6.5q-17 0 -31.5 6.5t-26 17.5t-18 25.5t-6.5 30.5q0 17 6.5 32t18 26.5t26 18t31.5 6.5 q16 0 31.5 -6.5t26.5 -18t18 -26.5t7 -32zM544 1284q0 -16 -7 -30.5t-18 -25.5t-26.5 -17.5t-31.5 -6.5t-30.5 6.5t-26 17.5t-18 25.5t-6.5 30.5q0 17 6.5 32t18 26.5t26 18t30.5 6.5t31.5 -6.5t26.5 -18t18 -26.5t7 -32z"/>
<glyph glyph-name="divide" horiz-adv-x="1160" unicode="÷" d="M450 302q0 21 8.5 40t22.5 33.5t32.5 22.5t39.5 8q35 0 58 -24.5t23 -59.5q0 -21 -8.5 -39.5t-22.5 -32t-33 -21t-40 -7.5q-35 0 -57.5 23.5t-22.5 56.5zM538 1014q0 21 8.5 40t22.5 33.5t32.5 22.5t39.5 8q35 0 58 -24.5t23 -59.5q0 -21 -8.5 -39.5t-23 -32t-33.5 -21 t-39 -7.5q-36 0 -58 23.5t-22 56.5zM122 706h939l-9 -71h-938z"/>
<glyph glyph-name="oslash" horiz-adv-x="1026" unicode="ø" d="M839 887q41 -53 63 -124t22 -160q0 -121 -36.5 -232t-101.5 -196.5t-155 -136.5t-198 -51q-133 0 -223 75l-70 -96q-13 -17 -29.5 -24.5t-33.5 -7.5h-38l127 173q-42 52 -65 125t-23 164q0 121 36 232.5t101.5 196.5t155.5 135.5t198 50.5q68 0 124.5 -20t101.5 -58 l61 83q12 16 21 23t29 7h50zM741 871q-35 34 -80 52t-101 18q-87 0 -159 -44.5t-124 -119.5t-80.5 -174t-28.5 -207q0 -69 14.5 -125t40.5 -98zM263 124q70 -67 178 -67q87 0 159.5 45t124 120.5t80 174t28.5 205.5q0 132 -52 218z"/>
<glyph glyph-name="ugrave" horiz-adv-x="1032" unicode="ù" d="M925 995l-120 -995h-44q-19 0 -27.5 10t-8.5 27l30 283q-41 -79 -90 -141t-103.5 -104.5t-113 -65t-116.5 -22.5q-128 1 -183 99q-39 70 -39 181q0 44 6 95l75 633h94l-75 -633q-5 -46 -5 -85q0 -83 24 -135q36 -76 135 -76q55 0 111.5 28t109.5 80.5t100 126t83 165.5 l63 529h94zM492 1431q22 0 32.5 -7t18.5 -25l117 -238h-50q-11 0 -18.5 3.5t-12.5 13.5l-172 253h85z"/>
<glyph glyph-name="uacute" horiz-adv-x="1032" unicode="ú" d="M925 995l-120 -995h-44q-19 0 -27.5 10t-8.5 27l30 283q-41 -79 -90 -141t-103.5 -104.5t-113 -65t-116.5 -22.5q-128 1 -183 99q-39 70 -39 181q0 44 6 95l75 633h94l-75 -633q-5 -46 -5 -85q0 -83 24 -135q36 -76 135 -76q55 0 111.5 28t109.5 80.5t100 126t83 165.5 l63 529h94zM845 1431l-228 -253q-8 -10 -16 -13.5t-19 -3.5h-53l171 238q12 18 24 25t34 7h87z"/>
<glyph glyph-name="ucircumflex" horiz-adv-x="1032" unicode="û" d="M823 1169h-60q-6 0 -13 3t-12 11l-123 166l-9 12q-3 -4 -11 -12l-161 -166q-12 -14 -28 -14h-62l228 246h78zM925 995l-120 -995h-44q-19 0 -27.5 10t-8.5 27l30 283q-41 -79 -90 -141t-103.5 -104.5t-113 -65t-116.5 -22.5q-128 1 -183 99q-39 70 -39 181q0 44 6 95 l75 633h94l-75 -633q-5 -46 -5 -85q0 -83 24 -135q36 -76 135 -76q55 0 111.5 28t109.5 80.5t100 126t83 165.5l63 529h94z"/>
<glyph glyph-name="udieresis" horiz-adv-x="1032" unicode="ü" d="M925 995l-120 -995h-44q-19 0 -27.5 10t-8.5 27l30 283q-41 -79 -90 -141t-103.5 -104.5t-113 -65t-116.5 -22.5q-128 1 -183 99q-39 70 -39 181q0 44 6 95l75 633h94l-75 -633q-5 -46 -5 -85q0 -83 24 -135q36 -76 135 -76q55 0 111.5 28t109.5 80.5t100 126t83 165.5 l63 529h94zM847 1284q0 -16 -7 -30.5t-18 -25.5t-26.5 -17.5t-31.5 -6.5q-17 0 -31.5 6.5t-26 17.5t-18 25.5t-6.5 30.5q0 17 6.5 32t18 26.5t26 18t31.5 6.5q16 0 31.5 -6.5t26.5 -18t18 -26.5t7 -32zM514 1284q0 -16 -7 -30.5t-18 -25.5t-26.5 -17.5t-31.5 -6.5t-30.5 6.5 t-26 17.5t-18 25.5t-6.5 30.5q0 17 6.5 32t18 26.5t26 18t30.5 6.5t31.5 -6.5t26.5 -18t18 -26.5t7 -32z"/>
<glyph glyph-name="yacute" horiz-adv-x="929" unicode="ý" d="M944 995l-691 -1319q-14 -28 -41 -28h-67l210 390l-267 957h74q14 0 21 -6.5t9 -17.5l210 -774q4 -15 5.5 -30t3.5 -30q6 15 13 30l14 30l401 777q5 11 14 16t18 5h73zM791 1431l-228 -253q-8 -10 -16 -13.5t-19 -3.5h-53l171 238q12 18 24 25t34 7h87z"/>
<glyph glyph-name="thorn" horiz-adv-x="1032" unicode="þ" d="M253 658q39 79 87 144t101.5 111t112 71.5t118.5 25.5q65 0 114 -25t82 -70.5t50 -110.5t17 -145q0 -77 -16 -156.5t-45.5 -154t-72 -140.5t-96.5 -115t-118.5 -77.5t-136.5 -28.5q-81 0 -149.5 36t-112.5 107l-54 -443q-2 -17 -13.5 -28t-28.5 -11h-54l220 1807h93z M198 206q21 -40 48.5 -67.5t59 -44.5t65 -24.5t68.5 -7.5q63 0 117.5 25.5t99 69.5t79 102.5t58 123.5t36 133.5t12.5 133.5q0 134 -51 208.5t-149 74.5q-57 0 -115 -32t-111 -90.5t-100 -140.5t-83 -182z"/>
<glyph glyph-name="dotlessi" horiz-adv-x="423" unicode="ı" d="M306 995l-121 -995h-93l121 995h93z"/>
<glyph glyph-name="kgreenlandic" horiz-adv-x="883" unicode="ĸ" d="M296 995l-53 -427h36q12 0 25 3t30 20l412 379q11 12 22.5 18.5t28.5 6.5h81l-453 -417q-22 -22 -41 -33q14 -8 23 -18.5t17 -24.5l364 -502h-79q-14 0 -24 4.5t-18 18.5l-330 448q-13 19 -26.5 25t-40.5 6h-35l-62 -502h-93l123 995h93z"/>
<glyph glyph-name="OE" horiz-adv-x="2037" unicode="Œ" d="M1351 1333l-71 -577h562l-9 -80h-562l-73 -594h677l-11 -82h-767l39 318q-43 -78 -99.5 -139.5t-124.5 -104t-146 -65t-165 -22.5q-111 0 -199.5 43.5t-151 122.5t-96 190t-33.5 246q0 189 50.5 344t139 265.5t208 171.5t258.5 61q87 0 159.5 -26.5t129.5 -75t97.5 -118 t63.5 -155.5l44 359h767l-9 -82h-678zM622 68q120 0 222 53t176 151t116 238t42 314q0 120 -27.5 217t-79 165.5t-125.5 106t-167 37.5q-119 0 -221 -53.5t-176.5 -152.5t-117 -239t-42.5 -313q0 -120 28 -217t80 -165.5t126 -105t166 -36.5z"/>
<glyph glyph-name="oe" horiz-adv-x="1614" unicode="œ" d="M1504 185q-48 -51 -94 -88.5t-94 -62t-99.5 -36t-109.5 -11.5q-121 0 -200.5 76.5t-105.5 219.5q-30 -69 -72.5 -124t-95.5 -93t-115.5 -58.5t-134.5 -20.5q-79 0 -137 29t-95.5 77.5t-56 112t-18.5 132.5q0 161 39 286t106.5 211t158.5 131t196 45q121 0 193 -68.5 t95 -185.5q58 118 156 186t228 68q61 0 109.5 -16t82.5 -44.5t51.5 -68t17.5 -87.5q0 -56 -27 -106.5t-98.5 -92.5t-196.5 -75t-322 -54q-1 -11 -1 -23v-24q0 -172 69.5 -264.5t190.5 -92.5q53 0 95.5 11.5t76 29.5t59.5 38t46 38t34.5 29.5t25.5 11.5q12 0 21 -10z M1234 942q-72 0 -133 -29t-108.5 -83t-79 -130.5t-43.5 -171.5q174 20 283.5 49t171 63.5t83.5 73.5t22 78q0 30 -11.5 57t-35.5 47.5t-61 33t-88 12.5zM406 60q89 0 158.5 39.5t119 110.5t78 168.5t35.5 214.5q2 23 2 45q-1 50 -9 94q-12 64 -40 110t-74 71t-110 25 q-90 0 -163 -42t-125 -119.5t-80 -187t-28 -245.5q0 -54 12.5 -105t40.5 -91t73 -64t110 -24z"/>
<glyph glyph-name="Scaron" horiz-adv-x="996" unicode="Š" d="M928 1809l-247 -267h-78l-185 267h65q7 0 16.5 -2t15.5 -13l127 -196q2 -3 3 -5.5t3 -5.5q2 3 4 5.5t4 5.5l170 196q10 11 19.5 13t17.5 2h65zM910 1244q-11 -17 -26 -17q-12 0 -29 19t-46.5 41.5t-76 41.5t-116.5 19q-76 0 -135.5 -24.5t-101 -67t-63.5 -99t-22 -120.5 q0 -61 25 -102.5t65.5 -71t92 -51t106 -42t106 -45t92 -59.5t65.5 -85t25 -123q0 -96 -33 -182.5t-94.5 -151t-149.5 -102.5t-197 -38q-128 0 -216 49.5t-148 135.5l33 43q14 14 28 14q9 0 20.5 -12t28 -29.5t39 -38t54.5 -38t74.5 -29.5t98.5 -12q84 0 152 28.5t116 78.5 t73.5 117.5t25.5 145.5q0 62 -25 103.5t-65.5 70.5t-92 49t-105.5 40t-106 44t-92.5 59.5t-65 87t-24.5 126.5q0 81 29 156t83.5 132.5t133.5 91.5t180 34q102 0 179 -37.5t133 -109.5z"/>
<glyph glyph-name="scaron" horiz-adv-x="786" unicode="š" d="M758 1415l-227 -246h-79l-172 246h61q17 0 24 -11l125 -168q2 -3 4.5 -6t4.5 -7q2 4 5 7l6 6l163 168q11 11 25 11h60zM697 873q-8 -14 -22 -14q-10 0 -24.5 12.5t-39 28t-61.5 28t-92 12.5q-51 0 -96.5 -17t-79 -45.5t-53 -66t-19.5 -79.5q0 -41 19 -69t50.5 -48.5 t71 -35.5t81.5 -30t81.5 -33.5t71 -44.5t50.5 -63.5t19 -90.5q0 -64 -25.5 -124t-73 -106.5t-114 -74.5t-148.5 -28q-96 0 -161.5 33.5t-112.5 87.5l24 34q11 16 27 16q10 0 25 -16t41 -35.5t67 -35.5t103 -16q60 0 108.5 19.5t83 53.5t53.5 78.5t19 94.5q0 44 -19 74 t-50.5 51.5t-71 36.5t-81.5 29.5t-81.5 32t-71 42.5t-50.5 61t-19 88q0 58 25 111.5t70 95t107.5 66t136.5 24.5q84 0 145.5 -26t109.5 -78z"/>
<glyph glyph-name="Ydieresis" horiz-adv-x="1103" unicode="Ÿ" d="M600 583l-73 -583h-99l73 584l-381 831h88q26 0 34 -25l299 -668q6 -17 11 -33.5t8 -33.5q8 17 17 33.5t20 33.5l464 668q7 11 16 18t23 7h83zM933 1662q0 -17 -7 -31.5t-18 -25.5t-26 -17.5t-31 -6.5q-34 0 -58 24t-24 57q0 34 24 58.5t58 24.5q16 0 31 -6.5t26 -18 t18 -26.5t7 -32zM576 1662q0 -17 -7 -31.5t-18.5 -25.5t-26.5 -17.5t-31 -6.5q-33 0 -57.5 24t-24.5 57q0 17 6.5 32t18 26.5t26 18t31.5 6.5q16 0 31 -6.5t26.5 -18t18.5 -26.5t7 -32z"/>
<glyph glyph-name="uni0186" horiz-adv-x="1267" unicode="Ɔ" d="M85 236q9 0 18 -9q34 -39 69.5 -68.5t78.5 -49.5t96.5 -30t122.5 -10q123 0 232 51t191.5 146.5t130.5 233t48 310.5q0 122 -32.5 221t-92 168.5t-144 107.5t-188.5 38q-92 0 -160 -22t-115 -48.5t-75 -48.5t-39 -22q-16 0 -22 12l-25 43q95 82 203 127t242 45 q127 0 228.5 -45.5t173 -127.5t110 -196t38.5 -250q0 -124 -24.5 -233.5t-70 -201.5t-109.5 -165t-142.5 -123.5t-170.5 -77.5t-192 -27q-81 0 -147 14.5t-119.5 41t-96.5 64t-78 84.5l44 41q7 7 17 7z"/>
<glyph glyph-name="uni01B7" horiz-adv-x="1076" unicode="Ʒ" d="M1031 1381q-2 -11 -6 -22t-17 -22l-506 -481h20q113 0 195 -28.5t135.5 -76.5t79 -112t25.5 -136q0 -112 -40 -207t-111.5 -164t-170 -108t-216.5 -39q-69 0 -130.5 14t-113 38.5t-92 57.5t-68.5 71l41 43q5 6 10 7t8 1q7 0 11 -2t12 -9q15 -22 44.5 -46t71.5 -44.5 t95.5 -33.5t116.5 -13q99 0 178.5 33.5t135 91t85.5 134.5t30 164q0 58 -20.5 111t-65.5 92.5t-116.5 63t-174.5 23.5h-107l4 39q3 23 21 39l493 473h-706l9 82h844z"/>
<glyph glyph-name="uni0254" horiz-adv-x="882" unicode="ɔ" d="M49 132q6 6 11 9.5t13 3.5q9 0 23.5 -13.5t39 -29.5t62.5 -29.5t95 -13.5q91 0 162.5 38t121.5 107t76.5 166t26.5 216q0 82 -18 147.5t-52.5 111t-84 69.5t-111.5 24t-108 -16.5t-78.5 -36t-53 -35.5t-31.5 -16q-12 0 -18 9l-23 34q32 27 68 51.5t77 43t87.5 29 t99.5 10.5q77 0 140 -29t107.5 -84t68.5 -133t24 -176q0 -132 -32.5 -243t-94.5 -190.5t-151.5 -124t-202.5 -44.5q-89 0 -156.5 30.5t-114.5 83.5z"/>
<glyph glyph-name="uni0259" horiz-adv-x="966" unicode="ə" d="M140 874q28 28 66.5 52.5t84.5 43.5t97.5 30t104.5 11q84 0 151.5 -30t115.5 -87t73.5 -138.5t25.5 -183.5q0 -129 -34 -236.5t-96.5 -185t-151 -120.5t-197.5 -43q-69 0 -128 24.5t-101.5 71.5t-66.5 115t-24 156q0 36 2.5 57t7.5 31.5t12.5 13.5t17.5 3h660 q4 27 5.5 55t1.5 57q0 177 -76 271.5t-211 94.5q-68 0 -120 -16.5t-88.5 -36.5t-59.5 -36.5t-33 -16.5t-17 9zM145 400q-4 -31 -4 -60q0 -45 9 -84q14 -64 46 -108.5t80 -68t108 -23.5q73 0 133 24t106.5 69t78.5 108.5t48 142.5h-605z"/>
<glyph glyph-name="uni0292" horiz-adv-x="792" unicode="ʒ" d="M707 995l-3 -32q-2 -17 -7.5 -26t-18.5 -23l-419 -482h47q91 0 157.5 -23.5t109.5 -66t64 -101t21 -128.5q0 -104 -32.5 -192.5t-93 -153t-147.5 -101t-195 -36.5q-101 0 -170 33.5t-119 87.5l25 33q12 15 27 15q13 0 29.5 -15.5t43.5 -33.5t68 -33.5t104 -15.5 q81 0 148.5 28t116 80.5t76 127t27.5 167.5q0 58 -16 106t-49.5 82.5t-85 54t-123.5 19.5h-150l3 22q2 14 5 20t13 18l421 496h-507l9 73h621z"/>
<glyph glyph-name="circumflex" d="M739 1169h-60q-6 0 -13 3t-12 11l-123 166l-9 12q-3 -4 -11 -12l-161 -166q-12 -14 -28 -14h-62l228 246h78z" unicode="ˆ"/>
<glyph glyph-name="breve" d="M500 1168q-60 0 -100 19.5t-62.5 53.5t-29.5 79q-4 24 -4 50q0 22 3 45h64q-3 -19 -3 -38q0 -17 2 -32q4 -33 20 -58t44.5 -39.5t72.5 -14.5t75.5 14.5t52.5 39.5t33 58t16 70h64q-6 -50 -22.5 -95t-46.5 -79t-74.5 -53.5t-104.5 -19.5z" unicode="˘"/>
<glyph glyph-name="dotaccent" d="M605 1338q0 -18 -7.5 -33.5t-19.5 -27.5t-27.5 -19t-31.5 -7q-17 0 -32 7t-26 19t-18 27.5t-7 33.5t7 34t18.5 28.5t26.5 19.5t32 7q16 0 31.5 -7t27.5 -19t19 -28.5t7 -34.5z" unicode="˙"/>
<glyph glyph-name="ring" d="M409 1302q-1 -8 -1 -16q0 -39 21 -66q25 -32 73 -32q46 0 79 32t39 82q1 9 1 18q1 38 -21 64q-26 32 -73 32t-79 -32t-39 -82zM356 1302q4 36 20 66t40 51.5t54 34t63 12.5q32 0 59.5 -12.5t47.5 -33.5q18 -22 28 -52q7 -21 7 -45q0 -10 -1 -21q-5 -36 -21 -65.5 t-40 -51.5t-54.5 -34t-62.5 -12q-33 0 -60 12t-46 34q-18 21 -28 51q-7 21 -7 45q0 10 1 21z" unicode="˚"/>
<glyph glyph-name="tilde" d="M617 1280q40 0 63.5 27.5t29.5 74.5h55q-4 -36 -16.5 -67.5t-32 -54.5t-45.5 -36t-58 -13q-31 0 -56 16.5t-47.5 36t-44.5 36t-46 16.5q-38 0 -62 -28.5t-30 -73.5h-56q4 36 17 67.5t32.5 54.5t46 36t57.5 13t56.5 -16.5t47.5 -36t43.5 -36t45.5 -16.5z" unicode="˜"/>
<glyph glyph-name="hungarumlaut" d="M879 1431l-241 -253q-8 -10 -16.5 -13.5t-19.5 -3.5h-43l194 238q7 9 13 15t12 9.5t14 5.5t19 2h68zM629 1431l-210 -253q-8 -10 -17 -13.5t-20 -3.5h-38l167 238q11 18 23 25t34 7h61z" unicode="˝"/>
<glyph glyph-name="uni0374" horiz-adv-x="365" unicode="ʹ" d="M388 1501q0 -57 -8.5 -115.5t-28 -115.5t-51 -110.5t-76.5 -100.5l-25 18q-8 6 -8 14q0 7 6 14q25 32 46 66t34 69.5t17 73.5q1 12 1 23q0 26 -6 52l10 81q2 13 9 22t23 9h57z"/>
<glyph glyph-name="uni0375" horiz-adv-x="367" unicode="͵" d="M250 271q0 -57 -8.5 -115.5t-28 -115.5t-51 -110.5t-76.5 -100.5l-25 18q-8 6 -8 14q0 7 6 14q25 32 46 66t34 69.5t17 73.5q1 12 1 23q0 26 -6 52l10 81q2 13 9 22t23 9h57z"/>
<glyph glyph-name="uni037A" horiz-adv-x="335" unicode="ͺ" d="M74 -74h70l-20 -163q-2 -16 -2 -29q0 -30 10 -46q14 -24 58 -24h23l-2 -16q-2 -16 -18 -24t-40 -8q-61 0 -85 32q-18 23 -18 68q0 17 2 36z"/>
<glyph glyph-name="uni037A" horiz-adv-x="335" unicode="ι" d="M74 -74h70l-20 -163q-2 -16 -2 -29q0 -30 10 -46q14 -24 58 -24h23l-2 -16q-2 -16 -18 -24t-40 -8q-61 0 -85 32q-18 23 -18 68q0 17 2 36z"/>
<glyph glyph-name="uni037B" horiz-adv-x="873" unicode="ͻ" d="M43 132q6 6 11 9.5t13 3.5q9 0 23.5 -13.5t39 -29.5t62.5 -29.5t95 -13.5q91 0 162.5 38t121.5 107t76.5 166t26.5 216q0 82 -18 147.5t-52.5 111t-84 69.5t-111.5 24t-108 -16.5t-78.5 -36t-53 -35.5t-31.5 -16q-12 0 -18 9l-23 34q32 27 68 51.5t77 43t87.5 29 t99.5 10.5q77 0 140 -29t107.5 -84t68.5 -133t24 -176q0 -132 -32.5 -243t-94.5 -190.5t-151.5 -124t-202.5 -44.5q-89 0 -156.5 30.5t-114.5 83.5z"/>
<glyph glyph-name="uni037C" horiz-adv-x="909" unicode="ͼ" d="M801 182q-53 -59 -100.5 -97t-93 -60t-92.5 -30t-100 -8q-86 0 -149.5 29.5t-105.5 82.5t-63 126t-21 159q0 79 16.5 156.5t47.5 147.5t75 129t99 102t119.5 67.5t137.5 24.5q49 0 88.5 -9.5t72.5 -27t60 -42.5t50 -56l-28 -33q-9 -11 -21 -11q-10 0 -24.5 16t-39 34.5 t-63.5 34.5t-98 16q-84 0 -156.5 -45t-126 -121t-84 -175.5t-30.5 -207.5q0 -69 15.5 -128t48 -102t81.5 -67t116 -24q53 0 95 11.5t74.5 28.5t57 37.5t43.5 37.5t32.5 28.5t24.5 11.5t21 -10zM641 503q0 -18 -7.5 -33.5t-19.5 -27.5t-27.5 -19t-31.5 -7q-17 0 -32 7t-26 19 t-18 27.5t-7 33.5t7 34t18.5 28.5t26.5 19.5t32 7q16 0 31.5 -7t27.5 -19t19 -28.5t7 -34.5z"/>
<glyph glyph-name="uni037D" horiz-adv-x="876" unicode="ͽ" d="M43 132q6 6 11 9.5t13 3.5q9 0 23.5 -13.5t39 -29.5t62.5 -29.5t95 -13.5q91 0 162.5 38t121.5 107t76.5 166t26.5 216q0 82 -18 147.5t-52.5 111t-84 69.5t-111.5 24t-108 -16.5t-78.5 -36t-53 -35.5t-31.5 -16q-12 0 -18 9l-23 34q32 27 68 51.5t77 43t87.5 29 t99.5 10.5q77 0 140 -29t107.5 -84t68.5 -133t24 -176q0 -132 -32.5 -243t-94.5 -190.5t-151.5 -124t-202.5 -44.5q-89 0 -156.5 30.5t-114.5 83.5zM444 503q0 -18 -7.5 -33.5t-19.5 -27.5t-27.5 -19t-31.5 -7q-17 0 -32 7t-26 19t-18 27.5t-7 33.5t7 34t18.5 28.5 t26.5 19.5t32 7q16 0 31.5 -7t27.5 -19t19 -28.5t7 -34.5z"/>
<glyph glyph-name="uni037E" horiz-adv-x="493" unicode=";" d="M108 -238q-5 4 -6 8.5t-1 9.5q0 8 15.5 26.5t35.5 47t38 65.5t23 82q-15 -5 -31 -5q-37 0 -60.5 25t-23.5 64q0 35 24 60t63 25q43 0 66.5 -29.5t23.5 -77.5q0 -41 -10.5 -83.5t-30.5 -83.5t-48 -79t-62 -70zM182 874q0 19 7 36t19.5 29.5t29 20t36.5 7.5q19 0 36 -7.5 t29.5 -20t20 -29.5t7.5 -36q0 -20 -7.5 -36.5t-20 -29t-29.5 -19.5t-36 -7q-39 0 -65.5 26.5t-26.5 65.5z"/>
<glyph glyph-name="tonos" d="M469 1154l110 317h56q17 -1 21 -13q2 -4 1 -9q0 -9 -5 -22l-126 -273h-57z" unicode="΄"/>
<glyph glyph-name="dieresistonos" d="M410 1265q-2 -15 -9 -28t-17.5 -22.5t-24 -15.5t-26.5 -6q-27 -1 -45 21q-15 18 -15 43v8q4 30 26.5 52.5t49.5 22.5q13 0 25 -6t20.5 -16.5t13 -24t2.5 -28.5zM826 1265q-2 -15 -9 -28t-18 -22.5t-24 -15.5t-26 -6q-28 0 -45.5 21.5t-14.5 50.5q4 30 26.5 52.5 t49.5 22.5t45 -22q16 -19 16 -45v-8zM469 1156l109 317h56q16 0 21 -12q2 -4 2 -10q0 -10 -6 -22l-126 -273h-56z" unicode="΅"/>
<glyph glyph-name="Alphatonos" horiz-adv-x="1217" unicode="Ά" d="M1117 0h-77q-14 0 -22 7.5t-11 18.5l-101 414h-634l-203 -414q-5 -11 -16 -18.5t-24 -7.5h-76l706 1415h99zM888 513l-175 720q-4 18 -8 39.5t-8 46.5q-10 -25 -19.5 -46.5t-17.5 -40.5l-352 -719h580zM279 1103l110 317h56q17 -1 21 -13q2 -4 1 -9q0 -9 -5 -22 l-126 -273h-57z"/>
<glyph glyph-name="anoteleia" horiz-adv-x="471" unicode="·" d="M132 592q0 21 8 40t21.5 33t32 22t38.5 8q21 0 40 -8t33 -22t22 -33t8 -40q0 -20 -8 -38.5t-22 -32t-33 -21.5t-40 -8q-20 0 -38.5 8t-32 21.5t-21.5 32t-8 38.5z"/>
<glyph glyph-name="Epsilontonos" horiz-adv-x="1185" unicode="Έ" d="M494 1333l-71 -576h567l-11 -80h-566l-73 -595h684l-11 -82h-783l174 1415h782l-11 -82h-681zM112 1103l110 317h56q17 -1 21 -13q2 -4 1 -9q0 -9 -5 -22l-126 -273h-57z"/>
<glyph glyph-name="Etatonos" horiz-adv-x="1417" unicode="Ή" d="M1320 1415l-174 -1415h-100l83 679h-808l-83 -679h-100l174 1415h100l-81 -661h808l81 661h100zM26 1103l110 317h56q17 -1 21 -13q2 -4 1 -9q0 -9 -5 -22l-126 -273h-57z"/>
<glyph glyph-name="Iotatonos" horiz-adv-x="509" unicode="Ί" d="M238 0h-100l173 1415h100zM19 1103l110 317h56q17 -1 21 -13q2 -4 1 -9q0 -9 -5 -22l-126 -273h-57z"/>
<glyph glyph-name="Omicrontonos" horiz-adv-x="1468" unicode="Ό" d="M1272 814q0 123 -31.5 221.5t-90.5 168t-142.5 107t-186.5 37.5q-130 0 -241 -52t-192.5 -149t-127.5 -235t-46 -310q0 -123 32 -221.5t91 -167.5t142 -106.5t186 -37.5q132 0 243 51.5t192 148.5t126.5 234.5t45.5 310.5zM1375 816q0 -187 -54.5 -340t-151.5 -262 t-229 -169t-286 -60q-124 0 -224 44.5t-170.5 125.5t-108.5 194t-38 250q0 186 55 339.5t151.5 263t228 169.5t284.5 60q125 0 225.5 -44.5t171 -125.5t108.5 -194.5t38 -250.5zM29 1103l110 317h56q17 -1 21 -13q2 -4 1 -9q0 -9 -5 -22l-126 -273h-57z"/>
<glyph glyph-name="Upsilontonos" horiz-adv-x="1103" unicode="Ύ" d="M600 583l-73 -583h-99l73 584l-381 831h88q26 0 34 -25l299 -668q6 -17 11 -33.5t8 -33.5q8 17 17 33.5t20 33.5l464 668q7 11 16 18t23 7h83zM-135 1103l110 317h56q17 -1 21 -13q2 -4 1 -9q0 -9 -5 -22l-126 -273h-57z"/>
<glyph glyph-name="Omegatonos" horiz-adv-x="1425" unicode="Ώ" d="M835 86h417l-5 -51q-2 -16 -14 -25.5t-27 -9.5h-461l44 360q100 23 184 67.5t144.5 113t94.5 162t34 214.5q0 106 -33.5 187t-92.5 136t-139 82.5t-173 27.5q-112 0 -213.5 -36.5t-179 -108.5t-123 -179.5t-45.5 -249.5q0 -86 24 -154.5t68.5 -120.5t106.5 -87t138 -54 l-43 -360h-461q-17 0 -25 10q-6 8 -6 19v6l5 51h418l27 224q-78 20 -143 61t-111.5 100.5t-72.5 136.5t-26 169q0 154 54 275.5t146.5 205.5t214.5 128.5t257 44.5q114 0 211.5 -35t168 -101t110.5 -160.5t40 -212.5q0 -125 -37.5 -227t-103 -180t-154 -130t-191.5 -76z M13 1103l110 317h56q17 -1 21 -13q2 -4 1 -9q0 -9 -5 -22l-126 -273h-57z"/>
<glyph glyph-name="iotadieresistonos" horiz-adv-x="457" unicode="ΐ" d="M195 995h92l-92 -754q-3 -24 -3 -45q0 -58 22 -92q30 -46 109 -46h64l-3 -30q-5 -40 -101 -40q-105 0 -150 66q-34 50 -34 129q0 25 3 53zM166 1265q-2 -15 -9 -28t-17.5 -22.5t-24 -15.5t-26.5 -6q-27 -1 -45 21q-15 18 -15 43v8q4 30 26.5 52.5t49.5 22.5q13 0 25 -6 t20.5 -16.5t13 -24t2.5 -28.5zM582 1265q-2 -15 -9 -28t-18 -22.5t-24 -15.5t-26 -6q-28 0 -45.5 21.5t-14.5 50.5q4 30 26.5 52.5t49.5 22.5t45 -22q16 -19 16 -45v-8zM225 1156l109 317h56q16 0 21 -12q2 -4 2 -10q0 -10 -6 -22l-126 -273h-56z"/>
<glyph glyph-name="Alpha" horiz-adv-x="1217" unicode="Α" d="M1117 0h-77q-14 0 -22 7.5t-11 18.5l-101 414h-634l-203 -414q-5 -11 -16 -18.5t-24 -7.5h-76l706 1415h99zM888 513l-175 720q-4 18 -8 39.5t-8 46.5q-10 -25 -19.5 -46.5t-17.5 -40.5l-352 -719h580z"/>
<glyph glyph-name="Beta" horiz-adv-x="1159" unicode="Β" d="M678 1415q102 0 176 -21t123 -60.5t72.5 -96.5t23.5 -129q0 -68 -21.5 -129.5t-62 -112t-99 -87.5t-131.5 -55q139 -23 211.5 -98.5t72.5 -196.5q0 -98 -33.5 -177.5t-97 -135.5t-154.5 -86t-206 -30h-425l174 1415h377zM391 1336l-72 -585h279q97 0 168 29t117 76.5 t68 108.5t22 126q0 119 -74.5 182t-229.5 63h-278zM560 79q186 0 285 90.5t99 256.5q0 58 -20.5 104.5t-60 79.5t-97 51t-131.5 18h-325l-74 -600h324z"/>
<glyph glyph-name="Gamma" horiz-adv-x="1016" unicode="Γ" d="M1070 1335h-683l-164 -1335h-100l174 1415h782z"/>
<glyph glyph-name="Delta" horiz-adv-x="1225" unicode="Δ" d="M1125 0h-1174l717 1415h89zM715 1233q-5 16 -8.5 35t-7.5 40q-8 -22 -16.5 -40.5t-16.5 -35.5l-571 -1152h907z"/>
<glyph glyph-name="Epsilon" horiz-adv-x="1078" unicode="Ε" d="M388 1333l-71 -576h567l-11 -80h-566l-73 -595h684l-11 -82h-783l174 1415h782l-11 -82h-681z"/>
<glyph glyph-name="Zeta" horiz-adv-x="1097" unicode="Ζ" d="M1123 1382q-2 -9 -5.5 -15.5t-10.5 -15.5l-974 -1269h824l-11 -82h-959l5 33q2 8 5.5 14.5t8.5 14.5l976 1271h-807l11 82h942z"/>
<glyph glyph-name="Eta" horiz-adv-x="1403" unicode="Η" d="M1306 1415l-174 -1415h-100l83 679h-808l-83 -679h-100l174 1415h100l-81 -661h808l81 661h100z"/>
<glyph glyph-name="Theta" horiz-adv-x="1473" unicode="Θ" d="M1278 814q0 123 -31.5 221.5t-90.5 168t-142.5 107t-186.5 37.5q-130 0 -241 -52t-192.5 -149t-127.5 -235t-46 -310q0 -123 32 -221.5t91 -167.5t142 -106.5t186 -37.5q132 0 243 51.5t192 148.5t126.5 234.5t45.5 310.5zM1381 816q0 -187 -54.5 -340t-151.5 -262 t-229 -169t-286 -60q-124 0 -224 44.5t-170.5 125.5t-108.5 194t-38 250q0 186 55 339.5t151.5 263t228 169.5t284.5 60q125 0 225.5 -44.5t171 -125.5t108.5 -194.5t38 -250.5zM477 763h547l-11 -82h-545z"/>
<glyph glyph-name="Iota" horiz-adv-x="495" unicode="Ι" d="M224 0h-100l173 1415h100z"/>
<glyph glyph-name="Kappa" horiz-adv-x="1167" unicode="Κ" d="M585 778q-18 -19 -33 -30t-32 -17q18 -7 32 -19t26 -32l511 -680h-80q-26 0 -36 6.5t-18 19.5l-470 614q-8 11 -15.5 19t-18 13.5t-24.5 8t-36 2.5h-84l-84 -683h-99l173 1417h100l-81 -657h77q17 0 30 1.5t24.5 6t21.5 11.5t21 19l592 588q16 18 30.5 23.5t33.5 5.5h81z "/>
<glyph glyph-name="Lambda" horiz-adv-x="1215" unicode="Λ" d="M1116 0h-79q-14 0 -22 7.5t-11 18.5l-294 1181q-5 20 -9.5 43.5t-8.5 49.5q-8 -26 -18 -49.5t-21 -43.5l-583 -1181q-5 -11 -15.5 -18.5t-23.5 -7.5h-79l711 1415h89z"/>
<glyph glyph-name="Mu" horiz-adv-x="1686" unicode="Μ" d="M1589 1415l-174 -1415h-87l149 1209q3 25 9 53l-630 -990q-16 -25 -41 -25h-16q-27 0 -35 25l-402 993q0 -30 -3 -55l-148 -1210h-87l174 1415h68q14 0 21 -3.5t15 -15.5l404 -996q4 -11 7 -22.5t6 -23.5q10 22 24 46l638 996q10 12 17.5 15.5t21.5 3.5h69z"/>
<glyph glyph-name="Nu" horiz-adv-x="1403" unicode="Ν" d="M1306 1415l-174 -1415h-46q-13 0 -21 5.5t-16 16.5l-686 1232q-1 -12 -1.5 -23t-2.5 -22l-148 -1209h-87l174 1415h49q14 0 20 -3.5t14 -15.5l686 -1232q1 14 1.5 26.5t2.5 23.5l148 1201h87z"/>
<glyph glyph-name="Xi" horiz-adv-x="1135" unicode="Ξ" d="M337 766h503l-11 -87h-503zM988 85l-10 -85h-961l10 85h961zM1152 1415l-10 -85h-962l10 85h962z"/>
<glyph glyph-name="Omicron" horiz-adv-x="1473" unicode="Ο" d="M1278 814q0 123 -31.5 221.5t-90.5 168t-142.5 107t-186.5 37.5q-130 0 -241 -52t-192.5 -149t-127.5 -235t-46 -310q0 -123 32 -221.5t91 -167.5t142 -106.5t186 -37.5q132 0 243 51.5t192 148.5t126.5 234.5t45.5 310.5zM1381 816q0 -187 -54.5 -340t-151.5 -262 t-229 -169t-286 -60q-124 0 -224 44.5t-170.5 125.5t-108.5 194t-38 250q0 186 55 339.5t151.5 263t228 169.5t284.5 60q125 0 225.5 -44.5t171 -125.5t108.5 -194.5t38 -250.5z"/>
<glyph glyph-name="Pi" horiz-adv-x="1403" unicode="Π" d="M1132 0h-100l164 1335h-809l-164 -1335h-100l174 1415h1009z"/>
<glyph glyph-name="Rho" horiz-adv-x="1078" unicode="Ρ" d="M637 1415q208 0 312 -93.5t104 -262.5q0 -108 -37 -197.5t-105 -154t-164 -100.5t-214 -36h-240l-70 -571h-99l173 1415h340zM543 651q94 0 169.5 30t129 83t82.5 126t29 159q0 136 -81.5 211.5t-244.5 75.5h-240l-84 -685h240z"/>
<glyph glyph-name="Sigma" horiz-adv-x="1115" unicode="Σ" d="M374 1335q-33 0 -60 2.5t-54 8.5q26 -20 46.5 -42t37.5 -52l284 -488q11 -19 16 -29t3 -20q-2 -11 -8.5 -23t-23.5 -31l-423 -509q-24 -28 -44.5 -47t-41.5 -33q29 4 54 6t49 2h757l-9 -80h-961l4 37q2 11 9 23t15 21l540 624l-391 636q-11 15 -9 32l5 42h962l-10 -80 h-747z"/>
<glyph glyph-name="Tau" horiz-adv-x="1065" unicode="Τ" d="M1127 1331h-455l-164 -1331h-99l164 1331h-459l10 84h1013z"/>
<glyph glyph-name="Upsilon" horiz-adv-x="1103" unicode="Υ" d="M600 583l-73 -583h-99l73 584l-381 831h88q26 0 34 -25l299 -668q6 -17 11 -33.5t8 -33.5q8 17 17 33.5t20 33.5l464 668q7 11 16 18t23 7h83z"/>
<glyph glyph-name="Phi" horiz-adv-x="1501" unicode="Φ" d="M889 1349q132 -1 234 -47t171.5 -123.5t105.5 -179t36 -214.5q0 -144 -50 -272.5t-142 -225t-221.5 -153t-288.5 -57.5l-24 -194h-95l24 194q-133 1 -235 46.5t-171.5 123t-105 179.5t-35.5 215q0 96 23 186t66.5 168.5t106 143.5t140.5 111.5t170 72t196 26.5l23 184h95 zM785 1272q-131 -1 -240.5 -51.5t-188.5 -136t-123 -198.5t-44 -239q0 -100 31 -189t89.5 -156t144 -106.5t194.5 -40.5zM743 155q131 1 240.5 51t188.5 135.5t123 198.5t44 240q0 99 -30.5 188t-89.5 156.5t-144.5 107t-194.5 40.5z"/>
<glyph glyph-name="Chi" horiz-adv-x="1166" unicode="Χ" d="M673 761l396 -761h-89q-14 0 -20 8t-11 16l-345 680q-6 -14 -15 -24l-500 -656q-17 -24 -40 -24h-98l584 756l-350 659h89q14 0 20 -5t12 -16l301 -587q7 14 15 26l432 564q12 18 32 18h99z"/>
<glyph glyph-name="Psi" horiz-adv-x="1470" unicode="Ψ" d="M1462 1415l-62 -500q-16 -128 -66 -230t-132 -175t-194.5 -113t-253.5 -43l-43 -354h-101l44 354q-140 3 -242.5 43.5t-166.5 112.5q-64 74 -89 176q-16 64 -16 137q0 44 6 92l62 500h65q17 0 24.5 -11t5.5 -26l-57 -463q-6 -48 -6 -91q0 -59 11 -109q19 -88 71 -149.5 t137 -95t204 -36.5l121 981h100l-120 -981q120 3 213.5 36.5t160.5 95t107.5 149.5t54.5 200l57 463q2 15 12 26t27 11h66z"/>
<glyph glyph-name="Omega" horiz-adv-x="1424" unicode="Ω" d="M835 86h417l-5 -51q-2 -16 -14 -25.5t-27 -9.5h-461l44 360q100 23 184 67.5t144.5 113t94.5 162t34 214.5q0 106 -33.5 187t-92.5 136t-139 82.5t-173 27.5q-112 0 -213.5 -36.5t-179 -108.5t-123 -179.5t-45.5 -249.5q0 -86 24 -154.5t68.5 -120.5t106.5 -87t138 -54 l-43 -360h-461q-17 0 -25 10q-6 8 -6 19v6l5 51h418l27 224q-78 20 -143 61t-111.5 100.5t-72.5 136.5t-26 169q0 154 54 275.5t146.5 205.5t214.5 128.5t257 44.5q114 0 211.5 -35t168 -101t110.5 -160.5t40 -212.5q0 -125 -37.5 -227t-103 -180t-154 -130t-191.5 -76z"/>
<glyph glyph-name="Iotadieresis" horiz-adv-x="495" unicode="Ϊ" d="M224 0h-100l173 1415h100zM671 1662q0 -17 -7 -31.5t-18 -25.5t-26 -17.5t-31 -6.5q-34 0 -58 24t-24 57q0 34 24 58.5t58 24.5q16 0 31 -6.5t26 -18t18 -26.5t7 -32zM314 1662q0 -17 -7 -31.5t-18.5 -25.5t-26.5 -17.5t-31 -6.5q-33 0 -57.5 24t-24.5 57q0 17 6.5 32 t18 26.5t26 18t31.5 6.5q16 0 31 -6.5t26.5 -18t18.5 -26.5t7 -32z"/>
<glyph glyph-name="Upsilondieresis" horiz-adv-x="1103" unicode="Ϋ" d="M600 583l-73 -583h-99l73 584l-381 831h88q26 0 34 -25l299 -668q6 -17 11 -33.5t8 -33.5q8 17 17 33.5t20 33.5l464 668q7 11 16 18t23 7h83zM927 1662q0 -17 -7 -31.5t-18 -25.5t-26 -17.5t-31 -6.5q-34 0 -58 24t-24 57q0 34 24 58.5t58 24.5q16 0 31 -6.5t26 -18 t18 -26.5t7 -32zM570 1662q0 -17 -7 -31.5t-18.5 -25.5t-26.5 -17.5t-31 -6.5q-33 0 -57.5 24t-24.5 57q0 17 6.5 32t18 26.5t26 18t31.5 6.5q16 0 31 -6.5t26.5 -18t18.5 -26.5t7 -32z"/>
<glyph glyph-name="alphatonos" horiz-adv-x="1087" unicode="ά" d="M1024 995q-42 -149 -91.5 -284.5t-107.5 -253.5q-1 -75 -1 -143q0 -3 -1 -7q-1 -64 9 -113q10 -52 33 -83t68 -31h43l-9 -51q-2 -12 -17.5 -23t-50.5 -11q-45 0 -71.5 25.5t-41 71.5t-19.5 109t-6 138q-47 -81 -98.5 -146t-106.5 -110.5t-114 -70.5t-120 -25 q-116 0 -182.5 90t-66.5 269q0 85 17.5 167.5t49.5 156.5t77 136.5t99.5 108t117 71t130.5 25.5q77 0 125.5 -32t76 -86t39 -124.5t14.5 -148.5q22 60 41.5 121.5t36.5 124.5q12 43 20 69t15.5 39t14 17t15.5 4h62zM359 64q60 0 115 31t105 85.5t95 129.5t85 163q1 58 3 115 q0 16 1 31q0 39 -3 77q-4 52 -15 96t-32 76t-55.5 50t-84.5 18q-83 0 -156.5 -48.5t-129 -129t-88 -184.5t-32.5 -215q0 -146 50.5 -220.5t141.5 -74.5zM595 1154l110 317h56q17 -1 21 -13q2 -4 1 -9q0 -9 -5 -22l-126 -273h-57z"/>
<glyph glyph-name="epsilontonos" horiz-adv-x="835" unicode="έ" d="M705 128q-26 -30 -62 -56t-79 -44.5t-90.5 -29t-97.5 -10.5q-70 0 -128.5 19.5t-101 54t-66 82.5t-23.5 106q0 49 17 94t51 81.5t85 63.5t120 39q-53 12 -89.5 35t-58.5 51.5t-31.5 60.5t-9.5 63q0 51 23 100t68.5 87.5t112.5 62t156 23.5q97 0 166.5 -30.5t113.5 -79.5 l-24 -33q-7 -8 -12 -10.5t-13 -2.5q-9 0 -24 13t-42 29t-67.5 29t-99.5 13q-68 0 -118.5 -17.5t-84.5 -46t-50.5 -66t-16.5 -76.5q0 -36 16 -68t46.5 -55.5t74 -37t98.5 -13.5h149l-7 -64h-150q-74 0 -130.5 -17.5t-95 -48.5t-58.5 -74t-20 -95q0 -44 16.5 -81t47.5 -63.5 t75 -41.5t99 -15q68 0 115.5 17t79.5 37.5t51 37.5t30 17t18 -9zM481 1154l110 317h56q17 -1 21 -13q2 -4 1 -9q0 -9 -5 -22l-126 -273h-57z"/>
<glyph glyph-name="etatonos" horiz-adv-x="1057" unicode="ή" d="M287 695q40 75 88.5 133.5t102 99t109.5 61.5t113 21q64 0 110 -25t74 -73t36 -118q4 -30 3 -64q0 -44 -6 -94l-121 -988h-93l121 988h2q5 45 5 84q-1 82 -25 134q-36 76 -137 76q-53 0 -107.5 -26t-106 -74.5t-98 -117.5t-82.5 -155l-68 -557h-91l93 758q3 25 3 46 q0 56 -21 87q-29 42 -101 42h-33l4 34q2 17 15.5 26.5t45.5 9.5q45 0 80 -13t58 -41q22 -29 30 -73q5 -24 5 -54q0 -25 -3 -53zM522 1154l110 317h56q17 -1 21 -13q2 -4 1 -9q0 -9 -5 -22l-126 -273h-57z"/>
<glyph glyph-name="iotatonos" horiz-adv-x="456" unicode="ί" d="M195 995h92l-92 -754q-3 -24 -3 -45q0 -58 22 -92q30 -46 109 -46h64l-3 -30q-5 -40 -101 -40q-105 0 -150 66q-34 50 -34 129q0 25 3 53zM222 1154l110 317h56q17 -1 21 -13q2 -4 1 -9q0 -9 -5 -22l-126 -273h-57z"/>
<glyph glyph-name="upsilondieresistonos" horiz-adv-x="1010" unicode="ΰ" d="M882 995q2 -32 3.5 -67.5t3 -70.5t2.5 -67.5t1 -58.5q0 -203 -40.5 -345.5t-106.5 -231.5t-150.5 -129.5t-172.5 -40.5q-82 0 -144 25.5t-102 74t-56 118.5q-10 42 -10 90q0 32 4 67l78 636h93l-78 -636q-4 -30 -4 -57q-1 -38 7 -70q12 -56 42.5 -94.5t76.5 -59 t106 -20.5q62 0 126.5 32t117 106t86 195.5t33.5 300.5q0 27 -1 61t-2.5 70t-3 71.5t-3.5 65.5q0 19 10.5 27t20.5 8h63zM436 1265q-2 -15 -9 -28t-17.5 -22.5t-24 -15.5t-26.5 -6q-27 -1 -45 21q-15 18 -15 43v8q4 30 26.5 52.5t49.5 22.5q13 0 25 -6t20.5 -16.5t13 -24 t2.5 -28.5zM852 1265q-2 -15 -9 -28t-18 -22.5t-24 -15.5t-26 -6q-28 0 -45.5 21.5t-14.5 50.5q4 30 26.5 52.5t49.5 22.5t45 -22q16 -19 16 -45v-8zM495 1156l109 317h56q16 0 21 -12q2 -4 2 -10q0 -10 -6 -22l-126 -273h-56z"/>
<glyph glyph-name="alpha" horiz-adv-x="1087" unicode="α" d="M1024 995q-42 -149 -91.5 -284.5t-107.5 -253.5q-1 -75 -1 -143q0 -3 -1 -7q-1 -64 9 -113q10 -52 33 -83t68 -31h43l-9 -51q-2 -12 -17.5 -23t-50.5 -11q-45 0 -71.5 25.5t-41 71.5t-19.5 109t-6 138q-47 -81 -98.5 -146t-106.5 -110.5t-114 -70.5t-120 -25 q-116 0 -182.5 90t-66.5 269q0 85 17.5 167.5t49.5 156.5t77 136.5t99.5 108t117 71t130.5 25.5q77 0 125.5 -32t76 -86t39 -124.5t14.5 -148.5q22 60 41.5 121.5t36.5 124.5q12 43 20 69t15.5 39t14 17t15.5 4h62zM359 64q60 0 115 31t105 85.5t95 129.5t85 163q1 58 3 115 q0 16 1 31q0 39 -3 77q-4 52 -15 96t-32 76t-55.5 50t-84.5 18q-83 0 -156.5 -48.5t-129 -129t-88 -184.5t-32.5 -215q0 -146 50.5 -220.5t141.5 -74.5z"/>
<glyph glyph-name="beta" horiz-adv-x="1016" unicode="β" d="M190 896q33 270 131 401.5t279 131.5q73 0 128.5 -22t93 -60t57 -90t19.5 -113q0 -74 -21 -133t-58 -104t-88 -75t-110 -45q134 -26 206.5 -113t72.5 -218q0 -99 -30.5 -184.5t-86.5 -149t-136 -99.5t-180 -36q-41 0 -80.5 9t-76 27.5t-67.5 46t-53 65.5l-26 -216 l-44 -230q-12 -41 -49 -41h-33l77 644zM198 206q39 -69 106 -106.5t148 -37.5q84 0 150 31t112 84t70.5 125t24.5 153q0 69 -23 123.5t-65 92t-101 57t-132 19.5h-55l8 73h46q62 0 120 18.5t103 57.5t72.5 99t27.5 143q0 49 -14.5 90t-42 70t-67.5 45t-91 16 q-65 0 -116 -25.5t-89.5 -81.5t-65 -144.5t-42.5 -213.5l-74 -605z"/>
<glyph glyph-name="gamma" horiz-adv-x="971" unicode="γ" d="M970 995q-49 -148 -102 -273.5t-113 -237t-127.5 -214.5t-145.5 -206l-51 -416h-93l51 419q-20 219 -43 381t-54 269t-73 159.5t-99 52.5h-32l4 34q2 17 13.5 26.5t49.5 9.5q69 0 120 -49t86.5 -153.5t58 -268.5t35.5 -394q129 172 226 375t174 445q8 24 18 32.5t25 8.5 h72z"/>
<glyph glyph-name="delta" horiz-adv-x="1008" unicode="δ" d="M881 1341q-3 -14 -9.5 -18.5t-20.5 -4.5q-8 0 -32.5 6t-58 12.5t-74.5 12.5t-82 6q-58 0 -98.5 -12t-66 -32t-37.5 -46t-12 -55q0 -39 21.5 -72.5t57 -65t81 -63.5t93 -68.5t93 -79.5t81 -97t57 -120.5t21.5 -150.5q0 -115 -35 -208.5t-97 -159.5t-146.5 -101.5 t-183.5 -35.5q-89 0 -156.5 31.5t-113 86t-68.5 126.5t-23 153q0 208 116 345.5t334 199.5q-43 31 -82.5 61.5t-70 63.5t-48.5 70.5t-18 82.5q0 43 17.5 83t55 71t96.5 49t142 18q29 0 64.5 -3t72 -7.5t73.5 -11.5t69 -14zM440 59q74 0 140 30t115.5 85.5t78.5 135.5t29 179 q0 77 -20.5 137.5t-54 109.5t-77 88.5t-88.5 74.5q-81 -26 -153 -68t-126 -103.5t-86 -145.5t-32 -193q0 -65 16.5 -125t50.5 -105.5t85.5 -72.5t121.5 -27z"/>
<glyph glyph-name="epsilon" horiz-adv-x="835" unicode="ε" d="M705 128q-26 -30 -62 -56t-79 -44.5t-90.5 -29t-97.5 -10.5q-70 0 -128.5 19.5t-101 54t-66 82.5t-23.5 106q0 49 17 94t51 81.5t85 63.5t120 39q-53 12 -89.5 35t-58.5 51.5t-31.5 60.5t-9.5 63q0 51 23 100t68.5 87.5t112.5 62t156 23.5q97 0 166.5 -30.5t113.5 -79.5 l-24 -33q-7 -8 -12 -10.5t-13 -2.5q-9 0 -24 13t-42 29t-67.5 29t-99.5 13q-68 0 -118.5 -17.5t-84.5 -46t-50.5 -66t-16.5 -76.5q0 -36 16 -68t46.5 -55.5t74 -37t98.5 -13.5h149l-7 -64h-150q-74 0 -130.5 -17.5t-95 -48.5t-58.5 -74t-20 -95q0 -44 16.5 -81t47.5 -63.5 t75 -41.5t99 -15q68 0 115.5 17t79.5 37.5t51 37.5t30 17t18 -9z"/>
<glyph glyph-name="zeta" horiz-adv-x="695" unicode="ζ" d="M817 1382q0 -8 -2.5 -15.5t-12 -19.5t-29 -31.5t-52.5 -49.5q-63 -57 -128.5 -118.5t-127 -128.5t-116 -138.5t-95 -148.5t-64 -158.5t-23.5 -167.5q0 -65 17.5 -110.5t49 -78.5t76 -55t97.5 -39q75 -24 122.5 -50t74 -53t36 -54.5t9.5 -53.5q0 -71 -28 -130.5 t-70 -121.5l-68 31q14 21 27.5 43.5t24.5 47t18 50.5t7 54q0 19 -7.5 39.5t-29 40.5t-60.5 40t-102 39q-66 21 -118.5 48.5t-90 67.5t-57.5 94.5t-20 128.5q0 135 49.5 256t136 237.5t204.5 233t255 241.5q-76 -6 -166.5 -9.5t-188.5 -3.5h-86q-20 0 -27.5 9.5t-5.5 20.5 l6 46h562z"/>
<glyph glyph-name="eta" horiz-adv-x="1057" unicode="η" d="M287 695q40 75 88.5 133.5t102 99t109.5 61.5t113 21q64 0 110 -25t74 -73t36 -118q4 -30 3 -64q0 -44 -6 -94l-121 -988h-93l121 988h2q5 45 5 84q-1 82 -25 134q-36 76 -137 76q-53 0 -107.5 -26t-106 -74.5t-98 -117.5t-82.5 -155l-68 -557h-91l93 758q3 25 3 46 q0 56 -21 87q-29 42 -101 42h-33l4 34q2 17 15.5 26.5t45.5 9.5q45 0 80 -13t58 -41q22 -29 30 -73q5 -24 5 -54q0 -25 -3 -53z"/>
<glyph glyph-name="theta" horiz-adv-x="1106" unicode="θ" d="M650 1430q83 0 147.5 -37.5t109 -108t67.5 -171.5t23 -229q0 -211 -36 -377.5t-102.5 -282t-161 -176.5t-212.5 -61q-86 0 -152 37t-111 107t-68.5 171t-23.5 229q0 210 36 377t103.5 283t164 177.5t216.5 61.5zM905 748q2 35 3 71t1 74q0 109 -16.5 195t-49.5 146 t-82.5 91.5t-115.5 31.5q-89 0 -159 -42t-122 -121t-85.5 -192t-47.5 -254h674zM225 682q-2 -38 -3.5 -78.5t-1.5 -82.5q0 -108 16.5 -193t50.5 -144.5t84.5 -91t118.5 -31.5q87 0 157 42.5t122 123t84.5 195.5t46.5 260h-675z"/>
<glyph glyph-name="iota" horiz-adv-x="456" unicode="ι" d="M195 995h92l-92 -754q-3 -24 -3 -45q0 -58 22 -92q30 -46 109 -46h64l-3 -30q-5 -40 -101 -40q-105 0 -150 66q-34 50 -34 129q0 25 3 53z"/>
<glyph glyph-name="kappa" horiz-adv-x="884" unicode="κ" d="M296 995l-53 -427h36q12 0 25 3t30 20l412 379q11 12 22.5 18.5t28.5 6.5h81l-453 -417q-22 -22 -41 -33q14 -8 23 -18.5t17 -24.5l364 -502h-79q-14 0 -24 4.5t-18 18.5l-330 448q-13 19 -26.5 25t-40.5 6h-35l-62 -502h-93l123 995h93z"/>
<glyph glyph-name="lambda" horiz-adv-x="975" unicode="λ" d="M911 62l-5 -36q-2 -20 -16.5 -27.5t-48.5 -7.5q-38 0 -68.5 7.5t-54.5 28.5t-42.5 59.5t-30.5 100.5l-134 567q-5 27 -7.5 47.5t-2.5 38.5q-6 -17 -13.5 -36t-17.5 -40l-366 -740q-5 -11 -14 -17.5t-28 -6.5h-72l476 933l-70 313q-6 29 -15.5 50.5t-25.5 35t-39.5 20 t-59.5 6.5h-54l4 35q1 14 16 25t61 11q82 0 129.5 -32.5t66.5 -112.5l254 -1096q16 -69 45.5 -97.5t81.5 -28.5h51z"/>
<glyph glyph-name="mu" horiz-adv-x="1088" unicode="μ" d="M1013 64l-4 -39q-2 -13 -22.5 -23.5t-58.5 -10.5q-39 0 -72.5 12t-58.5 37t-39 64q-13 36 -12 86v7q-72 -95 -158.5 -149t-183.5 -54q-88 0 -143 35.5t-81 103.5q-2 -40 -5 -81t-8 -76l-40 -328h-47q-21 0 -31 11q-8 9 -8 25v6l161 1305h96l-79 -637q-2 -28 -2 -53 q1 -36 5 -67q8 -53 33 -89.5t65.5 -56t98.5 -19.5q94 0 177 55t149 155l88 712h95l-93 -757q-2 -20 -2 -38q0 -62 30 -94q39 -42 110 -42h40z"/>
<glyph glyph-name="nu" horiz-adv-x="932" unicode="ν" d="M931 995q-52 -156 -108.5 -290t-120.5 -254.5t-137.5 -231t-158.5 -219.5h-56l-264 995h72q13 0 20.5 -7t9.5 -17l201 -789q5 -20 8 -40t5 -40q67 88 125 184.5t109 202t96 222.5t87 248q5 20 15.5 28t21.5 8h75z"/>
<glyph glyph-name="xi" horiz-adv-x="707" unicode="ξ" d="M768 1376q-2 -17 -15 -27t-28 -10h-75q-78 0 -144 -26.5t-115 -71.5t-76.5 -104.5t-27.5 -124.5q0 -47 17.5 -86t52 -67.5t85.5 -44.5t119 -16h70l-9 -75h-98q-91 0 -159 -25t-113 -70t-67.5 -106t-22.5 -133q0 -59 20.5 -102.5t57.5 -76.5t88 -58t112 -48 q55 -21 90 -42.5t55.5 -44t28.5 -46.5t8 -51q0 -74 -28 -135.5t-71 -123.5l-68 32q14 21 28 44t25 48t18 52t7 57q0 19 -6 37t-22.5 34.5t-45.5 32.5t-75 31q-65 22 -122.5 51t-100.5 70t-67.5 96t-24.5 129q0 66 19 128.5t58 115t100 91.5t145 57q-100 29 -146 92.5 t-46 143.5q0 62 24 116.5t65.5 99t97.5 77.5t120 52q-38 -2 -79 -3.5t-94 -1.5h-107q-38 0 -33 35l5 37h575z"/>
<glyph glyph-name="omicron" horiz-adv-x="1026" unicode="ο" d="M433 -13q-80 0 -145.5 28t-112 81t-72 128.5t-25.5 171.5q0 121 36 232t101.5 196t155.5 135.5t198 50.5q80 0 145.5 -28t112 -81t72 -128.5t25.5 -169.5q0 -121 -36.5 -232t-101.5 -196.5t-155 -136.5t-198 -51zM441 62q87 0 158.5 45.5t122.5 121t78.5 173t27.5 200.5 q0 160 -71 246t-197 86q-87 0 -158.5 -45t-122 -119.5t-78.5 -171.5t-28 -202q0 -159 70.5 -246.5t197.5 -87.5z"/>
<glyph glyph-name="pi" horiz-adv-x="1106" unicode="π" d="M1076 934q-3 -31 -38 -31h-156q-11 -84 -21 -147.5t-18.5 -113.5t-15 -91t-11 -81.5t-7 -84.5t-2.5 -100q0 -68 7.5 -110.5t22 -66.5t35.5 -32.5t49 -8.5h28l-5 -38q-2 -16 -22.5 -25t-55.5 -9q-39 0 -68.5 12t-49.5 39.5t-30.5 72.5t-10.5 110q0 61 9.5 131.5t24 153 t31.5 179t33 210.5h-395q-35 -257 -78 -431.5t-89.5 -280.5t-94 -151.5t-90.5 -45.5q-16 0 -29.5 4.5t-12.5 15.5l8 66h18q25 0 61 44.5t75.5 142.5t78.5 254.5t70 381.5h-214l5 39q2 13 13.5 25.5t31.5 12.5h918z"/>
<glyph glyph-name="rho" horiz-adv-x="1029" unicode="ρ" d="M134 545q14 117 52.5 204t96.5 145.5t132.5 87.5t161.5 29q76 0 140 -27t110 -80t71.5 -131t25.5 -179q0 -125 -33.5 -235t-94.5 -193t-148 -131t-193 -48q-41 0 -80.5 11t-75.5 32t-67 51t-54 68l-61 -501h-93zM189 236q22 -45 52 -78t63.5 -55t69.5 -33t71 -11 q89 0 160 41.5t120.5 114t76 170.5t26.5 211q0 85 -18.5 149t-52.5 107t-82 64t-107 21q-62 0 -118 -24t-102 -72.5t-77.5 -121.5t-43.5 -171z"/>
<glyph glyph-name="sigma1" horiz-adv-x="845" unicode="ς" d="M804 864q-5 -6 -10 -9.5t-13 -3.5q-9 0 -24 13.5t-40 30t-62.5 30t-92.5 13.5q-87 0 -157.5 -36t-120 -99t-76.5 -149t-27 -186q0 -87 25 -145.5t67.5 -99t100 -67.5t122.5 -51q57 -21 94 -41.5t58.5 -43t29.5 -47.5t8 -54q0 -74 -28.5 -135.5t-70.5 -123.5l-69 31 q14 22 28 45t25 48t18 52.5t7 57.5q0 19 -6 37t-23 34.5t-46.5 32.5t-77.5 32q-77 26 -142.5 59t-113.5 82t-75 118.5t-27 169.5q0 118 33 219t95 175t150.5 116t199.5 42q91 0 157.5 -31t111.5 -84z"/>
<glyph glyph-name="sigma" horiz-adv-x="1074" unicode="σ" d="M1090 988l-5 -37q-2 -15 -12 -25.5t-33 -10.5h-276q80 -48 123 -136t43 -203q0 -127 -34 -235t-97 -186.5t-152.5 -123t-200.5 -44.5q-85 0 -152.5 29t-115 83t-73 132t-25.5 176q0 127 36 234t106 184t171.5 120t232.5 43h464zM616 915q-115 0 -198.5 -37.5 t-137.5 -105.5t-79.5 -162t-25.5 -206q0 -81 18.5 -145t54 -108.5t87.5 -67.5t119 -23q93 0 164 38.5t120 108.5t74 168.5t25 218.5q0 61 -12 114.5t-35.5 96t-59 71t-82.5 39.5h-32z"/>
<glyph glyph-name="tau" horiz-adv-x="837" unicode="τ" d="M834 942q-2 -16 -12 -25.5t-27 -9.5h-331l-80 -659q-3 -24 -3 -45q1 -57 23 -91q30 -46 108 -47h65l-4 -30q-5 -40 -102 -40q-104 0 -149 66q-34 50 -34 130q0 25 3 53l80 663h-301l6 41q2 14 11 23t26 9h726z"/>
<glyph glyph-name="upsilon" horiz-adv-x="1010" unicode="υ" d="M882 995q2 -32 3.5 -67.5t3 -70.5t2.5 -67.5t1 -58.5q0 -203 -40.5 -345.5t-106.5 -231.5t-150.5 -129.5t-172.5 -40.5q-82 0 -144 25.5t-102 74t-56 118.5q-10 42 -10 90q0 32 4 67l78 636h93l-78 -636q-4 -30 -4 -57q-1 -38 7 -70q12 -56 42.5 -94.5t76.5 -59 t106 -20.5q62 0 126.5 32t117 106t86 195.5t33.5 300.5q0 27 -1 61t-2.5 70t-3 71.5t-3.5 65.5q0 19 10.5 27t20.5 8h63z"/>
<glyph glyph-name="phi" horiz-adv-x="1292" unicode="φ" d="M614 731q17 139 86 209.5t188 70.5q71 0 127 -31.5t95 -86t59.5 -128.5t20.5 -158q0 -131 -39.5 -243.5t-114.5 -196t-182.5 -131.5t-242.5 -49l-42 -339h-88l42 339q-110 1 -192.5 37t-138.5 96.5t-84 141t-28 170.5q0 101 26.5 190t75 162.5t116.5 129.5t152 91l20 -38 q5 -11 -0.5 -23.5t-16.5 -17.5q-69 -34 -121.5 -85.5t-88 -115.5t-53 -137.5t-17.5 -151.5q0 -75 21.5 -143.5t65.5 -120t111.5 -82.5t159.5 -32zM619 58q118 1 207.5 45.5t149.5 119.5t90.5 173.5t30.5 208.5q0 70 -14.5 131t-41.5 106.5t-67 71.5t-91 26 q-75 0 -121.5 -51.5t-59.5 -157.5z"/>
<glyph glyph-name="chi" horiz-adv-x="850" unicode="χ" d="M606 -165q19 -68 47.5 -97t79.5 -29h29l-4 -37q-2 -19 -12 -26t-39 -7q-30 0 -57.5 6.5t-51.5 24.5t-43.5 50t-34.5 84l-140 482q-8 -24 -18 -47.5t-20 -42.5l-305 -521q-5 -9 -14 -16.5t-23 -7.5h-64l412 706l-133 463q-9 29 -20 50t-28 35t-41 20.5t-59 6.5h-29l5 35 q1 7 2.5 13.5t6.5 11t15 7.5t28 3q85 0 132 -33.5t70 -110.5l129 -447q17 51 39 92l271 468q5 8 13.5 16t22.5 8h65l-380 -653z"/>
<glyph glyph-name="psi" horiz-adv-x="1357" unicode="ψ" d="M1231 995q2 -32 4 -67.5t3.5 -70.5t2.5 -67.5t1 -58.5q0 -141 -24 -250t-65.5 -190t-98 -137t-122 -91.5t-137.5 -52.5t-143 -21l-42 -341h-93l42 340q-111 5 -198.5 37t-144.5 89.5t-82 141.5q-16 55 -16 120q0 34 4 70l67 549h63q13 0 20 -12t5 -26l-63 -511 q-3 -28 -3 -53q-1 -53 13 -99q20 -68 67 -118t117 -79t160 -35l166 1353h93l-166 -1352q58 4 116.5 18.5t112.5 44t101 76.5t81.5 115t54 160t19.5 212q0 32 -1.5 67t-3 70.5t-3.5 69.5t-3 64q1 19 10.5 27t20.5 8h65z"/>
<glyph glyph-name="omega" horiz-adv-x="1357" unicode="ω" d="M1163 995q34 -94 57 -205.5t23 -222.5q0 -149 -33.5 -258.5t-88.5 -181.5t-126 -107.5t-145 -35.5q-91 0 -148.5 53.5t-73.5 156.5q-42 -103 -112.5 -156.5t-159.5 -53.5q-57 0 -107.5 25.5t-87.5 75t-58.5 123t-21.5 170.5q0 94 16.5 175t44.5 155.5t66 144.5t81 142h58 q7 0 14 -2.5t10.5 -8.5t2.5 -14.5t-9 -20.5q-44 -68 -79.5 -134.5t-60.5 -134.5t-38.5 -141t-13.5 -154q0 -93 19.5 -156t49 -101t64.5 -54t67 -16q45 0 83 20.5t67 58.5t48.5 91.5t28.5 119.5l39 312h92l-37 -306q-5 -40 -5 -76q1 -24 3 -46q6 -54 25 -93t52 -60t79 -21 q42 0 94.5 23t98.5 79.5t77.5 152t31.5 239.5q0 49 -6 101.5t-16.5 104.5t-25 101.5t-31.5 92.5q-4 11 -2 19t7 13.5t11.5 8t12.5 2.5h63z"/>
<glyph glyph-name="iotadieresis" horiz-adv-x="456" unicode="ϊ" d="M195 995h92l-92 -754q-3 -24 -3 -45q0 -58 22 -92q30 -46 109 -46h64l-3 -30q-5 -40 -101 -40q-105 0 -150 66q-34 50 -34 129q0 25 3 53zM382 1338q0 -18 -7.5 -33.5t-19.5 -27.5t-27.5 -19t-31.5 -7q-17 0 -32 7t-26 19t-18 27.5t-7 33.5t7 34t18.5 28.5t26.5 19.5 t32 7q16 0 31.5 -7t27.5 -19t19 -28.5t7 -34.5z"/>
<glyph glyph-name="upsilondieresis" horiz-adv-x="1010" unicode="ϋ" d="M882 995q2 -32 3.5 -67.5t3 -70.5t2.5 -67.5t1 -58.5q0 -203 -40.5 -345.5t-106.5 -231.5t-150.5 -129.5t-172.5 -40.5q-82 0 -144 25.5t-102 74t-56 118.5q-10 42 -10 90q0 32 4 67l78 636h93l-78 -636q-4 -30 -4 -57q-1 -38 7 -70q12 -56 42.5 -94.5t76.5 -59 t106 -20.5q62 0 126.5 32t117 106t86 195.5t33.5 300.5q0 27 -1 61t-2.5 70t-3 71.5t-3.5 65.5q0 19 10.5 27t20.5 8h63zM823 1284q0 -16 -7 -30.5t-18 -25.5t-26.5 -17.5t-31.5 -6.5q-17 0 -31.5 6.5t-26 17.5t-18 25.5t-6.5 30.5q0 17 6.5 32t18 26.5t26 18t31.5 6.5 q16 0 31.5 -6.5t26.5 -18t18 -26.5t7 -32zM490 1284q0 -16 -7 -30.5t-18 -25.5t-26.5 -17.5t-31.5 -6.5t-30.5 6.5t-26 17.5t-18 25.5t-6.5 30.5q0 17 6.5 32t18 26.5t26 18t30.5 6.5t31.5 -6.5t26.5 -18t18 -26.5t7 -32z"/>
<glyph glyph-name="omicrontonos" horiz-adv-x="1026" unicode="ό" d="M433 -13q-80 0 -145.5 28t-112 81t-72 128.5t-25.5 171.5q0 121 36 232t101.5 196t155.5 135.5t198 50.5q80 0 145.5 -28t112 -81t72 -128.5t25.5 -169.5q0 -121 -36.5 -232t-101.5 -196.5t-155 -136.5t-198 -51zM441 62q87 0 158.5 45.5t122.5 121t78.5 173t27.5 200.5 q0 160 -71 246t-197 86q-87 0 -158.5 -45t-122 -119.5t-78.5 -171.5t-28 -202q0 -159 70.5 -246.5t197.5 -87.5zM559 1154l110 317h56q17 -1 21 -13q2 -4 1 -9q0 -9 -5 -22l-126 -273h-57z"/>
<glyph glyph-name="upsilontonos" horiz-adv-x="1010" unicode="ύ" d="M882 995q2 -32 3.5 -67.5t3 -70.5t2.5 -67.5t1 -58.5q0 -203 -40.5 -345.5t-106.5 -231.5t-150.5 -129.5t-172.5 -40.5q-82 0 -144 25.5t-102 74t-56 118.5q-10 42 -10 90q0 32 4 67l78 636h93l-78 -636q-4 -30 -4 -57q-1 -38 7 -70q12 -56 42.5 -94.5t76.5 -59 t106 -20.5q62 0 126.5 32t117 106t86 195.5t33.5 300.5q0 27 -1 61t-2.5 70t-3 71.5t-3.5 65.5q0 19 10.5 27t20.5 8h63zM515 1154l110 317h56q17 -1 21 -13q2 -4 1 -9q0 -9 -5 -22l-126 -273h-57z"/>
<glyph glyph-name="omegatonos" horiz-adv-x="1357" unicode="ώ" d="M1163 995q34 -94 57 -205.5t23 -222.5q0 -149 -33.5 -258.5t-88.5 -181.5t-126 -107.5t-145 -35.5q-91 0 -148.5 53.5t-73.5 156.5q-42 -103 -112.5 -156.5t-159.5 -53.5q-57 0 -107.5 25.5t-87.5 75t-58.5 123t-21.5 170.5q0 94 16.5 175t44.5 155.5t66 144.5t81 142h58 q7 0 14 -2.5t10.5 -8.5t2.5 -14.5t-9 -20.5q-44 -68 -79.5 -134.5t-60.5 -134.5t-38.5 -141t-13.5 -154q0 -93 19.5 -156t49 -101t64.5 -54t67 -16q45 0 83 20.5t67 58.5t48.5 91.5t28.5 119.5l39 312h92l-37 -306q-5 -40 -5 -76q1 -24 3 -46q6 -54 25 -93t52 -60t79 -21 q42 0 94.5 23t98.5 79.5t77.5 152t31.5 239.5q0 49 -6 101.5t-16.5 104.5t-25 101.5t-31.5 92.5q-4 11 -2 19t7 13.5t11.5 8t12.5 2.5h63zM700 1154l110 317h56q17 -1 21 -13q2 -4 1 -9q0 -9 -5 -22l-126 -273h-57z"/>
<glyph glyph-name="uni03D0" horiz-adv-x="1043" unicode="ϐ" d="M617 822q40 8 76 8q32 0 60 -6q59 -14 99.5 -53.5t61 -99t20.5 -134.5q0 -131 -38.5 -233.5t-103.5 -173t-151 -107t-180 -36.5q-84 0 -147 32t-105 93t-63.5 149.5t-21.5 202.5q0 223 47.5 402t128 304.5t186 192.5t222.5 67q59 0 103.5 -16.5t74 -45t44.5 -67t15 -83.5 q0 -48 -15 -97.5t-52.5 -99t-101 -99.5t-159.5 -100zM509 813q109 51 177 103.5t105.5 103t50.5 97.5t13 87q0 72 -42 112.5t-119 40.5q-74 0 -147 -40.5t-135.5 -124t-110.5 -210t-72 -298.5zM221 608q-6 -74 -6 -139q1 -167 43 -267q60 -140 207 -141q76 0 145 31.5 t121 91.5t82.5 148t30.5 201q0 77 -24 133q-22 57 -70 84q-39 22 -95 22q-11 0 -25 -1q-72 -6 -170 -52z"/>
<glyph glyph-name="theta1" horiz-adv-x="1146" unicode="ϑ" d="M460 1190q0 -52 34 -88.5t95 -59.5t145 -34.5t183 -12.5q-16 177 -86 270.5t-185 93.5q-47 0 -82 -13t-58 -36t-34.5 -53.5t-11.5 -66.5zM1174 995l-4 -39q-1 -12 -9.5 -21.5t-25.5 -9.5h-128v-34q0 -203 -31.5 -370t-95.5 -285.5t-161.5 -183.5t-228.5 -65 q-89 0 -150 33t-97 91.5t-47 136.5q-6 39 -6 82t6 89l25 207q4 27 4 48q0 14 -2 26q-4 30 -17.5 47.5t-37.5 25t-59 7.5h-36l4 34q2 17 21.5 26.5t62.5 9.5q40 0 72 -11t52.5 -37.5t28.5 -69.5q4 -22 4 -48t-4 -58l-25 -207q-5 -43 -5 -83q0 -28 2 -56q6 -66 32 -114.5 t71 -76.5t114 -28q93 0 170 49t132 151.5t85.5 261t30.5 376.5v26q-116 1 -215.5 15.5t-172.5 45.5t-115 80.5t-42 119.5q0 53 17.5 97.5t52 77t85 50.5t117.5 18q70 0 131 -25.5t107.5 -78.5t76.5 -135t40 -195h171z"/>
<glyph glyph-name="Upsilon1" horiz-adv-x="1095" unicode="ϒ" d="M116 1403q2 11 25 16.5t53 5.5q75 0 142 -42t117 -129.5t79.5 -222t29.5 -318.5q45 184 107 318.5t133.5 222t148.5 129.5t152 42q31 0 53 -6t21 -16l-8 -62h-57q-76 0 -156.5 -54t-153.5 -163t-131.5 -275t-89.5 -389l-57 -460h-100l58 472q12 120 12 222q0 86 -8 162 q-18 164 -64.5 271.5t-114 160.5t-143.5 53h-56z"/>
<glyph glyph-name="uni03D3" horiz-adv-x="1095" unicode="ϓ" d="M116 1403q2 11 25 16.5t53 5.5q75 0 142 -42t117 -129.5t79.5 -222t29.5 -318.5q45 184 107 318.5t133.5 222t148.5 129.5t152 42q31 0 53 -6t21 -16l-8 -62h-57q-76 0 -156.5 -54t-153.5 -163t-131.5 -275t-89.5 -389l-57 -460h-100l58 472q12 120 12 222q0 86 -8 162 q-18 164 -64.5 271.5t-114 160.5t-143.5 53h-56zM-138 1103l110 317h56q17 -1 21 -13q2 -4 1 -9q0 -9 -5 -22l-126 -273h-57z"/>
<glyph glyph-name="uni03D4" horiz-adv-x="1095" unicode="ϔ" d="M116 1403q2 11 25 16.5t53 5.5q75 0 142 -42t117 -129.5t79.5 -222t29.5 -318.5q45 184 107 318.5t133.5 222t148.5 129.5t152 42q31 0 53 -6t21 -16l-8 -62h-57q-76 0 -156.5 -54t-153.5 -163t-131.5 -275t-89.5 -389l-57 -460h-100l58 472q12 120 12 222q0 86 -8 162 q-18 164 -64.5 271.5t-114 160.5t-143.5 53h-56zM931 1662q0 -17 -7 -31.5t-18 -25.5t-26 -17.5t-31 -6.5q-34 0 -58 24t-24 57q0 34 24 58.5t58 24.5q16 0 31 -6.5t26 -18t18 -26.5t7 -32zM574 1662q0 -17 -7 -31.5t-18.5 -25.5t-26.5 -17.5t-31 -6.5q-33 0 -57.5 24 t-24.5 57q0 17 6.5 32t18 26.5t26 18t31.5 6.5q16 0 31 -6.5t26.5 -18t18.5 -26.5t7 -32z"/>
<glyph glyph-name="phi1" horiz-adv-x="1294" unicode="ϕ" d="M741 1011q109 -1 192.5 -33.5t140 -90t85.5 -138t29 -177.5q0 -132 -38.5 -239.5t-112 -184t-179.5 -118.5t-242 -43l-42 -339h-88l42 339q-110 1 -193.5 33t-139.5 90t-85 138t-29 177q0 132 38.5 239.5t112 184.5t179.5 119t242 43l50 404h88zM645 940 q-118 -1 -206 -38.5t-147 -105.5t-88.5 -162t-29.5 -207q0 -82 22 -149.5t67 -116t113 -75.5t160 -28zM624 58q118 1 206.5 38t147 104.5t88 161t29.5 207.5q0 82 -22 149.5t-67 116.5t-113 76.5t-160 28.5z"/>
<glyph glyph-name="omega1" horiz-adv-x="1502" unicode="ϖ" d="M1506 980l-5 -45q-2 -14 -11 -22t-26 -8h-212q27 -81 43 -166.5t16 -176.5q0 -146 -33.5 -254.5t-89 -180.5t-126.5 -107.5t-145 -35.5q-91 0 -148.5 53.5t-73.5 156.5q-42 -103 -112.5 -156.5t-158.5 -53.5q-57 0 -107.5 25.5t-88 75t-59 123t-21.5 170.5q0 81 13 152.5 t35 135.5t52 123t64 116h-226l5 37q2 13 13 25.5t30 12.5h1372zM761 354q-5 -39 -5 -73q0 -25 3 -49q6 -54 25.5 -93t52.5 -60t79 -21q42 0 94 23t98 79.5t77.5 152t31.5 239.5q0 91 -16 181.5t-45 171.5h-751q-40 -64 -70.5 -124t-51.5 -122.5t-31.5 -129t-10.5 -144.5 q0 -93 19.5 -156t48.5 -101t64 -54t67 -16q45 0 83 20.5t67.5 58.5t49 91.5t28.5 119.5l38 312h93z"/>
<glyph glyph-name="uni03D7" horiz-adv-x="1141" unicode="ϗ" d="M1021 -88q-8 -60 -25 -111.5t-46 -90t-71.5 -60t-99.5 -21.5q-32 0 -62.5 7.5t-64.5 22.5l12 36q5 14 12.5 17t13.5 3q9 0 33 -9.5t59 -9.5q37 0 64.5 15t46.5 42.5t30 66.5t17 86l12 94h-79q-42 0 -79.5 11t-63 43.5t-33.5 91.5q-3 19 -3 41q0 48 12 114q18 96 65 233.5 t133 327.5q-23 -29 -47 -56t-45 -48l-720 -768l-54 50q85 196 134.5 338t71.5 241q22 95 22 155v6q-1 62 -18 95.5t-45.5 45t-61.5 11.5h-41l7 59q2 8 20 11.5t48 3.5q43 0 81.5 -12t63.5 -46q26 -34 34 -94q3 -19 3 -42q0 -48 -12 -114q-17 -96 -64.5 -235t-132.5 -329 q23 29 47 56t45 47l720 769l53 -51q-85 -196 -134 -337.5t-71 -239.5q-21 -92 -22 -152v-8q2 -60 19 -93t45.5 -44.5t61.5 -11.5h128z"/>
<glyph glyph-name="uni03D8" horiz-adv-x="1290" unicode="Ϙ" d="M558 300q-96 9 -174.5 49t-134 104t-86 149.5t-30.5 186.5q0 142 45 259.5t125 201.5t190 130.5t241 46.5q110 0 200 -36.5t154 -102t99 -156t35 -199.5q0 -138 -42 -251.5t-117 -196.5t-178.5 -131.5t-227.5 -55.5l-36 -298h-100zM624 383q109 0 200 37t156.5 107.5 t102 172t36.5 229.5q0 94 -28 170t-79.5 129.5t-123.5 82.5t-159 29q-107 0 -197.5 -38t-156.5 -108.5t-103 -172t-37 -228.5q0 -94 28 -170t79 -129t123 -82t159 -29z"/>
<glyph glyph-name="uni03D9" horiz-adv-x="1027" unicode="ϙ" d="M341 -3q-60 15 -109 48.5t-83 84.5t-52.5 118t-18.5 148q0 121 36 232t101.5 196t155.5 135.5t198 50.5q80 0 145.5 -28t112 -81t72 -128.5t25.5 -169.5q0 -121 -36.5 -232t-101.5 -196.5t-155 -136.5t-198 -51h-1l-41 -339h-93zM441 62q87 0 158.5 45.5t122.5 121 t78.5 173t27.5 200.5q0 160 -71 246t-197 86q-87 0 -158.5 -45t-122 -119.5t-78.5 -171.5t-28 -202q0 -159 70.5 -246.5t197.5 -87.5z"/>
<glyph glyph-name="uni03DA" horiz-adv-x="1052" unicode="Ϛ" d="M831 1338q-129 0 -240 -49.5t-192.5 -139.5t-128.5 -216.5t-47 -281.5q0 -120 36.5 -210t99.5 -157t146.5 -112.5t178.5 -76.5q64 -20 104.5 -42.5t63 -47t30.5 -50t8 -51.5q0 -38 -7.5 -73t-21 -67t-31.5 -63t-39 -62l-69 31q14 21 28 44t25 48t18 52.5t7 58.5 q0 19 -6.5 36.5t-24.5 35t-51 34t-86 33.5q-105 33 -198 86.5t-162.5 130.5t-110 179.5t-40.5 234.5q0 114 25 215.5t71 188.5t110.5 156.5t145 118.5t174 75t196.5 26q67 0 111 4.5t71 13t40 21.5t17 30h37q13 0 17.5 -8t4.5 -16q0 -27 -13.5 -51t-48.5 -41.5t-95 -27.5 t-153 -10z"/>
<glyph glyph-name="uni03DB" horiz-adv-x="824" unicode="ϛ" d="M181 468q0 -87 25 -146t68 -100t101.5 -68.5t126.5 -51.5q55 -21 90.5 -42t56 -43.5t28.5 -46t8 -49.5q0 -74 -28 -136.5t-70 -124.5l-70 31q14 22 28 45t25 47.5t18 51.5t7 57q0 19 -6 37.5t-22.5 35t-45.5 32.5t-74 31q-77 25 -143 57.5t-115 81t-77 117.5t-28 169 q0 119 33 215.5t98 164.5t161.5 104.5t223.5 36.5q166 0 175 69h37q13 0 17.5 -8t4.5 -16q0 -56 -54 -88.5t-173 -32.5q-110 0 -190.5 -28.5t-133 -83.5t-77.5 -135t-25 -183z"/>
<glyph glyph-name="uni03DC" horiz-adv-x="1058" unicode="Ϝ" d="M387 1333l-74 -600h387q55 0 92 -8t59 -24t31 -38.5t9 -51.5q0 -38 -7.5 -53.5t-25.5 -15.5h-28q4 31 -0.5 52.5t-20 34t-45.5 18t-77 5.5h-384l-80 -652h-100l174 1415h782l-10 -82h-682z"/>
<glyph glyph-name="uni03DD" horiz-adv-x="836" unicode="ϝ" d="M126 484q15 121 47 218.5t87.5 166t136.5 105.5t194 37q50 0 105.5 -7t114.5 -22l-10 -37q-3 -17 -12.5 -22t-23.5 -5q-23 0 -67.5 10t-117.5 10q-92 0 -155.5 -32t-105 -91t-65 -143t-35.5 -188l-9 -73h284q54 0 89.5 -7t57.5 -21.5t31 -35.5t9 -49q0 -35 -7.5 -52 t-25.5 -17h-25q3 31 -1.5 51.5t-20.5 33t-45 18t-74 5.5h-281l-85 -689h-93z"/>
<glyph glyph-name="uni03DE" horiz-adv-x="1045" unicode="Ϟ" d="M598 0h-60q-16 0 -22 11t4 28l353 628h-819l420 748h61q16 0 22 -11.5t-3 -28.5l-353 -627h818z"/>
<glyph glyph-name="uni03DF" horiz-adv-x="916" unicode="ϟ" d="M429 -353h-58q-16 0 -22 11t3 28l351 610h-693l402 699h58q15 0 21.5 -11.5t-3.5 -28.5l-334 -580h692z"/>
<glyph glyph-name="uni03E0" horiz-adv-x="1315" unicode="Ϡ" d="M325 808l442 272q61 36 118.5 67t113.5 59q-63 67 -150 103.5t-199 36.5q-137 0 -250 -36t-213 -100q-19 -10 -30.5 -10t-19.5 14l-25 45q66 43 129.5 75t129.5 53t137.5 31.5t153.5 10.5q135 0 239.5 -43.5t176.5 -121.5t109 -186t37 -238q0 -116 -25 -225.5t-71.5 -214 t-112.5 -204.5t-149 -196h-58q-19 1 -24 18t13 37q60 66 119 149t106.5 181t77 209.5t29.5 234.5q0 30 -3 60q-51 -39 -105.5 -76t-117.5 -75l-437 -268l-33 68l685 418q-21 113 -79 200l-681 -416z"/>
<glyph glyph-name="uni03E1" horiz-adv-x="1092" unicode="ϡ" d="M227 402l354 260q51 36 101.5 68.5t97.5 59.5q-48 66 -116.5 102t-155.5 36q-106 0 -198.5 -34.5t-173.5 -96.5q-18 -9 -29 -9t-19 14l-22 40q55 41 108 72t107.5 51.5t113 30.5t124.5 10q107 0 189.5 -40.5t138.5 -113t85 -172t29 -217.5q0 -120 -23.5 -226.5 t-66 -205.5t-101.5 -193.5t-130 -189.5h-53q-19 1 -23 17.5t13 36.5q46 63 99 140t97 169.5t73.5 201.5t29.5 235q0 12 -0.5 23.5t-1.5 22.5q-42 -39 -89 -77.5t-101 -75.5l-336 -247l-32 58l552 403q-8 54 -22.5 102t-37.5 89l-551 -402z"/>
<glyph glyph-name="uni03E2" horiz-adv-x="1971" unicode="Ϣ" d="M1874 1415l-166 -1353q-12 -94 -42.5 -165.5t-95.5 -120t-170.5 -73t-267.5 -24.5q-35 0 -89 2.5t-114.5 5l-121 5t-109.5 2.5q-76 0 -123 -5.5t-74 -18.5t-38 -33.5t-15 -51.5h-25q-21 0 -21 29q0 40 13.5 70t49 49.5t97.5 29t158 9.5q43 0 101 -2.5t117 -5t112.5 -5 t88.5 -2.5q136 0 223.5 17.5t141 54.5t78 94.5t34.5 136.5l38 306q-38 -76 -83 -144.5t-98 -120.5t-114 -82.5t-130 -30.5q-65 0 -116.5 26t-88.5 72.5t-60 111.5t-30 144q-34 -87 -83 -153.5t-107 -111.5t-121.5 -68.5t-127.5 -23.5q-90 0 -157.5 34.5t-109.5 101.5 t-56 165q-7 48 -8 104q0 57 8 122l112 903h100l-111 -903q-8 -60 -8 -113q-1 -43 5 -81q12 -84 45.5 -140.5t87.5 -85.5t125 -29q67 0 132 35.5t119 100.5t92.5 156t52.5 202l105 858h100l-105 -858q-8 -60 -8 -114q0 -41 4 -77q10 -88 40 -151t81 -98.5t122 -35.5 q57 0 113 31t107 84.5t96 125.5t80 154l115 939h100z"/>
<glyph glyph-name="uni03E3" horiz-adv-x="1493" unicode="ϣ" d="M1387 995l-113 -934q-13 -107 -41 -180t-77 -119t-122 -66.5t-176 -21.5q-50 0 -91 4t-76.5 8.5t-68.5 8.5t-67 4h-21q-60 0 -98 -5q-46 -6 -72.5 -19.5t-37.5 -35t-15 -52.5h-29q-16 0 -20.5 7.5t-4.5 20.5q0 36 12 66.5t45.5 52t94.5 32.5q56 10 143 10h16q35 0 68 -4 t66.5 -8.5t69 -8.5t75.5 -4q81 0 138.5 13.5t96.5 47.5t62 91.5t34 145.5l31 252q-75 -148 -165 -229t-186 -81q-57 0 -94.5 21t-59.5 61t-28 98q-3 30 -3 65q0 32 3 67q-38 -80 -83 -139.5t-93 -98.5t-96.5 -58.5t-93.5 -19.5q-65 0 -107.5 25.5t-64.5 73.5q-24 48 -28 118 q-1 20 -1 41q0 53 8 117l75 633h93l-75 -633q-8 -64 -8 -115v-11q1 -56 15.5 -93.5t44 -57t78.5 -19.5q40 0 85 22.5t90 68t87 114t77 160.5l67 564h93l-74 -629q-10 -75 -10 -131q0 -53 13 -89q13 -38 41.5 -57t77.5 -19q98 0 184 103.5t158 292.5l65 529h93z"/>
<glyph glyph-name="uni03E4" horiz-adv-x="1184" unicode="Ϥ" d="M1087 1415l-173 -1415h-101l83 673q-102 -31 -199 -52t-183 -25q-20 -1 -39 -2q-63 0 -118 12q-72 14 -123.5 53.5t-80.5 108t-29 172.5q0 233 87 358t259 125q15 0 27.5 -1t23.5 -3l-5 -42q-2 -19 -14.5 -23.5t-30.5 -4.5q-72 0 -119.5 -34.5t-75.5 -91t-39 -127.5 t-11 -144q0 -118 46 -184q46 -64 134 -86q47 -12 106 -12q50 0 108 8q126 18 285 70l82 667h100z"/>
<glyph glyph-name="uni03E5" horiz-adv-x="975" unicode="ϥ" d="M870 995l-166 -1350h-92l74 609q-91 -26 -176.5 -40.5t-152.5 -14.5q-59 0 -109 18t-86 58t-56 102t-20 151q0 100 17 187t54 152t96 102.5t144 37.5q17 0 29 -1.5t22 -3.5l-4 -35q-2 -18 -14.5 -22.5t-29.5 -4.5q-60 0 -102 -34t-68.5 -89.5t-39 -127t-12.5 -146.5 q0 -72 15.5 -123.5t43 -85t66 -49t83.5 -15.5q63 0 142 13.5t167 37.5l82 674h93z"/>
<glyph glyph-name="uni03E6" horiz-adv-x="1144" unicode="Ϧ" d="M314 741q107 32 205 53q99 22 183 26q16 1 32 1q65 1 119 -13q67 -16 111 -59t62 -115q11 -42 11 -96q0 -38 -5 -82l-51 -409q-11 -86 -39.5 -153.5t-80 -114t-129.5 -71t-187 -24.5q-29 0 -53.5 2t-47.5 4l-46 4t-48 2q-40 0 -67.5 -6t-45.5 -19t-27.5 -34t-13.5 -52 h-22q-15 0 -20 7t-5 22q0 33 10.5 62t34.5 50.5t64 33.5t99 12q50 0 94 -5.5t100 -5.5q85 0 144 17.5t97 52.5t59 89t30 127l50 409q5 37 5 70q0 65 -19 110q-28 68 -104 94q-46 15 -111 15q-42 -1 -90 -7q-126 -16 -307 -71l-82 -667h-100l174 1415h100z"/>
<glyph glyph-name="uni03E7" horiz-adv-x="1023" unicode="ϧ" d="M936 995q-22 -45 -46.5 -92.5t-55.5 -92.5q32 -59 49.5 -129t17.5 -151q0 -101 -22.5 -198t-70 -173.5t-119.5 -123.5t-171 -47q-48 0 -82.5 12t-61.5 30t-48 38.5t-42 38.5t-43.5 30t-51.5 12q-50 0 -90.5 -37.5t-60.5 -111.5h-75q29 105 88.5 165t144.5 60 q35 0 61.5 -12t49.5 -30t45 -38.5t47.5 -38.5t56 -30t71.5 -12q76 0 130 40t88.5 107t50.5 152.5t16 177.5q0 109 -34 197q-29 -33 -63 -60.5t-74.5 -47.5t-88 -31t-102.5 -11q-66 0 -115 16t-80.5 43t-47 61.5t-15.5 71.5q0 43 19.5 85t58 74.5t95 52.5t130.5 20 q92 0 166.5 -36t128.5 -102q12 20 23.5 41.5t22.5 43.5q11 20 19 28t28 8h53zM469 656q51 0 92.5 11t74.5 30.5t59.5 46t49.5 58.5q-42 67 -105.5 104t-144.5 37q-53 0 -93 -14t-67 -36t-40.5 -50.5t-13.5 -56.5q0 -24 10.5 -47.5t33.5 -42t58.5 -29.5t85.5 -11z"/>
<glyph glyph-name="uni03E8" horiz-adv-x="989" unicode="Ϩ" d="M283 889q-34 46 -52.5 94.5t-18.5 105.5q0 61 24 122t72 110t120 79.5t167 30.5q74 0 131 -21t96 -58.5t59 -88.5t20 -112q0 -101 -31 -171.5t-81.5 -120t-115 -84t-131.5 -64.5t-131.5 -61t-115 -73.5t-81.5 -101.5t-31 -146q0 -59 18.5 -107.5t54.5 -83t89 -53 t121 -18.5q55 0 100.5 12t82 29.5t64.5 38t48.5 38t35 29.5t23.5 12q16 0 24 -14l22 -43q-80 -86 -180 -135.5t-229 -49.5q-90 0 -159.5 25.5t-117 71t-72 108.5t-24.5 139q0 100 30.5 169t81 118t115 82.5t132 63t132.5 60t115.5 73t81.5 101.5t31 146q0 46 -14.5 84.5 t-42.5 66t-68.5 42.5t-92.5 15q-65 0 -116.5 -22.5t-87.5 -59t-55 -82.5t-19 -93q0 -36 7 -62t16 -44t16 -29.5t7 -17.5q-1 -16 -18 -26z"/>
<glyph glyph-name="uni03E9" horiz-adv-x="830" unicode="ϩ" d="M195 654q-14 25 -22.5 59.5t-8.5 63.5q0 44 20 86t58 75t93 53t126 20q57 0 102 -17t76 -46.5t47 -68.5t16 -83q0 -64 -24.5 -110t-65 -79t-91.5 -57.5t-105 -46t-105 -44t-91.5 -51.5t-65 -68t-24.5 -95q0 -43 17.5 -78t50 -59.5t77.5 -38t101 -13.5q68 0 119.5 16 t88.5 35.5t59.5 35.5t33.5 16q9 0 14 -3.5t9 -10.5l17 -39q-63 -54 -151.5 -88t-195.5 -34q-75 0 -136 18.5t-103.5 52t-65.5 81t-23 105.5q0 68 24.5 116.5t65 83.5t92.5 60t106 46.5t105.5 42.5t92 49t65.5 65t25 91q0 32 -12 59.5t-33.5 47.5t-52.5 31.5t-70 11.5 q-47 0 -85 -14t-65 -37t-42.5 -53t-15.5 -62q-1 -32 7.5 -55t8.5 -32q-2 -16 -19 -22z"/>
<glyph glyph-name="uni03EA" horiz-adv-x="1216" unicode="Ϫ" d="M1148 0h-1220l678 1030l-32 78q-92 235 -250 235h-52l8 62q1 11 22 16.5t52 5.5q91 0 164 -62t123 -189l32 -75l50 75q81 127 169.5 189t179.5 62q31 0 51 -5.5t18 -16.5l-8 -62h-52q-157 0 -307 -235l-52 -79zM1015 80l-360 878l-575 -878h935z"/>
<glyph glyph-name="uni03EB" horiz-adv-x="1030" unicode="ϫ" d="M949 0h-1005l539 723l-25 48q-40 76 -83 120t-97 44h-39l6 51q2 9 18 13.5t42 4.5q65 0 117 -44.5t96 -127.5l25 -50l39 50q64 83 126.5 127.5t127.5 44.5q26 0 41.5 -4.5t13.5 -13.5l-6 -51h-39q-55 0 -108 -44t-112 -120l-37 -48zM820 75l-292 587l-434 -587h726z"/>
<glyph glyph-name="uni03EC" horiz-adv-x="1317" unicode="Ϭ" d="M1249 1513q12 0 16 -8t4 -22q0 -38 -9 -68.5t-36.5 -51.5t-78 -32t-132.5 -11q-33 0 -71 1.5t-76 3.5t-72.5 3.5t-61.5 1.5q-108 0 -194 -33t-148.5 -103.5t-102 -180t-55.5 -262.5q63 152 190.5 234.5t314.5 82.5q110 0 198.5 -35t150 -97.5t94.5 -148.5t33 -188 q0 -132 -46.5 -244t-128 -193.5t-193.5 -127.5t-243 -46q-112 0 -200 36t-149 105.5t-93 170t-32 229.5q0 227 38.5 394t115 276t190 162t264.5 53q28 0 64 -1.5t74.5 -3.5t78 -3.5t74.5 -1.5q56 0 92 5.5t57.5 18t32 33.5t14.5 52h26zM233 498q0 -100 26.5 -178.5t76 -133 t120 -83.5t157.5 -29q108 0 199.5 37.5t157.5 105.5t103 164.5t37 213.5q0 88 -27 161t-77 125t-121 81t-160 29q-105 0 -195 -34.5t-156 -98.5t-103.5 -155t-37.5 -205z"/>
<glyph glyph-name="uni03ED" horiz-adv-x="1064" unicode="ϭ" d="M982 1476q11 0 14.5 -6.5t3.5 -16.5q0 -30 -7 -53t-27.5 -39t-57 -24.5t-95.5 -8.5q-46 0 -87 3.5t-76 3.5q-83 0 -153.5 -38.5t-126 -120t-94.5 -208.5t-59 -304l-1 -6q31 77 78.5 138.5t107 104.5t127.5 66t140 23q62 0 116 -22.5t93.5 -67.5t62.5 -113.5t23 -160.5 q0 -77 -16 -154.5t-46.5 -148.5t-74.5 -132.5t-99.5 -106.5t-121.5 -71t-140 -26q-68 0 -129.5 24t-107.5 79.5t-73 147t-27 225.5v2q0 217 35 391.5t101.5 297.5t163.5 189.5t222 66.5q40 0 82 -3.5t92 -3.5q38 0 62.5 3.5t39.5 12t22 22.5t10 35h23zM639 921 q-89 0 -165.5 -43t-132.5 -113.5t-88 -162.5t-32 -189q0 -175 67 -264.5t183 -89.5q59 0 111.5 22.5t97 62.5t79.5 94t60 116t38 129.5t13 135.5q0 73 -16.5 129.5t-47 94.5t-73 58t-94.5 20z"/>
<glyph glyph-name="uni03EE" horiz-adv-x="1072" unicode="Ϯ" d="M1058 1040h-427l-128 -1040h-100l127 1040h-206q-48 0 -79 -5.5t-49.5 -18t-28 -34t-13.5 -52.5h-29q-22 0 -22 28q0 34 7 64t30.5 52t68.5 34.5t121 12.5h210l36 294h101l-36 -294h427z"/>
<glyph glyph-name="uni03EF" horiz-adv-x="860" unicode="ϯ" d="M859 893h-339l-152 -1245h-93l153 1245h-135q-48 0 -79 -5.5t-50 -18t-28.5 -34t-13.5 -52.5h-27q-13 0 -17.5 7.5t-4.5 20.5q0 35 6 63.5t29 48.5t68 31t123 11h138l55 450h92l-55 -450h339z"/>
<glyph glyph-name="uni03F0" horiz-adv-x="1076" unicode="ϰ" d="M1013 955q-85 -196 -135 -338t-72 -241q-22 -95 -21 -155v-5q1 -62 18 -96t45.5 -45.5t61.5 -11.5h41l-7 -58q-1 -8 -19.5 -12t-48.5 -4q-44 0 -82.5 12t-64 46.5t-33.5 96.5q-2 17 -2 37q0 51 14 123q19 100 69 241.5t140 336.5q-27 -35 -54.5 -67.5t-51.5 -56.5 l-720 -768l-53 50q84 196 134 338t72 241q21 95 21 155v6q-1 62 -18 95.5t-45.5 45t-61.5 11.5h-41l7 59q2 8 20 11.5t48 3.5q43 0 82 -12t64 -46q26 -34 34 -96q2 -18 2 -39q0 -51 -14 -122q-18 -99 -68 -240t-139 -335q27 34 54 66t50 55l720 769z"/>
<glyph glyph-name="uni03F1" horiz-adv-x="1029" unicode="ϱ" d="M170 102q-8 -68 -8 -120q0 -22 1 -41q5 -65 30.5 -104.5t73.5 -57t121 -17.5q43 0 89.5 5t97.5 5q49 0 81.5 -8t52.5 -23t28.5 -36.5t8.5 -49.5q0 -37 -7.5 -54t-25.5 -17h-25q3 31 -1.5 51.5t-19 33t-41 18t-66.5 5.5q-50 0 -93 -5t-89 -5q-88 0 -151 22t-101 72 t-50 130q-6 37 -6 82q0 49 7 108l55 449q14 117 53 204t96.5 145.5t132.5 87.5t161 29q77 0 141 -27t109.5 -80t71 -131t25.5 -179q0 -123 -33 -231.5t-94 -190.5t-147 -129.5t-192 -47.5q-41 0 -81.5 11t-76.5 32t-67 51t-54 68zM187 243q23 -45 52.5 -78t63.5 -55 t70 -32.5t71 -10.5q89 0 160 40.5t120.5 112t76 168t26.5 208.5q0 85 -18.5 149t-53 107t-82.5 64t-106 21q-62 0 -118.5 -24t-102 -72.5t-77.5 -121.5t-44 -171z"/>
<glyph glyph-name="uni03F2" horiz-adv-x="909" unicode="ϲ" d="M801 182q-53 -59 -100.5 -97t-93 -60t-92.5 -30t-100 -8q-86 0 -149.5 29.5t-105.5 82.5t-63 126t-21 159q0 79 16.5 156.5t47.5 147.5t75 129t99 102t119.5 67.5t137.5 24.5q49 0 88.5 -9.5t72.5 -27t60 -42.5t50 -56l-28 -33q-9 -11 -21 -11q-10 0 -24.5 16t-39 34.5 t-63.5 34.5t-98 16q-84 0 -156.5 -45t-126 -121t-84 -175.5t-30.5 -207.5q0 -69 15.5 -128t48 -102t81.5 -67t116 -24q53 0 95 11.5t74.5 28.5t57 37.5t43.5 37.5t32.5 28.5t24.5 11.5t21 -10z"/>
<glyph glyph-name="uni03F3" horiz-adv-x="400" unicode="ϳ" d="M369 1338q0 -18 -7 -33.5t-19 -27.5t-27.5 -19t-31.5 -7q-17 0 -32 7t-26.5 19t-18.5 27.5t-7 33.5t7 34t18.5 28.5t26.5 19.5t32 7q16 0 31.5 -7t27.5 -19t19 -28.5t7 -34.5zM295 995l-138 -1122q-6 -52 -26 -96t-51.5 -76.5t-75 -51t-96.5 -18.5q-29 0 -50 5t-40 16 l10 48q4 9 9 10.5t12.5 0t19 -4t29.5 -2.5q74 0 114.5 44t51.5 125l138 1122h93z"/>
<glyph glyph-name="uni03F4" horiz-adv-x="1475" unicode="ϴ" d="M839 1431q125 0 225.5 -44.5t171 -125.5t108.5 -194.5t38 -250.5q0 -187 -54.5 -340t-151.5 -262t-229 -169t-286 -60q-124 0 -224 44.5t-170.5 125.5t-108.5 194t-38 250q0 186 55 339.5t151.5 263t228 169.5t284.5 60zM1278 763q1 13 1 25.5v25.5q0 123 -31.5 221.5 t-90.5 168t-142.5 107t-186.5 37.5q-114 0 -213.5 -40.5t-177.5 -116t-131 -184t-73 -244.5h1045zM224 686q-3 -41 -3 -84q0 -123 32 -221.5t91 -167.5t142 -106.5t186 -37.5q119 0 221.5 42.5t181 122t130 194t67.5 258.5h-1048z"/>
<glyph glyph-name="uni03F5" horiz-adv-x="871" unicode="ϵ" d="M717 24q-55 -18 -116.5 -27.5t-119.5 -9.5q-98 0 -172.5 29t-124.5 84t-76 133.5t-26 176.5q0 131 33.5 241t100.5 190t168.5 125t237.5 45q24 0 46.5 -1.5t45.5 -5.5t48 -9.5t54 -12.5l-9 -37q-4 -17 -13.5 -22t-23.5 -5q-11 0 -24.5 3t-33 7t-46 7t-63.5 3 q-92 0 -164 -28t-124.5 -79.5t-85.5 -125t-46 -163.5h543l-8 -67h-542q-1 -15 -1.5 -30t-0.5 -30q0 -83 20 -149t60.5 -112t100.5 -70.5t140 -24.5q43 0 75 4t55 9t38 9t24 4q17 0 23 -7t6 -22z"/>
<glyph glyph-name="uni03F6" horiz-adv-x="873" unicode="϶" d="M150 982q31 7 57 12.5t50 9.5t47 5.5t47 1.5q106 0 184 -32t129 -89t76 -135.5t25 -171.5q0 -138 -35 -248.5t-102.5 -188t-165 -118.5t-222.5 -41q-57 0 -116.5 9.5t-110.5 27.5l9 32q7 29 36 29q9 0 23 -4t36 -9t53 -9t74 -4q93 0 166.5 28t126.5 81.5t85.5 131 t43.5 175.5h-543l8 67h540q1 9 1 18.5v19.5q0 81 -19.5 147t-59 113t-100 72.5t-141.5 25.5q-37 0 -64.5 -3t-47.5 -7l-35 -7t-26 -3q-13 0 -21.5 5t-7.5 22v37z"/>
<glyph glyph-name="uni03F7" horiz-adv-x="1077" unicode="Ϸ" d="M603 1129q207 0 311.5 -93t104.5 -262q0 -108 -37 -197.5t-105.5 -154t-164.5 -100.5t-213 -36h-241l-35 -286h-99l173 1415h100l-35 -286h241zM509 366q94 0 169.5 30t129 83t82.5 126t29 159q0 137 -81 211.5t-246 74.5h-240l-84 -684h241z"/>
<glyph glyph-name="uni03F8" horiz-adv-x="1032" unicode="ϸ" d="M255 659q39 79 87 143.5t101 110.5t111.5 71.5t118.5 25.5q65 0 114 -25t82 -70.5t50 -110.5t17 -145q0 -77 -16 -156.5t-45.5 -154t-72 -140.5t-96.5 -115t-118.5 -77.5t-136.5 -28.5q-82 0 -151 36.5t-112 108.5l-37 -297q-8 -66 -24 -108.5t-37.5 -67t-49 -33.5 t-58.5 -9q-19 0 -31.5 5t-10.5 21l4 25q28 0 47.5 8t33 27t22 52t14.5 83l173 1403q8 66 24 108.5t38.5 67t50 33.5t58.5 9q19 0 31.5 -4.5t10.5 -21.5l-3 -25q-28 0 -48 -8t-33.5 -27.5t-22 -52t-14.5 -82.5zM199 206q21 -40 48.5 -67.5t59 -44.5t65 -24.5t68.5 -7.5 q63 0 117.5 25.5t99 69.5t79 102.5t58 123.5t36 133.5t12.5 133.5q0 134 -51 208.5t-149 74.5q-57 0 -114.5 -32t-110.5 -90t-100 -140t-83 -182z"/>
<glyph glyph-name="uni03F9" horiz-adv-x="1265" unicode="Ϲ" d="M667 69q73 0 131 12.5t103 31t77.5 40t55.5 40t37 31t22 12.5q9 0 13 -6l36 -42q-92 -93 -211.5 -148.5t-279.5 -55.5q-122 0 -220.5 44t-168 125t-107 194t-37.5 251q0 185 56.5 338.5t155 263.5t232 170.5t288.5 60.5q73 0 131 -11.5t106.5 -33.5t89 -55t78.5 -75 l-32 -40q-11 -12 -26 -12q-9 0 -20.5 10.5t-29 26t-43 34t-62 34t-85.5 26t-113 10.5q-132 0 -246 -52t-198 -148t-132 -233t-48 -307q0 -124 33 -223.5t92 -169t141 -106.5t181 -37z"/>
<glyph glyph-name="uni03FA" horiz-adv-x="1539" unicode="Ϻ" d="M1441 1415l-173 -1415h-96l150 1223q2 16 5 33.5t7 35.5l-508 -570q-10 -11 -19.5 -18.5t-22.5 -7.5h-6q-13 0 -20.5 7.5t-14.5 18.5l-369 572q-1 -19 -2 -37t-3 -34l-150 -1223h-96l174 1415h83q14 0 20.5 -4t14.5 -15l363 -557q5 -8 9 -15l8 -14q5 7 11 14.5t14 15.5 l499 556q11 11 18 15t21 4h83z"/>
<glyph glyph-name="uni03FB" horiz-adv-x="1189" unicode="ϻ" d="M1084 995l-122 -995h-84l100 815q2 21 7 46.5t12 48.5l-376 -427q-9 -11 -19.5 -18t-24.5 -7q-15 0 -23 7t-15 18l-270 426q0 -23 -1.5 -48t-3.5 -46l-144 -1167h-83l165 1347h88q14 0 20.5 -3.5t14.5 -15.5l247 -387q5 -8 9 -15.5t8 -14.5q5 7 11 14t14 16l342 387 q11 12 18.5 15.5t21.5 3.5h88z"/>
<glyph glyph-name="uni03FC" horiz-adv-x="1028" unicode="ϼ" d="M133 545q14 117 53 204t96.5 145.5t132.5 87.5t161 29q77 0 141 -27t109.5 -80t71 -131t25.5 -179q0 -125 -33 -235t-94.5 -193t-148 -131t-193.5 -48q-41 0 -81 11.5t-76 32.5t-66.5 51t-53.5 68l-32 -263h172l-9 -67h-171l-21 -172h-93l21 172h-140l8 67h140zM188 236 q22 -45 52 -78t63.5 -55t70 -33t71.5 -11q89 0 160 41.5t120.5 114t76 170.5t26.5 211q0 85 -18.5 149t-53 107t-82.5 64t-106 21q-62 0 -118.5 -24t-102.5 -72.5t-77.5 -121.5t-43.5 -171z"/>
<glyph glyph-name="uni03FD" horiz-adv-x="1260" unicode="Ͻ" d="M77 236q9 0 18 -9q34 -39 69.5 -68.5t78.5 -49.5t96.5 -30t122.5 -10q123 0 232 51t191.5 146.5t130.5 233t48 310.5q0 122 -32.5 221t-92 168.5t-144 107.5t-188.5 38q-92 0 -160 -22t-115 -48.5t-75 -48.5t-39 -22q-16 0 -22 12l-25 43q95 82 203 127t242 45 q127 0 228.5 -45.5t173 -127.5t110 -196t38.5 -250q0 -124 -24.5 -233.5t-70 -201.5t-109.5 -165t-142.5 -123.5t-170.5 -77.5t-192 -27q-81 0 -147 14.5t-119.5 41t-96.5 64t-78 84.5l44 41q7 7 17 7z"/>
<glyph glyph-name="uni03FE" horiz-adv-x="1265" unicode="Ͼ" d="M667 69q73 0 131 12.5t103 31t77.5 40t55.5 40t37 31t22 12.5q9 0 13 -6l36 -42q-92 -93 -211.5 -148.5t-279.5 -55.5q-122 0 -220.5 44t-168 125t-107 194t-37.5 251q0 185 56.5 338.5t155 263.5t232 170.5t288.5 60.5q73 0 131 -11.5t106.5 -33.5t89 -55t78.5 -75 l-32 -40q-11 -12 -26 -12q-9 0 -20.5 10.5t-29 26t-43 34t-62 34t-85.5 26t-113 10.5q-132 0 -246 -52t-198 -148t-132 -233t-48 -307q0 -124 33 -223.5t92 -169t141 -106.5t181 -37zM881 731q0 -18 -7.5 -33.5t-19.5 -27.5t-27.5 -19t-31.5 -7q-17 0 -32 7t-26 19t-18 27.5 t-7 33.5t7 34t18.5 28.5t26.5 19.5t32 7q16 0 31.5 -7t27.5 -19t19 -28.5t7 -34.5z"/>
<glyph glyph-name="uni0400" horiz-adv-x="1078" unicode="Ѐ" d="M388 1333l-71 -576h567l-11 -80h-566l-73 -595h684l-11 -82h-783l174 1415h782l-11 -82h-681zM609 1841q23 0 34 -3.5t20 -18.5l189 -277h-61q-11 0 -18.5 2t-14.5 10l-247 287h98z"/>
<glyph glyph-name="afii10023" horiz-adv-x="1078" unicode="Ё" d="M388 1333l-71 -576h567l-11 -80h-566l-73 -595h684l-11 -82h-783l174 1415h782l-11 -82h-681zM1020 1662q0 -17 -7 -31.5t-18 -25.5t-26 -17.5t-31 -6.5q-34 0 -58 24t-24 57q0 34 24 58.5t58 24.5q16 0 31 -6.5t26 -18t18 -26.5t7 -32zM663 1662q0 -17 -7 -31.5 t-18.5 -25.5t-26.5 -17.5t-31 -6.5q-33 0 -57.5 24t-24.5 57q0 17 6.5 32t18 26.5t26 18t31.5 6.5q16 0 31 -6.5t26.5 -18t18.5 -26.5t7 -32z"/>
<glyph glyph-name="afii10051" horiz-adv-x="1343" unicode="Ђ" d="M859 774q99 0 173 -22.5t123 -64t73 -100.5t24 -133q0 -105 -33 -189t-96 -143t-154 -90.5t-206 -31.5h-98l9 79h99q92 0 163 24.5t119 71t72.5 114t24.5 153.5q0 124 -75 188.5t-227 64.5h-325l-86 -695h-99l163 1333h-387l10 82h941l-10 -82h-454l-69 -559h325z"/>
<glyph glyph-name="afii10052" horiz-adv-x="998" unicode="Ѓ" d="M1051 1335h-664l-164 -1335h-100l174 1415h764zM1034 1841l-333 -287q-10 -8 -18 -10t-20 -2h-60l270 277q13 14 24.5 18t33.5 4h103z"/>
<glyph glyph-name="afii10053" horiz-adv-x="1271" unicode="Є" d="M1142 188q-46 -47 -98 -84.5t-112.5 -64t-129.5 -41t-150 -14.5q-122 0 -220.5 44.5t-168 125t-107 193.5t-37.5 250q0 124 25 234t70.5 202.5t110.5 166t145.5 125t173.5 79t196 27.5q134 0 234.5 -45t175.5 -127l-36 -43q-9 -12 -25 -12q-11 0 -34 22t-64.5 48.5 t-105 48.5t-155.5 22q-111 0 -210.5 -40t-178.5 -115.5t-133 -183.5t-75 -243h722l-9 -77h-722q-3 -39 -3 -80q0 -125 33 -224t92 -169t141 -107t180 -37q65 0 119.5 10t103.5 29.5t93.5 49t88.5 69.5q10 8 19 9.5t17 -7.5z"/>
<glyph glyph-name="afii10054" horiz-adv-x="995" unicode="Ѕ" d="M909 1244q-12 -17 -27 -17q-12 0 -29 19t-46.5 41.5t-76 41.5t-116.5 19q-75 0 -135 -24.5t-101.5 -67t-63.5 -99t-22 -120.5q0 -61 25 -102.5t65.5 -71t92.5 -51t106 -42t106 -45t92.5 -59.5t65.5 -85t25 -123q0 -96 -33 -182.5t-95 -151t-150 -102.5t-197 -38 q-128 0 -215.5 49.5t-148.5 135.5l34 43q12 14 28 14q9 0 20 -12t27.5 -29.5t39.5 -38t55 -38t74 -29.5t98 -12q84 0 152 28.5t116 78.5t73.5 117.5t25.5 145.5q0 62 -25 103.5t-65.5 70.5t-92 49t-105.5 40t-106 44t-92.5 59.5t-65 87t-24.5 126.5q0 81 29 156t84 132.5 t134 91.5t180 34t178.5 -37.5t132.5 -109.5z"/>
<glyph glyph-name="afii10055" horiz-adv-x="495" unicode="І" d="M224 0h-100l173 1415h100z"/>
<glyph glyph-name="afii10056" horiz-adv-x="495" unicode="Ї" d="M224 0h-100l173 1415h100zM648 1662q0 -17 -7 -31.5t-18 -25.5t-26 -17.5t-31 -6.5q-34 0 -58 24t-24 57q0 34 24 58.5t58 24.5q16 0 31 -6.5t26 -18t18 -26.5t7 -32zM291 1662q0 -17 -7 -31.5t-18.5 -25.5t-26.5 -17.5t-31 -6.5q-33 0 -57.5 24t-24.5 57q0 17 6.5 32 t18 26.5t26 18t31.5 6.5q16 0 31 -6.5t26.5 -18t18.5 -26.5t7 -32z"/>
<glyph glyph-name="afii10057" horiz-adv-x="751" unicode="Ј" d="M578 441q-15 -117 -51 -203t-91.5 -142.5t-127.5 -84t-159 -27.5q-54 0 -98.5 7t-87.5 22l8 54q2 8 7 15t19 7q10 0 22 -3.5t29.5 -7.5t42 -7.5t59.5 -3.5q59 0 113 18.5t97.5 62t74 115t43.5 176.5l120 976h100z"/>
<glyph glyph-name="afii10058" horiz-adv-x="1928" unicode="Љ" d="M1441 774q99 0 172.5 -22.5t122.5 -64t73 -100.5t24 -133q0 -105 -33 -189t-96 -143t-154 -90.5t-206 -31.5h-405l164 1335h-517q-46 -281 -92 -490.5t-92.5 -359t-94.5 -246t-98 -152.5t-102.5 -77.5t-108.5 -21.5q-30 0 -52 6t-20 17l8 62h56q42 0 84 20.5t83.5 75 t83.5 150t85 244.5t86.5 358.5t88.5 493.5h713l-79 -641h306zM1354 79q93 0 164 24.5t119 71t72.5 114t24.5 153.5q0 124 -75 188.5t-228 64.5h-306l-75 -616h304z"/>
<glyph glyph-name="afii10059" horiz-adv-x="2011" unicode="Њ" d="M1523 774q99 0 172.5 -22.5t122.5 -64t73 -100.5t24 -133q0 -105 -33 -189t-96 -143t-154 -90.5t-206 -31.5h-394l83 679h-808l-83 -679h-100l174 1415h100l-81 -661h808l81 661h100l-79 -641h296zM1436 79q93 0 164 24.5t119 71t72.5 114t24.5 153.5q0 124 -75 188.5 t-228 64.5h-296l-75 -616h294z"/>
<glyph glyph-name="afii10060" horiz-adv-x="1357" unicode="Ћ" d="M535 768q106 32 203.5 53t180.5 25q16 1 32 1q64 1 117 -13q66 -16 109 -59t61 -115q10 -41 10 -94q0 -39 -6 -85l-59 -481h-100l59 481q4 36 4 68q0 73 -24 120q-35 67 -115 89q-43 12 -99 12q-46 0 -102 -8q-122 -18 -281 -68l-85 -694h-99l163 1333h-388l10 82h942 l-10 -82h-454z"/>
<glyph glyph-name="afii10061" horiz-adv-x="1190" unicode="Ќ" d="M712 815q-28 -33 -57.5 -53.5t-67.5 -31.5q42 -9 67.5 -32t48.5 -64l386 -634h-87q-19 0 -30 9t-22 28l-352 576q-11 18 -21.5 31.5t-24.5 22t-32.5 12.5t-44.5 4h-168l-84 -683h-100l174 1415h99l-80 -655h150q23 0 42 3t36.5 11t35 22t36.5 36l472 551q11 14 25.5 23 t31.5 9h82zM1093 1841l-333 -287q-10 -8 -18 -10t-20 -2h-60l270 277q13 14 24.5 18t33.5 4h103z"/>
<glyph glyph-name="uni040D" horiz-adv-x="1403" unicode="Ѝ" d="M1306 1415l-174 -1415h-100l142 1154q3 32 8.5 65t13.5 68q-16 -30 -32 -55.5t-32 -47.5l-886 -1153q-9 -13 -22.5 -22t-30.5 -9h-70l174 1415h100l-142 -1154q-3 -32 -8.5 -65t-13.5 -68q16 30 32 55.5t32 47.5l886 1153q10 14 23 22.5t27 8.5h73zM688 1840 q23 0 34 -3.5t20 -18.5l189 -277h-61q-11 0 -18.5 2t-14.5 10l-247 287h98z"/>
<glyph glyph-name="afii10062" horiz-adv-x="1122" unicode="Ў" d="M1190 1415l-687 -1247q-28 -50 -56.5 -84.5t-59.5 -55.5t-64.5 -30.5t-70.5 -9.5q-38 0 -59 7.5t-19 24.5l6 53h57q59 0 104 31.5t85 104.5l103 187l-402 1019h90q14 0 21.5 -6.5t12.5 -18.5l301 -808q9 -26 16 -53t12 -54q22 54 51 107l434 808q7 11 16.5 18t23.5 7h85z M692 1573q84 0 125.5 45t52.5 146h49q10 0 16 -10q4 -7 5 -16q0 -3 -1 -7q-11 -97 -74.5 -152t-178.5 -55q-114 0 -165 55q-41 45 -41 117q0 17 2 35q2 14 8 23.5t17 9.5h49q-3 -26 -3 -48q0 -65 24 -98q32 -45 115 -45z"/>
<glyph glyph-name="afii10145" horiz-adv-x="1345" unicode="Џ" d="M1248 1415l-174 -1415h-430l-39 -323q-2 -14 -12.5 -23t-25.5 -9h-58l44 355h-430l174 1415h100l-164 -1335h751l164 1335h100z"/>
<glyph glyph-name="afii10017" horiz-adv-x="1230" unicode="А" d="M1129 0h-76q-14 0 -22 7.5t-12 18.5l-100 414h-634l-203 -414q-6 -11 -16.5 -18.5t-24.5 -7.5h-76l707 1415h98zM901 513l-175 720q-4 18 -8.5 40t-8.5 46q-9 -25 -19 -46.5t-18 -40.5l-352 -719h581z"/>
<glyph glyph-name="afii10018" horiz-adv-x="1137" unicode="Б" d="M387 1336l-69 -562h302q99 0 172.5 -22.5t122.5 -64t73 -100.5t24 -133q0 -105 -33 -189t-96 -143t-154 -90.5t-206 -31.5h-400l174 1415h794l-9 -79h-695zM308 695l-75 -616h300q93 0 163.5 24.5t118.5 71t72.5 114t24.5 153.5q0 124 -75 188.5t-228 64.5h-301z"/>
<glyph glyph-name="afii10019" horiz-adv-x="1176" unicode="В" d="M675 1415q102 0 176 -21t123 -60.5t72.5 -96.5t23.5 -129q0 -68 -21.5 -129.5t-62 -112t-99 -87.5t-131.5 -55q139 -23 211.5 -98.5t72.5 -196.5q0 -98 -33.5 -177.5t-97 -135.5t-154.5 -86t-206 -30h-425l174 1415h377zM388 1336l-72 -585h279q97 0 168 29t117 76.5 t68 108.5t22 126q0 119 -74.5 182t-229.5 63h-278zM557 79q186 0 285 90.5t99 256.5q0 58 -20.5 104.5t-60 79.5t-97 51t-131.5 18h-325l-74 -600h324z"/>
<glyph glyph-name="afii10020" horiz-adv-x="998" unicode="Г" d="M1051 1335h-664l-164 -1335h-100l174 1415h764z"/>
<glyph glyph-name="afii10021" horiz-adv-x="1403" unicode="Д" d="M1245 -323q-2 -14 -12 -23t-25 -9h-58l44 355h-1159l-40 -323q-1 -14 -11.5 -23t-25.5 -9h-58l54 435h121q35 15 71 50.5t72.5 101.5t74 166.5t75 244t76 334.5t77.5 438h712l-164 -1335h226zM969 80l154 1255h-517q-33 -197 -65.5 -357t-66 -288.5t-67 -227 t-67.5 -172.5t-68.5 -125t-69.5 -85h767z"/>
<glyph glyph-name="afii10022" horiz-adv-x="1078" unicode="Е" d="M388 1333l-71 -576h567l-11 -80h-566l-73 -595h684l-11 -82h-783l174 1415h782l-11 -82h-681z"/>
<glyph glyph-name="afii10024" horiz-adv-x="1856" unicode="Ж" d="M1396 823q-29 -36 -59 -58.5t-71 -33.5q41 -11 69.5 -35.5t49.5 -64.5l363 -631h-65q-23 0 -38.5 10t-23.5 27l-335 569q-21 38 -51 57.5t-83 19.5h-166l-84 -683h-94l84 683h-165q-54 0 -89 -19.5t-65 -57.5l-473 -569q-13 -17 -31 -27t-40 -10h-67l518 631 q32 40 66 64.5t78 35.5q-38 11 -62.5 33.5t-45.5 58.5l-357 592h76q17 0 30.5 -9t20.5 -24l330 -548q27 -46 60 -60t78 -14h147l80 655h95l-81 -655h148q23 0 43 3t38.5 11t37 22.5t37.5 37.5l465 548q11 15 26 24t32 9h77z"/>
<glyph glyph-name="afii10025" horiz-adv-x="1055" unicode="З" d="M201 1286q84 70 180.5 106t215.5 36q87 0 154.5 -23.5t113.5 -65.5t70 -99t24 -124q0 -69 -21.5 -127t-59 -103t-88 -76.5t-108.5 -48.5q57 -17 101.5 -47.5t74.5 -71t45.5 -90t15.5 -104.5q0 -95 -34 -179t-98 -147t-157 -99.5t-210 -36.5q-144 0 -243.5 49.5 t-167.5 135.5l32 42q6 7 12.5 11t15.5 4q10 0 22.5 -12t31.5 -29.5t45.5 -38t62.5 -38t84 -29.5t110 -12q94 0 168 29t125.5 79t78.5 118.5t27 148.5q0 58 -18.5 108t-55.5 87t-92 58t-127 21h-170l11 84h173q61 0 118.5 20t101.5 59t71 95t27 128q0 52 -18 96.5t-53 77 t-86.5 50.5t-118.5 18q-84 0 -143.5 -19t-100 -41.5t-64.5 -41.5t-37 -19q-15 0 -23 17z"/>
<glyph glyph-name="afii10026" horiz-adv-x="1403" unicode="И" d="M1306 1415l-174 -1415h-100l142 1154q3 32 8.5 65t13.5 68q-16 -30 -32 -55.5t-32 -47.5l-886 -1153q-9 -13 -22.5 -22t-30.5 -9h-70l174 1415h100l-142 -1154q-3 -32 -8.5 -65t-13.5 -68q16 30 32 55.5t32 47.5l886 1153q10 14 23 22.5t27 8.5h73z"/>
<glyph glyph-name="afii10027" horiz-adv-x="1403" unicode="Й" d="M1306 1415l-174 -1415h-100l142 1154q3 32 8.5 65t13.5 68q-16 -30 -32 -55.5t-32 -47.5l-886 -1153q-9 -13 -22.5 -22t-30.5 -9h-70l174 1415h100l-142 -1154q-3 -32 -8.5 -65t-13.5 -68q16 30 32 55.5t32 47.5l886 1153q10 14 23 22.5t27 8.5h73zM823 1572 q84 0 125.5 45t52.5 146h49q10 0 16 -10q4 -7 5 -16q0 -3 -1 -7q-11 -97 -74.5 -152t-178.5 -55q-114 0 -165 55q-41 45 -41 117q0 17 2 35q2 14 8 23.5t17 9.5h49q-3 -26 -3 -48q0 -65 24 -98q32 -45 115 -45z"/>
<glyph glyph-name="afii10028" horiz-adv-x="1190" unicode="К" d="M712 815q-28 -33 -57.5 -53.5t-67.5 -31.5q42 -9 67.5 -32t48.5 -64l386 -634h-87q-19 0 -30 9t-22 28l-352 576q-11 18 -21.5 31.5t-24.5 22t-32.5 12.5t-44.5 4h-168l-84 -683h-100l174 1415h99l-80 -655h150q23 0 42 3t36.5 11t35 22t36.5 36l472 551q11 14 25.5 23 t31.5 9h82z"/>
<glyph glyph-name="afii10029" horiz-adv-x="1310" unicode="Л" d="M1040 0h-101l164 1335h-517q-46 -281 -92 -490.5t-92.5 -359t-94.5 -246t-98 -152.5t-102.5 -77.5t-108.5 -21.5q-30 0 -52 6t-20 17l8 62h56q42 0 84 20.5t83.5 75t83.5 150t85 244.5t86.5 358.5t88.5 493.5h713z"/>
<glyph glyph-name="afii10030" horiz-adv-x="1686" unicode="М" d="M1589 1415l-174 -1415h-87l149 1209q3 25 9 53l-630 -990q-16 -25 -41 -25h-16q-27 0 -35 25l-402 993q0 -30 -3 -55l-148 -1210h-87l174 1415h68q14 0 21 -3.5t15 -15.5l404 -996q4 -11 7 -22.5t6 -23.5q10 22 24 46l638 996q10 12 17.5 15.5t21.5 3.5h69z"/>
<glyph glyph-name="afii10031" horiz-adv-x="1403" unicode="Н" d="M1306 1415l-174 -1415h-100l83 679h-808l-83 -679h-100l174 1415h100l-81 -661h808l81 661h100z"/>
<glyph glyph-name="afii10032" horiz-adv-x="1473" unicode="О" d="M1278 814q0 123 -31.5 221.5t-90.5 168t-142.5 107t-186.5 37.5q-130 0 -241 -52t-192.5 -149t-127.5 -235t-46 -310q0 -123 32 -221.5t91 -167.5t142 -106.5t186 -37.5q132 0 243 51.5t192 148.5t126.5 234.5t45.5 310.5zM1381 816q0 -187 -54.5 -340t-151.5 -262 t-229 -169t-286 -60q-124 0 -224 44.5t-170.5 125.5t-108.5 194t-38 250q0 186 55 339.5t151.5 263t228 169.5t284.5 60q125 0 225.5 -44.5t171 -125.5t108.5 -194.5t38 -250.5z"/>
<glyph glyph-name="afii10033" horiz-adv-x="1345" unicode="П" d="M1074 0h-100l164 1335h-751l-164 -1335h-100l174 1415h951z"/>
<glyph glyph-name="afii10034" horiz-adv-x="1078" unicode="Р" d="M637 1415q208 0 312 -93.5t104 -262.5q0 -108 -37 -197.5t-105 -154t-164 -100.5t-214 -36h-240l-70 -571h-99l173 1415h340zM543 651q94 0 169.5 30t129 83t82.5 126t29 159q0 136 -81.5 211.5t-244.5 75.5h-240l-84 -685h240z"/>
<glyph glyph-name="afii10035" horiz-adv-x="1258" unicode="С" d="M667 69q73 0 131 12.5t103 31t77.5 40t55.5 40t37 31t22 12.5q9 0 13 -6l36 -42q-92 -93 -211.5 -148.5t-279.5 -55.5q-122 0 -220.5 44t-168 125t-107 194t-37.5 251q0 185 56.5 338.5t155 263.5t232 170.5t288.5 60.5q73 0 131 -11.5t106.5 -33.5t89 -55t78.5 -75 l-32 -40q-11 -12 -26 -12q-9 0 -20.5 10.5t-29 26t-43 34t-62 34t-85.5 26t-113 10.5q-132 0 -246 -52t-198 -148t-132 -233t-48 -307q0 -124 33 -223.5t92 -169t141 -106.5t181 -37z"/>
<glyph glyph-name="afii10036" horiz-adv-x="1065" unicode="Т" d="M1127 1331h-455l-164 -1331h-99l164 1331h-459l10 84h1013z"/>
<glyph glyph-name="afii10037" horiz-adv-x="1122" unicode="У" d="M1190 1415l-687 -1247q-28 -50 -56.5 -84.5t-59.5 -55.5t-64.5 -30.5t-70.5 -9.5q-38 0 -59 7.5t-19 24.5l6 53h57q59 0 104 31.5t85 104.5l103 187l-402 1019h90q14 0 21.5 -6.5t12.5 -18.5l301 -808q9 -26 16 -53t12 -54q22 54 51 107l434 808q7 11 16.5 18t23.5 7h85z "/>
<glyph glyph-name="afii10038" horiz-adv-x="1408" unicode="Ф" d="M840 1321q118 -2 210 -43.5t155.5 -111.5t96.5 -161.5t33 -192.5q0 -129 -46.5 -244t-130.5 -201.5t-201 -138t-258 -53.5l-22 -175h-95l21 175q-118 1 -210 42.5t-155.5 111.5t-97 162t-33.5 194q0 129 47.5 243.5t132.5 201t202 138t255 53.5l20 165h96zM734 1243 q-116 -1 -212.5 -46t-166 -120.5t-108.5 -175.5t-39 -212q0 -88 27.5 -166.5t79 -138t127 -95t171.5 -36.5zM708 253q115 1 212 46t167 120.5t109 176t39 212.5q0 87 -27.5 165.5t-79 138t-127 95t-171.5 36.5z"/>
<glyph glyph-name="afii10039" horiz-adv-x="1166" unicode="Х" d="M673 761l396 -761h-89q-14 0 -20 8t-11 16l-345 680q-6 -14 -15 -24l-500 -656q-17 -24 -40 -24h-98l584 756l-350 659h89q14 0 20 -5t12 -16l301 -587q7 14 15 26l432 564q12 18 32 18h99z"/>
<glyph glyph-name="afii10040" horiz-adv-x="1409" unicode="Ц" d="M1297 80l-49 -403q-2 -14 -12 -23t-25 -9h-58l44 355h-1074l174 1415h100l-164 -1335h751l164 1335h100l-164 -1335h213z"/>
<glyph glyph-name="afii10041" horiz-adv-x="1194" unicode="Ч" d="M1097 1415l-174 -1415h-100l83 673q-107 -33 -208.5 -54t-191.5 -25q-17 -1 -34 -1q-70 -1 -128 13q-72 16 -121 59t-71 115q-13 44 -13 100q0 37 6 79l55 456h101l-57 -456q-4 -32 -4 -61q0 -78 30 -126q40 -66 128 -89q48 -12 108 -12q51 1 111 9q131 18 298 68l82 667 h100z"/>
<glyph glyph-name="afii10042" horiz-adv-x="1975" unicode="Ш" d="M1878 1415l-174 -1415h-1581l174 1415h100l-164 -1335h637l164 1335h100l-164 -1335h644l163 1335h101z"/>
<glyph glyph-name="afii10043" horiz-adv-x="2040" unicode="Щ" d="M1927 80l-49 -403q-2 -14 -12 -23t-25 -9h-58l44 355h-1704l174 1415h100l-164 -1335h637l164 1335h100l-164 -1335h644l163 1335h101l-164 -1335h213z"/>
<glyph glyph-name="afii10044" horiz-adv-x="1318" unicode="Ъ" d="M831 774q99 0 172.5 -22.5t122.5 -64t73 -100.5t24 -133q0 -105 -33 -189t-96 -143t-154 -90.5t-206 -31.5h-400l164 1333h-390l10 82h489l-78 -641h302zM744 79q93 0 163.5 24.5t118.5 71t72.5 114t24.5 153.5q0 124 -75 188.5t-228 64.5h-301l-75 -616h300z"/>
<glyph glyph-name="afii10045" horiz-adv-x="1594" unicode="Ы" d="M620 774q99 0 172.5 -22.5t122.5 -64t73 -100.5t24 -133q0 -105 -33 -189t-96 -143t-154 -90.5t-206 -31.5h-400l174 1415h99l-78 -641h302zM533 79q93 0 163.5 24.5t118.5 71t72.5 114t24.5 153.5q0 124 -75 188.5t-228 64.5h-301l-75 -616h300zM1324 0h-100l173 1415 h100z"/>
<glyph glyph-name="afii10046" horiz-adv-x="1108" unicode="Ь" d="M620 774q99 0 172.5 -22.5t122.5 -64t73 -100.5t24 -133q0 -105 -33 -189t-96 -143t-154 -90.5t-206 -31.5h-400l174 1415h99l-78 -641h302zM533 79q93 0 163.5 24.5t118.5 71t72.5 114t24.5 153.5q0 124 -75 188.5t-228 64.5h-301l-75 -616h300z"/>
<glyph glyph-name="afii10047" horiz-adv-x="1269" unicode="Э" d="M181 1260q96 82 205 126.5t245 44.5q127 0 228 -45.5t171.5 -127.5t108 -195.5t37.5 -249.5q0 -186 -53.5 -339t-148 -261.5t-224 -168.5t-281.5 -60q-81 0 -146.5 14.5t-119.5 41t-98 64t-80 83.5l44 42q8 7 18 7t17 -10q34 -39 71.5 -68t81 -49t96.5 -30t119 -10 q111 0 211.5 42t180 121.5t133 194t70.5 259.5h-722l9 77h719q1 11 1 23v24q0 122 -32 221t-91 169t-142.5 108t-187.5 38q-92 0 -160.5 -22t-116.5 -48t-77 -48t-40 -22q-16 0 -22 12z"/>
<glyph glyph-name="afii10048" horiz-adv-x="1919" unicode="Ю" d="M678 750q21 154 78.5 280t144 215t197 137.5t237.5 48.5q113 0 203.5 -44t154 -124t97.5 -191.5t34 -246.5q0 -126 -23 -237t-65.5 -204t-102.5 -166.5t-134 -125t-160 -78.5t-181 -27q-113 0 -204 43.5t-154.5 122.5t-97.5 190t-34 246q0 42 3 81h-365l-82 -670h-100 l173 1415h100l-81 -665h362zM1168 70q119 0 220.5 52.5t176 150t116.5 237.5t42 314q0 120 -27.5 216.5t-79.5 165t-125.5 105.5t-165.5 37q-119 0 -221 -53t-176.5 -151.5t-116.5 -238.5t-42 -314q0 -120 27.5 -216.5t79.5 -164t126 -104t166 -36.5z"/>
<glyph glyph-name="afii10049" horiz-adv-x="1206" unicode="Я" d="M935 0h-100l79 641h-229q-26 0 -49.5 -4.5t-46.5 -16.5t-47.5 -33.5t-52.5 -55.5l-406 -494q-12 -17 -30 -27t-40 -10h-75l447 542q35 44 69.5 71t71.5 42q-154 19 -230.5 104t-76.5 217q0 102 33 183.5t95.5 138t153 87t205.5 30.5h402zM999 1335h-303q-186 0 -282 -91 t-96 -264q0 -125 74.5 -192.5t226.5 -67.5h305z"/>
<glyph glyph-name="afii10065" horiz-adv-x="997" unicode="а" d="M727 346q-38 -80 -83.5 -146.5t-97.5 -113.5t-109 -73t-118 -26q-62 0 -109.5 24.5t-79 69.5t-47.5 109t-16 144q0 87 22.5 170.5t62.5 158.5t96 138t124 109t145 72t159 26q59 0 111.5 -10.5t102.5 -36.5l-117 -961h-46q-20 0 -27 11t-7 25zM792 917q-30 11 -62 15.5 t-65 4.5q-100 0 -191 -49t-160 -131t-110 -188t-41 -220q0 -134 45.5 -208.5t141.5 -74.5q57 0 112 32t105.5 90t94.5 139.5t79 180.5z"/>
<glyph glyph-name="afii10066" horiz-adv-x="1061" unicode="б" d="M1028 1474v-46q0 -35 -34 -43l-261 -42q-103 -16 -180 -54.5t-133 -92t-94 -119.5t-62 -138.5t-37 -148t-19 -148.5q30 81 77.5 145.5t107.5 109.5t129.5 69t143.5 24q62 0 116 -22.5t93.5 -67.5t62.5 -113.5t23 -160.5q0 -77 -16 -154.5t-46.5 -148.5t-74.5 -132.5 t-99 -106.5t-121 -71t-141 -26q-68 0 -129 24t-107.5 79.5t-73.5 147t-27 225.5q0 85 7.5 183.5t30 197.5t62.5 193.5t105 172.5t158.5 133t222.5 77zM637 921q-89 0 -165.5 -43t-132.5 -113.5t-88 -162.5t-32 -189q0 -176 66 -265t183 -89q59 0 111.5 22.5t97 62.5t79.5 94 t60 116t38 129.5t13 135.5q0 73 -16.5 129.5t-46.5 94.5t-72.5 58t-94.5 20z"/>
<glyph glyph-name="afii10067" horiz-adv-x="936" unicode="в" d="M548 551h8q118 0 184 -55q68 -57 68 -162q0 -69 -31.5 -132t-85.5 -111t-127 -76.5t-157 -28.5q-82 0 -144.5 28t-105 77.5t-64 117t-21.5 146.5q0 80 16.5 159.5t48 152t77 135t102.5 108.5t124.5 72t144.5 26q63 0 108 -17t73.5 -44.5t41.5 -61.5t13 -68 q0 -39 -13.5 -77t-45.5 -72.5t-84.5 -64.5t-129.5 -52zM387 558q115 21 184.5 49.5t107 61t50 66.5t12.5 67q0 23 -8 47.5t-27.5 45t-51.5 33.5t-80 13q-76 0 -140 -34.5t-114.5 -93t-85.5 -135t-52 -161.5zM172 455q-6 -45 -6 -89v-8q0 -62 15 -114q16 -56 47.5 -97.5 t78.5 -64.5t110 -23q61 1 116 23t96.5 59.5t66 87t24.5 104.5q0 44 -16 82t-52 62.5t-96 32.5q-19 2 -40 2q-46 0 -106 -11z"/>
<glyph glyph-name="afii10068" horiz-adv-x="807" unicode="г" d="M459 1010q52 0 98.5 -12.5t81.5 -37t55.5 -60.5t20.5 -84q0 -50 -25 -93.5t-66 -82.5t-93.5 -74t-107.5 -69t-107.5 -67t-93.5 -68t-66 -72.5t-25 -79.5q0 -32 15.5 -59.5t43.5 -47t67 -30.5t85 -11q57 0 106 15t87 33.5t63.5 33.5t36.5 15q18 0 27 -17l19 -28 q-74 -60 -166 -93.5t-186 -33.5q-68 0 -122 17t-91.5 46.5t-57.5 68.5t-20 84q0 51 25 96t66.5 85t94 76t107.5 70t107.5 67t94 67t66.5 70t25 76q0 54 -47 89.5t-130 35.5q-53 0 -97.5 -14t-79 -30.5t-57.5 -31t-34 -15.5q-5 0 -10.5 2.5t-10.5 10.5l-19 37 q31 27 69.5 48.5t80.5 36.5t85 23t85 8z"/>
<glyph glyph-name="afii10069" horiz-adv-x="1029" unicode="д" d="M277 1424q45 4 86 4q103 0 189 -24q120 -32 201 -110t122.5 -203.5t41.5 -298.5q0 -201 -43 -352t-114 -251.5t-163.5 -150.5t-192.5 -50q-73 0 -133 27.5t-103 80t-66.5 128t-23.5 171.5q0 74 15 148.5t43.5 142t70 126t94.5 102t117.5 68t138.5 24.5q91 0 160.5 -38 t113.5 -111q-13 267 -145 390q-119 111 -345 111q-24 0 -49 -1q-25 0 -20 24zM417 64q77 0 150 43t130 131.5t91.5 225t35.5 323.5q-35 66 -99 107t-152 41q-63 0 -117.5 -21.5t-99 -59.5t-79 -90t-58 -112t-35.5 -126.5t-12 -133.5q0 -82 18.5 -143.5t51 -102.5t77 -61.5 t98.5 -20.5z"/>
<glyph glyph-name="afii10070" horiz-adv-x="940" unicode="е" d="M818 185q-49 -52 -95.5 -89.5t-94 -61.5t-98.5 -35.5t-109 -11.5q-83 0 -147.5 27.5t-108.5 78t-67 123t-23 162.5q0 75 15 151t44.5 146t73 131t99.5 106t124 71t147 26q73 0 123.5 -20.5t82 -51t45.5 -66t14 -66.5q0 -41 -11 -78t-39 -70t-76 -62t-122.5 -53.5 t-178.5 -44.5t-244 -35q-2 -20 -3.5 -41t-1.5 -41q0 -149 67.5 -233t203.5 -84q53 0 95.5 11.5t76 29.5t59 38t45.5 38t34.5 29.5t26.5 11.5t21 -10zM573 939q-80 0 -144.5 -33.5t-114 -90.5t-83 -131.5t-49.5 -155.5q127 14 219 32.5t156 39t104 44.5t61.5 49.5t29 52.5 t7.5 56q0 21 -9.5 45.5t-31.5 44.5t-57.5 33.5t-87.5 13.5z"/>
<glyph glyph-name="afii10072" horiz-adv-x="1729" unicode="ж" d="M872 294q35 69 85 149t108 159.5t121 153t125.5 130t121 90t106.5 33.5q42 0 78.5 -12t77.5 -41l-22 -37q-5 -8 -11 -11.5t-12 -4.5t-16 3.5t-23.5 10.5t-31.5 11t-42 5q-59 0 -112.5 -47t-94.5 -128.5t-65 -190.5t-24 -233q0 -73 9 -124.5t26.5 -84t44 -47.5t61.5 -15 q36 0 63 11t46.5 24.5t32 24.5t19.5 12q14 2 22 -9l20 -36q-26 -29 -54.5 -48.5t-57 -31.5t-56 -17t-51.5 -5q-97 0 -152 75.5t-55 236.5q0 134 29 254t81 214q-54 -57 -111.5 -131t-113 -158.5t-105 -177t-85.5 -185.5l-12 -117h-82l72 708q-35 -70 -84.5 -150t-107.5 -160 t-121.5 -154t-126.5 -130.5t-121.5 -90.5t-106.5 -34q-42 0 -78.5 12t-77.5 41l22 37q10 16 22 16q7 1 16.5 -3.5t23.5 -10t32 -10.5t42 -5q59 0 112.5 47t94.5 128.5t65 190.5t24 233q0 73 -9 124.5t-26.5 84t-44 47.5t-61.5 15q-36 0 -63.5 -11t-47 -24.5t-32 -24.5 t-18.5 -12q-16 -2 -23 8l-19 36q26 30 54.5 49.5t57 31t56 16.5t51.5 5q97 0 152 -75t55 -237q0 -134 -29 -253t-81 -213q54 57 112.5 131t114 159.5t105 178.5t85.5 187l11 109h82z"/>
<glyph glyph-name="afii10073" horiz-adv-x="847" unicode="з" d="M136 874q25 29 60 54t78.5 43.5t93.5 29t104 10.5q72 0 123 -18.5t83.5 -49t47.5 -69t15 -78.5q0 -37 -12.5 -76t-40 -74t-72.5 -62.5t-110 -40.5q52 -8 91 -27.5t65 -49t39 -66t13 -78.5q0 -65 -28 -125t-80 -107t-126.5 -75t-167.5 -28q-51 0 -96.5 9.5t-85 25.5 t-71.5 37.5t-56 45.5l22 36q4 5 9.5 9.5t12.5 4.5q13 0 32.5 -15t50 -33t75.5 -33t109 -15q72 0 129.5 21t98 57.5t62.5 85t22 103.5q0 87 -62 134.5t-183 47.5q-30 0 -60.5 -2.5t-65.5 -6.5q0 19 1.5 37t8.5 37q28 -2 55 -3.5t56 -1.5h14q58 0 105 14q52 16 87.5 45.5 t54 69t18.5 83.5q0 30 -10 58.5t-33.5 50.5t-61.5 35.5t-93 13.5q-71 0 -120 -16.5t-81.5 -36t-51 -36t-28.5 -17.5q-6 -1 -10 1t-10 10z"/>
<glyph glyph-name="afii10074" horiz-adv-x="1032" unicode="и" d="M925 995l-120 -995h-44q-19 0 -27.5 10t-8.5 27l30 283q-41 -79 -90 -141t-103.5 -104.5t-113 -65t-116.5 -22.5q-128 1 -183 99q-39 70 -39 181q0 44 6 95l75 633h94l-75 -633q-5 -46 -5 -85q0 -83 24 -135q36 -76 135 -76q55 0 111.5 28t109.5 80.5t100 126t83 165.5 l63 529h94z"/>
<glyph glyph-name="afii10075" horiz-adv-x="1032" unicode="й" d="M925 995l-120 -995h-44q-19 0 -27.5 10t-8.5 27l30 283q-41 -79 -90 -141t-103.5 -104.5t-113 -65t-116.5 -22.5q-128 1 -183 99q-39 70 -39 181q0 44 6 95l75 633h94l-75 -633q-5 -46 -5 -85q0 -83 24 -135q36 -76 135 -76q55 0 111.5 28t109.5 80.5t100 126t83 165.5 l63 529h94zM606 1223q84 0 126 45.5t53 146.5h49q11 1 16 -9q4 -7 4 -16q0 -4 -1 -8q-11 -96 -75 -154t-178 -58q-115 0 -165 58q-41 48 -41 121q0 16 2 33q2 14 8.5 23.5t17.5 9.5h50q-3 -28 -3 -51q0 -62 23 -96q32 -46 114 -45z"/>
<glyph glyph-name="afii10076" horiz-adv-x="904" unicode="к" d="M672 877q42 58 83 89.5t100 31.5h42l-9 -48q-3 -14 -16 -18.5t-31 -10t-39.5 -17t-42.5 -40.5l-194 -249q-14 -19 -27 -33.5t-28 -25.5t-32.5 -19t-39.5 -13q50 -10 83.5 -39t56.5 -77l218 -408h-54q-25 0 -38.5 8.5t-21.5 24.5l-193 354q-21 42 -55.5 69.5t-81.5 27.5 l-124 -21l-56 -463h-91l120 995h91l-56 -467l119 22q42 8 69 25t52 49z"/>
<glyph glyph-name="afii10077" horiz-adv-x="1058" unicode="л" d="M299 523q34 128 77.5 218t105.5 146.5t147 82t203 25.5h121l-122 -995h-91l112 922h-38q-92 0 -158.5 -21.5t-115.5 -69.5t-84.5 -124.5t-65.5 -187.5q-38 -150 -75.5 -251.5t-79.5 -164t-90.5 -89t-108.5 -26.5q-30 0 -42.5 5.5t-11.5 17.5l7 52h33q49 0 86 25.5 t68.5 81t60.5 142.5t62 211z"/>
<glyph glyph-name="afii10078" horiz-adv-x="1354" unicode="м" d="M1249 1000l-123 -1000h-85l101 816q3 26 11 56l-501 -813q-6 -9 -13.5 -15t-17.5 -6h-14q-9 0 -15 6t-10 15l-266 816q-2 -16 -4 -33t-5 -30q-37 -208 -81.5 -400.5t-105.5 -379.5q-5 -14 -16 -23t-28 -9h-53q40 125 74.5 243t64 239t55.5 248t51 270h69q10 0 19 -3.5 t14 -17.5l257 -766q8 -26 13 -50q7 17 20 39l479 777q8 13 17.5 17t19.5 4h73z"/>
<glyph glyph-name="afii10079" horiz-adv-x="1026" unicode="н" d="M920 995l-120 -995h-94l59 490h-531l-59 -490h-94l120 995h94l-52 -434h531l52 434h94z"/>
<glyph glyph-name="afii10080" horiz-adv-x="1026" unicode="о" d="M433 -13q-80 0 -145.5 28t-112 81t-72 128.5t-25.5 171.5q0 121 36 232t101.5 196t155.5 135.5t198 50.5q80 0 145.5 -28t112 -81t72 -128.5t25.5 -169.5q0 -121 -36.5 -232t-101.5 -196.5t-155 -136.5t-198 -51zM441 62q87 0 158.5 45.5t122.5 121t78.5 173t27.5 200.5 q0 160 -71 246t-197 86q-87 0 -158.5 -45t-122 -119.5t-78.5 -171.5t-28 -202q0 -159 70.5 -246.5t197.5 -87.5z"/>
<glyph glyph-name="afii10081" horiz-adv-x="1032" unicode="п" d="M251 675q40 79 89.5 141.5t104.5 105.5t113 65.5t117 22.5q64 0 109.5 -25t73.5 -73t36 -118q4 -30 3 -64q0 -44 -6 -94l-75 -636h-94l75 636q5 46 5 84q0 82 -24 134q-36 76 -135 76q-56 0 -112.5 -28.5t-110 -81t-100.5 -127t-83 -167.5l-61 -526h-94l119 998h43 q35 0 35 -36z"/>
<glyph glyph-name="afii10082" horiz-adv-x="1032" unicode="р" d="M249 649q39 81 87.5 147.5t102.5 114t113 73.5t120 26q65 0 114 -25t82 -70.5t50 -110.5t17 -145q0 -77 -16 -156.5t-45.5 -154t-72 -140.5t-96.5 -115t-118.5 -77.5t-136.5 -28.5q-81 0 -149.5 36t-111.5 106l-59 -481h-92l164 1350h43q35 0 35 -36zM198 205 q44 -79 108 -111t133 -32q63 0 117.5 25.5t99 69.5t79 102.5t58 123.5t36 133.5t12.5 133.5q0 134 -51 208.5t-149 74.5q-57 0 -114.5 -32t-110.5 -90t-100 -139.5t-83 -181.5z"/>
<glyph glyph-name="afii10083" horiz-adv-x="911" unicode="с" d="M801 182q-53 -59 -100.5 -97t-93 -60t-92.5 -30t-100 -8q-86 0 -149.5 29.5t-105.5 82.5t-63 126t-21 159q0 79 16.5 156.5t47.5 147.5t75 129t99 102t119.5 67.5t137.5 24.5q49 0 88.5 -9.5t72.5 -27t60 -42.5t50 -56l-28 -33q-9 -11 -21 -11q-10 0 -24.5 16t-39 34.5 t-63.5 34.5t-98 16q-84 0 -156.5 -45t-126 -121t-84 -175.5t-30.5 -207.5q0 -69 15.5 -128t48 -102t81.5 -67t116 -24q53 0 95 11.5t74.5 28.5t57 37.5t43.5 37.5t32.5 28.5t24.5 11.5t21 -10z"/>
<glyph glyph-name="afii10084" horiz-adv-x="1560" unicode="т" d="M81 0l120 998h43q35 0 35 -36l-28 -278q78 155 180 240.5t215 85.5q58 0 96 -21t59 -61.5t27 -99.5q3 -30 3 -63.5t-3 -71.5q39 80 85.5 139.5t98 99t105.5 59t107 19.5q65 0 107.5 -25t65.5 -73t27 -118q1 -20 2 -41q0 -53 -8 -117l-75 -636h-93l75 636q8 61 8 110 q-1 8 -1 16q-2 55 -16 92.5t-43.5 56.5t-78.5 19t-99.5 -22.5t-99 -67.5t-92 -113t-78.5 -160l-67 -567h-93l75 636q9 71 9 126t-13 92.5t-41.5 56.5t-77.5 19q-114 0 -210.5 -104t-169.5 -294l-63 -532h-93z"/>
<glyph glyph-name="afii10085" horiz-adv-x="929" unicode="у" d="M944 995l-691 -1319q-14 -28 -41 -28h-67l210 390l-267 957h74q14 0 21 -6.5t9 -17.5l210 -774q4 -15 5.5 -30t3.5 -30q6 15 13 30l14 30l401 777q5 11 14 16t18 5h73z"/>
<glyph glyph-name="afii10086" horiz-adv-x="1415" unicode="ф" d="M789 894q45 54 113 85t147 31q59 0 108 -20.5t84 -64t54.5 -111.5t19.5 -162q0 -81 -14 -161.5t-40.5 -154.5t-65.5 -137.5t-89 -110.5t-110.5 -74t-130.5 -27q-58 0 -102.5 21t-73.5 52l-45 -369q-3 -20 -17.5 -33t-37.5 -13h-43l55 458q-45 -54 -113 -85t-147 -31 q-59 0 -107.5 20.5t-83.5 64t-54.5 111.5t-19.5 162q0 81 14 161.5t40.5 154t65.5 137.5t88.5 111t110 74t130.5 27q58 0 103 -21t74 -53l57 473q3 20 17.5 33t37.5 13h43zM695 877q-32 32 -72.5 45.5t-83.5 13.5q-60 0 -110.5 -24t-92 -66t-72.5 -98.5t-52.5 -121.5 t-32 -135t-10.5 -139q0 -80 15 -135t42 -89t64.5 -49t81.5 -15q35 0 71.5 9t68.5 25.5t58.5 40.5t41.5 54zM696 118q32 -31 72 -44.5t83 -13.5q60 0 110.5 24t92 66t72.5 98.5t52.5 121.5t32 135t10.5 139q0 80 -15 135.5t-42 89.5t-64.5 49t-81.5 15q-35 0 -71 -9 t-68.5 -25.5t-58.5 -40.5t-42 -54z"/>
<glyph glyph-name="afii10087" horiz-adv-x="872" unicode="х" d="M489 531l279 -531h-80q-24 0 -33 22l-234 457q-8 -16 -16 -28l-334 -431q-7 -8 -14.5 -14t-19.5 -6h-80l414 533l-251 462h80q13 0 19 -3.5t11 -11.5l209 -398q7 15 16 27l288 369q10 17 27 17h84z"/>
<glyph glyph-name="afii10088" horiz-adv-x="1081" unicode="ц" d="M980 71l-93 -395q-2 -15 -10.5 -23t-22.5 -8h-53l88 355h-128q-19 0 -27.5 10t-8.5 27l30 283q-41 -79 -90 -141t-103.5 -104.5t-113 -65t-116.5 -22.5q-128 1 -183 99q-39 70 -39 181q0 44 6 95l75 633h94l-75 -633q-5 -46 -5 -85q0 -83 24 -135q36 -76 135 -76 q55 0 111.5 28t109.5 80.5t100 126t83 165.5l63 529h94l-111 -924h166z"/>
<glyph glyph-name="afii10089" horiz-adv-x="921" unicode="ч" d="M814 995l-120 -995h-94l65 539q-30 -45 -68 -84t-83.5 -68.5t-97 -46t-107.5 -16.5q-65 0 -109.5 23.5t-69.5 65.5q-26 41 -34 99q-4 28 -3 59q0 32 4 67l41 357h94l-41 -357q-3 -27 -3 -52q0 -20 2 -40q5 -42 23 -74t50 -50t81 -18q55 0 105.5 19.5t94 54t78 81.5 t58.5 101l40 335h94z"/>
<glyph glyph-name="afii10090" horiz-adv-x="1560" unicode="ш" d="M1453 995l-120 -995h-43q-18 0 -26.5 9.5t-8.5 26.5l27 278q-39 -77 -84 -138t-95.5 -103t-104.5 -64t-110 -22q-58 0 -96 21.5t-59 62t-27 99.5q-3 30 -3 63t3 71q-39 -80 -85.5 -139.5t-98 -99t-105.5 -59t-107 -19.5q-65 0 -107.5 25.5t-65.5 73.5t-27 118 q-1 20 -2 41q0 53 8 117l75 633h93l-75 -633q-8 -61 -8 -110q1 -8 1 -16q2 -56 16 -93.5t43.5 -57t78.5 -19.5t99.5 22.5t99 68t92 114t78.5 160.5l67 564h93l-75 -633q-9 -71 -9 -126.5t13 -93t41.5 -57t77.5 -19.5q57 0 109.5 27t100.5 78t91 125.5t79 169.5l63 529h93z "/>
<glyph glyph-name="afii10091" horiz-adv-x="1603" unicode="щ" d="M1496 71l-93 -395q-2 -15 -10.5 -23t-22.5 -8h-54l88 355h-114q-18 0 -26.5 9.5t-8.5 26.5l27 278q-39 -77 -84 -138t-95.5 -103t-104.5 -64t-110 -22q-58 0 -96 21.5t-59 62t-27 99.5q-3 30 -3 63t3 71q-39 -80 -85.5 -139.5t-98 -99t-105.5 -59t-107 -19.5 q-65 0 -107.5 25.5t-65.5 73.5t-27 118q-1 20 -2 41q0 53 8 117l75 633h93l-75 -633q-8 -61 -8 -110q1 -8 1 -16q2 -56 16 -93.5t43.5 -57t78.5 -19.5t99.5 22.5t99 68t92 114t78.5 160.5l67 564h93l-75 -633q-9 -71 -9 -126.5t13 -93t41.5 -57t77.5 -19.5q57 0 109.5 27 t100.5 78t91 125.5t79 169.5l63 529h93l-111 -924h154z"/>
<glyph glyph-name="afii10092" horiz-adv-x="997" unicode="ъ" d="M526 946q-50 -62 -87 -127t-62 -130t-40 -129.5t-22 -125.5q30 51 71.5 92.5t90 71.5t101 46.5t103.5 16.5q54 0 95.5 -18.5t69.5 -51t42.5 -77t14.5 -97.5q0 -80 -32.5 -157.5t-89.5 -138t-134.5 -97.5t-167.5 -37q-59 0 -108 18t-84.5 58t-55.5 102.5t-20 151.5 q0 69 12.5 143.5t39 151.5t68 155.5t99.5 155.5h-362l5 33q2 17 13.5 28t33.5 11h413zM491 56q62 0 120 28.5t103 76.5t72.5 111t27.5 133q0 37 -8.5 71t-27.5 60t-50 41t-75 15q-59 0 -121 -27.5t-112.5 -73t-83 -105.5t-32.5 -125q0 -50 14 -88.5t38.5 -64.5t59 -39 t75.5 -13z"/>
<glyph glyph-name="afii10093" horiz-adv-x="1230" unicode="ы" d="M218 434q29 47 68.5 88.5t85 72t95 48.5t98.5 18q55 0 96.5 -18t70 -50.5t43 -76.5t14.5 -95q0 -85 -37.5 -163.5t-99.5 -138.5t-143.5 -96t-169.5 -36q-65 0 -112.5 17t-78 46.5t-42.5 69.5q-8 27 -9 58q0 15 2 30l96 787h92zM191 202q-1 -9 -1 -17q0 -21 7 -41 q10 -26 32 -45.5t56 -31t79 -11.5q64 0 125 30t107.5 79.5t75 113t28.5 130.5q0 36 -8.5 69t-27.5 58.5t-50 40.5t-75 15q-56 0 -113.5 -29t-105.5 -76t-82 -106t-41 -120zM1123 995l-120 -995h-94l120 995h94z"/>
<glyph glyph-name="afii10094" horiz-adv-x="882" unicode="ь" d="M218 434q29 47 68.5 88.5t85 72t95 48.5t98.5 18q55 0 96.5 -18t70 -50.5t43 -76.5t14.5 -95q0 -85 -37.5 -163.5t-99.5 -138.5t-143.5 -96t-169.5 -36q-65 0 -112.5 17t-78 46.5t-42.5 69.5q-8 27 -9 58q0 15 2 30l96 787h92zM191 202q-1 -9 -1 -17q0 -21 7 -41 q10 -26 32 -45.5t56 -31t79 -11.5q64 0 125 30t107.5 79.5t75 113t28.5 130.5q0 36 -8.5 69t-27.5 58.5t-50 40.5t-75 15q-56 0 -113.5 -29t-105.5 -76t-82 -106t-41 -120z"/>
<glyph glyph-name="afii10095" horiz-adv-x="912" unicode="э" d="M106 892q40 31 78 53.5t76 37t78 21.5t86 7q96 0 168 -33.5t119.5 -93t71 -140t23.5 -174.5q0 -77 -15.5 -150t-44.5 -138t-71 -119t-95.5 -93t-117.5 -61t-137 -22q-97 0 -170.5 36t-119.5 99l25 30q9 11 22 11q8 0 24.5 -16t45.5 -35t71.5 -35t102.5 -16 q79 0 144.5 32.5t114.5 89t80 131.5t42 161h-498l8 67h496v24q0 79 -18 147t-55.5 118t-94 78t-133.5 28q-63 0 -108 -15t-76.5 -32.5t-51 -32t-32.5 -13.5q-11 1 -15.5 5t-8.5 10z"/>
<glyph glyph-name="afii10096" horiz-adv-x="1358" unicode="ю" d="M488 533q17 99 56 186t97 151.5t131.5 102t159.5 37.5q73 0 132.5 -28t102 -79.5t65.5 -126t23 -167.5q0 -122 -34 -234t-95.5 -198.5t-146 -138t-185.5 -51.5q-72 0 -131 27.5t-100.5 79.5t-64 127t-22.5 169q0 38 3 74h-250l-57 -464h-92l122 995h93l-57 -462h250z M805 62q80 0 145.5 46.5t112 123t72 175t25.5 202.5q0 156 -63 240.5t-176 84.5q-80 0 -145 -45.5t-112 -121.5t-72.5 -174t-25.5 -204q1 -155 63 -241t176 -86z"/>
<glyph glyph-name="afii10097" horiz-adv-x="968" unicode="я" d="M862 995l-122 -995h-87l55 448h-171q-30 0 -53.5 -5.5t-41.5 -17t-32.5 -27.5t-27.5 -37l-171 -265q-36 -59 -80.5 -82t-102.5 -23q-34 0 -47 5.5t-11 17.5l6 49h34q40 0 72.5 17.5t59.5 58.5l159 239q20 31 47.5 53t67.5 34q-68 7 -115.5 28.5t-77.5 54t-43.5 72.5 t-13.5 84q0 51 19.5 103t61.5 93.5t108.5 68t160.5 26.5h346zM767 931h-251q-72 0 -122 -21.5t-80.5 -55t-44 -74t-13.5 -78.5q0 -43 16 -78.5t46 -61t74 -39.5t100 -14h223z"/>
<glyph glyph-name="uni0450" horiz-adv-x="940" unicode="ѐ" d="M818 185q-49 -52 -95.5 -89.5t-94 -61.5t-98.5 -35.5t-109 -11.5q-83 0 -147.5 27.5t-108.5 78t-67 123t-23 162.5q0 75 15 151t44.5 146t73 131t99.5 106t124 71t147 26q73 0 123.5 -20.5t82 -51t45.5 -66t14 -66.5q0 -41 -11 -78t-39 -70t-76 -62t-122.5 -53.5 t-178.5 -44.5t-244 -35q-2 -20 -3.5 -41t-1.5 -41q0 -149 67.5 -233t203.5 -84q53 0 95.5 11.5t76 29.5t59 38t45.5 38t34.5 29.5t26.5 11.5t21 -10zM573 939q-80 0 -144.5 -33.5t-114 -90.5t-83 -131.5t-49.5 -155.5q127 14 219 32.5t156 39t104 44.5t61.5 49.5t29 52.5 t7.5 56q0 21 -9.5 45.5t-31.5 44.5t-57.5 33.5t-87.5 13.5zM502 1431q22 0 32.5 -7t18.5 -25l117 -238h-50q-11 0 -18.5 3.5t-12.5 13.5l-172 253h85z"/>
<glyph glyph-name="afii10071" horiz-adv-x="940" unicode="ё" d="M818 185q-49 -52 -95.5 -89.5t-94 -61.5t-98.5 -35.5t-109 -11.5q-83 0 -147.5 27.5t-108.5 78t-67 123t-23 162.5q0 75 15 151t44.5 146t73 131t99.5 106t124 71t147 26q73 0 123.5 -20.5t82 -51t45.5 -66t14 -66.5q0 -41 -11 -78t-39 -70t-76 -62t-122.5 -53.5 t-178.5 -44.5t-244 -35q-2 -20 -3.5 -41t-1.5 -41q0 -149 67.5 -233t203.5 -84q53 0 95.5 11.5t76 29.5t59 38t45.5 38t34.5 29.5t26.5 11.5t21 -10zM573 939q-80 0 -144.5 -33.5t-114 -90.5t-83 -131.5t-49.5 -155.5q127 14 219 32.5t156 39t104 44.5t61.5 49.5t29 52.5 t7.5 56q0 21 -9.5 45.5t-31.5 44.5t-57.5 33.5t-87.5 13.5zM854 1284q0 -16 -7 -30.5t-18 -25.5t-26.5 -17.5t-31.5 -6.5q-17 0 -31.5 6.5t-26 17.5t-18 25.5t-6.5 30.5q0 17 6.5 32t18 26.5t26 18t31.5 6.5q16 0 31.5 -6.5t26.5 -18t18 -26.5t7 -32zM521 1284 q0 -16 -7 -30.5t-18 -25.5t-26.5 -17.5t-31.5 -6.5t-30.5 6.5t-26 17.5t-18 25.5t-6.5 30.5q0 17 6.5 32t18 26.5t26 18t30.5 6.5t31.5 -6.5t26.5 -18t18 -26.5t7 -32z"/>
<glyph glyph-name="afii10099" horiz-adv-x="1008" unicode="ђ" d="M254 670q39 57 84 105t94 83.5t101.5 55.5t106.5 20q64 0 110.5 -25t76.5 -69.5t44.5 -107t14.5 -137.5q0 -121 -24.5 -236.5t-72 -230t-117.5 -230.5t-161 -238l-71 33q85 119 151 231t111 221t68 217t23 219q0 62 -11.5 113.5t-34.5 88t-58 57t-83 20.5q-47 0 -96 -24 t-96.5 -64.5t-91.5 -95.5t-81 -116l-69 -560h-92l138 1125h-186l8 74h187l31 256h93l-31 -256h359l-8 -74h-361z"/>
<glyph glyph-name="afii10100" horiz-adv-x="807" unicode="ѓ" d="M459 1010q52 0 98.5 -12.5t81.5 -37t55.5 -60.5t20.5 -84q0 -50 -25 -93.5t-66 -82.5t-93.5 -74t-107.5 -69t-107.5 -67t-93.5 -68t-66 -72.5t-25 -79.5q0 -32 15.5 -59.5t43.5 -47t67 -30.5t85 -11q57 0 106 15t87 33.5t63.5 33.5t36.5 15q18 0 27 -17l19 -28 q-74 -60 -166 -93.5t-186 -33.5q-68 0 -122 17t-91.5 46.5t-57.5 68.5t-20 84q0 51 25 96t66.5 85t94 76t107.5 70t107.5 67t94 67t66.5 70t25 76q0 54 -47 89.5t-130 35.5q-53 0 -97.5 -14t-79 -30.5t-57.5 -31t-34 -15.5q-5 0 -10.5 2.5t-10.5 10.5l-19 37 q31 27 69.5 48.5t80.5 36.5t85 23t85 8zM730 1431l-228 -253q-8 -10 -16 -13.5t-19 -3.5h-53l171 238q12 18 24 25t34 7h87z"/>
<glyph glyph-name="afii10101" horiz-adv-x="916" unicode="є" d="M801 182q-53 -59 -100.5 -97t-93 -60t-92.5 -30t-100 -8q-86 0 -149.5 29.5t-105.5 82.5t-63 126t-21 159q0 79 16.5 156.5t47.5 147.5t75 129t99 102t119.5 67.5t137.5 24.5q49 0 88.5 -9.5t72.5 -27t60 -42.5t50 -56l-25 -31q-4 -4 -9.5 -7t-12.5 -3q-10 0 -24 16 t-38.5 34.5t-63.5 34.5t-99 16q-71 0 -133 -30.5t-111.5 -84t-85.5 -125.5t-54 -154h483l-7 -67h-488q-2 -22 -3.5 -44t-1.5 -45q0 -69 15.5 -129t48 -103.5t82.5 -68.5t119 -25q53 0 95.5 11.5t75 29t57 37.5t43 37.5t32 29t24.5 11.5q12 0 21 -10z"/>
<glyph glyph-name="afii10102" horiz-adv-x="786" unicode="ѕ" d="M697 873q-8 -14 -22 -14q-10 0 -24.5 12.5t-39 28t-61.5 28t-92 12.5q-51 0 -96.5 -17t-79 -45.5t-53 -66t-19.5 -79.5q0 -41 19 -69t50.5 -48.5t71 -35.5t81.5 -30t81.5 -33.5t71 -44.5t50.5 -63.5t19 -90.5q0 -64 -25.5 -124t-73 -106.5t-114 -74.5t-148.5 -28 q-96 0 -161.5 33.5t-112.5 87.5l24 34q11 16 27 16q10 0 25 -16t41 -35.5t67 -35.5t103 -16q60 0 108.5 19.5t83 53.5t53.5 78.5t19 94.5q0 44 -19 74t-50.5 51.5t-71 36.5t-81.5 29.5t-81.5 32t-71 42.5t-50.5 61t-19 88q0 58 25 111.5t70 95t107.5 66t136.5 24.5 q84 0 145.5 -26t109.5 -78z"/>
<glyph glyph-name="afii10103" horiz-adv-x="423" unicode="і" d="M379 1338q0 -18 -7.5 -33.5t-19.5 -27.5t-27.5 -19t-31.5 -7q-17 0 -32 7t-26 19t-18 27.5t-7 33.5t7 34t18.5 28.5t26.5 19.5t32 7q16 0 31.5 -7t27.5 -19t19 -28.5t7 -34.5zM306 995l-121 -995h-93l121 995h93z"/>
<glyph glyph-name="afii10104" horiz-adv-x="423" unicode="ї" d="M306 995l-121 -995h-93l121 995h93zM509 1284q0 -16 -7 -30.5t-18 -25.5t-26 -17.5t-31 -6.5q-17 0 -32 6.5t-26 17.5t-17.5 25.5t-6.5 30.5q0 34 24 58.5t58 24.5q16 0 31 -6.5t26 -18t18 -26.5t7 -32zM252 1284q0 -16 -7 -30.5t-18.5 -25.5t-26.5 -17.5t-31 -6.5 q-17 0 -31.5 6.5t-26 17.5t-18 25.5t-6.5 30.5q0 17 6.5 32t18 26.5t26 18t31.5 6.5q16 0 31 -6.5t26.5 -18t18.5 -26.5t7 -32z"/>
<glyph glyph-name="afii10105" horiz-adv-x="422" unicode="ј" d="M380 1338q0 -18 -7 -33.5t-19 -27.5t-27.5 -19t-31.5 -7q-17 0 -32 7t-26.5 19t-18.5 27.5t-7 33.5t7 34t18.5 28.5t26.5 19.5t32 7q16 0 31.5 -7t27.5 -19t19 -28.5t7 -34.5zM306 995l-138 -1122q-6 -52 -26 -96t-51.5 -76.5t-75 -51t-96.5 -18.5q-29 0 -50 5t-40 16 l10 48q4 9 9 10.5t12.5 0t19 -4t29.5 -2.5q74 0 114.5 44t51.5 125l138 1122h93z"/>
<glyph glyph-name="afii10106" horiz-adv-x="1570" unicode="љ" d="M906 434q29 47 68.5 88.5t85 72t95 48.5t98.5 18q55 0 96.5 -18t70 -50.5t43 -76.5t14.5 -95q0 -85 -37.5 -163.5t-99.5 -138.5t-143.5 -96t-169.5 -36q-65 0 -112.5 17t-78 46.5t-42.5 69.5q-8 27 -9 58q0 15 2 30l87 714h-40q-92 0 -161.5 -21.5t-122.5 -69.5 t-91.5 -124.5t-68.5 -187.5q-38 -150 -75.5 -251.5t-79.5 -164t-90.5 -89t-108.5 -26.5q-30 0 -42.5 5.5t-11.5 17.5l7 52h33q49 0 86 25.5t68.5 81t60.5 142.5t62 211q34 128 80.5 218t112.5 146.5t154 82t206 25.5h123zM879 202q-1 -9 -1 -17q0 -21 7 -41q10 -26 32 -45.5 t56 -31t79 -11.5q64 0 125 30t107.5 79.5t75 113t28.5 130.5q0 36 -8.5 69t-27.5 58.5t-50 40.5t-75 15q-56 0 -113.5 -29t-105.5 -76t-82 -106t-41 -120z"/>
<glyph glyph-name="afii10107" horiz-adv-x="1512" unicode="њ" d="M848 434q29 47 68.5 88.5t85 72t95 48.5t98.5 18q55 0 96.5 -18t70 -50.5t43 -76.5t14.5 -95q0 -85 -37.5 -163.5t-99.5 -138.5t-143.5 -96t-169.5 -36q-65 0 -112.5 17t-78 46.5t-42.5 69.5q-8 27 -9 58q0 15 2 30l35 289h-529l-60 -497h-94l120 995h94l-51 -426h529 l52 426h92zM821 202q-1 -9 -1 -17q0 -21 7 -41q10 -26 32 -45.5t56 -31t79 -11.5q64 0 125 30t107.5 79.5t75 113t28.5 130.5q0 36 -8.5 69t-27.5 58.5t-50 40.5t-75 15q-56 0 -113.5 -29t-105.5 -76t-82 -106t-41 -120z"/>
<glyph glyph-name="afii10108" horiz-adv-x="1030" unicode="ћ" d="M258 686q41 75 89.5 133t101.5 98.5t109.5 61.5t112.5 21q64 0 110.5 -25t73.5 -73t35 -118q4 -30 4 -64q0 -44 -6 -94l-74 -626h-94l74 626q5 46 5 85q0 83 -24 134q-36 76 -136 76q-54 0 -109 -27.5t-107.5 -78t-99.5 -122.5t-84 -162l-64 -531h-94l140 1157h-167l8 64 h167l28 234h94l-28 -234h243l-6 -34q-5 -30 -39 -30h-206z"/>
<glyph glyph-name="afii10109" horiz-adv-x="904" unicode="ќ" d="M672 877q42 58 83 89.5t100 31.5h42l-9 -48q-3 -14 -16 -18.5t-31 -10t-39.5 -17t-42.5 -40.5l-194 -249q-14 -19 -27 -33.5t-28 -25.5t-32.5 -19t-39.5 -13q50 -10 83.5 -39t56.5 -77l218 -408h-54q-25 0 -38.5 8.5t-21.5 24.5l-193 354q-21 42 -55.5 69.5t-81.5 27.5 l-124 -21l-56 -463h-91l120 995h91l-56 -467l119 22q42 8 69 25t52 49zM809 1431l-228 -253q-8 -10 -16 -13.5t-19 -3.5h-53l171 238q12 18 24 25t34 7h87z"/>
<glyph glyph-name="uni045D" horiz-adv-x="1032" unicode="ѝ" d="M925 995l-120 -995h-44q-19 0 -27.5 10t-8.5 27l30 283q-41 -79 -90 -141t-103.5 -104.5t-113 -65t-116.5 -22.5q-128 1 -183 99q-39 70 -39 181q0 44 6 95l75 633h94l-75 -633q-5 -46 -5 -85q0 -83 24 -135q36 -76 135 -76q55 0 111.5 28t109.5 80.5t100 126t83 165.5 l63 529h94zM505 1431q22 0 32.5 -7t18.5 -25l117 -238h-50q-11 0 -18.5 3.5t-12.5 13.5l-172 253h85z"/>
<glyph glyph-name="afii10110" horiz-adv-x="929" unicode="ў" d="M944 995l-691 -1319q-14 -28 -41 -28h-67l210 390l-267 957h74q14 0 21 -6.5t9 -17.5l210 -774q4 -15 5.5 -30t3.5 -30q6 15 13 30l14 30l401 777q5 11 14 16t18 5h73zM544 1223q84 0 126 45.5t53 146.5h49q11 1 16 -9q4 -7 4 -16q0 -4 -1 -8q-11 -96 -75 -154t-178 -58 q-115 0 -165 58q-41 48 -41 121q0 16 2 33q2 14 8.5 23.5t17.5 9.5h50q-3 -28 -3 -51q0 -62 23 -96q32 -46 114 -45z"/>
<glyph glyph-name="afii10193" horiz-adv-x="1032" unicode="џ" d="M925 995l-120 -995h-44q-19 0 -27.5 10t-8.5 27l30 283q-65 -125 -149 -206t-176 -111l-40 -327q-2 -15 -10.5 -23t-22.5 -8h-54l42 342h-13q-128 1 -183 99q-39 70 -39 181q0 44 6 95l75 633h94l-75 -633q-5 -46 -5 -85q0 -83 24 -135q36 -76 135 -76q55 0 111.5 28 t109.5 80.5t100 126t83 165.5l63 529h94z"/>
<glyph glyph-name="uni0460" horiz-adv-x="1998" unicode="Ѡ" d="M1251 1318q27 24 56.5 44.5t62.5 35.5t71.5 23t84.5 8q99 0 170 -43.5t116.5 -118.5t66.5 -175t21 -214q0 -215 -44.5 -381.5t-124 -280.5t-188 -173t-236.5 -59q-120 0 -210.5 52t-149.5 139q-81 -87 -184.5 -139t-224.5 -52q-95 0 -171 39t-129 113t-82 182.5 t-29 248.5q0 113 14.5 221t43.5 203.5t74 176t106 138.5t138.5 90.5t172.5 32.5q45 0 81.5 -8t66 -23t53.5 -35.5t45 -44.5l-26 -45q-6 -8 -11.5 -11t-12.5 -3q-9 0 -20.5 13.5t-33 29t-55.5 29t-88 13.5q-108 0 -192 -57t-141 -160t-86.5 -245.5t-29.5 -313.5 q0 -122 24 -215.5t67.5 -156.5t105 -95t137.5 -32q52 0 100.5 13t92 36.5t81.5 55t70 68.5l69 555h100l-69 -553q22 -38 52.5 -70t69 -55t83.5 -36.5t98 -13.5q101 0 191 49t157.5 149t107 251.5t39.5 356.5q0 105 -18.5 191.5t-55.5 148t-93 95.5t-130 34q-54 0 -91 -13.5 t-62.5 -29t-40.5 -29t-24 -13.5q-7 0 -11.5 3t-8.5 11z"/>
<glyph glyph-name="uni0461" horiz-adv-x="1425" unicode="ѡ" d="M1310 995q3 -20 5 -45t4 -51.5t3 -53t1 -48.5q0 -129 -26.5 -242t-75 -211.5t-117.5 -183.5t-153 -160h-56q-9 0 -14.5 4t-12.5 12q-33 38 -61 89t-50.5 110t-38 123.5t-22.5 129.5q-23 -65 -54.5 -129.5t-69 -123.5t-78.5 -110t-84 -90q-8 -8 -13 -11.5t-13 -3.5h-58 q-112 125 -164 288q-36 113 -35 241q0 57 7 117l43 349h59q16 0 22.5 -10t5.5 -22l-39 -309q-7 -61 -7 -117q0 -107 26 -199q40 -140 137 -253q54 49 103 116.5t88 144t66 156.5t36 155l41 338h59q16 0 22.5 -10t5.5 -22l-38 -304q-5 -44 -5 -89q1 -34 3 -66 q6 -80 26.5 -156t53 -144t76.5 -120q67 64 124.5 136t99.5 157t66 184t24 217q0 72 -7 119.5t-7 64.5q0 14 7.5 23.5t20.5 9.5h64z"/>
<glyph glyph-name="afii10146" horiz-adv-x="1318" unicode="Ѣ" d="M829 774q99 0 172.5 -22.5t122.5 -64t73 -100.5t24 -133q0 -105 -33 -189t-96 -143t-154 -90.5t-206 -31.5h-400l134 1091h-348l10 77h348l30 247h99l-30 -247h428l-9 -77h-428l-39 -317h302zM742 79q93 0 163.5 24.5t118.5 71t72.5 114t24.5 153.5q0 124 -75 188.5 t-228 64.5h-301l-75 -616h300z"/>
<glyph glyph-name="afii10194" horiz-adv-x="1030" unicode="ѣ" d="M361 434q29 47 68.5 88.5t85 72t95 48.5t98.5 18q55 0 96.5 -18t70 -50.5t43 -76.5t14.5 -95q0 -85 -37.5 -163.5t-99.5 -138.5t-143.5 -96t-169.5 -36q-65 0 -112.5 17t-77.5 46q-32 30 -44 70q-8 27 -8 58q0 15 2 30l87 715h-263l9 72h264l37 305h92l-37 -305h306 l-9 -72h-306l-26 -211h-1zM334 202q-1 -9 -1 -17q0 -21 7 -41q10 -26 32 -45.5t56 -31t79 -11.5q64 0 125 30t107.5 79.5t75 113t28.5 130.5q0 36 -8.5 69t-27.5 58.5t-50 40.5t-75 15q-56 0 -113.5 -29t-105.5 -76t-82 -106t-41 -120z"/>
<glyph glyph-name="uni0464" horiz-adv-x="1755" unicode="Ѥ" d="M658 763q23 151 84.5 274.5t152 211t206.5 135t248 47.5q129 0 222.5 -45t164.5 -127l-36 -43q-9 -12 -25 -12q-11 0 -32 22t-59.5 48.5t-98 48.5t-147.5 22q-109 0 -205.5 -40t-172.5 -115t-128 -183t-72 -244h666l-10 -77h-665q-3 -41 -3 -84q0 -123 31 -222t86.5 -168 t133.5 -106t171 -37q66 0 119 10t98.5 30t86.5 49.5t83 68.5q5 4 10 6.5t10 2.5q10 0 16 -7l34 -41q-45 -47 -95 -84.5t-108 -64t-125 -41t-144 -14.5q-117 0 -211 44t-160.5 124t-102 192t-35.5 249q0 24 1 47t3 46h-343l-84 -686h-100l174 1415h100l-80 -652h341z"/>
<glyph glyph-name="uni0465" horiz-adv-x="1246" unicode="ѥ" d="M1168 866q-5 -5 -10 -8.5t-13 -3.5q-10 0 -25 13t-40.5 29t-64 29t-94.5 13q-70 0 -130.5 -28.5t-107.5 -80.5t-80 -125t-47 -161h476l-9 -69h-476q-1 -16 -1.5 -32t-0.5 -33q0 -82 18 -147t52.5 -110t84 -69t111.5 -24q61 0 105.5 16.5t76 36.5t51.5 36.5t31 16.5 q8 0 11.5 -2.5t8.5 -9.5l18 -28q-24 -26 -58.5 -51t-76.5 -44.5t-90 -31t-97 -11.5q-77 0 -140 29t-107 83t-68 131t-24 173q0 36 3 71h-228l-57 -474h-90l122 995h89l-55 -452h227q17 102 58 187.5t101 148t136.5 97.5t164.5 35t156.5 -31t114.5 -84z"/>
<glyph glyph-name="uni0466" horiz-adv-x="1237" unicode="Ѧ" d="M1139 0h-80q-14 0 -22 7.5t-10 18.5l-161 642h-194l-82 -668h-95l82 668h-190l-319 -642q-5 -11 -15 -18.5t-24 -7.5h-79l721 1415h94zM848 741l-124 492q-5 18 -9.5 40t-7.5 47q-10 -25 -20 -47.5t-19 -40.5l-244 -491h424z"/>
<glyph glyph-name="uni0467" horiz-adv-x="979" unicode="ѧ" d="M875 0h-72q-12 0 -18.5 6t-9.5 16l-122 429h-141l-55 -451h-84l55 451h-138l-227 -429q-4 -9 -13 -15.5t-21 -6.5h-71l539 996h84zM635 517l-92 323q-4 15 -8 33.5t-7 39.5q-8 -21 -16 -40t-16 -34l-171 -322h310z"/>
<glyph glyph-name="uni0468" horiz-adv-x="1774" unicode="Ѩ" d="M1676 0h-80q-14 0 -21.5 7.5t-10.5 18.5l-161 642h-193l-83 -668h-95l82 668h-190l-319 -642q-5 -11 -15.5 -18.5t-23.5 -7.5h-79l340 668h-522l-82 -668h-100l174 1415h100l-83 -674h551l343 674h94zM1385 741l-124 492q-5 18 -9.5 40t-8.5 48q-9 -26 -19 -48t-20 -41 l-244 -491h425z"/>
<glyph glyph-name="uni0469" horiz-adv-x="1384" unicode="ѩ" d="M1280 0h-72q-22 0 -27 22l-121 429h-141l-56 -451h-84l55 451h-138l-227 -429q-3 -9 -12.5 -15.5t-22.5 -6.5h-71l244 451h-382l-55 -451h-90l122 996h90l-59 -479h410l259 479h85zM1041 517l-91 323q-5 15 -9 33.5t-7 39.5q-8 -21 -16.5 -40t-16.5 -34l-170 -322h310z "/>
<glyph glyph-name="uni046A" horiz-adv-x="1449" unicode="Ѫ" d="M907 760q79 0 132 -16t89 -48.5t57.5 -82t37.5 -117.5l114 -496h-78q-14 0 -22.5 7.5t-11.5 18.5l-99 459q-12 58 -27.5 96.5t-41 62t-65 33.5t-99.5 10h-109l-85 -687h-95l85 687h-107q-60 0 -102 -10t-73.5 -33.5t-56.5 -62t-52 -96.5l-212 -459q-5 -11 -15 -18.5 t-24 -7.5h-79l236 496q33 68 67 117.5t77.5 82t100.5 48.5t135 16h60l-421 655h1206l-581 -655h59zM689 843q22 -32 35.5 -55.5t18.5 -49.5q11 26 30 49.5t49 55.5l437 498h-884z"/>
<glyph glyph-name="uni046B" horiz-adv-x="1131" unicode="ѫ" d="M691 541q52 0 90.5 -11.5t67 -36t48 -62t33.5 -89.5l90 -342h-71q-12 0 -19.5 6.5t-10.5 15.5l-75 310q-10 43 -24 71t-33.5 44t-46.5 22t-63 6h-84l-1 -1l-58 -474h-84l58 475h-82q-36 0 -64.5 -6t-52 -22t-44 -44t-41.5 -71l-152 -310q-5 -9 -14 -15.5t-21 -6.5h-71 l174 342q27 52 55.5 89.5t63 62t76 36t93.5 11.5h34l-315 454h936l-428 -454h36zM510 610q18 -28 30 -47t16 -41q10 22 26.5 41t41.5 47l303 320h-641z"/>
<glyph glyph-name="uni046C" horiz-adv-x="1980" unicode="Ѭ" d="M1440 760q79 0 132 -16t88.5 -48.5t57 -82t37.5 -117.5l115 -496h-78q-14 0 -22.5 7.5t-11.5 18.5l-100 459q-12 58 -27.5 96.5t-41 62t-65 33.5t-99.5 10h-109l-85 -687h-95l85 687h-121q-42 0 -79 -10t-70 -33.5t-62.5 -62.5t-56.5 -96l-214 -459q-5 -11 -15.5 -18.5 t-24.5 -7.5h-78l234 491q35 74 85.5 122.5t113.5 73.5h-626l-84 -687h-100l174 1415h100l-81 -655h860l-420 655h1206l-582 -655h60zM1222 843q22 -32 35 -55.5t18 -49.5q11 26 30.5 49.5t48.5 55.5l437 498h-883z"/>
<glyph glyph-name="uni046D" horiz-adv-x="1535" unicode="ѭ" d="M1095 541q52 0 91 -11.5t67.5 -36t47.5 -62t33 -89.5l91 -342h-71q-12 0 -20 6.5t-10 15.5l-75 310q-11 43 -24.5 71t-33 44t-46.5 22t-63 6h-85l-58 -475h-84l58 475h-92q-27 0 -52.5 -6.5t-49.5 -22.5t-46.5 -44t-43.5 -70l-154 -310q-4 -9 -13 -15.5t-21 -6.5h-71 l174 343q25 51 60 83t77 49h-453l-58 -475h-90l122 996h90l-56 -455h631l-315 454h936l-429 -454h36zM915 610q19 -29 30.5 -48t15.5 -42q9 23 25.5 42t42.5 48l302 320h-640z"/>
<glyph glyph-name="uni046E" horiz-adv-x="1021" unicode="Ѯ" d="M620 -415q3 31 -1 52t-19 34t-41.5 18.5t-67.5 5.5q-24 0 -45.5 -1.5t-44 -3.5t-49.5 -3.5t-62 -1.5q-90 0 -154.5 12.5t-105 37.5t-59.5 60.5t-19 82.5q0 111 65 167t185 56q29 0 55.5 -3t52.5 -6.5t52.5 -6.5t55.5 -3q84 0 152.5 28t117.5 77.5t75.5 115.5t26.5 143 q0 58 -19 108t-55.5 86.5t-91 57t-125.5 20.5h-172l11 84h173q61 0 118.5 20t101.5 59t71 95t27 128q0 52 -19 96.5t-55 77t-88 50.5t-119 18q-84 0 -142.5 -19t-98 -41.5t-63 -41.5t-36.5 -19q-15 0 -23 17l-18 44q81 71 174.5 106.5t213.5 35.5q87 0 156 -23.5 t116.5 -65.5t72.5 -99t25 -124q0 -68 -20.5 -124.5t-56 -101.5t-83 -77.5t-102.5 -51.5q105 -35 163 -116.5t58 -193.5q0 -92 -33.5 -174t-96.5 -143.5t-154 -98t-206 -36.5q-33 0 -59.5 3t-50.5 6.5t-46.5 6.5t-45.5 3q-75 0 -110.5 -33.5t-35.5 -98.5q0 -29 12.5 -52 t40.5 -39t74 -24.5t114 -8.5q67 0 117 5t99 5t82.5 -8.5t54 -24.5t29 -38t8.5 -49q0 -35 -6.5 -51t-25.5 -16h-25z"/>
<glyph glyph-name="uni046F" horiz-adv-x="812" unicode="ѯ" d="M700 1196q-24 0 -44 -13t-38 -34l-126 -145q55 -9 95.5 -31.5t67.5 -52.5t40 -65.5t13 -72.5q0 -35 -12.5 -73t-40 -73t-71.5 -63t-107 -42q51 -12 88 -34.5t61.5 -51.5t36 -64.5t11.5 -72.5q0 -67 -27 -125.5t-76.5 -101.5t-118.5 -67.5t-153 -24.5q-49 0 -87 6.5 t-70 6.5q-57 0 -89 -31t-32 -91q0 -62 46 -94t128 -32q21 0 46 1.5t51.5 3.5t53.5 3.5t51 1.5q50 0 83.5 -8.5t54 -24t29 -37.5t8.5 -49q0 -35 -7 -51t-25 -16h-25q3 31 -1.5 52t-19.5 34t-41.5 18.5t-66.5 5.5q-49 0 -100 -5t-95 -5q-54 0 -99.5 12.5t-78.5 37t-51 60.5 t-18 83q0 43 13.5 80t39 64t63 42t86.5 15q35 0 72 -6.5t82 -6.5q66 0 119 19t90 52t57 78t20 98q0 42 -16 76.5t-47.5 59.5t-79 39t-109.5 14h-104l8 64h104q63 0 115 16t88.5 44t57 66.5t20.5 83.5q0 32 -13 62.5t-40 54t-69 38t-100 14.5q-61 0 -105 -13.5t-74.5 -29 t-49 -29t-27.5 -13.5q-12 0 -20 14l-17 34q53 47 124.5 77t164.5 33l-157 228h55q22 0 31 -16l114 -165q5 -8 10 -19q7 10 16 19l112 136q26 32 53.5 43t53.5 11q14 0 24 -2.5t18 -5.5l-5 -44h-22z"/>
<glyph glyph-name="uni0470" horiz-adv-x="1470" unicode="Ѱ" d="M1462 1415l-62 -500q-16 -128 -66 -230t-132 -175t-194.5 -113t-253.5 -43l-43 -354h-101l44 354q-140 3 -242.5 43.5t-166.5 112.5q-64 74 -89 176q-16 64 -16 137q0 44 6 92l62 500h65q17 0 24.5 -11t5.5 -26l-57 -463q-6 -48 -6 -91q0 -59 11 -109q19 -88 71 -149.5 t137 -95t204 -36.5l121 981h100l-120 -981q120 3 213.5 36.5t160.5 95t107.5 149.5t54.5 200l57 463q2 15 12 26t27 11h66z"/>
<glyph glyph-name="uni0471" horiz-adv-x="1357" unicode="ѱ" d="M1231 995q2 -32 4 -67.5t3.5 -70.5t2.5 -67.5t1 -58.5q0 -141 -24 -250t-65.5 -190t-98 -137t-122 -91.5t-137.5 -52.5t-143 -21l-42 -341h-93l42 340q-111 5 -198.5 37t-144.5 89.5t-82 141.5q-16 55 -16 120q0 34 4 70l67 549h63q13 0 20 -12t5 -26l-63 -511 q-3 -28 -3 -53q-1 -53 13 -99q20 -68 67 -118t117 -79t160 -35l166 1353h93l-166 -1352q58 4 116.5 18.5t112.5 44t101 76.5t81.5 115t54 160t19.5 212q0 32 -1.5 67t-3 70.5t-3.5 69.5t-3 64q1 19 10.5 27t20.5 8h65z"/>
<glyph glyph-name="afii10147" horiz-adv-x="1473" unicode="Ѳ" d="M838 1431q125 0 225.5 -44.5t171 -125.5t108.5 -194.5t38 -250.5q0 -187 -54.5 -340t-151.5 -262t-229 -169t-286 -60q-124 0 -224 44.5t-170.5 125.5t-108.5 194t-38 250q0 186 55 339.5t151.5 263t228 169.5t284.5 60zM1277 763q1 13 1 25.5v25.5q0 123 -31.5 221.5 t-90.5 168t-142.5 107t-186.5 37.5q-114 0 -213.5 -40.5t-177.5 -116t-131 -184t-73 -244.5h1045zM223 686q-3 -41 -3 -84q0 -123 32 -221.5t91 -167.5t142 -106.5t186 -37.5q119 0 221.5 42.5t181 122t130 194t67.5 258.5h-1048z"/>
<glyph glyph-name="afii10195" horiz-adv-x="1026" unicode="ѳ" d="M569 1010q80 0 145.5 -28.5t112 -81t72 -128t25.5 -169.5q0 -121 -36.5 -232t-101.5 -196.5t-155 -136.5t-198 -51q-80 0 -145.5 28t-112 81t-72 128.5t-25.5 171.5q0 121 36 232t101.5 196t155.5 135.5t198 50.5zM827 531q2 18 3 36.5t1 36.5q0 160 -71 247.5t-199 87.5 q-74 0 -136.5 -32.5t-111 -88t-82 -129.5t-49.5 -158h645zM173 467q-3 -36 -3 -72q0 -161 71.5 -249.5t199.5 -88.5q73 0 135.5 32.5t111 88.5t82 130.5t48.5 158.5h-645z"/>
<glyph glyph-name="afii10148" horiz-adv-x="1261" unicode="Ѵ" d="M1047 1262q35 79 90 117.5t124 38.5q45 0 56.5 -6.5t9.5 -23.5l-6 -52h-50q-39 0 -75.5 -29t-60.5 -80l-558 -1227h-89l-364 1415h76q14 0 22.5 -7.5t10.5 -18.5l294 -1181q5 -21 10 -45t8 -50q9 26 18.5 50t20.5 45z"/>
<glyph glyph-name="afii10196" horiz-adv-x="971" unicode="ѵ" d="M739 861q20 46 42 74t46 43.5t49 20.5t50 5q31 0 42.5 -5.5t10.5 -10.5l-7 -52h-25q-43 0 -72.5 -21t-52.5 -69l-400 -846h-82l-256 995h73q14 0 21.5 -7.5t9.5 -16.5l195 -789q9 -39 12 -76q7 19 14 37.5t15 38.5z"/>
<glyph glyph-name="uni0476" horiz-adv-x="1261" unicode="Ѷ" d="M1047 1262q35 79 90 117.5t124 38.5q45 0 56.5 -6.5t9.5 -23.5l-6 -52h-50q-39 0 -75.5 -29t-60.5 -80l-558 -1227h-89l-364 1415h76q14 0 22.5 -7.5t10.5 -18.5l294 -1181q5 -21 10 -45t8 -50q9 26 18.5 50t20.5 45zM398 1810q22 0 34 -7.5t23 -24.5l146 -236h-48 q-11 0 -18.5 4t-16.5 13l-189 251h69zM703 1810q22 0 34.5 -7.5t20.5 -24.5l121 -236h-44q-11 0 -17.5 4t-14.5 13l-159 251h59z"/>
<glyph glyph-name="uni0477" horiz-adv-x="971" unicode="ѷ" d="M739 861q20 46 42 74t46 43.5t49 20.5t50 5q31 0 42.5 -5.5t10.5 -10.5l-7 -52h-25q-43 0 -72.5 -21t-52.5 -69l-400 -846h-82l-256 995h73q14 0 21.5 -7.5t9.5 -16.5l195 -789q9 -39 12 -76q7 19 14 37.5t15 38.5zM264 1431q23 0 32 -7.5t19 -24.5l141 -238h-43 q-11 0 -18.5 3.5t-14.5 13.5l-184 253h68zM507 1431q23 0 33.5 -7t18.5 -25l112 -238h-38q-11 0 -19 3.5t-14 13.5l-154 253h61z"/>
<glyph glyph-name="uni0478" horiz-adv-x="2383" unicode="Ѹ" d="M1278 814q0 123 -31.5 221.5t-90.5 168t-142.5 107t-186.5 37.5q-130 0 -241 -52t-192.5 -149t-127.5 -235t-46 -310q0 -123 32 -221.5t91 -167.5t142 -106.5t186 -37.5q132 0 243 51.5t192 148.5t126.5 234.5t45.5 310.5zM1381 816q0 -187 -54.5 -340t-151.5 -262 t-229 -169t-286 -60q-124 0 -224 44.5t-170.5 125.5t-108.5 194t-38 250q0 186 55 339.5t151.5 263t228 169.5t284.5 60q125 0 225.5 -44.5t171 -125.5t108.5 -194.5t38 -250.5zM2397 995l-691 -1319q-14 -28 -41 -28h-67l210 390l-267 957h74q14 0 21 -6.5t9 -17.5 l210 -774q4 -15 5.5 -30t3.5 -30q6 15 13 30l14 30l401 777q5 11 14 16t18 5h73z"/>
<glyph glyph-name="uni0479" horiz-adv-x="1935" unicode="ѹ" d="M433 -13q-80 0 -145.5 28t-112 81t-72 128.5t-25.5 171.5q0 121 36 232t101.5 196t155.5 135.5t198 50.5q80 0 145.5 -28t112 -81t72 -128.5t25.5 -169.5q0 -121 -36.5 -232t-101.5 -196.5t-155 -136.5t-198 -51zM441 62q87 0 158.5 45.5t122.5 121t78.5 173t27.5 200.5 q0 160 -71 246t-197 86q-87 0 -158.5 -45t-122 -119.5t-78.5 -171.5t-28 -202q0 -159 70.5 -246.5t197.5 -87.5zM1950 995l-691 -1319q-14 -28 -41 -28h-67l210 390l-267 957h74q14 0 21 -6.5t9 -17.5l210 -774q4 -15 5.5 -30t3.5 -30q6 15 13 30l14 30l401 777q5 11 14 16 t18 5h73z"/>
<glyph glyph-name="uni047A" horiz-adv-x="1535" unicode="Ѻ" d="M1442 816q0 -176 -48.5 -321.5t-134.5 -253.5t-204.5 -173t-259.5 -79q-12 -29 -39.5 -48.5t-60.5 -19.5q-32 0 -59 19t-39 48q-110 11 -198.5 60t-150.5 128.5t-95.5 187t-33.5 235.5q0 175 49 321.5t135.5 255t205.5 173.5t259 79q12 29 39 48t59 19t59.5 -19t40.5 -48 q110 -12 198.5 -61t150 -129t94.5 -187t33 -235zM792 72q120 12 220.5 68.5t173 152t113 227.5t40.5 294q0 111 -26 202.5t-75 160t-118.5 111t-156.5 55.5q-14 -26 -40 -43.5t-57 -17.5q-32 0 -58 18t-39 46q-119 -12 -219.5 -69t-174 -153t-114.5 -228t-41 -294 q0 -112 26.5 -203.5t76 -159.5t120 -110.5t157.5 -54.5q14 26 39 43t56 17t57.5 -17.5t39.5 -44.5z"/>
<glyph glyph-name="uni047B" horiz-adv-x="1110" unicode="ѻ" d="M1008 603q0 -115 -33 -221t-92 -190t-141.5 -138.5t-181.5 -64.5q-12 -29 -39.5 -48.5t-60.5 -19.5q-34 0 -61.5 20.5t-38.5 52.5q-65 12 -117 45t-89 84.5t-56.5 120t-19.5 152.5q0 114 32.5 220.5t92 190t142 137.5t181.5 65q12 30 39 49.5t60 19.5q35 0 63 -21t39 -53 q64 -12 116 -45t89 -84.5t56.5 -120t19.5 -151.5zM561 64q80 10 145 58.5t110.5 122.5t70.5 166.5t25 190.5q0 133 -49.5 216t-140.5 108q-14 -26 -40 -43.5t-57 -17.5q-33 0 -60 19.5t-39 49.5q-80 -9 -145 -57.5t-111.5 -122.5t-71.5 -167t-25 -191q0 -134 50 -216.5 t141 -108.5q13 28 38.5 45.5t57.5 17.5q33 0 61 -20t40 -50z"/>
<glyph glyph-name="uni047C" horiz-adv-x="1998" unicode="Ѽ" d="M1251 1318q27 24 56.5 44.5t62.5 35.5t71.5 23t84.5 8q99 0 170 -43.5t116.5 -118.5t67 -175t21.5 -214q0 -215 -45 -381.5t-124.5 -280.5t-188 -173t-236.5 -59q-120 0 -210 52t-150 139q-81 -87 -184.5 -139t-223.5 -52q-95 0 -171 39t-129.5 113t-82.5 182.5 t-29 248.5q0 113 14.5 221t43.5 203.5t74 176t106 138.5t138.5 90.5t172.5 32.5q45 0 81.5 -8t66 -23t54 -35.5t45.5 -44.5l-27 -45q-6 -8 -11 -11t-12 -3q-9 0 -21 13.5t-33.5 29t-55.5 29t-87 13.5q-108 0 -192 -57t-141.5 -160t-87 -245.5t-29.5 -313.5q0 -122 24 -215.5 t67.5 -156.5t105 -95t137.5 -32q59 0 111.5 16.5t97.5 44.5t83 66t67 82h81q19 -44 47.5 -82t66.5 -66t86.5 -44.5t107.5 -16.5q101 0 190.5 49t157 149t107 251.5t39.5 356.5q0 105 -18.5 191.5t-55.5 148t-93 95.5t-130 34q-54 0 -91 -13.5t-62.5 -29t-40 -29t-23.5 -13.5 q-13 0 -21 14zM1068 1408q1 11 23 14q31 8 50 32.5t27 73.5q-14 -9 -32 -9q-29 0 -43 15t-14 38q0 33 21 53.5t53 20.5q29 0 46 -19t17 -59q0 -32 -9 -64t-27.5 -58.5t-47 -42.5t-67.5 -16zM1547 1649q-53 0 -98 11.5t-85 28.5t-76 37t-70.5 37t-69.5 28.5t-72 11.5 q-70 0 -115.5 -41.5t-54.5 -111.5h-61q6 46 25 84.5t49 66t70.5 42.5t88.5 15q43 0 81.5 -11.5t74.5 -29t72 -37.5t74 -37.5t81 -29t93 -11.5z"/>
<glyph glyph-name="uni047D" horiz-adv-x="1448" unicode="ѽ" d="M872 926q40 35 87 57.5t114 22.5q71 0 121.5 -31t82.5 -84t47 -123.5t15 -150.5q0 -149 -31 -266t-86.5 -197.5t-132.5 -122.5t-170 -42q-84 0 -147 35t-107 95q-58 -60 -130 -95t-156 -35q-68 0 -122.5 27.5t-92.5 80t-58 128.5t-20 173q0 119 22.5 229t70 194 t121 134.5t175.5 50.5q67 0 108 -22.5t72 -57.5l-24 -43q-9 -12 -20 -12q-7 0 -16 9t-23.5 20t-37.5 20t-59 9q-72 0 -128 -38.5t-94.5 -108.5t-58.5 -168.5t-20 -217.5q0 -161 60.5 -246t162.5 -85q40 0 75.5 11t66 30.5t56 46.5t45.5 58h72q12 -31 31 -58t45 -46.5 t58.5 -30.5t72.5 -11q69 0 129.5 33.5t105.5 101.5t70.5 171t25.5 242q0 72 -12 130.5t-36.5 99.5t-61.5 63.5t-86 22.5q-36 0 -61 -9t-42.5 -20t-28.5 -20t-18 -9q-10 0 -18 12zM741 1036q1 6 6.5 9t16.5 5q32 8 50.5 32.5t26.5 72.5q-14 -8 -31 -8q-29 0 -43 15t-14 38 q0 33 20.5 53.5t54.5 20.5q28 0 44.5 -19.5t16.5 -59.5q0 -31 -8.5 -63t-27 -58.5t-47 -42.5t-67.5 -16zM1221 1277q-53 0 -98.5 11.5t-85 28.5t-75.5 37t-70.5 37t-69.5 28.5t-72 11.5q-35 0 -64.5 -11t-51.5 -31t-36 -48.5t-18 -62.5h-62q6 46 25 84.5t49.5 65.5t71 42 t88.5 15q43 0 81 -11.5t74.5 -28.5t72 -37.5t74 -37.5t81.5 -28.5t93 -11.5z"/>
<glyph glyph-name="uni047E" horiz-adv-x="1998" unicode="Ѿ" d="M1251 1318q27 24 56.5 44.5t62.5 35.5t71.5 23t84.5 8q99 0 170 -43.5t116.5 -118.5t66.5 -175t21 -214q0 -215 -44.5 -381.5t-124 -280.5t-188 -173t-236.5 -59q-120 0 -210.5 52t-149.5 139q-81 -87 -184.5 -139t-224.5 -52q-95 0 -171 39t-129 113t-82 182.5 t-29 248.5q0 113 14.5 221t43.5 203.5t74 176t106 138.5t138.5 90.5t172.5 32.5q45 0 81.5 -8t66 -23t53.5 -35.5t45 -44.5l-26 -45q-6 -8 -11.5 -11t-12.5 -3q-9 0 -20.5 13.5t-33 29t-55.5 29t-88 13.5q-108 0 -192 -57t-141 -160t-86.5 -245.5t-29.5 -313.5 q0 -122 24 -215.5t67.5 -156.5t105 -95t137.5 -32q52 0 100.5 13t92 36.5t81.5 55t70 68.5l69 555h100l-69 -553q22 -38 52.5 -70t69 -55t83.5 -36.5t98 -13.5q101 0 191 49t157.5 149t107 251.5t39.5 356.5q0 105 -18.5 191.5t-55.5 148t-93 95.5t-130 34q-54 0 -91 -13.5 t-62.5 -29t-40.5 -29t-24 -13.5q-7 0 -11.5 3t-8.5 11zM1525 1737q-1 -7 -2.5 -12t-3.5 -13l-37 -127q-5 -13 -15 -13h-1q-11 0 -12 13l-6 99h-272l-30 -99q-5 -13 -15 -13v0q-10 0 -13 13l-6 99h-272l-29 -99q-5 -13 -15 -13h-1q-11 0 -12 13l-8 127q-1 5 -1 9l1 16h750z "/>
<glyph glyph-name="uni047F" horiz-adv-x="1425" unicode="ѿ" d="M1310 995q3 -20 5 -45t4 -51.5t3 -53t1 -48.5q0 -129 -26.5 -242t-75 -211.5t-117.5 -183.5t-153 -160h-56q-9 0 -14.5 4t-12.5 12q-33 38 -61 89t-50.5 110t-38 123.5t-22.5 129.5q-23 -65 -54.5 -129.5t-69 -123.5t-78.5 -110t-84 -90q-8 -8 -13 -11.5t-13 -3.5h-58 q-112 125 -164 288q-36 113 -35 241q0 57 7 117l43 349h59q16 0 22.5 -10t5.5 -22l-39 -309q-7 -61 -7 -117q0 -107 26 -199q40 -140 137 -253q54 49 103 116.5t88 144t66 156.5t36 155l41 338h59q16 0 22.5 -10t5.5 -22l-38 -304q-5 -44 -5 -89q1 -34 3 -66 q6 -80 26.5 -156t53 -144t76.5 -120q67 64 124.5 136t99.5 157t66 184t24 217q0 72 -7 119.5t-7 64.5q0 14 7.5 23.5t20.5 9.5h64zM1190 1317q-1 -7 -2.5 -12t-3.5 -13l-37 -127q-5 -13 -15 -13h-1q-11 0 -12 13l-6 99h-272l-30 -99q-5 -13 -15 -13v0q-10 0 -13 13l-6 99 h-272l-29 -99q-5 -13 -15 -13h-1q-11 0 -12 13l-8 127q-1 5 -1 9l1 16h750z"/>
<glyph glyph-name="uni0480" horiz-adv-x="1196" unicode="Ҁ" d="M757 -8q-26 -3 -55.5 -5t-49.5 -2q-122 0 -221 44t-168.5 124.5t-107 193.5t-37.5 251q0 185 56.5 338.5t155 263.5t232 170.5t288.5 60.5q73 0 131 -11.5t106.5 -33.5t89 -55t78.5 -75l-32 -40q-11 -12 -26 -12q-9 0 -20.5 10.5t-29 26t-43 34t-62 34t-85.5 26 t-113 10.5q-132 0 -246 -52t-198 -148t-132 -233t-48 -307q0 -124 33 -223.5t92 -169t141 -107t181 -37.5q35 0 60 3t43 6t30 6t22 3h29l-50 -410q-5 -31 -33 -31h-54z"/>
</font>
</defs>
</svg>
